G04 #@! TF.GenerationSoftware,KiCad,Pcbnew,5.1.2*
G04 #@! TF.CreationDate,2019-05-31T13:26:26+02:00*
G04 #@! TF.ProjectId,solarcampi,736f6c61-7263-4616-9d70-692e6b696361,1.0.8*
G04 #@! TF.SameCoordinates,Original*
G04 #@! TF.FileFunction,Paste,Bot*
G04 #@! TF.FilePolarity,Positive*
%FSLAX46Y46*%
G04 Gerber Fmt 4.6, Leading zero omitted, Abs format (unit mm)*
G04 Created by KiCad (PCBNEW 5.1.2) date 2019-05-31 13:26:26*
%MOMM*%
%LPD*%
G04 APERTURE LIST*
%ADD10R,1.600000X0.550000*%
%ADD11R,0.550000X1.600000*%
%ADD12R,1.400000X0.300000*%
%ADD13C,0.100000*%
%ADD14C,1.150000*%
%ADD15R,0.900000X0.800000*%
%ADD16R,0.800000X0.900000*%
G04 APERTURE END LIST*
D10*
X100262000Y-60192000D03*
X100262000Y-60992000D03*
X100262000Y-61792000D03*
X100262000Y-62592000D03*
X100262000Y-63392000D03*
X100262000Y-64192000D03*
X100262000Y-64992000D03*
X100262000Y-65792000D03*
D11*
X98812000Y-67242000D03*
X98012000Y-67242000D03*
X97212000Y-67242000D03*
X96412000Y-67242000D03*
X95612000Y-67242000D03*
X94812000Y-67242000D03*
X94012000Y-67242000D03*
X93212000Y-67242000D03*
D10*
X91762000Y-65792000D03*
X91762000Y-64992000D03*
X91762000Y-64192000D03*
X91762000Y-63392000D03*
X91762000Y-62592000D03*
X91762000Y-61792000D03*
X91762000Y-60992000D03*
X91762000Y-60192000D03*
D11*
X93212000Y-58742000D03*
X94012000Y-58742000D03*
X94812000Y-58742000D03*
X95612000Y-58742000D03*
X96412000Y-58742000D03*
X97212000Y-58742000D03*
X98012000Y-58742000D03*
X98812000Y-58742000D03*
D12*
X83144000Y-60468000D03*
X83144000Y-60968000D03*
X83144000Y-61468000D03*
X83144000Y-61968000D03*
X83144000Y-62468000D03*
X87544000Y-62468000D03*
X87544000Y-61968000D03*
X87544000Y-61468000D03*
X87544000Y-60968000D03*
X87544000Y-60468000D03*
D13*
G36*
X106138505Y-56821204D02*
G01*
X106162773Y-56824804D01*
X106186572Y-56830765D01*
X106209671Y-56839030D01*
X106231850Y-56849520D01*
X106252893Y-56862132D01*
X106272599Y-56876747D01*
X106290777Y-56893223D01*
X106307253Y-56911401D01*
X106321868Y-56931107D01*
X106334480Y-56952150D01*
X106344970Y-56974329D01*
X106353235Y-56997428D01*
X106359196Y-57021227D01*
X106362796Y-57045495D01*
X106364000Y-57069999D01*
X106364000Y-57720001D01*
X106362796Y-57744505D01*
X106359196Y-57768773D01*
X106353235Y-57792572D01*
X106344970Y-57815671D01*
X106334480Y-57837850D01*
X106321868Y-57858893D01*
X106307253Y-57878599D01*
X106290777Y-57896777D01*
X106272599Y-57913253D01*
X106252893Y-57927868D01*
X106231850Y-57940480D01*
X106209671Y-57950970D01*
X106186572Y-57959235D01*
X106162773Y-57965196D01*
X106138505Y-57968796D01*
X106114001Y-57970000D01*
X105213999Y-57970000D01*
X105189495Y-57968796D01*
X105165227Y-57965196D01*
X105141428Y-57959235D01*
X105118329Y-57950970D01*
X105096150Y-57940480D01*
X105075107Y-57927868D01*
X105055401Y-57913253D01*
X105037223Y-57896777D01*
X105020747Y-57878599D01*
X105006132Y-57858893D01*
X104993520Y-57837850D01*
X104983030Y-57815671D01*
X104974765Y-57792572D01*
X104968804Y-57768773D01*
X104965204Y-57744505D01*
X104964000Y-57720001D01*
X104964000Y-57069999D01*
X104965204Y-57045495D01*
X104968804Y-57021227D01*
X104974765Y-56997428D01*
X104983030Y-56974329D01*
X104993520Y-56952150D01*
X105006132Y-56931107D01*
X105020747Y-56911401D01*
X105037223Y-56893223D01*
X105055401Y-56876747D01*
X105075107Y-56862132D01*
X105096150Y-56849520D01*
X105118329Y-56839030D01*
X105141428Y-56830765D01*
X105165227Y-56824804D01*
X105189495Y-56821204D01*
X105213999Y-56820000D01*
X106114001Y-56820000D01*
X106138505Y-56821204D01*
X106138505Y-56821204D01*
G37*
D14*
X105664000Y-57395000D03*
D13*
G36*
X106138505Y-58871204D02*
G01*
X106162773Y-58874804D01*
X106186572Y-58880765D01*
X106209671Y-58889030D01*
X106231850Y-58899520D01*
X106252893Y-58912132D01*
X106272599Y-58926747D01*
X106290777Y-58943223D01*
X106307253Y-58961401D01*
X106321868Y-58981107D01*
X106334480Y-59002150D01*
X106344970Y-59024329D01*
X106353235Y-59047428D01*
X106359196Y-59071227D01*
X106362796Y-59095495D01*
X106364000Y-59119999D01*
X106364000Y-59770001D01*
X106362796Y-59794505D01*
X106359196Y-59818773D01*
X106353235Y-59842572D01*
X106344970Y-59865671D01*
X106334480Y-59887850D01*
X106321868Y-59908893D01*
X106307253Y-59928599D01*
X106290777Y-59946777D01*
X106272599Y-59963253D01*
X106252893Y-59977868D01*
X106231850Y-59990480D01*
X106209671Y-60000970D01*
X106186572Y-60009235D01*
X106162773Y-60015196D01*
X106138505Y-60018796D01*
X106114001Y-60020000D01*
X105213999Y-60020000D01*
X105189495Y-60018796D01*
X105165227Y-60015196D01*
X105141428Y-60009235D01*
X105118329Y-60000970D01*
X105096150Y-59990480D01*
X105075107Y-59977868D01*
X105055401Y-59963253D01*
X105037223Y-59946777D01*
X105020747Y-59928599D01*
X105006132Y-59908893D01*
X104993520Y-59887850D01*
X104983030Y-59865671D01*
X104974765Y-59842572D01*
X104968804Y-59818773D01*
X104965204Y-59794505D01*
X104964000Y-59770001D01*
X104964000Y-59119999D01*
X104965204Y-59095495D01*
X104968804Y-59071227D01*
X104974765Y-59047428D01*
X104983030Y-59024329D01*
X104993520Y-59002150D01*
X105006132Y-58981107D01*
X105020747Y-58961401D01*
X105037223Y-58943223D01*
X105055401Y-58926747D01*
X105075107Y-58912132D01*
X105096150Y-58899520D01*
X105118329Y-58889030D01*
X105141428Y-58880765D01*
X105165227Y-58874804D01*
X105189495Y-58871204D01*
X105213999Y-58870000D01*
X106114001Y-58870000D01*
X106138505Y-58871204D01*
X106138505Y-58871204D01*
G37*
D14*
X105664000Y-59445000D03*
D15*
X87392000Y-70866000D03*
X89392000Y-71816000D03*
X89392000Y-69916000D03*
D16*
X84328000Y-68850000D03*
X83378000Y-70850000D03*
X85278000Y-70850000D03*
D13*
G36*
X103852505Y-58880204D02*
G01*
X103876773Y-58883804D01*
X103900572Y-58889765D01*
X103923671Y-58898030D01*
X103945850Y-58908520D01*
X103966893Y-58921132D01*
X103986599Y-58935747D01*
X104004777Y-58952223D01*
X104021253Y-58970401D01*
X104035868Y-58990107D01*
X104048480Y-59011150D01*
X104058970Y-59033329D01*
X104067235Y-59056428D01*
X104073196Y-59080227D01*
X104076796Y-59104495D01*
X104078000Y-59128999D01*
X104078000Y-59779001D01*
X104076796Y-59803505D01*
X104073196Y-59827773D01*
X104067235Y-59851572D01*
X104058970Y-59874671D01*
X104048480Y-59896850D01*
X104035868Y-59917893D01*
X104021253Y-59937599D01*
X104004777Y-59955777D01*
X103986599Y-59972253D01*
X103966893Y-59986868D01*
X103945850Y-59999480D01*
X103923671Y-60009970D01*
X103900572Y-60018235D01*
X103876773Y-60024196D01*
X103852505Y-60027796D01*
X103828001Y-60029000D01*
X102927999Y-60029000D01*
X102903495Y-60027796D01*
X102879227Y-60024196D01*
X102855428Y-60018235D01*
X102832329Y-60009970D01*
X102810150Y-59999480D01*
X102789107Y-59986868D01*
X102769401Y-59972253D01*
X102751223Y-59955777D01*
X102734747Y-59937599D01*
X102720132Y-59917893D01*
X102707520Y-59896850D01*
X102697030Y-59874671D01*
X102688765Y-59851572D01*
X102682804Y-59827773D01*
X102679204Y-59803505D01*
X102678000Y-59779001D01*
X102678000Y-59128999D01*
X102679204Y-59104495D01*
X102682804Y-59080227D01*
X102688765Y-59056428D01*
X102697030Y-59033329D01*
X102707520Y-59011150D01*
X102720132Y-58990107D01*
X102734747Y-58970401D01*
X102751223Y-58952223D01*
X102769401Y-58935747D01*
X102789107Y-58921132D01*
X102810150Y-58908520D01*
X102832329Y-58898030D01*
X102855428Y-58889765D01*
X102879227Y-58883804D01*
X102903495Y-58880204D01*
X102927999Y-58879000D01*
X103828001Y-58879000D01*
X103852505Y-58880204D01*
X103852505Y-58880204D01*
G37*
D14*
X103378000Y-59454000D03*
D13*
G36*
X103852505Y-56830204D02*
G01*
X103876773Y-56833804D01*
X103900572Y-56839765D01*
X103923671Y-56848030D01*
X103945850Y-56858520D01*
X103966893Y-56871132D01*
X103986599Y-56885747D01*
X104004777Y-56902223D01*
X104021253Y-56920401D01*
X104035868Y-56940107D01*
X104048480Y-56961150D01*
X104058970Y-56983329D01*
X104067235Y-57006428D01*
X104073196Y-57030227D01*
X104076796Y-57054495D01*
X104078000Y-57078999D01*
X104078000Y-57729001D01*
X104076796Y-57753505D01*
X104073196Y-57777773D01*
X104067235Y-57801572D01*
X104058970Y-57824671D01*
X104048480Y-57846850D01*
X104035868Y-57867893D01*
X104021253Y-57887599D01*
X104004777Y-57905777D01*
X103986599Y-57922253D01*
X103966893Y-57936868D01*
X103945850Y-57949480D01*
X103923671Y-57959970D01*
X103900572Y-57968235D01*
X103876773Y-57974196D01*
X103852505Y-57977796D01*
X103828001Y-57979000D01*
X102927999Y-57979000D01*
X102903495Y-57977796D01*
X102879227Y-57974196D01*
X102855428Y-57968235D01*
X102832329Y-57959970D01*
X102810150Y-57949480D01*
X102789107Y-57936868D01*
X102769401Y-57922253D01*
X102751223Y-57905777D01*
X102734747Y-57887599D01*
X102720132Y-57867893D01*
X102707520Y-57846850D01*
X102697030Y-57824671D01*
X102688765Y-57801572D01*
X102682804Y-57777773D01*
X102679204Y-57753505D01*
X102678000Y-57729001D01*
X102678000Y-57078999D01*
X102679204Y-57054495D01*
X102682804Y-57030227D01*
X102688765Y-57006428D01*
X102697030Y-56983329D01*
X102707520Y-56961150D01*
X102720132Y-56940107D01*
X102734747Y-56920401D01*
X102751223Y-56902223D01*
X102769401Y-56885747D01*
X102789107Y-56871132D01*
X102810150Y-56858520D01*
X102832329Y-56848030D01*
X102855428Y-56839765D01*
X102879227Y-56833804D01*
X102903495Y-56830204D01*
X102927999Y-56829000D01*
X103828001Y-56829000D01*
X103852505Y-56830204D01*
X103852505Y-56830204D01*
G37*
D14*
X103378000Y-57404000D03*
D13*
G36*
X79976505Y-59869204D02*
G01*
X80000773Y-59872804D01*
X80024572Y-59878765D01*
X80047671Y-59887030D01*
X80069850Y-59897520D01*
X80090893Y-59910132D01*
X80110599Y-59924747D01*
X80128777Y-59941223D01*
X80145253Y-59959401D01*
X80159868Y-59979107D01*
X80172480Y-60000150D01*
X80182970Y-60022329D01*
X80191235Y-60045428D01*
X80197196Y-60069227D01*
X80200796Y-60093495D01*
X80202000Y-60117999D01*
X80202000Y-60768001D01*
X80200796Y-60792505D01*
X80197196Y-60816773D01*
X80191235Y-60840572D01*
X80182970Y-60863671D01*
X80172480Y-60885850D01*
X80159868Y-60906893D01*
X80145253Y-60926599D01*
X80128777Y-60944777D01*
X80110599Y-60961253D01*
X80090893Y-60975868D01*
X80069850Y-60988480D01*
X80047671Y-60998970D01*
X80024572Y-61007235D01*
X80000773Y-61013196D01*
X79976505Y-61016796D01*
X79952001Y-61018000D01*
X79051999Y-61018000D01*
X79027495Y-61016796D01*
X79003227Y-61013196D01*
X78979428Y-61007235D01*
X78956329Y-60998970D01*
X78934150Y-60988480D01*
X78913107Y-60975868D01*
X78893401Y-60961253D01*
X78875223Y-60944777D01*
X78858747Y-60926599D01*
X78844132Y-60906893D01*
X78831520Y-60885850D01*
X78821030Y-60863671D01*
X78812765Y-60840572D01*
X78806804Y-60816773D01*
X78803204Y-60792505D01*
X78802000Y-60768001D01*
X78802000Y-60117999D01*
X78803204Y-60093495D01*
X78806804Y-60069227D01*
X78812765Y-60045428D01*
X78821030Y-60022329D01*
X78831520Y-60000150D01*
X78844132Y-59979107D01*
X78858747Y-59959401D01*
X78875223Y-59941223D01*
X78893401Y-59924747D01*
X78913107Y-59910132D01*
X78934150Y-59897520D01*
X78956329Y-59887030D01*
X78979428Y-59878765D01*
X79003227Y-59872804D01*
X79027495Y-59869204D01*
X79051999Y-59868000D01*
X79952001Y-59868000D01*
X79976505Y-59869204D01*
X79976505Y-59869204D01*
G37*
D14*
X79502000Y-60443000D03*
D13*
G36*
X79976505Y-61919204D02*
G01*
X80000773Y-61922804D01*
X80024572Y-61928765D01*
X80047671Y-61937030D01*
X80069850Y-61947520D01*
X80090893Y-61960132D01*
X80110599Y-61974747D01*
X80128777Y-61991223D01*
X80145253Y-62009401D01*
X80159868Y-62029107D01*
X80172480Y-62050150D01*
X80182970Y-62072329D01*
X80191235Y-62095428D01*
X80197196Y-62119227D01*
X80200796Y-62143495D01*
X80202000Y-62167999D01*
X80202000Y-62818001D01*
X80200796Y-62842505D01*
X80197196Y-62866773D01*
X80191235Y-62890572D01*
X80182970Y-62913671D01*
X80172480Y-62935850D01*
X80159868Y-62956893D01*
X80145253Y-62976599D01*
X80128777Y-62994777D01*
X80110599Y-63011253D01*
X80090893Y-63025868D01*
X80069850Y-63038480D01*
X80047671Y-63048970D01*
X80024572Y-63057235D01*
X80000773Y-63063196D01*
X79976505Y-63066796D01*
X79952001Y-63068000D01*
X79051999Y-63068000D01*
X79027495Y-63066796D01*
X79003227Y-63063196D01*
X78979428Y-63057235D01*
X78956329Y-63048970D01*
X78934150Y-63038480D01*
X78913107Y-63025868D01*
X78893401Y-63011253D01*
X78875223Y-62994777D01*
X78858747Y-62976599D01*
X78844132Y-62956893D01*
X78831520Y-62935850D01*
X78821030Y-62913671D01*
X78812765Y-62890572D01*
X78806804Y-62866773D01*
X78803204Y-62842505D01*
X78802000Y-62818001D01*
X78802000Y-62167999D01*
X78803204Y-62143495D01*
X78806804Y-62119227D01*
X78812765Y-62095428D01*
X78821030Y-62072329D01*
X78831520Y-62050150D01*
X78844132Y-62029107D01*
X78858747Y-62009401D01*
X78875223Y-61991223D01*
X78893401Y-61974747D01*
X78913107Y-61960132D01*
X78934150Y-61947520D01*
X78956329Y-61937030D01*
X78979428Y-61928765D01*
X79003227Y-61922804D01*
X79027495Y-61919204D01*
X79051999Y-61918000D01*
X79952001Y-61918000D01*
X79976505Y-61919204D01*
X79976505Y-61919204D01*
G37*
D14*
X79502000Y-62493000D03*
D13*
G36*
X103852505Y-61393204D02*
G01*
X103876773Y-61396804D01*
X103900572Y-61402765D01*
X103923671Y-61411030D01*
X103945850Y-61421520D01*
X103966893Y-61434132D01*
X103986599Y-61448747D01*
X104004777Y-61465223D01*
X104021253Y-61483401D01*
X104035868Y-61503107D01*
X104048480Y-61524150D01*
X104058970Y-61546329D01*
X104067235Y-61569428D01*
X104073196Y-61593227D01*
X104076796Y-61617495D01*
X104078000Y-61641999D01*
X104078000Y-62292001D01*
X104076796Y-62316505D01*
X104073196Y-62340773D01*
X104067235Y-62364572D01*
X104058970Y-62387671D01*
X104048480Y-62409850D01*
X104035868Y-62430893D01*
X104021253Y-62450599D01*
X104004777Y-62468777D01*
X103986599Y-62485253D01*
X103966893Y-62499868D01*
X103945850Y-62512480D01*
X103923671Y-62522970D01*
X103900572Y-62531235D01*
X103876773Y-62537196D01*
X103852505Y-62540796D01*
X103828001Y-62542000D01*
X102927999Y-62542000D01*
X102903495Y-62540796D01*
X102879227Y-62537196D01*
X102855428Y-62531235D01*
X102832329Y-62522970D01*
X102810150Y-62512480D01*
X102789107Y-62499868D01*
X102769401Y-62485253D01*
X102751223Y-62468777D01*
X102734747Y-62450599D01*
X102720132Y-62430893D01*
X102707520Y-62409850D01*
X102697030Y-62387671D01*
X102688765Y-62364572D01*
X102682804Y-62340773D01*
X102679204Y-62316505D01*
X102678000Y-62292001D01*
X102678000Y-61641999D01*
X102679204Y-61617495D01*
X102682804Y-61593227D01*
X102688765Y-61569428D01*
X102697030Y-61546329D01*
X102707520Y-61524150D01*
X102720132Y-61503107D01*
X102734747Y-61483401D01*
X102751223Y-61465223D01*
X102769401Y-61448747D01*
X102789107Y-61434132D01*
X102810150Y-61421520D01*
X102832329Y-61411030D01*
X102855428Y-61402765D01*
X102879227Y-61396804D01*
X102903495Y-61393204D01*
X102927999Y-61392000D01*
X103828001Y-61392000D01*
X103852505Y-61393204D01*
X103852505Y-61393204D01*
G37*
D14*
X103378000Y-61967000D03*
D13*
G36*
X103852505Y-63443204D02*
G01*
X103876773Y-63446804D01*
X103900572Y-63452765D01*
X103923671Y-63461030D01*
X103945850Y-63471520D01*
X103966893Y-63484132D01*
X103986599Y-63498747D01*
X104004777Y-63515223D01*
X104021253Y-63533401D01*
X104035868Y-63553107D01*
X104048480Y-63574150D01*
X104058970Y-63596329D01*
X104067235Y-63619428D01*
X104073196Y-63643227D01*
X104076796Y-63667495D01*
X104078000Y-63691999D01*
X104078000Y-64342001D01*
X104076796Y-64366505D01*
X104073196Y-64390773D01*
X104067235Y-64414572D01*
X104058970Y-64437671D01*
X104048480Y-64459850D01*
X104035868Y-64480893D01*
X104021253Y-64500599D01*
X104004777Y-64518777D01*
X103986599Y-64535253D01*
X103966893Y-64549868D01*
X103945850Y-64562480D01*
X103923671Y-64572970D01*
X103900572Y-64581235D01*
X103876773Y-64587196D01*
X103852505Y-64590796D01*
X103828001Y-64592000D01*
X102927999Y-64592000D01*
X102903495Y-64590796D01*
X102879227Y-64587196D01*
X102855428Y-64581235D01*
X102832329Y-64572970D01*
X102810150Y-64562480D01*
X102789107Y-64549868D01*
X102769401Y-64535253D01*
X102751223Y-64518777D01*
X102734747Y-64500599D01*
X102720132Y-64480893D01*
X102707520Y-64459850D01*
X102697030Y-64437671D01*
X102688765Y-64414572D01*
X102682804Y-64390773D01*
X102679204Y-64366505D01*
X102678000Y-64342001D01*
X102678000Y-63691999D01*
X102679204Y-63667495D01*
X102682804Y-63643227D01*
X102688765Y-63619428D01*
X102697030Y-63596329D01*
X102707520Y-63574150D01*
X102720132Y-63553107D01*
X102734747Y-63533401D01*
X102751223Y-63515223D01*
X102769401Y-63498747D01*
X102789107Y-63484132D01*
X102810150Y-63471520D01*
X102832329Y-63461030D01*
X102855428Y-63452765D01*
X102879227Y-63446804D01*
X102903495Y-63443204D01*
X102927999Y-63442000D01*
X103828001Y-63442000D01*
X103852505Y-63443204D01*
X103852505Y-63443204D01*
G37*
D14*
X103378000Y-64017000D03*
D13*
G36*
X77182505Y-62935204D02*
G01*
X77206773Y-62938804D01*
X77230572Y-62944765D01*
X77253671Y-62953030D01*
X77275850Y-62963520D01*
X77296893Y-62976132D01*
X77316599Y-62990747D01*
X77334777Y-63007223D01*
X77351253Y-63025401D01*
X77365868Y-63045107D01*
X77378480Y-63066150D01*
X77388970Y-63088329D01*
X77397235Y-63111428D01*
X77403196Y-63135227D01*
X77406796Y-63159495D01*
X77408000Y-63183999D01*
X77408000Y-63834001D01*
X77406796Y-63858505D01*
X77403196Y-63882773D01*
X77397235Y-63906572D01*
X77388970Y-63929671D01*
X77378480Y-63951850D01*
X77365868Y-63972893D01*
X77351253Y-63992599D01*
X77334777Y-64010777D01*
X77316599Y-64027253D01*
X77296893Y-64041868D01*
X77275850Y-64054480D01*
X77253671Y-64064970D01*
X77230572Y-64073235D01*
X77206773Y-64079196D01*
X77182505Y-64082796D01*
X77158001Y-64084000D01*
X76257999Y-64084000D01*
X76233495Y-64082796D01*
X76209227Y-64079196D01*
X76185428Y-64073235D01*
X76162329Y-64064970D01*
X76140150Y-64054480D01*
X76119107Y-64041868D01*
X76099401Y-64027253D01*
X76081223Y-64010777D01*
X76064747Y-63992599D01*
X76050132Y-63972893D01*
X76037520Y-63951850D01*
X76027030Y-63929671D01*
X76018765Y-63906572D01*
X76012804Y-63882773D01*
X76009204Y-63858505D01*
X76008000Y-63834001D01*
X76008000Y-63183999D01*
X76009204Y-63159495D01*
X76012804Y-63135227D01*
X76018765Y-63111428D01*
X76027030Y-63088329D01*
X76037520Y-63066150D01*
X76050132Y-63045107D01*
X76064747Y-63025401D01*
X76081223Y-63007223D01*
X76099401Y-62990747D01*
X76119107Y-62976132D01*
X76140150Y-62963520D01*
X76162329Y-62953030D01*
X76185428Y-62944765D01*
X76209227Y-62938804D01*
X76233495Y-62935204D01*
X76257999Y-62934000D01*
X77158001Y-62934000D01*
X77182505Y-62935204D01*
X77182505Y-62935204D01*
G37*
D14*
X76708000Y-63509000D03*
D13*
G36*
X77182505Y-60885204D02*
G01*
X77206773Y-60888804D01*
X77230572Y-60894765D01*
X77253671Y-60903030D01*
X77275850Y-60913520D01*
X77296893Y-60926132D01*
X77316599Y-60940747D01*
X77334777Y-60957223D01*
X77351253Y-60975401D01*
X77365868Y-60995107D01*
X77378480Y-61016150D01*
X77388970Y-61038329D01*
X77397235Y-61061428D01*
X77403196Y-61085227D01*
X77406796Y-61109495D01*
X77408000Y-61133999D01*
X77408000Y-61784001D01*
X77406796Y-61808505D01*
X77403196Y-61832773D01*
X77397235Y-61856572D01*
X77388970Y-61879671D01*
X77378480Y-61901850D01*
X77365868Y-61922893D01*
X77351253Y-61942599D01*
X77334777Y-61960777D01*
X77316599Y-61977253D01*
X77296893Y-61991868D01*
X77275850Y-62004480D01*
X77253671Y-62014970D01*
X77230572Y-62023235D01*
X77206773Y-62029196D01*
X77182505Y-62032796D01*
X77158001Y-62034000D01*
X76257999Y-62034000D01*
X76233495Y-62032796D01*
X76209227Y-62029196D01*
X76185428Y-62023235D01*
X76162329Y-62014970D01*
X76140150Y-62004480D01*
X76119107Y-61991868D01*
X76099401Y-61977253D01*
X76081223Y-61960777D01*
X76064747Y-61942599D01*
X76050132Y-61922893D01*
X76037520Y-61901850D01*
X76027030Y-61879671D01*
X76018765Y-61856572D01*
X76012804Y-61832773D01*
X76009204Y-61808505D01*
X76008000Y-61784001D01*
X76008000Y-61133999D01*
X76009204Y-61109495D01*
X76012804Y-61085227D01*
X76018765Y-61061428D01*
X76027030Y-61038329D01*
X76037520Y-61016150D01*
X76050132Y-60995107D01*
X76064747Y-60975401D01*
X76081223Y-60957223D01*
X76099401Y-60940747D01*
X76119107Y-60926132D01*
X76140150Y-60913520D01*
X76162329Y-60903030D01*
X76185428Y-60894765D01*
X76209227Y-60888804D01*
X76233495Y-60885204D01*
X76257999Y-60884000D01*
X77158001Y-60884000D01*
X77182505Y-60885204D01*
X77182505Y-60885204D01*
G37*
D14*
X76708000Y-61459000D03*
M02*
