G04 #@! TF.GenerationSoftware,KiCad,Pcbnew,5.1.2*
G04 #@! TF.CreationDate,2019-05-31T13:26:26+02:00*
G04 #@! TF.ProjectId,solarcampi,736f6c61-7263-4616-9d70-692e6b696361,1.0.8*
G04 #@! TF.SameCoordinates,Original*
G04 #@! TF.FileFunction,Legend,Top*
G04 #@! TF.FilePolarity,Positive*
%FSLAX46Y46*%
G04 Gerber Fmt 4.6, Leading zero omitted, Abs format (unit mm)*
G04 Created by KiCad (PCBNEW 5.1.2) date 2019-05-31 13:26:26*
%MOMM*%
%LPD*%
G04 APERTURE LIST*
%ADD10C,0.300000*%
%ADD11C,0.120000*%
%ADD12C,0.150000*%
%ADD13C,0.010000*%
G04 APERTURE END LIST*
D10*
X99612142Y-62243571D02*
X100469285Y-62243571D01*
X100040714Y-63743571D02*
X100040714Y-62243571D01*
X101183571Y-63743571D02*
X101040714Y-63672142D01*
X100969285Y-63600714D01*
X100897857Y-63457857D01*
X100897857Y-63029285D01*
X100969285Y-62886428D01*
X101040714Y-62815000D01*
X101183571Y-62743571D01*
X101397857Y-62743571D01*
X101540714Y-62815000D01*
X101612142Y-62886428D01*
X101683571Y-63029285D01*
X101683571Y-63457857D01*
X101612142Y-63600714D01*
X101540714Y-63672142D01*
X101397857Y-63743571D01*
X101183571Y-63743571D01*
X102326428Y-63743571D02*
X102326428Y-62243571D01*
X102326428Y-62815000D02*
X102469285Y-62743571D01*
X102755000Y-62743571D01*
X102897857Y-62815000D01*
X102969285Y-62886428D01*
X103040714Y-63029285D01*
X103040714Y-63457857D01*
X102969285Y-63600714D01*
X102897857Y-63672142D01*
X102755000Y-63743571D01*
X102469285Y-63743571D01*
X102326428Y-63672142D01*
X103683571Y-63743571D02*
X103683571Y-62743571D01*
X103683571Y-62243571D02*
X103612142Y-62315000D01*
X103683571Y-62386428D01*
X103755000Y-62315000D01*
X103683571Y-62243571D01*
X103683571Y-62386428D01*
X105040714Y-63743571D02*
X105040714Y-62957857D01*
X104969285Y-62815000D01*
X104826428Y-62743571D01*
X104540714Y-62743571D01*
X104397857Y-62815000D01*
X105040714Y-63672142D02*
X104897857Y-63743571D01*
X104540714Y-63743571D01*
X104397857Y-63672142D01*
X104326428Y-63529285D01*
X104326428Y-63386428D01*
X104397857Y-63243571D01*
X104540714Y-63172142D01*
X104897857Y-63172142D01*
X105040714Y-63100714D01*
X105683571Y-63672142D02*
X105826428Y-63743571D01*
X106112142Y-63743571D01*
X106255000Y-63672142D01*
X106326428Y-63529285D01*
X106326428Y-63457857D01*
X106255000Y-63315000D01*
X106112142Y-63243571D01*
X105897857Y-63243571D01*
X105755000Y-63172142D01*
X105683571Y-63029285D01*
X105683571Y-62957857D01*
X105755000Y-62815000D01*
X105897857Y-62743571D01*
X106112142Y-62743571D01*
X106255000Y-62815000D01*
X108112142Y-63743571D02*
X108112142Y-62243571D01*
X108612142Y-63315000D01*
X109112142Y-62243571D01*
X109112142Y-63743571D01*
X110469285Y-63743571D02*
X110469285Y-62957857D01*
X110397857Y-62815000D01*
X110255000Y-62743571D01*
X109969285Y-62743571D01*
X109826428Y-62815000D01*
X110469285Y-63672142D02*
X110326428Y-63743571D01*
X109969285Y-63743571D01*
X109826428Y-63672142D01*
X109755000Y-63529285D01*
X109755000Y-63386428D01*
X109826428Y-63243571D01*
X109969285Y-63172142D01*
X110326428Y-63172142D01*
X110469285Y-63100714D01*
X109826428Y-62243571D02*
X109897857Y-62315000D01*
X109826428Y-62386428D01*
X109755000Y-62315000D01*
X109826428Y-62243571D01*
X109826428Y-62386428D01*
X110397857Y-62243571D02*
X110469285Y-62315000D01*
X110397857Y-62386428D01*
X110326428Y-62315000D01*
X110397857Y-62243571D01*
X110397857Y-62386428D01*
X111826428Y-63743571D02*
X111826428Y-62243571D01*
X111826428Y-63672142D02*
X111683571Y-63743571D01*
X111397857Y-63743571D01*
X111255000Y-63672142D01*
X111183571Y-63600714D01*
X111112142Y-63457857D01*
X111112142Y-63029285D01*
X111183571Y-62886428D01*
X111255000Y-62815000D01*
X111397857Y-62743571D01*
X111683571Y-62743571D01*
X111826428Y-62815000D01*
X113112142Y-63672142D02*
X112969285Y-63743571D01*
X112683571Y-63743571D01*
X112540714Y-63672142D01*
X112469285Y-63529285D01*
X112469285Y-62957857D01*
X112540714Y-62815000D01*
X112683571Y-62743571D01*
X112969285Y-62743571D01*
X113112142Y-62815000D01*
X113183571Y-62957857D01*
X113183571Y-63100714D01*
X112469285Y-63243571D01*
X114040714Y-63743571D02*
X113897857Y-63672142D01*
X113826428Y-63529285D01*
X113826428Y-62243571D01*
X95755000Y-64793571D02*
X96612142Y-64793571D01*
X96183571Y-66293571D02*
X96183571Y-64793571D01*
X97326428Y-66293571D02*
X97183571Y-66222142D01*
X97112142Y-66150714D01*
X97040714Y-66007857D01*
X97040714Y-65579285D01*
X97112142Y-65436428D01*
X97183571Y-65365000D01*
X97326428Y-65293571D01*
X97540714Y-65293571D01*
X97683571Y-65365000D01*
X97755000Y-65436428D01*
X97826428Y-65579285D01*
X97826428Y-66007857D01*
X97755000Y-66150714D01*
X97683571Y-66222142D01*
X97540714Y-66293571D01*
X97326428Y-66293571D01*
X98469285Y-66293571D02*
X98469285Y-64793571D01*
X98469285Y-65365000D02*
X98612142Y-65293571D01*
X98897857Y-65293571D01*
X99040714Y-65365000D01*
X99112142Y-65436428D01*
X99183571Y-65579285D01*
X99183571Y-66007857D01*
X99112142Y-66150714D01*
X99040714Y-66222142D01*
X98897857Y-66293571D01*
X98612142Y-66293571D01*
X98469285Y-66222142D01*
X99826428Y-66293571D02*
X99826428Y-65293571D01*
X99826428Y-64793571D02*
X99755000Y-64865000D01*
X99826428Y-64936428D01*
X99897857Y-64865000D01*
X99826428Y-64793571D01*
X99826428Y-64936428D01*
X101183571Y-66293571D02*
X101183571Y-65507857D01*
X101112142Y-65365000D01*
X100969285Y-65293571D01*
X100683571Y-65293571D01*
X100540714Y-65365000D01*
X101183571Y-66222142D02*
X101040714Y-66293571D01*
X100683571Y-66293571D01*
X100540714Y-66222142D01*
X100469285Y-66079285D01*
X100469285Y-65936428D01*
X100540714Y-65793571D01*
X100683571Y-65722142D01*
X101040714Y-65722142D01*
X101183571Y-65650714D01*
X101826428Y-66222142D02*
X101969285Y-66293571D01*
X102255000Y-66293571D01*
X102397857Y-66222142D01*
X102469285Y-66079285D01*
X102469285Y-66007857D01*
X102397857Y-65865000D01*
X102255000Y-65793571D01*
X102040714Y-65793571D01*
X101897857Y-65722142D01*
X101826428Y-65579285D01*
X101826428Y-65507857D01*
X101897857Y-65365000D01*
X102040714Y-65293571D01*
X102255000Y-65293571D01*
X102397857Y-65365000D01*
X104183571Y-66222142D02*
X104397857Y-66293571D01*
X104755000Y-66293571D01*
X104897857Y-66222142D01*
X104969285Y-66150714D01*
X105040714Y-66007857D01*
X105040714Y-65865000D01*
X104969285Y-65722142D01*
X104897857Y-65650714D01*
X104755000Y-65579285D01*
X104469285Y-65507857D01*
X104326428Y-65436428D01*
X104255000Y-65365000D01*
X104183571Y-65222142D01*
X104183571Y-65079285D01*
X104255000Y-64936428D01*
X104326428Y-64865000D01*
X104469285Y-64793571D01*
X104826428Y-64793571D01*
X105040714Y-64865000D01*
X106326428Y-66222142D02*
X106183571Y-66293571D01*
X105897857Y-66293571D01*
X105755000Y-66222142D01*
X105683571Y-66150714D01*
X105612142Y-66007857D01*
X105612142Y-65579285D01*
X105683571Y-65436428D01*
X105755000Y-65365000D01*
X105897857Y-65293571D01*
X106183571Y-65293571D01*
X106326428Y-65365000D01*
X106969285Y-66293571D02*
X106969285Y-64793571D01*
X107612142Y-66293571D02*
X107612142Y-65507857D01*
X107540714Y-65365000D01*
X107397857Y-65293571D01*
X107183571Y-65293571D01*
X107040714Y-65365000D01*
X106969285Y-65436428D01*
X108326428Y-66293571D02*
X108326428Y-65293571D01*
X108326428Y-65579285D02*
X108397857Y-65436428D01*
X108469285Y-65365000D01*
X108612142Y-65293571D01*
X108755000Y-65293571D01*
X109897857Y-66293571D02*
X109897857Y-65507857D01*
X109826428Y-65365000D01*
X109683571Y-65293571D01*
X109397857Y-65293571D01*
X109255000Y-65365000D01*
X109897857Y-66222142D02*
X109755000Y-66293571D01*
X109397857Y-66293571D01*
X109255000Y-66222142D01*
X109183571Y-66079285D01*
X109183571Y-65936428D01*
X109255000Y-65793571D01*
X109397857Y-65722142D01*
X109755000Y-65722142D01*
X109897857Y-65650714D01*
X110612142Y-66293571D02*
X110612142Y-65293571D01*
X110612142Y-65436428D02*
X110683571Y-65365000D01*
X110826428Y-65293571D01*
X111040714Y-65293571D01*
X111183571Y-65365000D01*
X111255000Y-65507857D01*
X111255000Y-66293571D01*
X111255000Y-65507857D02*
X111326428Y-65365000D01*
X111469285Y-65293571D01*
X111683571Y-65293571D01*
X111826428Y-65365000D01*
X111897857Y-65507857D01*
X111897857Y-66293571D01*
X112612142Y-66293571D02*
X112612142Y-65293571D01*
X112612142Y-65436428D02*
X112683571Y-65365000D01*
X112826428Y-65293571D01*
X113040714Y-65293571D01*
X113183571Y-65365000D01*
X113255000Y-65507857D01*
X113255000Y-66293571D01*
X113255000Y-65507857D02*
X113326428Y-65365000D01*
X113469285Y-65293571D01*
X113683571Y-65293571D01*
X113826428Y-65365000D01*
X113897857Y-65507857D01*
X113897857Y-66293571D01*
X101372142Y-58542142D02*
X101586428Y-58613571D01*
X101943571Y-58613571D01*
X102086428Y-58542142D01*
X102157857Y-58470714D01*
X102229285Y-58327857D01*
X102229285Y-58185000D01*
X102157857Y-58042142D01*
X102086428Y-57970714D01*
X101943571Y-57899285D01*
X101657857Y-57827857D01*
X101515000Y-57756428D01*
X101443571Y-57685000D01*
X101372142Y-57542142D01*
X101372142Y-57399285D01*
X101443571Y-57256428D01*
X101515000Y-57185000D01*
X101657857Y-57113571D01*
X102015000Y-57113571D01*
X102229285Y-57185000D01*
X103086428Y-58613571D02*
X102943571Y-58542142D01*
X102872142Y-58470714D01*
X102800714Y-58327857D01*
X102800714Y-57899285D01*
X102872142Y-57756428D01*
X102943571Y-57685000D01*
X103086428Y-57613571D01*
X103300714Y-57613571D01*
X103443571Y-57685000D01*
X103515000Y-57756428D01*
X103586428Y-57899285D01*
X103586428Y-58327857D01*
X103515000Y-58470714D01*
X103443571Y-58542142D01*
X103300714Y-58613571D01*
X103086428Y-58613571D01*
X104443571Y-58613571D02*
X104300714Y-58542142D01*
X104229285Y-58399285D01*
X104229285Y-57113571D01*
X105657857Y-58613571D02*
X105657857Y-57827857D01*
X105586428Y-57685000D01*
X105443571Y-57613571D01*
X105157857Y-57613571D01*
X105015000Y-57685000D01*
X105657857Y-58542142D02*
X105515000Y-58613571D01*
X105157857Y-58613571D01*
X105015000Y-58542142D01*
X104943571Y-58399285D01*
X104943571Y-58256428D01*
X105015000Y-58113571D01*
X105157857Y-58042142D01*
X105515000Y-58042142D01*
X105657857Y-57970714D01*
X106372142Y-58613571D02*
X106372142Y-57613571D01*
X106372142Y-57899285D02*
X106443571Y-57756428D01*
X106515000Y-57685000D01*
X106657857Y-57613571D01*
X106800714Y-57613571D01*
X108157857Y-58470714D02*
X108086428Y-58542142D01*
X107872142Y-58613571D01*
X107729285Y-58613571D01*
X107515000Y-58542142D01*
X107372142Y-58399285D01*
X107300714Y-58256428D01*
X107229285Y-57970714D01*
X107229285Y-57756428D01*
X107300714Y-57470714D01*
X107372142Y-57327857D01*
X107515000Y-57185000D01*
X107729285Y-57113571D01*
X107872142Y-57113571D01*
X108086428Y-57185000D01*
X108157857Y-57256428D01*
X109443571Y-58613571D02*
X109443571Y-57827857D01*
X109372142Y-57685000D01*
X109229285Y-57613571D01*
X108943571Y-57613571D01*
X108800714Y-57685000D01*
X109443571Y-58542142D02*
X109300714Y-58613571D01*
X108943571Y-58613571D01*
X108800714Y-58542142D01*
X108729285Y-58399285D01*
X108729285Y-58256428D01*
X108800714Y-58113571D01*
X108943571Y-58042142D01*
X109300714Y-58042142D01*
X109443571Y-57970714D01*
X110157857Y-58613571D02*
X110157857Y-57613571D01*
X110157857Y-57756428D02*
X110229285Y-57685000D01*
X110372142Y-57613571D01*
X110586428Y-57613571D01*
X110729285Y-57685000D01*
X110800714Y-57827857D01*
X110800714Y-58613571D01*
X110800714Y-57827857D02*
X110872142Y-57685000D01*
X111015000Y-57613571D01*
X111229285Y-57613571D01*
X111372142Y-57685000D01*
X111443571Y-57827857D01*
X111443571Y-58613571D01*
X112157857Y-58613571D02*
X112157857Y-57113571D01*
X112729285Y-57113571D01*
X112872142Y-57185000D01*
X112943571Y-57256428D01*
X113015000Y-57399285D01*
X113015000Y-57613571D01*
X112943571Y-57756428D01*
X112872142Y-57827857D01*
X112729285Y-57899285D01*
X112157857Y-57899285D01*
X113657857Y-58613571D02*
X113657857Y-57613571D01*
X113657857Y-57113571D02*
X113586428Y-57185000D01*
X113657857Y-57256428D01*
X113729285Y-57185000D01*
X113657857Y-57113571D01*
X113657857Y-57256428D01*
X110015000Y-61163571D02*
X109515000Y-60449285D01*
X109157857Y-61163571D02*
X109157857Y-59663571D01*
X109729285Y-59663571D01*
X109872142Y-59735000D01*
X109943571Y-59806428D01*
X110015000Y-59949285D01*
X110015000Y-60163571D01*
X109943571Y-60306428D01*
X109872142Y-60377857D01*
X109729285Y-60449285D01*
X109157857Y-60449285D01*
X111229285Y-61092142D02*
X111086428Y-61163571D01*
X110800714Y-61163571D01*
X110657857Y-61092142D01*
X110586428Y-60949285D01*
X110586428Y-60377857D01*
X110657857Y-60235000D01*
X110800714Y-60163571D01*
X111086428Y-60163571D01*
X111229285Y-60235000D01*
X111300714Y-60377857D01*
X111300714Y-60520714D01*
X110586428Y-60663571D01*
X111800714Y-60163571D02*
X112157857Y-61163571D01*
X112515000Y-60163571D01*
X113015000Y-60735000D02*
X113729285Y-60735000D01*
X112872142Y-61163571D02*
X113372142Y-59663571D01*
X113872142Y-61163571D01*
X102607142Y-71030000D02*
X103321428Y-71030000D01*
X102464285Y-71458571D02*
X102964285Y-69958571D01*
X103464285Y-71458571D01*
X103750000Y-69958571D02*
X104250000Y-71458571D01*
X104750000Y-69958571D01*
X106107142Y-71458571D02*
X105607142Y-70744285D01*
X105250000Y-71458571D02*
X105250000Y-69958571D01*
X105821428Y-69958571D01*
X105964285Y-70030000D01*
X106035714Y-70101428D01*
X106107142Y-70244285D01*
X106107142Y-70458571D01*
X106035714Y-70601428D01*
X105964285Y-70672857D01*
X105821428Y-70744285D01*
X105250000Y-70744285D01*
X107892857Y-71458571D02*
X107892857Y-69958571D01*
X108535714Y-71387142D02*
X108750000Y-71458571D01*
X109107142Y-71458571D01*
X109250000Y-71387142D01*
X109321428Y-71315714D01*
X109392857Y-71172857D01*
X109392857Y-71030000D01*
X109321428Y-70887142D01*
X109250000Y-70815714D01*
X109107142Y-70744285D01*
X108821428Y-70672857D01*
X108678571Y-70601428D01*
X108607142Y-70530000D01*
X108535714Y-70387142D01*
X108535714Y-70244285D01*
X108607142Y-70101428D01*
X108678571Y-70030000D01*
X108821428Y-69958571D01*
X109178571Y-69958571D01*
X109392857Y-70030000D01*
X110035714Y-71458571D02*
X110035714Y-69958571D01*
X110607142Y-69958571D01*
X110750000Y-70030000D01*
X110821428Y-70101428D01*
X110892857Y-70244285D01*
X110892857Y-70458571D01*
X110821428Y-70601428D01*
X110750000Y-70672857D01*
X110607142Y-70744285D01*
X110035714Y-70744285D01*
D11*
X57912000Y-56642000D02*
X50292000Y-56642000D01*
X50292000Y-66802000D02*
X57912000Y-66802000D01*
X50292000Y-56642000D02*
X50292000Y-66802000D01*
X57912000Y-66802000D02*
X57912000Y-56642000D01*
X51562000Y-66802000D02*
X51562000Y-56642000D01*
D12*
X84582000Y-63754000D02*
X86360000Y-66040000D01*
X84582000Y-73152000D02*
X84582000Y-63754000D01*
X84582000Y-63754000D02*
X82804000Y-66040000D01*
X78486000Y-68580000D02*
X78486000Y-68072000D01*
X78486000Y-68072000D02*
X82550000Y-68072000D01*
X82550000Y-68072000D02*
X82550000Y-68580000D01*
X82550000Y-68580000D02*
X83058000Y-68580000D01*
X83058000Y-68580000D02*
X83058000Y-68834000D01*
X83058000Y-68834000D02*
X82550000Y-68834000D01*
X82550000Y-68834000D02*
X82550000Y-69850000D01*
X82550000Y-69850000D02*
X83058000Y-69850000D01*
X83058000Y-69850000D02*
X83058000Y-70104000D01*
X83058000Y-70104000D02*
X82550000Y-70104000D01*
X82550000Y-70104000D02*
X82550000Y-71120000D01*
X82550000Y-71120000D02*
X83058000Y-71120000D01*
X83058000Y-71120000D02*
X83058000Y-71374000D01*
X83058000Y-71374000D02*
X82550000Y-71374000D01*
X82550000Y-71374000D02*
X82550000Y-72390000D01*
X82550000Y-72390000D02*
X83058000Y-72390000D01*
X83058000Y-72390000D02*
X83058000Y-72644000D01*
X83058000Y-72644000D02*
X82550000Y-72644000D01*
X82550000Y-72644000D02*
X82550000Y-73152000D01*
X82550000Y-73152000D02*
X82296000Y-73152000D01*
X78486000Y-69850000D02*
X78486000Y-68834000D01*
X78486000Y-71120000D02*
X78486000Y-70104000D01*
X78486000Y-72390000D02*
X78486000Y-71374000D01*
X78486000Y-68834000D02*
X77978000Y-68834000D01*
X77978000Y-68834000D02*
X77978000Y-68580000D01*
X78486000Y-70104000D02*
X77978000Y-70104000D01*
X77978000Y-70104000D02*
X77978000Y-69850000D01*
X78486000Y-71374000D02*
X77978000Y-71374000D01*
X77978000Y-71374000D02*
X77978000Y-71120000D01*
X82296000Y-73152000D02*
X78486000Y-73152000D01*
X78486000Y-73152000D02*
X78486000Y-72898000D01*
X78486000Y-72898000D02*
X78486000Y-72644000D01*
X78486000Y-72644000D02*
X77978000Y-72644000D01*
X77978000Y-72644000D02*
X77978000Y-72390000D01*
X78486000Y-68580000D02*
X77978000Y-68580000D01*
X77978000Y-69850000D02*
X78486000Y-69850000D01*
X78486000Y-71120000D02*
X77978000Y-71120000D01*
X78486000Y-72390000D02*
X77978000Y-72390000D01*
X80772000Y-57023000D02*
X80772000Y-58547000D01*
X80772000Y-58547000D02*
X80772000Y-57785000D01*
X80772000Y-57785000D02*
X82550000Y-57785000D01*
X77978000Y-57785000D02*
X79756000Y-57785000D01*
X79756000Y-57785000D02*
X79756000Y-58547000D01*
X79756000Y-58547000D02*
X79756000Y-57023000D01*
X72644000Y-69215000D02*
X74930000Y-69215000D01*
X72644000Y-71247000D02*
X74930000Y-71247000D01*
X74930000Y-71247000D02*
X73660000Y-69215000D01*
X73660000Y-69215000D02*
X72644000Y-71247000D01*
X73660000Y-60833000D02*
X73660000Y-65659000D01*
X73660000Y-65659000D02*
X79756000Y-65659000D01*
X79756000Y-65659000D02*
X79756000Y-60071000D01*
X79756000Y-60071000D02*
X73660000Y-60071000D01*
X73660000Y-60071000D02*
X73660000Y-60833000D01*
X72644000Y-60833000D02*
X72644000Y-59817000D01*
X73211961Y-60325000D02*
G75*
G03X73211961Y-60325000I-567961J0D01*
G01*
X87376000Y-60325000D02*
X88392000Y-60325000D01*
X87884000Y-60833000D02*
X87884000Y-59817000D01*
X88451961Y-60325000D02*
G75*
G03X88451961Y-60325000I-567961J0D01*
G01*
X88646000Y-59563000D02*
X82550000Y-59563000D01*
X82550000Y-59563000D02*
X82550000Y-56007000D01*
X77978000Y-56007000D02*
X77978000Y-59563000D01*
X77978000Y-59563000D02*
X71882000Y-59563000D01*
X82550000Y-78105000D02*
X82550000Y-74549000D01*
X82550000Y-74549000D02*
X88646000Y-74549000D01*
X71882000Y-74549000D02*
X77978000Y-74549000D01*
X77978000Y-74549000D02*
X77978000Y-78105000D01*
X71882000Y-78105000D02*
X71882000Y-56007000D01*
X71882000Y-56007000D02*
X88646000Y-56007000D01*
X88646000Y-56007000D02*
X88646000Y-78105000D01*
X88646000Y-78105000D02*
X71882000Y-78105000D01*
D11*
X59162000Y-72104000D02*
X56662000Y-72104000D01*
X59162000Y-68104000D02*
X56662000Y-68104000D01*
X80210000Y-65931252D02*
X80210000Y-65408748D01*
X78790000Y-65931252D02*
X78790000Y-65408748D01*
X60710000Y-60710000D02*
X60710000Y-62110000D01*
X63030000Y-62110000D02*
X63030000Y-60210000D01*
X83870000Y-65408748D02*
X83870000Y-65931252D01*
X85290000Y-65408748D02*
X85290000Y-65931252D01*
X86830000Y-65398748D02*
X86830000Y-65921252D01*
X88250000Y-65398748D02*
X88250000Y-65921252D01*
X84057748Y-74116000D02*
X84580252Y-74116000D01*
X84057748Y-72696000D02*
X84580252Y-72696000D01*
X67504000Y-56582000D02*
X68834000Y-56582000D01*
X67504000Y-57912000D02*
X67504000Y-56582000D01*
X67504000Y-59182000D02*
X70164000Y-59182000D01*
X70164000Y-59182000D02*
X70164000Y-71942000D01*
X67504000Y-59182000D02*
X67504000Y-71942000D01*
X67504000Y-71942000D02*
X70164000Y-71942000D01*
X90666000Y-78839000D02*
X90666000Y-76299000D01*
X90666000Y-78839000D02*
X93206000Y-78839000D01*
X90916000Y-78589000D02*
X90916000Y-69239000D01*
X106696000Y-78589000D02*
X90916000Y-78589000D01*
X106696000Y-69239000D02*
X106696000Y-78589000D01*
X90916000Y-69239000D02*
X106696000Y-69239000D01*
X80511252Y-57050000D02*
X79988748Y-57050000D01*
X80511252Y-58470000D02*
X79988748Y-58470000D01*
X96976000Y-62491252D02*
X96976000Y-61968748D01*
X95556000Y-62491252D02*
X95556000Y-61968748D01*
X63278748Y-65560000D02*
X63801252Y-65560000D01*
X63278748Y-64140000D02*
X63801252Y-64140000D01*
X60146000Y-61983252D02*
X60146000Y-61460748D01*
X58726000Y-61983252D02*
X58726000Y-61460748D01*
X57070000Y-55130000D02*
X57070000Y-53800000D01*
X58400000Y-55130000D02*
X57070000Y-55130000D01*
X57070000Y-52530000D02*
X57070000Y-49930000D01*
X59670000Y-52530000D02*
X57070000Y-52530000D01*
X59670000Y-55130000D02*
X59670000Y-52530000D01*
X57070000Y-49930000D02*
X107990000Y-49930000D01*
X59670000Y-55130000D02*
X107990000Y-55130000D01*
X107990000Y-55130000D02*
X107990000Y-49930000D01*
D13*
G36*
X226537390Y-167838781D02*
G01*
X226674658Y-167843623D01*
X226767521Y-167850039D01*
X226828007Y-167860827D01*
X226868141Y-167878790D01*
X226899951Y-167906729D01*
X226918390Y-167927518D01*
X226974731Y-168033033D01*
X226990008Y-168157469D01*
X226964442Y-168281254D01*
X226913428Y-168368222D01*
X226840412Y-168454997D01*
X226941650Y-168636029D01*
X226990827Y-168726067D01*
X227026822Y-168795976D01*
X227042671Y-168832162D01*
X227042889Y-168833641D01*
X227017650Y-168843546D01*
X226953820Y-168849474D01*
X226916295Y-168850222D01*
X226848181Y-168848315D01*
X226803655Y-168835107D01*
X226768653Y-168799369D01*
X226729113Y-168729873D01*
X226704222Y-168680889D01*
X226655106Y-168589218D01*
X226616968Y-168538017D01*
X226578426Y-168515929D01*
X226534483Y-168511556D01*
X226487841Y-168513803D01*
X226462667Y-168529416D01*
X226452339Y-168571697D01*
X226450238Y-168653950D01*
X226450222Y-168680889D01*
X226450222Y-168850222D01*
X226224444Y-168850222D01*
X226224444Y-168158778D01*
X226450222Y-168158778D01*
X226450222Y-168314000D01*
X226549000Y-168314000D01*
X226649507Y-168293669D01*
X226704222Y-168257556D01*
X226754639Y-168182323D01*
X226750209Y-168115637D01*
X226692314Y-168061113D01*
X226617758Y-168031262D01*
X226526596Y-168008416D01*
X226476435Y-168012459D01*
X226455063Y-168052684D01*
X226450267Y-168138386D01*
X226450222Y-168158778D01*
X226224444Y-168158778D01*
X226224444Y-167829228D01*
X226537390Y-167838781D01*
X226537390Y-167838781D01*
G37*
X226537390Y-167838781D02*
X226674658Y-167843623D01*
X226767521Y-167850039D01*
X226828007Y-167860827D01*
X226868141Y-167878790D01*
X226899951Y-167906729D01*
X226918390Y-167927518D01*
X226974731Y-168033033D01*
X226990008Y-168157469D01*
X226964442Y-168281254D01*
X226913428Y-168368222D01*
X226840412Y-168454997D01*
X226941650Y-168636029D01*
X226990827Y-168726067D01*
X227026822Y-168795976D01*
X227042671Y-168832162D01*
X227042889Y-168833641D01*
X227017650Y-168843546D01*
X226953820Y-168849474D01*
X226916295Y-168850222D01*
X226848181Y-168848315D01*
X226803655Y-168835107D01*
X226768653Y-168799369D01*
X226729113Y-168729873D01*
X226704222Y-168680889D01*
X226655106Y-168589218D01*
X226616968Y-168538017D01*
X226578426Y-168515929D01*
X226534483Y-168511556D01*
X226487841Y-168513803D01*
X226462667Y-168529416D01*
X226452339Y-168571697D01*
X226450238Y-168653950D01*
X226450222Y-168680889D01*
X226450222Y-168850222D01*
X226224444Y-168850222D01*
X226224444Y-168158778D01*
X226450222Y-168158778D01*
X226450222Y-168314000D01*
X226549000Y-168314000D01*
X226649507Y-168293669D01*
X226704222Y-168257556D01*
X226754639Y-168182323D01*
X226750209Y-168115637D01*
X226692314Y-168061113D01*
X226617758Y-168031262D01*
X226526596Y-168008416D01*
X226476435Y-168012459D01*
X226455063Y-168052684D01*
X226450267Y-168138386D01*
X226450222Y-168158778D01*
X226224444Y-168158778D01*
X226224444Y-167829228D01*
X226537390Y-167838781D01*
G36*
X207930676Y-168001627D02*
G01*
X208047523Y-168058632D01*
X208123803Y-168154798D01*
X208159334Y-168289853D01*
X208162117Y-168348833D01*
X208139981Y-168486095D01*
X208074820Y-168587255D01*
X207968866Y-168649903D01*
X207864213Y-168670149D01*
X207770099Y-168671320D01*
X207691941Y-168662538D01*
X207668333Y-168655498D01*
X207559835Y-168579242D01*
X207493469Y-168467524D01*
X207472837Y-168344263D01*
X207494681Y-168203252D01*
X207559480Y-168092569D01*
X207659281Y-168018165D01*
X207786128Y-167985993D01*
X207930676Y-168001627D01*
X207930676Y-168001627D01*
G37*
X207930676Y-168001627D02*
X208047523Y-168058632D01*
X208123803Y-168154798D01*
X208159334Y-168289853D01*
X208162117Y-168348833D01*
X208139981Y-168486095D01*
X208074820Y-168587255D01*
X207968866Y-168649903D01*
X207864213Y-168670149D01*
X207770099Y-168671320D01*
X207691941Y-168662538D01*
X207668333Y-168655498D01*
X207559835Y-168579242D01*
X207493469Y-168467524D01*
X207472837Y-168344263D01*
X207494681Y-168203252D01*
X207559480Y-168092569D01*
X207659281Y-168018165D01*
X207786128Y-167985993D01*
X207930676Y-168001627D01*
G36*
X196450051Y-167597902D02*
G01*
X196541903Y-167609132D01*
X196623620Y-167634528D01*
X196718271Y-167678975D01*
X196719166Y-167679432D01*
X196873668Y-167780873D01*
X196978704Y-167904861D01*
X197038157Y-168057870D01*
X197055940Y-168241231D01*
X197033536Y-168440298D01*
X196967347Y-168604036D01*
X196856172Y-168734165D01*
X196698806Y-168832406D01*
X196620903Y-168863780D01*
X196510120Y-168889056D01*
X196371456Y-168901914D01*
X196229884Y-168901586D01*
X196110380Y-168887306D01*
X196082928Y-168880298D01*
X195899975Y-168798945D01*
X195758343Y-168680666D01*
X195660821Y-168529161D01*
X195610197Y-168348136D01*
X195603333Y-168243445D01*
X195627685Y-168050357D01*
X195700156Y-167886467D01*
X195819873Y-167753187D01*
X195962991Y-167662643D01*
X196056040Y-167625374D01*
X196156239Y-167604656D01*
X196285243Y-167596499D01*
X196324995Y-167595952D01*
X196450051Y-167597902D01*
X196450051Y-167597902D01*
G37*
X196450051Y-167597902D02*
X196541903Y-167609132D01*
X196623620Y-167634528D01*
X196718271Y-167678975D01*
X196719166Y-167679432D01*
X196873668Y-167780873D01*
X196978704Y-167904861D01*
X197038157Y-168057870D01*
X197055940Y-168241231D01*
X197033536Y-168440298D01*
X196967347Y-168604036D01*
X196856172Y-168734165D01*
X196698806Y-168832406D01*
X196620903Y-168863780D01*
X196510120Y-168889056D01*
X196371456Y-168901914D01*
X196229884Y-168901586D01*
X196110380Y-168887306D01*
X196082928Y-168880298D01*
X195899975Y-168798945D01*
X195758343Y-168680666D01*
X195660821Y-168529161D01*
X195610197Y-168348136D01*
X195603333Y-168243445D01*
X195627685Y-168050357D01*
X195700156Y-167886467D01*
X195819873Y-167753187D01*
X195962991Y-167662643D01*
X196056040Y-167625374D01*
X196156239Y-167604656D01*
X196285243Y-167596499D01*
X196324995Y-167595952D01*
X196450051Y-167597902D01*
G36*
X226780279Y-167384251D02*
G01*
X226922104Y-167420340D01*
X227082268Y-167500960D01*
X227234360Y-167623300D01*
X227362840Y-167773131D01*
X227429523Y-167884949D01*
X227465907Y-167964514D01*
X227489093Y-168035420D01*
X227501989Y-168114487D01*
X227507502Y-168218536D01*
X227508556Y-168342222D01*
X227506905Y-168483606D01*
X227500090Y-168585611D01*
X227485319Y-168665253D01*
X227459800Y-168739548D01*
X227433728Y-168798163D01*
X227320427Y-168979843D01*
X227168416Y-169134471D01*
X226993111Y-169247130D01*
X226842940Y-169296692D01*
X226663793Y-169321882D01*
X226477962Y-169321942D01*
X226307738Y-169296117D01*
X226234507Y-169272890D01*
X226043854Y-169167698D01*
X225880680Y-169016619D01*
X225752071Y-168826396D01*
X225739564Y-168801802D01*
X225694573Y-168704991D01*
X225667291Y-168625238D01*
X225653452Y-168541767D01*
X225648788Y-168433802D01*
X225648580Y-168358788D01*
X225650600Y-168336733D01*
X225870690Y-168336733D01*
X225890508Y-168538956D01*
X225957117Y-168723978D01*
X226072027Y-168895187D01*
X226215446Y-169018324D01*
X226385692Y-169092307D01*
X226502103Y-169119856D01*
X226592246Y-169127833D01*
X226682900Y-169115951D01*
X226787233Y-169087988D01*
X226953784Y-169010647D01*
X227092554Y-168890912D01*
X227199120Y-168737776D01*
X227269055Y-168560231D01*
X227297937Y-168367270D01*
X227281340Y-168167884D01*
X227267749Y-168111440D01*
X227193464Y-167935809D01*
X227082441Y-167792376D01*
X226943345Y-167683574D01*
X226784841Y-167611834D01*
X226615594Y-167579590D01*
X226444270Y-167589272D01*
X226279534Y-167643314D01*
X226130052Y-167744147D01*
X226091834Y-167781387D01*
X225973088Y-167945808D01*
X225898795Y-168134970D01*
X225870690Y-168336733D01*
X225650600Y-168336733D01*
X225671813Y-168105138D01*
X225739691Y-167886003D01*
X225852195Y-167701409D01*
X226009312Y-167551382D01*
X226190004Y-167445401D01*
X226370370Y-167388585D01*
X226574002Y-167367966D01*
X226780279Y-167384251D01*
X226780279Y-167384251D01*
G37*
X226780279Y-167384251D02*
X226922104Y-167420340D01*
X227082268Y-167500960D01*
X227234360Y-167623300D01*
X227362840Y-167773131D01*
X227429523Y-167884949D01*
X227465907Y-167964514D01*
X227489093Y-168035420D01*
X227501989Y-168114487D01*
X227507502Y-168218536D01*
X227508556Y-168342222D01*
X227506905Y-168483606D01*
X227500090Y-168585611D01*
X227485319Y-168665253D01*
X227459800Y-168739548D01*
X227433728Y-168798163D01*
X227320427Y-168979843D01*
X227168416Y-169134471D01*
X226993111Y-169247130D01*
X226842940Y-169296692D01*
X226663793Y-169321882D01*
X226477962Y-169321942D01*
X226307738Y-169296117D01*
X226234507Y-169272890D01*
X226043854Y-169167698D01*
X225880680Y-169016619D01*
X225752071Y-168826396D01*
X225739564Y-168801802D01*
X225694573Y-168704991D01*
X225667291Y-168625238D01*
X225653452Y-168541767D01*
X225648788Y-168433802D01*
X225648580Y-168358788D01*
X225650600Y-168336733D01*
X225870690Y-168336733D01*
X225890508Y-168538956D01*
X225957117Y-168723978D01*
X226072027Y-168895187D01*
X226215446Y-169018324D01*
X226385692Y-169092307D01*
X226502103Y-169119856D01*
X226592246Y-169127833D01*
X226682900Y-169115951D01*
X226787233Y-169087988D01*
X226953784Y-169010647D01*
X227092554Y-168890912D01*
X227199120Y-168737776D01*
X227269055Y-168560231D01*
X227297937Y-168367270D01*
X227281340Y-168167884D01*
X227267749Y-168111440D01*
X227193464Y-167935809D01*
X227082441Y-167792376D01*
X226943345Y-167683574D01*
X226784841Y-167611834D01*
X226615594Y-167579590D01*
X226444270Y-167589272D01*
X226279534Y-167643314D01*
X226130052Y-167744147D01*
X226091834Y-167781387D01*
X225973088Y-167945808D01*
X225898795Y-168134970D01*
X225870690Y-168336733D01*
X225650600Y-168336733D01*
X225671813Y-168105138D01*
X225739691Y-167886003D01*
X225852195Y-167701409D01*
X226009312Y-167551382D01*
X226190004Y-167445401D01*
X226370370Y-167388585D01*
X226574002Y-167367966D01*
X226780279Y-167384251D01*
G36*
X221881457Y-169547731D02*
G01*
X222001894Y-169562449D01*
X222070715Y-169581221D01*
X222115685Y-169600736D01*
X222141807Y-169621023D01*
X222150286Y-169653981D01*
X222142329Y-169711513D01*
X222119140Y-169805519D01*
X222100592Y-169876087D01*
X222077856Y-169945275D01*
X222051298Y-169970957D01*
X222010433Y-169965994D01*
X221950301Y-169953853D01*
X221856018Y-169941146D01*
X221765333Y-169932164D01*
X221559002Y-169942789D01*
X221359611Y-170007866D01*
X221169433Y-170125594D01*
X220990740Y-170294175D01*
X220825801Y-170511809D01*
X220676890Y-170776697D01*
X220663154Y-170805323D01*
X220580044Y-170981000D01*
X220580022Y-172356833D01*
X220580000Y-173732667D01*
X220184889Y-173732667D01*
X220184889Y-169640445D01*
X220551778Y-169640445D01*
X220551778Y-169862283D01*
X220554163Y-169990181D01*
X220560427Y-170115354D01*
X220569237Y-170211452D01*
X220569606Y-170214194D01*
X220587434Y-170344266D01*
X220722342Y-170152164D01*
X220900913Y-169932621D01*
X221097159Y-169760704D01*
X221308026Y-169634224D01*
X221408224Y-169588280D01*
X221492719Y-169561010D01*
X221584049Y-169547586D01*
X221704750Y-169543177D01*
X221733958Y-169542954D01*
X221881457Y-169547731D01*
X221881457Y-169547731D01*
G37*
X221881457Y-169547731D02*
X222001894Y-169562449D01*
X222070715Y-169581221D01*
X222115685Y-169600736D01*
X222141807Y-169621023D01*
X222150286Y-169653981D01*
X222142329Y-169711513D01*
X222119140Y-169805519D01*
X222100592Y-169876087D01*
X222077856Y-169945275D01*
X222051298Y-169970957D01*
X222010433Y-169965994D01*
X221950301Y-169953853D01*
X221856018Y-169941146D01*
X221765333Y-169932164D01*
X221559002Y-169942789D01*
X221359611Y-170007866D01*
X221169433Y-170125594D01*
X220990740Y-170294175D01*
X220825801Y-170511809D01*
X220676890Y-170776697D01*
X220663154Y-170805323D01*
X220580044Y-170981000D01*
X220580022Y-172356833D01*
X220580000Y-173732667D01*
X220184889Y-173732667D01*
X220184889Y-169640445D01*
X220551778Y-169640445D01*
X220551778Y-169862283D01*
X220554163Y-169990181D01*
X220560427Y-170115354D01*
X220569237Y-170211452D01*
X220569606Y-170214194D01*
X220587434Y-170344266D01*
X220722342Y-170152164D01*
X220900913Y-169932621D01*
X221097159Y-169760704D01*
X221308026Y-169634224D01*
X221408224Y-169588280D01*
X221492719Y-169561010D01*
X221584049Y-169547586D01*
X221704750Y-169543177D01*
X221733958Y-169542954D01*
X221881457Y-169547731D01*
G36*
X208021111Y-173732667D02*
G01*
X207597778Y-173732667D01*
X207597778Y-169640445D01*
X208021111Y-169640445D01*
X208021111Y-173732667D01*
X208021111Y-173732667D01*
G37*
X208021111Y-173732667D02*
X207597778Y-173732667D01*
X207597778Y-169640445D01*
X208021111Y-169640445D01*
X208021111Y-173732667D01*
G36*
X203992389Y-168124171D02*
G01*
X204266481Y-168128269D01*
X204491195Y-168132582D01*
X204673598Y-168137509D01*
X204820757Y-168143446D01*
X204939737Y-168150793D01*
X205037606Y-168159946D01*
X205121430Y-168171303D01*
X205198275Y-168185261D01*
X205241222Y-168194435D01*
X205544517Y-168281319D01*
X205800698Y-168397184D01*
X206012264Y-168544094D01*
X206181712Y-168724112D01*
X206311542Y-168939302D01*
X206390105Y-169143168D01*
X206424710Y-169300288D01*
X206446535Y-169492540D01*
X206455062Y-169699962D01*
X206449774Y-169902590D01*
X206430153Y-170080460D01*
X206416178Y-170148445D01*
X206322002Y-170420823D01*
X206184325Y-170660540D01*
X206006067Y-170863898D01*
X205790145Y-171027196D01*
X205672761Y-171090851D01*
X205520684Y-171158537D01*
X205369589Y-171212987D01*
X205211075Y-171255478D01*
X205036741Y-171287285D01*
X204838188Y-171309684D01*
X204607015Y-171323952D01*
X204334821Y-171331364D01*
X204077056Y-171333219D01*
X203420889Y-171333778D01*
X203420889Y-173732667D01*
X202997556Y-173732667D01*
X202997556Y-170966889D01*
X203420889Y-170966889D01*
X204066303Y-170966889D01*
X204344560Y-170964879D01*
X204572956Y-170958642D01*
X204757940Y-170947866D01*
X204905958Y-170932238D01*
X204962359Y-170923517D01*
X205245264Y-170853645D01*
X205483741Y-170749220D01*
X205678565Y-170609490D01*
X205830509Y-170433707D01*
X205940349Y-170221121D01*
X206008858Y-169970982D01*
X206020009Y-169899606D01*
X206033436Y-169657318D01*
X206010388Y-169422329D01*
X205953822Y-169204641D01*
X205866696Y-169014252D01*
X205751967Y-168861164D01*
X205698428Y-168812141D01*
X205585998Y-168728648D01*
X205474703Y-168665380D01*
X205345625Y-168613286D01*
X205179844Y-168563317D01*
X205176077Y-168562292D01*
X205102755Y-168544031D01*
X205027024Y-168529550D01*
X204940607Y-168518244D01*
X204835229Y-168509510D01*
X204702614Y-168502744D01*
X204534484Y-168497342D01*
X204322564Y-168492701D01*
X204189944Y-168490348D01*
X203420889Y-168477406D01*
X203420889Y-170966889D01*
X202997556Y-170966889D01*
X202997556Y-168110555D01*
X203992389Y-168124171D01*
X203992389Y-168124171D01*
G37*
X203992389Y-168124171D02*
X204266481Y-168128269D01*
X204491195Y-168132582D01*
X204673598Y-168137509D01*
X204820757Y-168143446D01*
X204939737Y-168150793D01*
X205037606Y-168159946D01*
X205121430Y-168171303D01*
X205198275Y-168185261D01*
X205241222Y-168194435D01*
X205544517Y-168281319D01*
X205800698Y-168397184D01*
X206012264Y-168544094D01*
X206181712Y-168724112D01*
X206311542Y-168939302D01*
X206390105Y-169143168D01*
X206424710Y-169300288D01*
X206446535Y-169492540D01*
X206455062Y-169699962D01*
X206449774Y-169902590D01*
X206430153Y-170080460D01*
X206416178Y-170148445D01*
X206322002Y-170420823D01*
X206184325Y-170660540D01*
X206006067Y-170863898D01*
X205790145Y-171027196D01*
X205672761Y-171090851D01*
X205520684Y-171158537D01*
X205369589Y-171212987D01*
X205211075Y-171255478D01*
X205036741Y-171287285D01*
X204838188Y-171309684D01*
X204607015Y-171323952D01*
X204334821Y-171331364D01*
X204077056Y-171333219D01*
X203420889Y-171333778D01*
X203420889Y-173732667D01*
X202997556Y-173732667D01*
X202997556Y-170966889D01*
X203420889Y-170966889D01*
X204066303Y-170966889D01*
X204344560Y-170964879D01*
X204572956Y-170958642D01*
X204757940Y-170947866D01*
X204905958Y-170932238D01*
X204962359Y-170923517D01*
X205245264Y-170853645D01*
X205483741Y-170749220D01*
X205678565Y-170609490D01*
X205830509Y-170433707D01*
X205940349Y-170221121D01*
X206008858Y-169970982D01*
X206020009Y-169899606D01*
X206033436Y-169657318D01*
X206010388Y-169422329D01*
X205953822Y-169204641D01*
X205866696Y-169014252D01*
X205751967Y-168861164D01*
X205698428Y-168812141D01*
X205585998Y-168728648D01*
X205474703Y-168665380D01*
X205345625Y-168613286D01*
X205179844Y-168563317D01*
X205176077Y-168562292D01*
X205102755Y-168544031D01*
X205027024Y-168529550D01*
X204940607Y-168518244D01*
X204835229Y-168509510D01*
X204702614Y-168502744D01*
X204534484Y-168497342D01*
X204322564Y-168492701D01*
X204189944Y-168490348D01*
X203420889Y-168477406D01*
X203420889Y-170966889D01*
X202997556Y-170966889D01*
X202997556Y-168110555D01*
X203992389Y-168124171D01*
G36*
X196958000Y-173732667D02*
G01*
X195688000Y-173732667D01*
X195688000Y-169499333D01*
X196958000Y-169499333D01*
X196958000Y-173732667D01*
X196958000Y-173732667D01*
G37*
X196958000Y-173732667D02*
X195688000Y-173732667D01*
X195688000Y-169499333D01*
X196958000Y-169499333D01*
X196958000Y-173732667D01*
G36*
X224019919Y-169543875D02*
G01*
X224286121Y-169583324D01*
X224547145Y-169660975D01*
X224795583Y-169777750D01*
X224827444Y-169796377D01*
X224942645Y-169866455D01*
X225013987Y-169917425D01*
X225045809Y-169959558D01*
X225042451Y-170003125D01*
X225008250Y-170058395D01*
X224962704Y-170116551D01*
X224850039Y-170258051D01*
X224700091Y-170157070D01*
X224586378Y-170087924D01*
X224455728Y-170019020D01*
X224378349Y-169983394D01*
X224294065Y-169950632D01*
X224216001Y-169929279D01*
X224127933Y-169916925D01*
X224013637Y-169911157D01*
X223882000Y-169909627D01*
X223733145Y-169910597D01*
X223625470Y-169916081D01*
X223543761Y-169928210D01*
X223472802Y-169949114D01*
X223408214Y-169975988D01*
X223249858Y-170073176D01*
X223123880Y-170201785D01*
X223034431Y-170352123D01*
X222985659Y-170514502D01*
X222981714Y-170679231D01*
X223026744Y-170836619D01*
X223033671Y-170850741D01*
X223084670Y-170935956D01*
X223149256Y-171012633D01*
X223233722Y-171084612D01*
X223344363Y-171155728D01*
X223487472Y-171229821D01*
X223669343Y-171310726D01*
X223896270Y-171402283D01*
X224010458Y-171446337D01*
X224175755Y-171511282D01*
X224339841Y-171578946D01*
X224487765Y-171642949D01*
X224604580Y-171696911D01*
X224644122Y-171716799D01*
X224809557Y-171821822D01*
X224960555Y-171951426D01*
X225085323Y-172093398D01*
X225172071Y-172235522D01*
X225191528Y-172283804D01*
X225249427Y-172533151D01*
X225253907Y-172775206D01*
X225207956Y-173004698D01*
X225114562Y-173216354D01*
X224976714Y-173404906D01*
X224797401Y-173565082D01*
X224579611Y-173691611D01*
X224346494Y-173774120D01*
X224191263Y-173801354D01*
X224000140Y-173814993D01*
X223791947Y-173815313D01*
X223585506Y-173802594D01*
X223399638Y-173777111D01*
X223317556Y-173758957D01*
X223179719Y-173716712D01*
X223026641Y-173660395D01*
X222899462Y-173605818D01*
X222797221Y-173553386D01*
X222685646Y-173489863D01*
X222575577Y-173422263D01*
X222477857Y-173357602D01*
X222403328Y-173302894D01*
X222362830Y-173265155D01*
X222358580Y-173255855D01*
X222376101Y-173227456D01*
X222421364Y-173169801D01*
X222481506Y-173098923D01*
X222603850Y-172959069D01*
X222784314Y-173093520D01*
X223057492Y-173268784D01*
X223335083Y-173389297D01*
X223622407Y-173456745D01*
X223924783Y-173472813D01*
X223974483Y-173470752D01*
X224115463Y-173459419D01*
X224223997Y-173439359D01*
X224324002Y-173404856D01*
X224403280Y-173368293D01*
X224577131Y-173255995D01*
X224709598Y-173114731D01*
X224797801Y-172952044D01*
X224838860Y-172775477D01*
X224829897Y-172592572D01*
X224768453Y-172411719D01*
X224712668Y-172315980D01*
X224642791Y-172230060D01*
X224552636Y-172150070D01*
X224436017Y-172072125D01*
X224286748Y-171992335D01*
X224098645Y-171906814D01*
X223865521Y-171811674D01*
X223730564Y-171759443D01*
X223503171Y-171670179D01*
X223320429Y-171592257D01*
X223172931Y-171520779D01*
X223051271Y-171450848D01*
X222946042Y-171377564D01*
X222858103Y-171305129D01*
X222719676Y-171147353D01*
X222624370Y-170961240D01*
X222573137Y-170755974D01*
X222566930Y-170540741D01*
X222606700Y-170324723D01*
X222693401Y-170117105D01*
X222728760Y-170057745D01*
X222870482Y-169887359D01*
X223051468Y-169749640D01*
X223264313Y-169645509D01*
X223501607Y-169575889D01*
X223755945Y-169541704D01*
X224019919Y-169543875D01*
X224019919Y-169543875D01*
G37*
X224019919Y-169543875D02*
X224286121Y-169583324D01*
X224547145Y-169660975D01*
X224795583Y-169777750D01*
X224827444Y-169796377D01*
X224942645Y-169866455D01*
X225013987Y-169917425D01*
X225045809Y-169959558D01*
X225042451Y-170003125D01*
X225008250Y-170058395D01*
X224962704Y-170116551D01*
X224850039Y-170258051D01*
X224700091Y-170157070D01*
X224586378Y-170087924D01*
X224455728Y-170019020D01*
X224378349Y-169983394D01*
X224294065Y-169950632D01*
X224216001Y-169929279D01*
X224127933Y-169916925D01*
X224013637Y-169911157D01*
X223882000Y-169909627D01*
X223733145Y-169910597D01*
X223625470Y-169916081D01*
X223543761Y-169928210D01*
X223472802Y-169949114D01*
X223408214Y-169975988D01*
X223249858Y-170073176D01*
X223123880Y-170201785D01*
X223034431Y-170352123D01*
X222985659Y-170514502D01*
X222981714Y-170679231D01*
X223026744Y-170836619D01*
X223033671Y-170850741D01*
X223084670Y-170935956D01*
X223149256Y-171012633D01*
X223233722Y-171084612D01*
X223344363Y-171155728D01*
X223487472Y-171229821D01*
X223669343Y-171310726D01*
X223896270Y-171402283D01*
X224010458Y-171446337D01*
X224175755Y-171511282D01*
X224339841Y-171578946D01*
X224487765Y-171642949D01*
X224604580Y-171696911D01*
X224644122Y-171716799D01*
X224809557Y-171821822D01*
X224960555Y-171951426D01*
X225085323Y-172093398D01*
X225172071Y-172235522D01*
X225191528Y-172283804D01*
X225249427Y-172533151D01*
X225253907Y-172775206D01*
X225207956Y-173004698D01*
X225114562Y-173216354D01*
X224976714Y-173404906D01*
X224797401Y-173565082D01*
X224579611Y-173691611D01*
X224346494Y-173774120D01*
X224191263Y-173801354D01*
X224000140Y-173814993D01*
X223791947Y-173815313D01*
X223585506Y-173802594D01*
X223399638Y-173777111D01*
X223317556Y-173758957D01*
X223179719Y-173716712D01*
X223026641Y-173660395D01*
X222899462Y-173605818D01*
X222797221Y-173553386D01*
X222685646Y-173489863D01*
X222575577Y-173422263D01*
X222477857Y-173357602D01*
X222403328Y-173302894D01*
X222362830Y-173265155D01*
X222358580Y-173255855D01*
X222376101Y-173227456D01*
X222421364Y-173169801D01*
X222481506Y-173098923D01*
X222603850Y-172959069D01*
X222784314Y-173093520D01*
X223057492Y-173268784D01*
X223335083Y-173389297D01*
X223622407Y-173456745D01*
X223924783Y-173472813D01*
X223974483Y-173470752D01*
X224115463Y-173459419D01*
X224223997Y-173439359D01*
X224324002Y-173404856D01*
X224403280Y-173368293D01*
X224577131Y-173255995D01*
X224709598Y-173114731D01*
X224797801Y-172952044D01*
X224838860Y-172775477D01*
X224829897Y-172592572D01*
X224768453Y-172411719D01*
X224712668Y-172315980D01*
X224642791Y-172230060D01*
X224552636Y-172150070D01*
X224436017Y-172072125D01*
X224286748Y-171992335D01*
X224098645Y-171906814D01*
X223865521Y-171811674D01*
X223730564Y-171759443D01*
X223503171Y-171670179D01*
X223320429Y-171592257D01*
X223172931Y-171520779D01*
X223051271Y-171450848D01*
X222946042Y-171377564D01*
X222858103Y-171305129D01*
X222719676Y-171147353D01*
X222624370Y-170961240D01*
X222573137Y-170755974D01*
X222566930Y-170540741D01*
X222606700Y-170324723D01*
X222693401Y-170117105D01*
X222728760Y-170057745D01*
X222870482Y-169887359D01*
X223051468Y-169749640D01*
X223264313Y-169645509D01*
X223501607Y-169575889D01*
X223755945Y-169541704D01*
X224019919Y-169543875D01*
G36*
X217679023Y-169539559D02*
G01*
X217978123Y-169586784D01*
X218242154Y-169678163D01*
X218471630Y-169814031D01*
X218667062Y-169994723D01*
X218828963Y-170220575D01*
X218888270Y-170331394D01*
X218961116Y-170490329D01*
X219015187Y-170636385D01*
X219053624Y-170783999D01*
X219079566Y-170947609D01*
X219096153Y-171141654D01*
X219104735Y-171326722D01*
X219120000Y-171757111D01*
X216169539Y-171757111D01*
X216187841Y-171935756D01*
X216243523Y-172254114D01*
X216340671Y-172544000D01*
X216476287Y-172801704D01*
X216647371Y-173023519D01*
X216850925Y-173205734D01*
X217083950Y-173344642D01*
X217343446Y-173436533D01*
X217414001Y-173452095D01*
X217669114Y-173476065D01*
X217939858Y-173455802D01*
X218211064Y-173394376D01*
X218467566Y-173294856D01*
X218626159Y-173206792D01*
X218705610Y-173157265D01*
X218764441Y-173122893D01*
X218787961Y-173111778D01*
X218807107Y-173134718D01*
X218840410Y-173192077D01*
X218879174Y-173266665D01*
X218914700Y-173341291D01*
X218938291Y-173398764D01*
X218943111Y-173418427D01*
X218918538Y-173446664D01*
X218852090Y-173489732D01*
X218754671Y-173542452D01*
X218637186Y-173599649D01*
X218510539Y-173656148D01*
X218385634Y-173706770D01*
X218273377Y-173746341D01*
X218219597Y-173761873D01*
X218060776Y-173791299D01*
X217869684Y-173809555D01*
X217664426Y-173816452D01*
X217463112Y-173811801D01*
X217283847Y-173795414D01*
X217165111Y-173772853D01*
X216886181Y-173671431D01*
X216623971Y-173521334D01*
X216387270Y-173329770D01*
X216184872Y-173103949D01*
X216025568Y-172851081D01*
X216014780Y-172829556D01*
X215887909Y-172511562D01*
X215804358Y-172167101D01*
X215766028Y-171808047D01*
X215774818Y-171446277D01*
X215777755Y-171418445D01*
X216170924Y-171418445D01*
X217458240Y-171418445D01*
X217721704Y-171417996D01*
X217967023Y-171416711D01*
X218188603Y-171414682D01*
X218380850Y-171412001D01*
X218538172Y-171408760D01*
X218654976Y-171405051D01*
X218725668Y-171400966D01*
X218745324Y-171397278D01*
X218742194Y-171361327D01*
X218734040Y-171283552D01*
X218722375Y-171178195D01*
X218717156Y-171132314D01*
X218661864Y-170823016D01*
X218572268Y-170556497D01*
X218449207Y-170333651D01*
X218293520Y-170155372D01*
X218106046Y-170022554D01*
X217887625Y-169936089D01*
X217639096Y-169896870D01*
X217554210Y-169894445D01*
X217296437Y-169921448D01*
X217055895Y-170001521D01*
X216835029Y-170133262D01*
X216636286Y-170315267D01*
X216488175Y-170506045D01*
X216366885Y-170722830D01*
X216268255Y-170969441D01*
X216201863Y-171220794D01*
X216190980Y-171284389D01*
X216170924Y-171418445D01*
X215777755Y-171418445D01*
X215782239Y-171375971D01*
X215843263Y-171028376D01*
X215940186Y-170719902D01*
X216076115Y-170443731D01*
X216254154Y-170193043D01*
X216387444Y-170047026D01*
X216628281Y-169840478D01*
X216886710Y-169686152D01*
X217160320Y-169584992D01*
X217446701Y-169537948D01*
X217679023Y-169539559D01*
X217679023Y-169539559D01*
G37*
X217679023Y-169539559D02*
X217978123Y-169586784D01*
X218242154Y-169678163D01*
X218471630Y-169814031D01*
X218667062Y-169994723D01*
X218828963Y-170220575D01*
X218888270Y-170331394D01*
X218961116Y-170490329D01*
X219015187Y-170636385D01*
X219053624Y-170783999D01*
X219079566Y-170947609D01*
X219096153Y-171141654D01*
X219104735Y-171326722D01*
X219120000Y-171757111D01*
X216169539Y-171757111D01*
X216187841Y-171935756D01*
X216243523Y-172254114D01*
X216340671Y-172544000D01*
X216476287Y-172801704D01*
X216647371Y-173023519D01*
X216850925Y-173205734D01*
X217083950Y-173344642D01*
X217343446Y-173436533D01*
X217414001Y-173452095D01*
X217669114Y-173476065D01*
X217939858Y-173455802D01*
X218211064Y-173394376D01*
X218467566Y-173294856D01*
X218626159Y-173206792D01*
X218705610Y-173157265D01*
X218764441Y-173122893D01*
X218787961Y-173111778D01*
X218807107Y-173134718D01*
X218840410Y-173192077D01*
X218879174Y-173266665D01*
X218914700Y-173341291D01*
X218938291Y-173398764D01*
X218943111Y-173418427D01*
X218918538Y-173446664D01*
X218852090Y-173489732D01*
X218754671Y-173542452D01*
X218637186Y-173599649D01*
X218510539Y-173656148D01*
X218385634Y-173706770D01*
X218273377Y-173746341D01*
X218219597Y-173761873D01*
X218060776Y-173791299D01*
X217869684Y-173809555D01*
X217664426Y-173816452D01*
X217463112Y-173811801D01*
X217283847Y-173795414D01*
X217165111Y-173772853D01*
X216886181Y-173671431D01*
X216623971Y-173521334D01*
X216387270Y-173329770D01*
X216184872Y-173103949D01*
X216025568Y-172851081D01*
X216014780Y-172829556D01*
X215887909Y-172511562D01*
X215804358Y-172167101D01*
X215766028Y-171808047D01*
X215774818Y-171446277D01*
X215777755Y-171418445D01*
X216170924Y-171418445D01*
X217458240Y-171418445D01*
X217721704Y-171417996D01*
X217967023Y-171416711D01*
X218188603Y-171414682D01*
X218380850Y-171412001D01*
X218538172Y-171408760D01*
X218654976Y-171405051D01*
X218725668Y-171400966D01*
X218745324Y-171397278D01*
X218742194Y-171361327D01*
X218734040Y-171283552D01*
X218722375Y-171178195D01*
X218717156Y-171132314D01*
X218661864Y-170823016D01*
X218572268Y-170556497D01*
X218449207Y-170333651D01*
X218293520Y-170155372D01*
X218106046Y-170022554D01*
X217887625Y-169936089D01*
X217639096Y-169896870D01*
X217554210Y-169894445D01*
X217296437Y-169921448D01*
X217055895Y-170001521D01*
X216835029Y-170133262D01*
X216636286Y-170315267D01*
X216488175Y-170506045D01*
X216366885Y-170722830D01*
X216268255Y-170969441D01*
X216201863Y-171220794D01*
X216190980Y-171284389D01*
X216170924Y-171418445D01*
X215777755Y-171418445D01*
X215782239Y-171375971D01*
X215843263Y-171028376D01*
X215940186Y-170719902D01*
X216076115Y-170443731D01*
X216254154Y-170193043D01*
X216387444Y-170047026D01*
X216628281Y-169840478D01*
X216886710Y-169686152D01*
X217160320Y-169584992D01*
X217446701Y-169537948D01*
X217679023Y-169539559D01*
G36*
X214060667Y-169640445D02*
G01*
X215246000Y-169640445D01*
X215246000Y-169979111D01*
X214060667Y-169979111D01*
X214060667Y-171427433D01*
X214060865Y-171772864D01*
X214061719Y-172066715D01*
X214063619Y-172313851D01*
X214066953Y-172519139D01*
X214072111Y-172687441D01*
X214079482Y-172823622D01*
X214089454Y-172932548D01*
X214102417Y-173019083D01*
X214118761Y-173088092D01*
X214138874Y-173144440D01*
X214163145Y-173192990D01*
X214191964Y-173238608D01*
X214207307Y-173260583D01*
X214308502Y-173356595D01*
X214448159Y-173423018D01*
X214615680Y-173458182D01*
X214800470Y-173460416D01*
X214991931Y-173428047D01*
X215085020Y-173399031D01*
X215183043Y-173367284D01*
X215238997Y-173359636D01*
X215260938Y-173373907D01*
X215308172Y-173509435D01*
X215335457Y-173600444D01*
X215344702Y-173654454D01*
X215338269Y-173678582D01*
X215302298Y-173695365D01*
X215226628Y-173721408D01*
X215126162Y-173751670D01*
X215103089Y-173758150D01*
X214903550Y-173798593D01*
X214690928Y-173816304D01*
X214484059Y-173811156D01*
X214301780Y-173783022D01*
X214236086Y-173763976D01*
X214053781Y-173672395D01*
X213904347Y-173535565D01*
X213788593Y-173354693D01*
X213707327Y-173130987D01*
X213666810Y-172914963D01*
X213660468Y-172834521D01*
X213654655Y-172703948D01*
X213649486Y-172529556D01*
X213645079Y-172317656D01*
X213641551Y-172074560D01*
X213639020Y-171806579D01*
X213637602Y-171520025D01*
X213637333Y-171327463D01*
X213637333Y-169979111D01*
X213016444Y-169979111D01*
X213016444Y-169674235D01*
X213659916Y-169634029D01*
X213700968Y-168455111D01*
X214060667Y-168455111D01*
X214060667Y-169640445D01*
X214060667Y-169640445D01*
G37*
X214060667Y-169640445D02*
X215246000Y-169640445D01*
X215246000Y-169979111D01*
X214060667Y-169979111D01*
X214060667Y-171427433D01*
X214060865Y-171772864D01*
X214061719Y-172066715D01*
X214063619Y-172313851D01*
X214066953Y-172519139D01*
X214072111Y-172687441D01*
X214079482Y-172823622D01*
X214089454Y-172932548D01*
X214102417Y-173019083D01*
X214118761Y-173088092D01*
X214138874Y-173144440D01*
X214163145Y-173192990D01*
X214191964Y-173238608D01*
X214207307Y-173260583D01*
X214308502Y-173356595D01*
X214448159Y-173423018D01*
X214615680Y-173458182D01*
X214800470Y-173460416D01*
X214991931Y-173428047D01*
X215085020Y-173399031D01*
X215183043Y-173367284D01*
X215238997Y-173359636D01*
X215260938Y-173373907D01*
X215308172Y-173509435D01*
X215335457Y-173600444D01*
X215344702Y-173654454D01*
X215338269Y-173678582D01*
X215302298Y-173695365D01*
X215226628Y-173721408D01*
X215126162Y-173751670D01*
X215103089Y-173758150D01*
X214903550Y-173798593D01*
X214690928Y-173816304D01*
X214484059Y-173811156D01*
X214301780Y-173783022D01*
X214236086Y-173763976D01*
X214053781Y-173672395D01*
X213904347Y-173535565D01*
X213788593Y-173354693D01*
X213707327Y-173130987D01*
X213666810Y-172914963D01*
X213660468Y-172834521D01*
X213654655Y-172703948D01*
X213649486Y-172529556D01*
X213645079Y-172317656D01*
X213641551Y-172074560D01*
X213639020Y-171806579D01*
X213637602Y-171520025D01*
X213637333Y-171327463D01*
X213637333Y-169979111D01*
X213016444Y-169979111D01*
X213016444Y-169674235D01*
X213659916Y-169634029D01*
X213700968Y-168455111D01*
X214060667Y-168455111D01*
X214060667Y-169640445D01*
G36*
X211153778Y-169542098D02*
G01*
X211447123Y-169593474D01*
X211710228Y-169691916D01*
X211941377Y-169836257D01*
X212138855Y-170025333D01*
X212300946Y-170257979D01*
X212352243Y-170356187D01*
X212429370Y-170534394D01*
X212484553Y-170708588D01*
X212520756Y-170893777D01*
X212540941Y-171104969D01*
X212548012Y-171347889D01*
X212550778Y-171743000D01*
X211090278Y-171750310D01*
X209629778Y-171757619D01*
X209629975Y-171877310D01*
X209636846Y-171962589D01*
X209654851Y-172079668D01*
X209680386Y-172205860D01*
X209685928Y-172229561D01*
X209782530Y-172528664D01*
X209918009Y-172791550D01*
X210088410Y-173015696D01*
X210289780Y-173198575D01*
X210518167Y-173337661D01*
X210769617Y-173430431D01*
X211040177Y-173474357D01*
X211325893Y-173466915D01*
X211555779Y-173424069D01*
X211775365Y-173353734D01*
X211984231Y-173260704D01*
X212150236Y-173161524D01*
X212204953Y-173126862D01*
X212235536Y-173114956D01*
X212236936Y-173115755D01*
X212269386Y-173166862D01*
X212310860Y-173240819D01*
X212351970Y-173319639D01*
X212383330Y-173385334D01*
X212395556Y-173419691D01*
X212370985Y-173446550D01*
X212304492Y-173488458D01*
X212206908Y-173540383D01*
X212089063Y-173597294D01*
X211961786Y-173654159D01*
X211835907Y-173705946D01*
X211722257Y-173747624D01*
X211633556Y-173773724D01*
X211496662Y-173795958D01*
X211325194Y-173809585D01*
X211136490Y-173814621D01*
X210947890Y-173811080D01*
X210776732Y-173798977D01*
X210640356Y-173778327D01*
X210617556Y-173772853D01*
X210337383Y-173671172D01*
X210074306Y-173521054D01*
X209837157Y-173329722D01*
X209634764Y-173104402D01*
X209475960Y-172852318D01*
X209464591Y-172829556D01*
X209336787Y-172511612D01*
X209253648Y-172177726D01*
X209214261Y-171835332D01*
X209217712Y-171491867D01*
X209236483Y-171352403D01*
X209629778Y-171352403D01*
X209629778Y-171418445D01*
X212169778Y-171418445D01*
X212169778Y-171239515D01*
X212155536Y-171061478D01*
X212116763Y-170860388D01*
X212059393Y-170660709D01*
X211989357Y-170486908D01*
X211985319Y-170478715D01*
X211856614Y-170280569D01*
X211690647Y-170120193D01*
X211494471Y-170000396D01*
X211275138Y-169923988D01*
X211039702Y-169893779D01*
X210795217Y-169912580D01*
X210651403Y-169947244D01*
X210418348Y-170047056D01*
X210204956Y-170197096D01*
X210015807Y-170393196D01*
X209855480Y-170631194D01*
X209814486Y-170708540D01*
X209769285Y-170813755D01*
X209723327Y-170945255D01*
X209681691Y-171085338D01*
X209649455Y-171216299D01*
X209631697Y-171320438D01*
X209629778Y-171352403D01*
X209236483Y-171352403D01*
X209263086Y-171154763D01*
X209349470Y-170831457D01*
X209475950Y-170529382D01*
X209641611Y-170255974D01*
X209805175Y-170059294D01*
X210038399Y-169854787D01*
X210296139Y-169699065D01*
X210573501Y-169594006D01*
X210865592Y-169541485D01*
X211153778Y-169542098D01*
X211153778Y-169542098D01*
G37*
X211153778Y-169542098D02*
X211447123Y-169593474D01*
X211710228Y-169691916D01*
X211941377Y-169836257D01*
X212138855Y-170025333D01*
X212300946Y-170257979D01*
X212352243Y-170356187D01*
X212429370Y-170534394D01*
X212484553Y-170708588D01*
X212520756Y-170893777D01*
X212540941Y-171104969D01*
X212548012Y-171347889D01*
X212550778Y-171743000D01*
X211090278Y-171750310D01*
X209629778Y-171757619D01*
X209629975Y-171877310D01*
X209636846Y-171962589D01*
X209654851Y-172079668D01*
X209680386Y-172205860D01*
X209685928Y-172229561D01*
X209782530Y-172528664D01*
X209918009Y-172791550D01*
X210088410Y-173015696D01*
X210289780Y-173198575D01*
X210518167Y-173337661D01*
X210769617Y-173430431D01*
X211040177Y-173474357D01*
X211325893Y-173466915D01*
X211555779Y-173424069D01*
X211775365Y-173353734D01*
X211984231Y-173260704D01*
X212150236Y-173161524D01*
X212204953Y-173126862D01*
X212235536Y-173114956D01*
X212236936Y-173115755D01*
X212269386Y-173166862D01*
X212310860Y-173240819D01*
X212351970Y-173319639D01*
X212383330Y-173385334D01*
X212395556Y-173419691D01*
X212370985Y-173446550D01*
X212304492Y-173488458D01*
X212206908Y-173540383D01*
X212089063Y-173597294D01*
X211961786Y-173654159D01*
X211835907Y-173705946D01*
X211722257Y-173747624D01*
X211633556Y-173773724D01*
X211496662Y-173795958D01*
X211325194Y-173809585D01*
X211136490Y-173814621D01*
X210947890Y-173811080D01*
X210776732Y-173798977D01*
X210640356Y-173778327D01*
X210617556Y-173772853D01*
X210337383Y-173671172D01*
X210074306Y-173521054D01*
X209837157Y-173329722D01*
X209634764Y-173104402D01*
X209475960Y-172852318D01*
X209464591Y-172829556D01*
X209336787Y-172511612D01*
X209253648Y-172177726D01*
X209214261Y-171835332D01*
X209217712Y-171491867D01*
X209236483Y-171352403D01*
X209629778Y-171352403D01*
X209629778Y-171418445D01*
X212169778Y-171418445D01*
X212169778Y-171239515D01*
X212155536Y-171061478D01*
X212116763Y-170860388D01*
X212059393Y-170660709D01*
X211989357Y-170486908D01*
X211985319Y-170478715D01*
X211856614Y-170280569D01*
X211690647Y-170120193D01*
X211494471Y-170000396D01*
X211275138Y-169923988D01*
X211039702Y-169893779D01*
X210795217Y-169912580D01*
X210651403Y-169947244D01*
X210418348Y-170047056D01*
X210204956Y-170197096D01*
X210015807Y-170393196D01*
X209855480Y-170631194D01*
X209814486Y-170708540D01*
X209769285Y-170813755D01*
X209723327Y-170945255D01*
X209681691Y-171085338D01*
X209649455Y-171216299D01*
X209631697Y-171320438D01*
X209629778Y-171352403D01*
X209236483Y-171352403D01*
X209263086Y-171154763D01*
X209349470Y-170831457D01*
X209475950Y-170529382D01*
X209641611Y-170255974D01*
X209805175Y-170059294D01*
X210038399Y-169854787D01*
X210296139Y-169699065D01*
X210573501Y-169594006D01*
X210865592Y-169541485D01*
X211153778Y-169542098D01*
G36*
X200196685Y-169436754D02*
G01*
X200519995Y-169513480D01*
X200817789Y-169638600D01*
X201087147Y-169809861D01*
X201325147Y-170025007D01*
X201528871Y-170281784D01*
X201695397Y-170577937D01*
X201821805Y-170911212D01*
X201829883Y-170938667D01*
X201850117Y-171019337D01*
X201864576Y-171106403D01*
X201874082Y-171210873D01*
X201879457Y-171343753D01*
X201881524Y-171516051D01*
X201881552Y-171630111D01*
X201880606Y-171814927D01*
X201877944Y-171955080D01*
X201872303Y-172062352D01*
X201862419Y-172148524D01*
X201847031Y-172225375D01*
X201824874Y-172304687D01*
X201801369Y-172378000D01*
X201666537Y-172707479D01*
X201492398Y-172999187D01*
X201281226Y-173250906D01*
X201035296Y-173460422D01*
X200756882Y-173625519D01*
X200448261Y-173743979D01*
X200379779Y-173762736D01*
X200180251Y-173798578D01*
X199949651Y-173815717D01*
X199709663Y-173814201D01*
X199481971Y-173794073D01*
X199306922Y-173760463D01*
X199000134Y-173651264D01*
X198715517Y-173491651D01*
X198459801Y-173285503D01*
X198426972Y-173253431D01*
X198212505Y-173008655D01*
X198045276Y-172748053D01*
X197923010Y-172465692D01*
X197843433Y-172155637D01*
X197804270Y-171811957D01*
X197799120Y-171616000D01*
X197805474Y-171492976D01*
X199109666Y-171492976D01*
X199112132Y-171812474D01*
X199148959Y-172089266D01*
X199219952Y-172322657D01*
X199324911Y-172511951D01*
X199433114Y-172631095D01*
X199584467Y-172736014D01*
X199744085Y-172787974D01*
X199920320Y-172788895D01*
X200028663Y-172768014D01*
X200171363Y-172705172D01*
X200304864Y-172595941D01*
X200419692Y-172450375D01*
X200506371Y-172278527D01*
X200516689Y-172250152D01*
X200543352Y-172167057D01*
X200562035Y-172089544D01*
X200574116Y-172004730D01*
X200580973Y-171899733D01*
X200583987Y-171761672D01*
X200584556Y-171616000D01*
X200583654Y-171441525D01*
X200580029Y-171310597D01*
X200572303Y-171210335D01*
X200559097Y-171127856D01*
X200539033Y-171050279D01*
X200516689Y-170981848D01*
X200429541Y-170795468D01*
X200311061Y-170641105D01*
X200168941Y-170526669D01*
X200010874Y-170460064D01*
X200008510Y-170459491D01*
X199821447Y-170437027D01*
X199653985Y-170466200D01*
X199500178Y-170548754D01*
X199398441Y-170638222D01*
X199290811Y-170769468D01*
X199211154Y-170918528D01*
X199156166Y-171095181D01*
X199122544Y-171309205D01*
X199109666Y-171492976D01*
X197805474Y-171492976D01*
X197817872Y-171252968D01*
X197875696Y-170926653D01*
X197974947Y-170630902D01*
X198117980Y-170359563D01*
X198307149Y-170106483D01*
X198425556Y-169979023D01*
X198674197Y-169765779D01*
X198947186Y-169602876D01*
X199245666Y-169489857D01*
X199570780Y-169426267D01*
X199850778Y-169410678D01*
X200196685Y-169436754D01*
X200196685Y-169436754D01*
G37*
X200196685Y-169436754D02*
X200519995Y-169513480D01*
X200817789Y-169638600D01*
X201087147Y-169809861D01*
X201325147Y-170025007D01*
X201528871Y-170281784D01*
X201695397Y-170577937D01*
X201821805Y-170911212D01*
X201829883Y-170938667D01*
X201850117Y-171019337D01*
X201864576Y-171106403D01*
X201874082Y-171210873D01*
X201879457Y-171343753D01*
X201881524Y-171516051D01*
X201881552Y-171630111D01*
X201880606Y-171814927D01*
X201877944Y-171955080D01*
X201872303Y-172062352D01*
X201862419Y-172148524D01*
X201847031Y-172225375D01*
X201824874Y-172304687D01*
X201801369Y-172378000D01*
X201666537Y-172707479D01*
X201492398Y-172999187D01*
X201281226Y-173250906D01*
X201035296Y-173460422D01*
X200756882Y-173625519D01*
X200448261Y-173743979D01*
X200379779Y-173762736D01*
X200180251Y-173798578D01*
X199949651Y-173815717D01*
X199709663Y-173814201D01*
X199481971Y-173794073D01*
X199306922Y-173760463D01*
X199000134Y-173651264D01*
X198715517Y-173491651D01*
X198459801Y-173285503D01*
X198426972Y-173253431D01*
X198212505Y-173008655D01*
X198045276Y-172748053D01*
X197923010Y-172465692D01*
X197843433Y-172155637D01*
X197804270Y-171811957D01*
X197799120Y-171616000D01*
X197805474Y-171492976D01*
X199109666Y-171492976D01*
X199112132Y-171812474D01*
X199148959Y-172089266D01*
X199219952Y-172322657D01*
X199324911Y-172511951D01*
X199433114Y-172631095D01*
X199584467Y-172736014D01*
X199744085Y-172787974D01*
X199920320Y-172788895D01*
X200028663Y-172768014D01*
X200171363Y-172705172D01*
X200304864Y-172595941D01*
X200419692Y-172450375D01*
X200506371Y-172278527D01*
X200516689Y-172250152D01*
X200543352Y-172167057D01*
X200562035Y-172089544D01*
X200574116Y-172004730D01*
X200580973Y-171899733D01*
X200583987Y-171761672D01*
X200584556Y-171616000D01*
X200583654Y-171441525D01*
X200580029Y-171310597D01*
X200572303Y-171210335D01*
X200559097Y-171127856D01*
X200539033Y-171050279D01*
X200516689Y-170981848D01*
X200429541Y-170795468D01*
X200311061Y-170641105D01*
X200168941Y-170526669D01*
X200010874Y-170460064D01*
X200008510Y-170459491D01*
X199821447Y-170437027D01*
X199653985Y-170466200D01*
X199500178Y-170548754D01*
X199398441Y-170638222D01*
X199290811Y-170769468D01*
X199211154Y-170918528D01*
X199156166Y-171095181D01*
X199122544Y-171309205D01*
X199109666Y-171492976D01*
X197805474Y-171492976D01*
X197817872Y-171252968D01*
X197875696Y-170926653D01*
X197974947Y-170630902D01*
X198117980Y-170359563D01*
X198307149Y-170106483D01*
X198425556Y-169979023D01*
X198674197Y-169765779D01*
X198947186Y-169602876D01*
X199245666Y-169489857D01*
X199570780Y-169426267D01*
X199850778Y-169410678D01*
X200196685Y-169436754D01*
G36*
X194615556Y-173732667D02*
G01*
X193576459Y-173732667D01*
X193541154Y-173535111D01*
X193522486Y-173438317D01*
X193506289Y-173367885D01*
X193495815Y-173337806D01*
X193495235Y-173337556D01*
X193469434Y-173353457D01*
X193410546Y-173395620D01*
X193330099Y-173455734D01*
X193309254Y-173471611D01*
X193191073Y-173553146D01*
X193051102Y-173637077D01*
X192922222Y-173703967D01*
X192828132Y-173746162D01*
X192751132Y-173774474D01*
X192675135Y-173791966D01*
X192584050Y-173801698D01*
X192461789Y-173806731D01*
X192371889Y-173808672D01*
X192163319Y-173807508D01*
X191999967Y-173795591D01*
X191897510Y-173776373D01*
X191637246Y-173673657D01*
X191395950Y-173522403D01*
X191181539Y-173329427D01*
X191001929Y-173101543D01*
X190895971Y-172914222D01*
X190815533Y-172736946D01*
X190754286Y-172575291D01*
X190709807Y-172416694D01*
X190679674Y-172248595D01*
X190661464Y-172058432D01*
X190652754Y-171833643D01*
X190651005Y-171644222D01*
X190651137Y-171581795D01*
X191938515Y-171581795D01*
X191942404Y-171755921D01*
X191974656Y-172044375D01*
X192038256Y-172286561D01*
X192133090Y-172482227D01*
X192259041Y-172631117D01*
X192381836Y-172716229D01*
X192498713Y-172755152D01*
X192645677Y-172771972D01*
X192800847Y-172766611D01*
X192942339Y-172738989D01*
X192997521Y-172718462D01*
X193086090Y-172666129D01*
X193182311Y-172591501D01*
X193230354Y-172546345D01*
X193345556Y-172427638D01*
X193345556Y-171566319D01*
X193345848Y-171319778D01*
X193345763Y-171123244D01*
X193343858Y-170970292D01*
X193338692Y-170854497D01*
X193328821Y-170769430D01*
X193312803Y-170708668D01*
X193289196Y-170665783D01*
X193256557Y-170634349D01*
X193213444Y-170607939D01*
X193158414Y-170580129D01*
X193119778Y-170560464D01*
X193023714Y-170516136D01*
X192930072Y-170482042D01*
X192899003Y-170473784D01*
X192691674Y-170452879D01*
X192505559Y-170482503D01*
X192342519Y-170560165D01*
X192204412Y-170683371D01*
X192093099Y-170849630D01*
X192010438Y-171056449D01*
X191958290Y-171301334D01*
X191938515Y-171581795D01*
X190651137Y-171581795D01*
X190651423Y-171446798D01*
X190653790Y-171294756D01*
X190659021Y-171177041D01*
X190668033Y-171082601D01*
X190681742Y-171000382D01*
X190701063Y-170919330D01*
X190715313Y-170868111D01*
X190836048Y-170531369D01*
X190992955Y-170232209D01*
X191183892Y-169973796D01*
X191406718Y-169759293D01*
X191524093Y-169673045D01*
X191750209Y-169542264D01*
X191973342Y-169458582D01*
X192211070Y-169416533D01*
X192373309Y-169408974D01*
X192654639Y-169428082D01*
X192903944Y-169490653D01*
X193127802Y-169598971D01*
X193308513Y-169733543D01*
X193410339Y-169822947D01*
X193391322Y-169724640D01*
X193386189Y-169672996D01*
X193380520Y-169572483D01*
X193374581Y-169430672D01*
X193368641Y-169255133D01*
X193362965Y-169053438D01*
X193357822Y-168833155D01*
X193355229Y-168702056D01*
X193338153Y-167777778D01*
X194615556Y-167777778D01*
X194615556Y-173732667D01*
X194615556Y-173732667D01*
G37*
X194615556Y-173732667D02*
X193576459Y-173732667D01*
X193541154Y-173535111D01*
X193522486Y-173438317D01*
X193506289Y-173367885D01*
X193495815Y-173337806D01*
X193495235Y-173337556D01*
X193469434Y-173353457D01*
X193410546Y-173395620D01*
X193330099Y-173455734D01*
X193309254Y-173471611D01*
X193191073Y-173553146D01*
X193051102Y-173637077D01*
X192922222Y-173703967D01*
X192828132Y-173746162D01*
X192751132Y-173774474D01*
X192675135Y-173791966D01*
X192584050Y-173801698D01*
X192461789Y-173806731D01*
X192371889Y-173808672D01*
X192163319Y-173807508D01*
X191999967Y-173795591D01*
X191897510Y-173776373D01*
X191637246Y-173673657D01*
X191395950Y-173522403D01*
X191181539Y-173329427D01*
X191001929Y-173101543D01*
X190895971Y-172914222D01*
X190815533Y-172736946D01*
X190754286Y-172575291D01*
X190709807Y-172416694D01*
X190679674Y-172248595D01*
X190661464Y-172058432D01*
X190652754Y-171833643D01*
X190651005Y-171644222D01*
X190651137Y-171581795D01*
X191938515Y-171581795D01*
X191942404Y-171755921D01*
X191974656Y-172044375D01*
X192038256Y-172286561D01*
X192133090Y-172482227D01*
X192259041Y-172631117D01*
X192381836Y-172716229D01*
X192498713Y-172755152D01*
X192645677Y-172771972D01*
X192800847Y-172766611D01*
X192942339Y-172738989D01*
X192997521Y-172718462D01*
X193086090Y-172666129D01*
X193182311Y-172591501D01*
X193230354Y-172546345D01*
X193345556Y-172427638D01*
X193345556Y-171566319D01*
X193345848Y-171319778D01*
X193345763Y-171123244D01*
X193343858Y-170970292D01*
X193338692Y-170854497D01*
X193328821Y-170769430D01*
X193312803Y-170708668D01*
X193289196Y-170665783D01*
X193256557Y-170634349D01*
X193213444Y-170607939D01*
X193158414Y-170580129D01*
X193119778Y-170560464D01*
X193023714Y-170516136D01*
X192930072Y-170482042D01*
X192899003Y-170473784D01*
X192691674Y-170452879D01*
X192505559Y-170482503D01*
X192342519Y-170560165D01*
X192204412Y-170683371D01*
X192093099Y-170849630D01*
X192010438Y-171056449D01*
X191958290Y-171301334D01*
X191938515Y-171581795D01*
X190651137Y-171581795D01*
X190651423Y-171446798D01*
X190653790Y-171294756D01*
X190659021Y-171177041D01*
X190668033Y-171082601D01*
X190681742Y-171000382D01*
X190701063Y-170919330D01*
X190715313Y-170868111D01*
X190836048Y-170531369D01*
X190992955Y-170232209D01*
X191183892Y-169973796D01*
X191406718Y-169759293D01*
X191524093Y-169673045D01*
X191750209Y-169542264D01*
X191973342Y-169458582D01*
X192211070Y-169416533D01*
X192373309Y-169408974D01*
X192654639Y-169428082D01*
X192903944Y-169490653D01*
X193127802Y-169598971D01*
X193308513Y-169733543D01*
X193410339Y-169822947D01*
X193391322Y-169724640D01*
X193386189Y-169672996D01*
X193380520Y-169572483D01*
X193374581Y-169430672D01*
X193368641Y-169255133D01*
X193362965Y-169053438D01*
X193357822Y-168833155D01*
X193355229Y-168702056D01*
X193338153Y-167777778D01*
X194615556Y-167777778D01*
X194615556Y-173732667D01*
G36*
X187291889Y-172363889D02*
G01*
X187359570Y-172501381D01*
X187446642Y-172625408D01*
X187564680Y-172704123D01*
X187716115Y-172738700D01*
X187847109Y-172736931D01*
X188024110Y-172698712D01*
X188186285Y-172614905D01*
X188341782Y-172480874D01*
X188390200Y-172428064D01*
X188519556Y-172280192D01*
X188519556Y-169499333D01*
X189789556Y-169499333D01*
X189789556Y-173732667D01*
X189270464Y-173732667D01*
X189076215Y-173731717D01*
X188932290Y-173728590D01*
X188832596Y-173722871D01*
X188771041Y-173714143D01*
X188741531Y-173701991D01*
X188737415Y-173696295D01*
X188727465Y-173653345D01*
X188712711Y-173569396D01*
X188695701Y-173459413D01*
X188688212Y-173407017D01*
X188652965Y-173154111D01*
X188450243Y-173352075D01*
X188215884Y-173549114D01*
X187969498Y-173693084D01*
X187759489Y-173772308D01*
X187610012Y-173801568D01*
X187426550Y-173815693D01*
X187229410Y-173814982D01*
X187038903Y-173799735D01*
X186875334Y-173770248D01*
X186834703Y-173758718D01*
X186615949Y-173661133D01*
X186429530Y-173517481D01*
X186275762Y-173328180D01*
X186154964Y-173093648D01*
X186067451Y-172814303D01*
X186047623Y-172721240D01*
X186038301Y-172660783D01*
X186030448Y-172581302D01*
X186023960Y-172478282D01*
X186018731Y-172347205D01*
X186014656Y-172183553D01*
X186011631Y-171982811D01*
X186009550Y-171740461D01*
X186008309Y-171451985D01*
X186007802Y-171112868D01*
X186007778Y-171006740D01*
X186007778Y-169499333D01*
X187275811Y-169499333D01*
X187291889Y-172363889D01*
X187291889Y-172363889D01*
G37*
X187291889Y-172363889D02*
X187359570Y-172501381D01*
X187446642Y-172625408D01*
X187564680Y-172704123D01*
X187716115Y-172738700D01*
X187847109Y-172736931D01*
X188024110Y-172698712D01*
X188186285Y-172614905D01*
X188341782Y-172480874D01*
X188390200Y-172428064D01*
X188519556Y-172280192D01*
X188519556Y-169499333D01*
X189789556Y-169499333D01*
X189789556Y-173732667D01*
X189270464Y-173732667D01*
X189076215Y-173731717D01*
X188932290Y-173728590D01*
X188832596Y-173722871D01*
X188771041Y-173714143D01*
X188741531Y-173701991D01*
X188737415Y-173696295D01*
X188727465Y-173653345D01*
X188712711Y-173569396D01*
X188695701Y-173459413D01*
X188688212Y-173407017D01*
X188652965Y-173154111D01*
X188450243Y-173352075D01*
X188215884Y-173549114D01*
X187969498Y-173693084D01*
X187759489Y-173772308D01*
X187610012Y-173801568D01*
X187426550Y-173815693D01*
X187229410Y-173814982D01*
X187038903Y-173799735D01*
X186875334Y-173770248D01*
X186834703Y-173758718D01*
X186615949Y-173661133D01*
X186429530Y-173517481D01*
X186275762Y-173328180D01*
X186154964Y-173093648D01*
X186067451Y-172814303D01*
X186047623Y-172721240D01*
X186038301Y-172660783D01*
X186030448Y-172581302D01*
X186023960Y-172478282D01*
X186018731Y-172347205D01*
X186014656Y-172183553D01*
X186011631Y-171982811D01*
X186009550Y-171740461D01*
X186008309Y-171451985D01*
X186007802Y-171112868D01*
X186007778Y-171006740D01*
X186007778Y-169499333D01*
X187275811Y-169499333D01*
X187291889Y-172363889D01*
G36*
X184229778Y-169499333D02*
G01*
X185245778Y-169499333D01*
X185245778Y-170515333D01*
X184225772Y-170515333D01*
X184235724Y-171467833D01*
X184238792Y-171738904D01*
X184242306Y-171959724D01*
X184247081Y-172136485D01*
X184253931Y-172275381D01*
X184263669Y-172382603D01*
X184277109Y-172464344D01*
X184295066Y-172526798D01*
X184318354Y-172576155D01*
X184347786Y-172618609D01*
X184384177Y-172660352D01*
X184393851Y-172670754D01*
X184523634Y-172771559D01*
X184677475Y-172821765D01*
X184855932Y-172821478D01*
X185008459Y-172787528D01*
X185090488Y-172763496D01*
X185148299Y-172748139D01*
X185163632Y-172745194D01*
X185177627Y-172771050D01*
X185198065Y-172841567D01*
X185222831Y-172945613D01*
X185249807Y-173072059D01*
X185276878Y-173209772D01*
X185301927Y-173347623D01*
X185322837Y-173474481D01*
X185337494Y-173579214D01*
X185343779Y-173650691D01*
X185340820Y-173677136D01*
X185302517Y-173695010D01*
X185222973Y-173719870D01*
X185116272Y-173747533D01*
X185060927Y-173760273D01*
X184892492Y-173788465D01*
X184696361Y-173806912D01*
X184488377Y-173815443D01*
X184284379Y-173813885D01*
X184100208Y-173802065D01*
X183951706Y-173779811D01*
X183922286Y-173772671D01*
X183677684Y-173680019D01*
X183467379Y-173542751D01*
X183291207Y-173360693D01*
X183149006Y-173133670D01*
X183040610Y-172861508D01*
X183026874Y-172815445D01*
X183013919Y-172762861D01*
X183003186Y-172700083D01*
X182994381Y-172621064D01*
X182987210Y-172519754D01*
X182981377Y-172390106D01*
X182976589Y-172226070D01*
X182972551Y-172021599D01*
X182968968Y-171770644D01*
X182966755Y-171580722D01*
X182955088Y-170515333D01*
X182395333Y-170515333D01*
X182395333Y-169561074D01*
X182529389Y-169545508D01*
X182632925Y-169534225D01*
X182759870Y-169521393D01*
X182848957Y-169512925D01*
X183034470Y-169495909D01*
X183098026Y-168982566D01*
X183119101Y-168815661D01*
X183138783Y-168665897D01*
X183155708Y-168543197D01*
X183168510Y-168457485D01*
X183175470Y-168419833D01*
X183184912Y-168402339D01*
X183207075Y-168389510D01*
X183249641Y-168380635D01*
X183320293Y-168375004D01*
X183426712Y-168371906D01*
X183576581Y-168370632D01*
X183709568Y-168370445D01*
X184229778Y-168370445D01*
X184229778Y-169499333D01*
X184229778Y-169499333D01*
G37*
X184229778Y-169499333D02*
X185245778Y-169499333D01*
X185245778Y-170515333D01*
X184225772Y-170515333D01*
X184235724Y-171467833D01*
X184238792Y-171738904D01*
X184242306Y-171959724D01*
X184247081Y-172136485D01*
X184253931Y-172275381D01*
X184263669Y-172382603D01*
X184277109Y-172464344D01*
X184295066Y-172526798D01*
X184318354Y-172576155D01*
X184347786Y-172618609D01*
X184384177Y-172660352D01*
X184393851Y-172670754D01*
X184523634Y-172771559D01*
X184677475Y-172821765D01*
X184855932Y-172821478D01*
X185008459Y-172787528D01*
X185090488Y-172763496D01*
X185148299Y-172748139D01*
X185163632Y-172745194D01*
X185177627Y-172771050D01*
X185198065Y-172841567D01*
X185222831Y-172945613D01*
X185249807Y-173072059D01*
X185276878Y-173209772D01*
X185301927Y-173347623D01*
X185322837Y-173474481D01*
X185337494Y-173579214D01*
X185343779Y-173650691D01*
X185340820Y-173677136D01*
X185302517Y-173695010D01*
X185222973Y-173719870D01*
X185116272Y-173747533D01*
X185060927Y-173760273D01*
X184892492Y-173788465D01*
X184696361Y-173806912D01*
X184488377Y-173815443D01*
X184284379Y-173813885D01*
X184100208Y-173802065D01*
X183951706Y-173779811D01*
X183922286Y-173772671D01*
X183677684Y-173680019D01*
X183467379Y-173542751D01*
X183291207Y-173360693D01*
X183149006Y-173133670D01*
X183040610Y-172861508D01*
X183026874Y-172815445D01*
X183013919Y-172762861D01*
X183003186Y-172700083D01*
X182994381Y-172621064D01*
X182987210Y-172519754D01*
X182981377Y-172390106D01*
X182976589Y-172226070D01*
X182972551Y-172021599D01*
X182968968Y-171770644D01*
X182966755Y-171580722D01*
X182955088Y-170515333D01*
X182395333Y-170515333D01*
X182395333Y-169561074D01*
X182529389Y-169545508D01*
X182632925Y-169534225D01*
X182759870Y-169521393D01*
X182848957Y-169512925D01*
X183034470Y-169495909D01*
X183098026Y-168982566D01*
X183119101Y-168815661D01*
X183138783Y-168665897D01*
X183155708Y-168543197D01*
X183168510Y-168457485D01*
X183175470Y-168419833D01*
X183184912Y-168402339D01*
X183207075Y-168389510D01*
X183249641Y-168380635D01*
X183320293Y-168375004D01*
X183426712Y-168371906D01*
X183576581Y-168370632D01*
X183709568Y-168370445D01*
X184229778Y-168370445D01*
X184229778Y-169499333D01*
G36*
X180521126Y-168101649D02*
G01*
X180860110Y-168150602D01*
X181181112Y-168245930D01*
X181494328Y-168390125D01*
X181599014Y-168449628D01*
X181702947Y-168516188D01*
X181809602Y-168592385D01*
X181908596Y-168669788D01*
X181989549Y-168739963D01*
X182042080Y-168794477D01*
X182056667Y-168821374D01*
X182039734Y-168850356D01*
X181993605Y-168913410D01*
X181925286Y-169001930D01*
X181841782Y-169107311D01*
X181750099Y-169220948D01*
X181657243Y-169334233D01*
X181570220Y-169438561D01*
X181496033Y-169525327D01*
X181441691Y-169585924D01*
X181414197Y-169611747D01*
X181412976Y-169612101D01*
X181380509Y-169597389D01*
X181317872Y-169559691D01*
X181266444Y-169525887D01*
X181036785Y-169390090D01*
X180802095Y-169287945D01*
X180569338Y-169220092D01*
X180345476Y-169187173D01*
X180137473Y-169189828D01*
X179952293Y-169228698D01*
X179796898Y-169304426D01*
X179707194Y-169382321D01*
X179619623Y-169513405D01*
X179586927Y-169647924D01*
X179608201Y-169780676D01*
X179682539Y-169906463D01*
X179809037Y-170020086D01*
X179819474Y-170027216D01*
X179884087Y-170063608D01*
X179991910Y-170116376D01*
X180133603Y-170181299D01*
X180299825Y-170254157D01*
X180481234Y-170330727D01*
X180587602Y-170374314D01*
X180778273Y-170452577D01*
X180963652Y-170530522D01*
X181133266Y-170603605D01*
X181276646Y-170667283D01*
X181383322Y-170717016D01*
X181420002Y-170735431D01*
X181661007Y-170892188D01*
X181864179Y-171087044D01*
X182025287Y-171314159D01*
X182140102Y-171567687D01*
X182200351Y-171813556D01*
X182221634Y-172123610D01*
X182190292Y-172418945D01*
X182109033Y-172695965D01*
X181980569Y-172951078D01*
X181807609Y-173180690D01*
X181592865Y-173381208D01*
X181339047Y-173549038D01*
X181048865Y-173680587D01*
X180725030Y-173772260D01*
X180722580Y-173772768D01*
X180545178Y-173798539D01*
X180330871Y-173812819D01*
X180097982Y-173815766D01*
X179864836Y-173807540D01*
X179649756Y-173788299D01*
X179488444Y-173762055D01*
X179094464Y-173649974D01*
X178720486Y-173487779D01*
X178374315Y-173279005D01*
X178296056Y-173222223D01*
X178183139Y-173129684D01*
X178119881Y-173059279D01*
X178105556Y-173021573D01*
X178122417Y-172987809D01*
X178168544Y-172919926D01*
X178237255Y-172826322D01*
X178321866Y-172715398D01*
X178415695Y-172595553D01*
X178512057Y-172475187D01*
X178604270Y-172362699D01*
X178685650Y-172266489D01*
X178749515Y-172194956D01*
X178789182Y-172156500D01*
X178797260Y-172152222D01*
X178824399Y-172168086D01*
X178883154Y-172209621D01*
X178958705Y-172266242D01*
X179091477Y-172356195D01*
X179256296Y-172450402D01*
X179434753Y-172539760D01*
X179608439Y-172615165D01*
X179758944Y-172667515D01*
X179783652Y-172674167D01*
X179975673Y-172707643D01*
X180175741Y-172716339D01*
X180370175Y-172701698D01*
X180545296Y-172665164D01*
X180687423Y-172608182D01*
X180741016Y-172573123D01*
X180837190Y-172463808D01*
X180893143Y-172327642D01*
X180905439Y-172180583D01*
X180870644Y-172038588D01*
X180860573Y-172017591D01*
X180826552Y-171963398D01*
X180779073Y-171911512D01*
X180712470Y-171858688D01*
X180621077Y-171801679D01*
X180499227Y-171737239D01*
X180341255Y-171662121D01*
X180141494Y-171573080D01*
X179913799Y-171475166D01*
X179656106Y-171364432D01*
X179444262Y-171270288D01*
X179271496Y-171188899D01*
X179131038Y-171116430D01*
X179016117Y-171049044D01*
X178919962Y-170982908D01*
X178835803Y-170914184D01*
X178756870Y-170839038D01*
X178716179Y-170796722D01*
X178552638Y-170600414D01*
X178435315Y-170405151D01*
X178356037Y-170196896D01*
X178346373Y-170161569D01*
X178320746Y-170017851D01*
X178307193Y-169843611D01*
X178305838Y-169659999D01*
X178316806Y-169488163D01*
X178340221Y-169349251D01*
X178341570Y-169344111D01*
X178439570Y-169084116D01*
X178586604Y-168841855D01*
X178776163Y-168625021D01*
X179001736Y-168441309D01*
X179206222Y-168322143D01*
X179389105Y-168238740D01*
X179555815Y-168178783D01*
X179724109Y-168138047D01*
X179911749Y-168112305D01*
X180136491Y-168097330D01*
X180153964Y-168096580D01*
X180521126Y-168101649D01*
X180521126Y-168101649D01*
G37*
X180521126Y-168101649D02*
X180860110Y-168150602D01*
X181181112Y-168245930D01*
X181494328Y-168390125D01*
X181599014Y-168449628D01*
X181702947Y-168516188D01*
X181809602Y-168592385D01*
X181908596Y-168669788D01*
X181989549Y-168739963D01*
X182042080Y-168794477D01*
X182056667Y-168821374D01*
X182039734Y-168850356D01*
X181993605Y-168913410D01*
X181925286Y-169001930D01*
X181841782Y-169107311D01*
X181750099Y-169220948D01*
X181657243Y-169334233D01*
X181570220Y-169438561D01*
X181496033Y-169525327D01*
X181441691Y-169585924D01*
X181414197Y-169611747D01*
X181412976Y-169612101D01*
X181380509Y-169597389D01*
X181317872Y-169559691D01*
X181266444Y-169525887D01*
X181036785Y-169390090D01*
X180802095Y-169287945D01*
X180569338Y-169220092D01*
X180345476Y-169187173D01*
X180137473Y-169189828D01*
X179952293Y-169228698D01*
X179796898Y-169304426D01*
X179707194Y-169382321D01*
X179619623Y-169513405D01*
X179586927Y-169647924D01*
X179608201Y-169780676D01*
X179682539Y-169906463D01*
X179809037Y-170020086D01*
X179819474Y-170027216D01*
X179884087Y-170063608D01*
X179991910Y-170116376D01*
X180133603Y-170181299D01*
X180299825Y-170254157D01*
X180481234Y-170330727D01*
X180587602Y-170374314D01*
X180778273Y-170452577D01*
X180963652Y-170530522D01*
X181133266Y-170603605D01*
X181276646Y-170667283D01*
X181383322Y-170717016D01*
X181420002Y-170735431D01*
X181661007Y-170892188D01*
X181864179Y-171087044D01*
X182025287Y-171314159D01*
X182140102Y-171567687D01*
X182200351Y-171813556D01*
X182221634Y-172123610D01*
X182190292Y-172418945D01*
X182109033Y-172695965D01*
X181980569Y-172951078D01*
X181807609Y-173180690D01*
X181592865Y-173381208D01*
X181339047Y-173549038D01*
X181048865Y-173680587D01*
X180725030Y-173772260D01*
X180722580Y-173772768D01*
X180545178Y-173798539D01*
X180330871Y-173812819D01*
X180097982Y-173815766D01*
X179864836Y-173807540D01*
X179649756Y-173788299D01*
X179488444Y-173762055D01*
X179094464Y-173649974D01*
X178720486Y-173487779D01*
X178374315Y-173279005D01*
X178296056Y-173222223D01*
X178183139Y-173129684D01*
X178119881Y-173059279D01*
X178105556Y-173021573D01*
X178122417Y-172987809D01*
X178168544Y-172919926D01*
X178237255Y-172826322D01*
X178321866Y-172715398D01*
X178415695Y-172595553D01*
X178512057Y-172475187D01*
X178604270Y-172362699D01*
X178685650Y-172266489D01*
X178749515Y-172194956D01*
X178789182Y-172156500D01*
X178797260Y-172152222D01*
X178824399Y-172168086D01*
X178883154Y-172209621D01*
X178958705Y-172266242D01*
X179091477Y-172356195D01*
X179256296Y-172450402D01*
X179434753Y-172539760D01*
X179608439Y-172615165D01*
X179758944Y-172667515D01*
X179783652Y-172674167D01*
X179975673Y-172707643D01*
X180175741Y-172716339D01*
X180370175Y-172701698D01*
X180545296Y-172665164D01*
X180687423Y-172608182D01*
X180741016Y-172573123D01*
X180837190Y-172463808D01*
X180893143Y-172327642D01*
X180905439Y-172180583D01*
X180870644Y-172038588D01*
X180860573Y-172017591D01*
X180826552Y-171963398D01*
X180779073Y-171911512D01*
X180712470Y-171858688D01*
X180621077Y-171801679D01*
X180499227Y-171737239D01*
X180341255Y-171662121D01*
X180141494Y-171573080D01*
X179913799Y-171475166D01*
X179656106Y-171364432D01*
X179444262Y-171270288D01*
X179271496Y-171188899D01*
X179131038Y-171116430D01*
X179016117Y-171049044D01*
X178919962Y-170982908D01*
X178835803Y-170914184D01*
X178756870Y-170839038D01*
X178716179Y-170796722D01*
X178552638Y-170600414D01*
X178435315Y-170405151D01*
X178356037Y-170196896D01*
X178346373Y-170161569D01*
X178320746Y-170017851D01*
X178307193Y-169843611D01*
X178305838Y-169659999D01*
X178316806Y-169488163D01*
X178340221Y-169349251D01*
X178341570Y-169344111D01*
X178439570Y-169084116D01*
X178586604Y-168841855D01*
X178776163Y-168625021D01*
X179001736Y-168441309D01*
X179206222Y-168322143D01*
X179389105Y-168238740D01*
X179555815Y-168178783D01*
X179724109Y-168138047D01*
X179911749Y-168112305D01*
X180136491Y-168097330D01*
X180153964Y-168096580D01*
X180521126Y-168101649D01*
D12*
X50966666Y-55402380D02*
X50966666Y-56116666D01*
X50919047Y-56259523D01*
X50823809Y-56354761D01*
X50680952Y-56402380D01*
X50585714Y-56402380D01*
X51395238Y-55497619D02*
X51442857Y-55450000D01*
X51538095Y-55402380D01*
X51776190Y-55402380D01*
X51871428Y-55450000D01*
X51919047Y-55497619D01*
X51966666Y-55592857D01*
X51966666Y-55688095D01*
X51919047Y-55830952D01*
X51347619Y-56402380D01*
X51966666Y-56402380D01*
X81478380Y-63190285D02*
X80478380Y-63190285D01*
X80478380Y-62809333D01*
X80526000Y-62714095D01*
X80573619Y-62666476D01*
X80668857Y-62618857D01*
X80811714Y-62618857D01*
X80906952Y-62666476D01*
X80954571Y-62714095D01*
X81002190Y-62809333D01*
X81002190Y-63190285D01*
X81430761Y-62237904D02*
X81478380Y-62095047D01*
X81478380Y-61856952D01*
X81430761Y-61761714D01*
X81383142Y-61714095D01*
X81287904Y-61666476D01*
X81192666Y-61666476D01*
X81097428Y-61714095D01*
X81049809Y-61761714D01*
X81002190Y-61856952D01*
X80954571Y-62047428D01*
X80906952Y-62142666D01*
X80859333Y-62190285D01*
X80764095Y-62237904D01*
X80668857Y-62237904D01*
X80573619Y-62190285D01*
X80526000Y-62142666D01*
X80478380Y-62047428D01*
X80478380Y-61809333D01*
X80526000Y-61666476D01*
X81478380Y-60714095D02*
X81478380Y-61285523D01*
X81478380Y-60999809D02*
X80478380Y-60999809D01*
X80621238Y-61095047D01*
X80716476Y-61190285D01*
X80764095Y-61285523D01*
X57586666Y-73038571D02*
X57253333Y-73038571D01*
X57253333Y-73562380D02*
X57253333Y-72562380D01*
X57729523Y-72562380D01*
X58634285Y-73562380D02*
X58062857Y-73562380D01*
X58348571Y-73562380D02*
X58348571Y-72562380D01*
X58253333Y-72705238D01*
X58158095Y-72800476D01*
X58062857Y-72848095D01*
X78207142Y-65836666D02*
X78254761Y-65884285D01*
X78302380Y-66027142D01*
X78302380Y-66122380D01*
X78254761Y-66265238D01*
X78159523Y-66360476D01*
X78064285Y-66408095D01*
X77873809Y-66455714D01*
X77730952Y-66455714D01*
X77540476Y-66408095D01*
X77445238Y-66360476D01*
X77350000Y-66265238D01*
X77302380Y-66122380D01*
X77302380Y-66027142D01*
X77350000Y-65884285D01*
X77397619Y-65836666D01*
X78302380Y-65360476D02*
X78302380Y-65170000D01*
X78254761Y-65074761D01*
X78207142Y-65027142D01*
X78064285Y-64931904D01*
X77873809Y-64884285D01*
X77492857Y-64884285D01*
X77397619Y-64931904D01*
X77350000Y-64979523D01*
X77302380Y-65074761D01*
X77302380Y-65265238D01*
X77350000Y-65360476D01*
X77397619Y-65408095D01*
X77492857Y-65455714D01*
X77730952Y-65455714D01*
X77826190Y-65408095D01*
X77873809Y-65360476D01*
X77921428Y-65265238D01*
X77921428Y-65074761D01*
X77873809Y-64979523D01*
X77826190Y-64931904D01*
X77730952Y-64884285D01*
X63322380Y-62171904D02*
X64131904Y-62171904D01*
X64227142Y-62124285D01*
X64274761Y-62076666D01*
X64322380Y-61981428D01*
X64322380Y-61790952D01*
X64274761Y-61695714D01*
X64227142Y-61648095D01*
X64131904Y-61600476D01*
X63322380Y-61600476D01*
X63322380Y-61219523D02*
X63322380Y-60600476D01*
X63703333Y-60933809D01*
X63703333Y-60790952D01*
X63750952Y-60695714D01*
X63798571Y-60648095D01*
X63893809Y-60600476D01*
X64131904Y-60600476D01*
X64227142Y-60648095D01*
X64274761Y-60695714D01*
X64322380Y-60790952D01*
X64322380Y-61076666D01*
X64274761Y-61171904D01*
X64227142Y-61219523D01*
X86682380Y-65836666D02*
X86206190Y-66170000D01*
X86682380Y-66408095D02*
X85682380Y-66408095D01*
X85682380Y-66027142D01*
X85730000Y-65931904D01*
X85777619Y-65884285D01*
X85872857Y-65836666D01*
X86015714Y-65836666D01*
X86110952Y-65884285D01*
X86158571Y-65931904D01*
X86206190Y-66027142D01*
X86206190Y-66408095D01*
X86015714Y-64979523D02*
X86682380Y-64979523D01*
X85634761Y-65217619D02*
X86349047Y-65455714D01*
X86349047Y-64836666D01*
X89642380Y-65826666D02*
X89166190Y-66160000D01*
X89642380Y-66398095D02*
X88642380Y-66398095D01*
X88642380Y-66017142D01*
X88690000Y-65921904D01*
X88737619Y-65874285D01*
X88832857Y-65826666D01*
X88975714Y-65826666D01*
X89070952Y-65874285D01*
X89118571Y-65921904D01*
X89166190Y-66017142D01*
X89166190Y-66398095D01*
X88642380Y-65493333D02*
X88642380Y-64874285D01*
X89023333Y-65207619D01*
X89023333Y-65064761D01*
X89070952Y-64969523D01*
X89118571Y-64921904D01*
X89213809Y-64874285D01*
X89451904Y-64874285D01*
X89547142Y-64921904D01*
X89594761Y-64969523D01*
X89642380Y-65064761D01*
X89642380Y-65350476D01*
X89594761Y-65445714D01*
X89547142Y-65493333D01*
X84152333Y-72208380D02*
X83819000Y-71732190D01*
X83580904Y-72208380D02*
X83580904Y-71208380D01*
X83961857Y-71208380D01*
X84057095Y-71256000D01*
X84104714Y-71303619D01*
X84152333Y-71398857D01*
X84152333Y-71541714D01*
X84104714Y-71636952D01*
X84057095Y-71684571D01*
X83961857Y-71732190D01*
X83580904Y-71732190D01*
X85104714Y-72208380D02*
X84533285Y-72208380D01*
X84819000Y-72208380D02*
X84819000Y-71208380D01*
X84723761Y-71351238D01*
X84628523Y-71446476D01*
X84533285Y-71494095D01*
X67883809Y-73058571D02*
X67550476Y-73058571D01*
X67550476Y-73582380D02*
X67550476Y-72582380D01*
X68026666Y-72582380D01*
X68264761Y-72582380D02*
X68836190Y-72582380D01*
X68550476Y-73582380D02*
X68550476Y-72582380D01*
X69169523Y-73582380D02*
X69169523Y-72582380D01*
X69407619Y-72582380D01*
X69550476Y-72630000D01*
X69645714Y-72725238D01*
X69693333Y-72820476D01*
X69740952Y-73010952D01*
X69740952Y-73153809D01*
X69693333Y-73344285D01*
X69645714Y-73439523D01*
X69550476Y-73534761D01*
X69407619Y-73582380D01*
X69169523Y-73582380D01*
X70169523Y-73582380D02*
X70169523Y-72582380D01*
X89114380Y-74247333D02*
X89828666Y-74247333D01*
X89971523Y-74294952D01*
X90066761Y-74390190D01*
X90114380Y-74533047D01*
X90114380Y-74628285D01*
X89114380Y-73866380D02*
X89114380Y-73247333D01*
X89495333Y-73580666D01*
X89495333Y-73437809D01*
X89542952Y-73342571D01*
X89590571Y-73294952D01*
X89685809Y-73247333D01*
X89923904Y-73247333D01*
X90019142Y-73294952D01*
X90066761Y-73342571D01*
X90114380Y-73437809D01*
X90114380Y-73723523D01*
X90066761Y-73818761D01*
X90019142Y-73866380D01*
X80083333Y-59767142D02*
X80035714Y-59814761D01*
X79892857Y-59862380D01*
X79797619Y-59862380D01*
X79654761Y-59814761D01*
X79559523Y-59719523D01*
X79511904Y-59624285D01*
X79464285Y-59433809D01*
X79464285Y-59290952D01*
X79511904Y-59100476D01*
X79559523Y-59005238D01*
X79654761Y-58910000D01*
X79797619Y-58862380D01*
X79892857Y-58862380D01*
X80035714Y-58910000D01*
X80083333Y-58957619D01*
X80654761Y-59290952D02*
X80559523Y-59243333D01*
X80511904Y-59195714D01*
X80464285Y-59100476D01*
X80464285Y-59052857D01*
X80511904Y-58957619D01*
X80559523Y-58910000D01*
X80654761Y-58862380D01*
X80845238Y-58862380D01*
X80940476Y-58910000D01*
X80988095Y-58957619D01*
X81035714Y-59052857D01*
X81035714Y-59100476D01*
X80988095Y-59195714D01*
X80940476Y-59243333D01*
X80845238Y-59290952D01*
X80654761Y-59290952D01*
X80559523Y-59338571D01*
X80511904Y-59386190D01*
X80464285Y-59481428D01*
X80464285Y-59671904D01*
X80511904Y-59767142D01*
X80559523Y-59814761D01*
X80654761Y-59862380D01*
X80845238Y-59862380D01*
X80940476Y-59814761D01*
X80988095Y-59767142D01*
X81035714Y-59671904D01*
X81035714Y-59481428D01*
X80988095Y-59386190D01*
X80940476Y-59338571D01*
X80845238Y-59290952D01*
X94973142Y-62396666D02*
X95020761Y-62444285D01*
X95068380Y-62587142D01*
X95068380Y-62682380D01*
X95020761Y-62825238D01*
X94925523Y-62920476D01*
X94830285Y-62968095D01*
X94639809Y-63015714D01*
X94496952Y-63015714D01*
X94306476Y-62968095D01*
X94211238Y-62920476D01*
X94116000Y-62825238D01*
X94068380Y-62682380D01*
X94068380Y-62587142D01*
X94116000Y-62444285D01*
X94163619Y-62396666D01*
X94068380Y-62063333D02*
X94068380Y-61396666D01*
X95068380Y-61825238D01*
X66093333Y-65267142D02*
X66045714Y-65314761D01*
X65902857Y-65362380D01*
X65807619Y-65362380D01*
X65664761Y-65314761D01*
X65569523Y-65219523D01*
X65521904Y-65124285D01*
X65474285Y-64933809D01*
X65474285Y-64790952D01*
X65521904Y-64600476D01*
X65569523Y-64505238D01*
X65664761Y-64410000D01*
X65807619Y-64362380D01*
X65902857Y-64362380D01*
X66045714Y-64410000D01*
X66093333Y-64457619D01*
X66950476Y-64695714D02*
X66950476Y-65362380D01*
X66712380Y-64314761D02*
X66474285Y-65029047D01*
X67093333Y-65029047D01*
X59887142Y-59086666D02*
X59934761Y-59134285D01*
X59982380Y-59277142D01*
X59982380Y-59372380D01*
X59934761Y-59515238D01*
X59839523Y-59610476D01*
X59744285Y-59658095D01*
X59553809Y-59705714D01*
X59410952Y-59705714D01*
X59220476Y-59658095D01*
X59125238Y-59610476D01*
X59030000Y-59515238D01*
X58982380Y-59372380D01*
X58982380Y-59277142D01*
X59030000Y-59134285D01*
X59077619Y-59086666D01*
X58982380Y-58753333D02*
X58982380Y-58134285D01*
X59363333Y-58467619D01*
X59363333Y-58324761D01*
X59410952Y-58229523D01*
X59458571Y-58181904D01*
X59553809Y-58134285D01*
X59791904Y-58134285D01*
X59887142Y-58181904D01*
X59934761Y-58229523D01*
X59982380Y-58324761D01*
X59982380Y-58610476D01*
X59934761Y-58705714D01*
X59887142Y-58753333D01*
X106261428Y-56392380D02*
X105928095Y-55916190D01*
X105690000Y-56392380D02*
X105690000Y-55392380D01*
X106070952Y-55392380D01*
X106166190Y-55440000D01*
X106213809Y-55487619D01*
X106261428Y-55582857D01*
X106261428Y-55725714D01*
X106213809Y-55820952D01*
X106166190Y-55868571D01*
X106070952Y-55916190D01*
X105690000Y-55916190D01*
X106690000Y-56392380D02*
X106690000Y-55392380D01*
X107070952Y-55392380D01*
X107166190Y-55440000D01*
X107213809Y-55487619D01*
X107261428Y-55582857D01*
X107261428Y-55725714D01*
X107213809Y-55820952D01*
X107166190Y-55868571D01*
X107070952Y-55916190D01*
X106690000Y-55916190D01*
X107690000Y-56392380D02*
X107690000Y-55392380D01*
M02*
