M48
; DRILL file {KiCad 5.1.2} date Fr 31 Mai 2019 13:26:38 CEST
; FORMAT={-:-/ absolute / metric / decimal}
; #@! TF.CreationDate,2019-05-31T13:26:38+02:00
; #@! TF.GenerationSoftware,Kicad,Pcbnew,5.1.2
; #@! TF.FileFunction,Plated,1,2,PTH
FMAT,2
METRIC
T1C0.300
T2C0.700
T3C1.000
T4C1.016
T5C1.520
%
G90
G05
T1
X64.38Y-73.54
X65.44Y-67.0
X71.55Y-56.26
X72.13Y-64.83
X72.67Y-62.85
X74.31Y-66.74
X80.84Y-60.8
X83.35Y-71.99
X84.45Y-61.03
X84.63Y-63.53
X85.29Y-72.01
X86.03Y-61.01
X87.55Y-63.56
X89.09Y-65.935
X89.3Y-60.38
X89.37Y-68.61
X93.69Y-64.92
X97.19Y-68.78
X97.94Y-62.98
X103.42Y-60.71
T2
X73.66Y-57.785
X73.66Y-76.327
X76.2Y-57.785
X76.2Y-76.327
X84.328Y-57.785
X84.328Y-76.327
X86.868Y-57.785
X86.868Y-76.327
T3
X68.834Y-57.912
X68.834Y-60.452
X68.834Y-62.992
X68.834Y-65.532
X68.834Y-68.072
X68.834Y-70.612
X58.4Y-51.26
X58.4Y-53.8
X60.94Y-51.26
X60.94Y-53.8
X63.48Y-51.26
X63.48Y-53.8
X66.02Y-51.26
X66.02Y-53.8
X68.56Y-51.26
X68.56Y-53.8
X71.1Y-51.26
X71.1Y-53.8
X73.64Y-51.26
X73.64Y-53.8
X76.18Y-51.26
X76.18Y-53.8
X78.72Y-51.26
X78.72Y-53.8
X81.26Y-51.26
X81.26Y-53.8
X83.8Y-51.26
X83.8Y-53.8
X86.34Y-51.26
X86.34Y-53.8
X88.88Y-51.26
X88.88Y-53.8
X91.42Y-51.26
X91.42Y-53.8
X93.96Y-51.26
X93.96Y-53.8
X96.5Y-51.26
X96.5Y-53.8
X99.04Y-51.26
X99.04Y-53.8
X101.58Y-51.26
X101.58Y-53.8
X104.12Y-51.26
X104.12Y-53.8
X106.66Y-51.26
X106.66Y-53.8
T4
X96.266Y-72.644
X96.266Y-75.184
X98.806Y-72.644
X98.806Y-75.184
X101.346Y-72.644
X101.346Y-75.184
T5
X54.102Y-59.182
X54.102Y-64.262
T0
M30
