G04 #@! TF.GenerationSoftware,KiCad,Pcbnew,5.1.2*
G04 #@! TF.CreationDate,2019-07-27T17:59:41+02:00*
G04 #@! TF.ProjectId,solarcampi,736f6c61-7263-4616-9d70-692e6b696361,C*
G04 #@! TF.SameCoordinates,Original*
G04 #@! TF.FileFunction,Paste,Top*
G04 #@! TF.FilePolarity,Positive*
%FSLAX46Y46*%
G04 Gerber Fmt 4.6, Leading zero omitted, Abs format (unit mm)*
G04 Created by KiCad (PCBNEW 5.1.2) date 2019-07-27 17:59:41*
%MOMM*%
%LPD*%
G04 APERTURE LIST*
%ADD10C,0.100000*%
%ADD11C,1.600000*%
%ADD12C,1.150000*%
%ADD13R,0.900000X0.800000*%
%ADD14R,1.200000X0.900000*%
%ADD15R,4.240000X3.810000*%
G04 APERTURE END LIST*
D10*
G36*
X92969504Y-63553204D02*
G01*
X92993773Y-63556804D01*
X93017571Y-63562765D01*
X93040671Y-63571030D01*
X93062849Y-63581520D01*
X93083893Y-63594133D01*
X93103598Y-63608747D01*
X93121777Y-63625223D01*
X93138253Y-63643402D01*
X93152867Y-63663107D01*
X93165480Y-63684151D01*
X93175970Y-63706329D01*
X93184235Y-63729429D01*
X93190196Y-63753227D01*
X93193796Y-63777496D01*
X93195000Y-63802000D01*
X93195000Y-64902000D01*
X93193796Y-64926504D01*
X93190196Y-64950773D01*
X93184235Y-64974571D01*
X93175970Y-64997671D01*
X93165480Y-65019849D01*
X93152867Y-65040893D01*
X93138253Y-65060598D01*
X93121777Y-65078777D01*
X93103598Y-65095253D01*
X93083893Y-65109867D01*
X93062849Y-65122480D01*
X93040671Y-65132970D01*
X93017571Y-65141235D01*
X92993773Y-65147196D01*
X92969504Y-65150796D01*
X92945000Y-65152000D01*
X90445000Y-65152000D01*
X90420496Y-65150796D01*
X90396227Y-65147196D01*
X90372429Y-65141235D01*
X90349329Y-65132970D01*
X90327151Y-65122480D01*
X90306107Y-65109867D01*
X90286402Y-65095253D01*
X90268223Y-65078777D01*
X90251747Y-65060598D01*
X90237133Y-65040893D01*
X90224520Y-65019849D01*
X90214030Y-64997671D01*
X90205765Y-64974571D01*
X90199804Y-64950773D01*
X90196204Y-64926504D01*
X90195000Y-64902000D01*
X90195000Y-63802000D01*
X90196204Y-63777496D01*
X90199804Y-63753227D01*
X90205765Y-63729429D01*
X90214030Y-63706329D01*
X90224520Y-63684151D01*
X90237133Y-63663107D01*
X90251747Y-63643402D01*
X90268223Y-63625223D01*
X90286402Y-63608747D01*
X90306107Y-63594133D01*
X90327151Y-63581520D01*
X90349329Y-63571030D01*
X90372429Y-63562765D01*
X90396227Y-63556804D01*
X90420496Y-63553204D01*
X90445000Y-63552000D01*
X92945000Y-63552000D01*
X92969504Y-63553204D01*
X92969504Y-63553204D01*
G37*
D11*
X91695000Y-64352000D03*
D10*
G36*
X88569504Y-63553204D02*
G01*
X88593773Y-63556804D01*
X88617571Y-63562765D01*
X88640671Y-63571030D01*
X88662849Y-63581520D01*
X88683893Y-63594133D01*
X88703598Y-63608747D01*
X88721777Y-63625223D01*
X88738253Y-63643402D01*
X88752867Y-63663107D01*
X88765480Y-63684151D01*
X88775970Y-63706329D01*
X88784235Y-63729429D01*
X88790196Y-63753227D01*
X88793796Y-63777496D01*
X88795000Y-63802000D01*
X88795000Y-64902000D01*
X88793796Y-64926504D01*
X88790196Y-64950773D01*
X88784235Y-64974571D01*
X88775970Y-64997671D01*
X88765480Y-65019849D01*
X88752867Y-65040893D01*
X88738253Y-65060598D01*
X88721777Y-65078777D01*
X88703598Y-65095253D01*
X88683893Y-65109867D01*
X88662849Y-65122480D01*
X88640671Y-65132970D01*
X88617571Y-65141235D01*
X88593773Y-65147196D01*
X88569504Y-65150796D01*
X88545000Y-65152000D01*
X86045000Y-65152000D01*
X86020496Y-65150796D01*
X85996227Y-65147196D01*
X85972429Y-65141235D01*
X85949329Y-65132970D01*
X85927151Y-65122480D01*
X85906107Y-65109867D01*
X85886402Y-65095253D01*
X85868223Y-65078777D01*
X85851747Y-65060598D01*
X85837133Y-65040893D01*
X85824520Y-65019849D01*
X85814030Y-64997671D01*
X85805765Y-64974571D01*
X85799804Y-64950773D01*
X85796204Y-64926504D01*
X85795000Y-64902000D01*
X85795000Y-63802000D01*
X85796204Y-63777496D01*
X85799804Y-63753227D01*
X85805765Y-63729429D01*
X85814030Y-63706329D01*
X85824520Y-63684151D01*
X85837133Y-63663107D01*
X85851747Y-63643402D01*
X85868223Y-63625223D01*
X85886402Y-63608747D01*
X85906107Y-63594133D01*
X85927151Y-63581520D01*
X85949329Y-63571030D01*
X85972429Y-63562765D01*
X85996227Y-63556804D01*
X86020496Y-63553204D01*
X86045000Y-63552000D01*
X88545000Y-63552000D01*
X88569504Y-63553204D01*
X88569504Y-63553204D01*
G37*
D11*
X87295000Y-64352000D03*
D10*
G36*
X80414505Y-68341204D02*
G01*
X80438773Y-68344804D01*
X80462572Y-68350765D01*
X80485671Y-68359030D01*
X80507850Y-68369520D01*
X80528893Y-68382132D01*
X80548599Y-68396747D01*
X80566777Y-68413223D01*
X80583253Y-68431401D01*
X80597868Y-68451107D01*
X80610480Y-68472150D01*
X80620970Y-68494329D01*
X80629235Y-68517428D01*
X80635196Y-68541227D01*
X80638796Y-68565495D01*
X80640000Y-68589999D01*
X80640000Y-69490001D01*
X80638796Y-69514505D01*
X80635196Y-69538773D01*
X80629235Y-69562572D01*
X80620970Y-69585671D01*
X80610480Y-69607850D01*
X80597868Y-69628893D01*
X80583253Y-69648599D01*
X80566777Y-69666777D01*
X80548599Y-69683253D01*
X80528893Y-69697868D01*
X80507850Y-69710480D01*
X80485671Y-69720970D01*
X80462572Y-69729235D01*
X80438773Y-69735196D01*
X80414505Y-69738796D01*
X80390001Y-69740000D01*
X79739999Y-69740000D01*
X79715495Y-69738796D01*
X79691227Y-69735196D01*
X79667428Y-69729235D01*
X79644329Y-69720970D01*
X79622150Y-69710480D01*
X79601107Y-69697868D01*
X79581401Y-69683253D01*
X79563223Y-69666777D01*
X79546747Y-69648599D01*
X79532132Y-69628893D01*
X79519520Y-69607850D01*
X79509030Y-69585671D01*
X79500765Y-69562572D01*
X79494804Y-69538773D01*
X79491204Y-69514505D01*
X79490000Y-69490001D01*
X79490000Y-68589999D01*
X79491204Y-68565495D01*
X79494804Y-68541227D01*
X79500765Y-68517428D01*
X79509030Y-68494329D01*
X79519520Y-68472150D01*
X79532132Y-68451107D01*
X79546747Y-68431401D01*
X79563223Y-68413223D01*
X79581401Y-68396747D01*
X79601107Y-68382132D01*
X79622150Y-68369520D01*
X79644329Y-68359030D01*
X79667428Y-68350765D01*
X79691227Y-68344804D01*
X79715495Y-68341204D01*
X79739999Y-68340000D01*
X80390001Y-68340000D01*
X80414505Y-68341204D01*
X80414505Y-68341204D01*
G37*
D12*
X80065000Y-69040000D03*
D10*
G36*
X78364505Y-68341204D02*
G01*
X78388773Y-68344804D01*
X78412572Y-68350765D01*
X78435671Y-68359030D01*
X78457850Y-68369520D01*
X78478893Y-68382132D01*
X78498599Y-68396747D01*
X78516777Y-68413223D01*
X78533253Y-68431401D01*
X78547868Y-68451107D01*
X78560480Y-68472150D01*
X78570970Y-68494329D01*
X78579235Y-68517428D01*
X78585196Y-68541227D01*
X78588796Y-68565495D01*
X78590000Y-68589999D01*
X78590000Y-69490001D01*
X78588796Y-69514505D01*
X78585196Y-69538773D01*
X78579235Y-69562572D01*
X78570970Y-69585671D01*
X78560480Y-69607850D01*
X78547868Y-69628893D01*
X78533253Y-69648599D01*
X78516777Y-69666777D01*
X78498599Y-69683253D01*
X78478893Y-69697868D01*
X78457850Y-69710480D01*
X78435671Y-69720970D01*
X78412572Y-69729235D01*
X78388773Y-69735196D01*
X78364505Y-69738796D01*
X78340001Y-69740000D01*
X77689999Y-69740000D01*
X77665495Y-69738796D01*
X77641227Y-69735196D01*
X77617428Y-69729235D01*
X77594329Y-69720970D01*
X77572150Y-69710480D01*
X77551107Y-69697868D01*
X77531401Y-69683253D01*
X77513223Y-69666777D01*
X77496747Y-69648599D01*
X77482132Y-69628893D01*
X77469520Y-69607850D01*
X77459030Y-69585671D01*
X77450765Y-69562572D01*
X77444804Y-69538773D01*
X77441204Y-69514505D01*
X77440000Y-69490001D01*
X77440000Y-68589999D01*
X77441204Y-68565495D01*
X77444804Y-68541227D01*
X77450765Y-68517428D01*
X77459030Y-68494329D01*
X77469520Y-68472150D01*
X77482132Y-68451107D01*
X77496747Y-68431401D01*
X77513223Y-68413223D01*
X77531401Y-68396747D01*
X77551107Y-68382132D01*
X77572150Y-68369520D01*
X77594329Y-68359030D01*
X77617428Y-68350765D01*
X77641227Y-68344804D01*
X77665495Y-68341204D01*
X77689999Y-68340000D01*
X78340001Y-68340000D01*
X78364505Y-68341204D01*
X78364505Y-68341204D01*
G37*
D12*
X78015000Y-69040000D03*
D13*
X72790000Y-70670000D03*
X74790000Y-69720000D03*
X74790000Y-71620000D03*
X83960000Y-70400000D03*
X85960000Y-69450000D03*
X85960000Y-71350000D03*
D10*
G36*
X77674505Y-74401204D02*
G01*
X77698773Y-74404804D01*
X77722572Y-74410765D01*
X77745671Y-74419030D01*
X77767850Y-74429520D01*
X77788893Y-74442132D01*
X77808599Y-74456747D01*
X77826777Y-74473223D01*
X77843253Y-74491401D01*
X77857868Y-74511107D01*
X77870480Y-74532150D01*
X77880970Y-74554329D01*
X77889235Y-74577428D01*
X77895196Y-74601227D01*
X77898796Y-74625495D01*
X77900000Y-74649999D01*
X77900000Y-75300001D01*
X77898796Y-75324505D01*
X77895196Y-75348773D01*
X77889235Y-75372572D01*
X77880970Y-75395671D01*
X77870480Y-75417850D01*
X77857868Y-75438893D01*
X77843253Y-75458599D01*
X77826777Y-75476777D01*
X77808599Y-75493253D01*
X77788893Y-75507868D01*
X77767850Y-75520480D01*
X77745671Y-75530970D01*
X77722572Y-75539235D01*
X77698773Y-75545196D01*
X77674505Y-75548796D01*
X77650001Y-75550000D01*
X76749999Y-75550000D01*
X76725495Y-75548796D01*
X76701227Y-75545196D01*
X76677428Y-75539235D01*
X76654329Y-75530970D01*
X76632150Y-75520480D01*
X76611107Y-75507868D01*
X76591401Y-75493253D01*
X76573223Y-75476777D01*
X76556747Y-75458599D01*
X76542132Y-75438893D01*
X76529520Y-75417850D01*
X76519030Y-75395671D01*
X76510765Y-75372572D01*
X76504804Y-75348773D01*
X76501204Y-75324505D01*
X76500000Y-75300001D01*
X76500000Y-74649999D01*
X76501204Y-74625495D01*
X76504804Y-74601227D01*
X76510765Y-74577428D01*
X76519030Y-74554329D01*
X76529520Y-74532150D01*
X76542132Y-74511107D01*
X76556747Y-74491401D01*
X76573223Y-74473223D01*
X76591401Y-74456747D01*
X76611107Y-74442132D01*
X76632150Y-74429520D01*
X76654329Y-74419030D01*
X76677428Y-74410765D01*
X76701227Y-74404804D01*
X76725495Y-74401204D01*
X76749999Y-74400000D01*
X77650001Y-74400000D01*
X77674505Y-74401204D01*
X77674505Y-74401204D01*
G37*
D12*
X77200000Y-74975000D03*
D10*
G36*
X77674505Y-76451204D02*
G01*
X77698773Y-76454804D01*
X77722572Y-76460765D01*
X77745671Y-76469030D01*
X77767850Y-76479520D01*
X77788893Y-76492132D01*
X77808599Y-76506747D01*
X77826777Y-76523223D01*
X77843253Y-76541401D01*
X77857868Y-76561107D01*
X77870480Y-76582150D01*
X77880970Y-76604329D01*
X77889235Y-76627428D01*
X77895196Y-76651227D01*
X77898796Y-76675495D01*
X77900000Y-76699999D01*
X77900000Y-77350001D01*
X77898796Y-77374505D01*
X77895196Y-77398773D01*
X77889235Y-77422572D01*
X77880970Y-77445671D01*
X77870480Y-77467850D01*
X77857868Y-77488893D01*
X77843253Y-77508599D01*
X77826777Y-77526777D01*
X77808599Y-77543253D01*
X77788893Y-77557868D01*
X77767850Y-77570480D01*
X77745671Y-77580970D01*
X77722572Y-77589235D01*
X77698773Y-77595196D01*
X77674505Y-77598796D01*
X77650001Y-77600000D01*
X76749999Y-77600000D01*
X76725495Y-77598796D01*
X76701227Y-77595196D01*
X76677428Y-77589235D01*
X76654329Y-77580970D01*
X76632150Y-77570480D01*
X76611107Y-77557868D01*
X76591401Y-77543253D01*
X76573223Y-77526777D01*
X76556747Y-77508599D01*
X76542132Y-77488893D01*
X76529520Y-77467850D01*
X76519030Y-77445671D01*
X76510765Y-77422572D01*
X76504804Y-77398773D01*
X76501204Y-77374505D01*
X76500000Y-77350001D01*
X76500000Y-76699999D01*
X76501204Y-76675495D01*
X76504804Y-76651227D01*
X76510765Y-76627428D01*
X76519030Y-76604329D01*
X76529520Y-76582150D01*
X76542132Y-76561107D01*
X76556747Y-76541401D01*
X76573223Y-76523223D01*
X76591401Y-76506747D01*
X76611107Y-76492132D01*
X76632150Y-76479520D01*
X76654329Y-76469030D01*
X76677428Y-76460765D01*
X76701227Y-76454804D01*
X76725495Y-76451204D01*
X76749999Y-76450000D01*
X77650001Y-76450000D01*
X77674505Y-76451204D01*
X77674505Y-76451204D01*
G37*
D12*
X77200000Y-77025000D03*
D10*
G36*
X88874505Y-70851204D02*
G01*
X88898773Y-70854804D01*
X88922572Y-70860765D01*
X88945671Y-70869030D01*
X88967850Y-70879520D01*
X88988893Y-70892132D01*
X89008599Y-70906747D01*
X89026777Y-70923223D01*
X89043253Y-70941401D01*
X89057868Y-70961107D01*
X89070480Y-70982150D01*
X89080970Y-71004329D01*
X89089235Y-71027428D01*
X89095196Y-71051227D01*
X89098796Y-71075495D01*
X89100000Y-71099999D01*
X89100000Y-71750001D01*
X89098796Y-71774505D01*
X89095196Y-71798773D01*
X89089235Y-71822572D01*
X89080970Y-71845671D01*
X89070480Y-71867850D01*
X89057868Y-71888893D01*
X89043253Y-71908599D01*
X89026777Y-71926777D01*
X89008599Y-71943253D01*
X88988893Y-71957868D01*
X88967850Y-71970480D01*
X88945671Y-71980970D01*
X88922572Y-71989235D01*
X88898773Y-71995196D01*
X88874505Y-71998796D01*
X88850001Y-72000000D01*
X87949999Y-72000000D01*
X87925495Y-71998796D01*
X87901227Y-71995196D01*
X87877428Y-71989235D01*
X87854329Y-71980970D01*
X87832150Y-71970480D01*
X87811107Y-71957868D01*
X87791401Y-71943253D01*
X87773223Y-71926777D01*
X87756747Y-71908599D01*
X87742132Y-71888893D01*
X87729520Y-71867850D01*
X87719030Y-71845671D01*
X87710765Y-71822572D01*
X87704804Y-71798773D01*
X87701204Y-71774505D01*
X87700000Y-71750001D01*
X87700000Y-71099999D01*
X87701204Y-71075495D01*
X87704804Y-71051227D01*
X87710765Y-71027428D01*
X87719030Y-71004329D01*
X87729520Y-70982150D01*
X87742132Y-70961107D01*
X87756747Y-70941401D01*
X87773223Y-70923223D01*
X87791401Y-70906747D01*
X87811107Y-70892132D01*
X87832150Y-70879520D01*
X87854329Y-70869030D01*
X87877428Y-70860765D01*
X87901227Y-70854804D01*
X87925495Y-70851204D01*
X87949999Y-70850000D01*
X88850001Y-70850000D01*
X88874505Y-70851204D01*
X88874505Y-70851204D01*
G37*
D12*
X88400000Y-71425000D03*
D10*
G36*
X88874505Y-68801204D02*
G01*
X88898773Y-68804804D01*
X88922572Y-68810765D01*
X88945671Y-68819030D01*
X88967850Y-68829520D01*
X88988893Y-68842132D01*
X89008599Y-68856747D01*
X89026777Y-68873223D01*
X89043253Y-68891401D01*
X89057868Y-68911107D01*
X89070480Y-68932150D01*
X89080970Y-68954329D01*
X89089235Y-68977428D01*
X89095196Y-69001227D01*
X89098796Y-69025495D01*
X89100000Y-69049999D01*
X89100000Y-69700001D01*
X89098796Y-69724505D01*
X89095196Y-69748773D01*
X89089235Y-69772572D01*
X89080970Y-69795671D01*
X89070480Y-69817850D01*
X89057868Y-69838893D01*
X89043253Y-69858599D01*
X89026777Y-69876777D01*
X89008599Y-69893253D01*
X88988893Y-69907868D01*
X88967850Y-69920480D01*
X88945671Y-69930970D01*
X88922572Y-69939235D01*
X88898773Y-69945196D01*
X88874505Y-69948796D01*
X88850001Y-69950000D01*
X87949999Y-69950000D01*
X87925495Y-69948796D01*
X87901227Y-69945196D01*
X87877428Y-69939235D01*
X87854329Y-69930970D01*
X87832150Y-69920480D01*
X87811107Y-69907868D01*
X87791401Y-69893253D01*
X87773223Y-69876777D01*
X87756747Y-69858599D01*
X87742132Y-69838893D01*
X87729520Y-69817850D01*
X87719030Y-69795671D01*
X87710765Y-69772572D01*
X87704804Y-69748773D01*
X87701204Y-69724505D01*
X87700000Y-69700001D01*
X87700000Y-69049999D01*
X87701204Y-69025495D01*
X87704804Y-69001227D01*
X87710765Y-68977428D01*
X87719030Y-68954329D01*
X87729520Y-68932150D01*
X87742132Y-68911107D01*
X87756747Y-68891401D01*
X87773223Y-68873223D01*
X87791401Y-68856747D01*
X87811107Y-68842132D01*
X87832150Y-68829520D01*
X87854329Y-68819030D01*
X87877428Y-68810765D01*
X87901227Y-68804804D01*
X87925495Y-68801204D01*
X87949999Y-68800000D01*
X88850001Y-68800000D01*
X88874505Y-68801204D01*
X88874505Y-68801204D01*
G37*
D12*
X88400000Y-69375000D03*
D14*
X60300000Y-59870000D03*
X60300000Y-63170000D03*
D10*
G36*
X82114505Y-60101204D02*
G01*
X82138773Y-60104804D01*
X82162572Y-60110765D01*
X82185671Y-60119030D01*
X82207850Y-60129520D01*
X82228893Y-60142132D01*
X82248599Y-60156747D01*
X82266777Y-60173223D01*
X82283253Y-60191401D01*
X82297868Y-60211107D01*
X82310480Y-60232150D01*
X82320970Y-60254329D01*
X82329235Y-60277428D01*
X82335196Y-60301227D01*
X82338796Y-60325495D01*
X82340000Y-60349999D01*
X82340000Y-61250001D01*
X82338796Y-61274505D01*
X82335196Y-61298773D01*
X82329235Y-61322572D01*
X82320970Y-61345671D01*
X82310480Y-61367850D01*
X82297868Y-61388893D01*
X82283253Y-61408599D01*
X82266777Y-61426777D01*
X82248599Y-61443253D01*
X82228893Y-61457868D01*
X82207850Y-61470480D01*
X82185671Y-61480970D01*
X82162572Y-61489235D01*
X82138773Y-61495196D01*
X82114505Y-61498796D01*
X82090001Y-61500000D01*
X81439999Y-61500000D01*
X81415495Y-61498796D01*
X81391227Y-61495196D01*
X81367428Y-61489235D01*
X81344329Y-61480970D01*
X81322150Y-61470480D01*
X81301107Y-61457868D01*
X81281401Y-61443253D01*
X81263223Y-61426777D01*
X81246747Y-61408599D01*
X81232132Y-61388893D01*
X81219520Y-61367850D01*
X81209030Y-61345671D01*
X81200765Y-61322572D01*
X81194804Y-61298773D01*
X81191204Y-61274505D01*
X81190000Y-61250001D01*
X81190000Y-60349999D01*
X81191204Y-60325495D01*
X81194804Y-60301227D01*
X81200765Y-60277428D01*
X81209030Y-60254329D01*
X81219520Y-60232150D01*
X81232132Y-60211107D01*
X81246747Y-60191401D01*
X81263223Y-60173223D01*
X81281401Y-60156747D01*
X81301107Y-60142132D01*
X81322150Y-60129520D01*
X81344329Y-60119030D01*
X81367428Y-60110765D01*
X81391227Y-60104804D01*
X81415495Y-60101204D01*
X81439999Y-60100000D01*
X82090001Y-60100000D01*
X82114505Y-60101204D01*
X82114505Y-60101204D01*
G37*
D12*
X81765000Y-60800000D03*
D10*
G36*
X80064505Y-60101204D02*
G01*
X80088773Y-60104804D01*
X80112572Y-60110765D01*
X80135671Y-60119030D01*
X80157850Y-60129520D01*
X80178893Y-60142132D01*
X80198599Y-60156747D01*
X80216777Y-60173223D01*
X80233253Y-60191401D01*
X80247868Y-60211107D01*
X80260480Y-60232150D01*
X80270970Y-60254329D01*
X80279235Y-60277428D01*
X80285196Y-60301227D01*
X80288796Y-60325495D01*
X80290000Y-60349999D01*
X80290000Y-61250001D01*
X80288796Y-61274505D01*
X80285196Y-61298773D01*
X80279235Y-61322572D01*
X80270970Y-61345671D01*
X80260480Y-61367850D01*
X80247868Y-61388893D01*
X80233253Y-61408599D01*
X80216777Y-61426777D01*
X80198599Y-61443253D01*
X80178893Y-61457868D01*
X80157850Y-61470480D01*
X80135671Y-61480970D01*
X80112572Y-61489235D01*
X80088773Y-61495196D01*
X80064505Y-61498796D01*
X80040001Y-61500000D01*
X79389999Y-61500000D01*
X79365495Y-61498796D01*
X79341227Y-61495196D01*
X79317428Y-61489235D01*
X79294329Y-61480970D01*
X79272150Y-61470480D01*
X79251107Y-61457868D01*
X79231401Y-61443253D01*
X79213223Y-61426777D01*
X79196747Y-61408599D01*
X79182132Y-61388893D01*
X79169520Y-61367850D01*
X79159030Y-61345671D01*
X79150765Y-61322572D01*
X79144804Y-61298773D01*
X79141204Y-61274505D01*
X79140000Y-61250001D01*
X79140000Y-60349999D01*
X79141204Y-60325495D01*
X79144804Y-60301227D01*
X79150765Y-60277428D01*
X79159030Y-60254329D01*
X79169520Y-60232150D01*
X79182132Y-60211107D01*
X79196747Y-60191401D01*
X79213223Y-60173223D01*
X79231401Y-60156747D01*
X79251107Y-60142132D01*
X79272150Y-60129520D01*
X79294329Y-60119030D01*
X79317428Y-60110765D01*
X79341227Y-60104804D01*
X79365495Y-60101204D01*
X79389999Y-60100000D01*
X80040001Y-60100000D01*
X80064505Y-60101204D01*
X80064505Y-60101204D01*
G37*
D12*
X79715000Y-60800000D03*
D10*
G36*
X106374505Y-64701204D02*
G01*
X106398773Y-64704804D01*
X106422572Y-64710765D01*
X106445671Y-64719030D01*
X106467850Y-64729520D01*
X106488893Y-64742132D01*
X106508599Y-64756747D01*
X106526777Y-64773223D01*
X106543253Y-64791401D01*
X106557868Y-64811107D01*
X106570480Y-64832150D01*
X106580970Y-64854329D01*
X106589235Y-64877428D01*
X106595196Y-64901227D01*
X106598796Y-64925495D01*
X106600000Y-64949999D01*
X106600000Y-65600001D01*
X106598796Y-65624505D01*
X106595196Y-65648773D01*
X106589235Y-65672572D01*
X106580970Y-65695671D01*
X106570480Y-65717850D01*
X106557868Y-65738893D01*
X106543253Y-65758599D01*
X106526777Y-65776777D01*
X106508599Y-65793253D01*
X106488893Y-65807868D01*
X106467850Y-65820480D01*
X106445671Y-65830970D01*
X106422572Y-65839235D01*
X106398773Y-65845196D01*
X106374505Y-65848796D01*
X106350001Y-65850000D01*
X105449999Y-65850000D01*
X105425495Y-65848796D01*
X105401227Y-65845196D01*
X105377428Y-65839235D01*
X105354329Y-65830970D01*
X105332150Y-65820480D01*
X105311107Y-65807868D01*
X105291401Y-65793253D01*
X105273223Y-65776777D01*
X105256747Y-65758599D01*
X105242132Y-65738893D01*
X105229520Y-65717850D01*
X105219030Y-65695671D01*
X105210765Y-65672572D01*
X105204804Y-65648773D01*
X105201204Y-65624505D01*
X105200000Y-65600001D01*
X105200000Y-64949999D01*
X105201204Y-64925495D01*
X105204804Y-64901227D01*
X105210765Y-64877428D01*
X105219030Y-64854329D01*
X105229520Y-64832150D01*
X105242132Y-64811107D01*
X105256747Y-64791401D01*
X105273223Y-64773223D01*
X105291401Y-64756747D01*
X105311107Y-64742132D01*
X105332150Y-64729520D01*
X105354329Y-64719030D01*
X105377428Y-64710765D01*
X105401227Y-64704804D01*
X105425495Y-64701204D01*
X105449999Y-64700000D01*
X106350001Y-64700000D01*
X106374505Y-64701204D01*
X106374505Y-64701204D01*
G37*
D12*
X105900000Y-65275000D03*
D10*
G36*
X106374505Y-66751204D02*
G01*
X106398773Y-66754804D01*
X106422572Y-66760765D01*
X106445671Y-66769030D01*
X106467850Y-66779520D01*
X106488893Y-66792132D01*
X106508599Y-66806747D01*
X106526777Y-66823223D01*
X106543253Y-66841401D01*
X106557868Y-66861107D01*
X106570480Y-66882150D01*
X106580970Y-66904329D01*
X106589235Y-66927428D01*
X106595196Y-66951227D01*
X106598796Y-66975495D01*
X106600000Y-66999999D01*
X106600000Y-67650001D01*
X106598796Y-67674505D01*
X106595196Y-67698773D01*
X106589235Y-67722572D01*
X106580970Y-67745671D01*
X106570480Y-67767850D01*
X106557868Y-67788893D01*
X106543253Y-67808599D01*
X106526777Y-67826777D01*
X106508599Y-67843253D01*
X106488893Y-67857868D01*
X106467850Y-67870480D01*
X106445671Y-67880970D01*
X106422572Y-67889235D01*
X106398773Y-67895196D01*
X106374505Y-67898796D01*
X106350001Y-67900000D01*
X105449999Y-67900000D01*
X105425495Y-67898796D01*
X105401227Y-67895196D01*
X105377428Y-67889235D01*
X105354329Y-67880970D01*
X105332150Y-67870480D01*
X105311107Y-67857868D01*
X105291401Y-67843253D01*
X105273223Y-67826777D01*
X105256747Y-67808599D01*
X105242132Y-67788893D01*
X105229520Y-67767850D01*
X105219030Y-67745671D01*
X105210765Y-67722572D01*
X105204804Y-67698773D01*
X105201204Y-67674505D01*
X105200000Y-67650001D01*
X105200000Y-66999999D01*
X105201204Y-66975495D01*
X105204804Y-66951227D01*
X105210765Y-66927428D01*
X105219030Y-66904329D01*
X105229520Y-66882150D01*
X105242132Y-66861107D01*
X105256747Y-66841401D01*
X105273223Y-66823223D01*
X105291401Y-66806747D01*
X105311107Y-66792132D01*
X105332150Y-66779520D01*
X105354329Y-66769030D01*
X105377428Y-66760765D01*
X105401227Y-66754804D01*
X105425495Y-66751204D01*
X105449999Y-66750000D01*
X106350001Y-66750000D01*
X106374505Y-66751204D01*
X106374505Y-66751204D01*
G37*
D12*
X105900000Y-67325000D03*
D10*
G36*
X101324505Y-66601204D02*
G01*
X101348773Y-66604804D01*
X101372572Y-66610765D01*
X101395671Y-66619030D01*
X101417850Y-66629520D01*
X101438893Y-66642132D01*
X101458599Y-66656747D01*
X101476777Y-66673223D01*
X101493253Y-66691401D01*
X101507868Y-66711107D01*
X101520480Y-66732150D01*
X101530970Y-66754329D01*
X101539235Y-66777428D01*
X101545196Y-66801227D01*
X101548796Y-66825495D01*
X101550000Y-66849999D01*
X101550000Y-67750001D01*
X101548796Y-67774505D01*
X101545196Y-67798773D01*
X101539235Y-67822572D01*
X101530970Y-67845671D01*
X101520480Y-67867850D01*
X101507868Y-67888893D01*
X101493253Y-67908599D01*
X101476777Y-67926777D01*
X101458599Y-67943253D01*
X101438893Y-67957868D01*
X101417850Y-67970480D01*
X101395671Y-67980970D01*
X101372572Y-67989235D01*
X101348773Y-67995196D01*
X101324505Y-67998796D01*
X101300001Y-68000000D01*
X100649999Y-68000000D01*
X100625495Y-67998796D01*
X100601227Y-67995196D01*
X100577428Y-67989235D01*
X100554329Y-67980970D01*
X100532150Y-67970480D01*
X100511107Y-67957868D01*
X100491401Y-67943253D01*
X100473223Y-67926777D01*
X100456747Y-67908599D01*
X100442132Y-67888893D01*
X100429520Y-67867850D01*
X100419030Y-67845671D01*
X100410765Y-67822572D01*
X100404804Y-67798773D01*
X100401204Y-67774505D01*
X100400000Y-67750001D01*
X100400000Y-66849999D01*
X100401204Y-66825495D01*
X100404804Y-66801227D01*
X100410765Y-66777428D01*
X100419030Y-66754329D01*
X100429520Y-66732150D01*
X100442132Y-66711107D01*
X100456747Y-66691401D01*
X100473223Y-66673223D01*
X100491401Y-66656747D01*
X100511107Y-66642132D01*
X100532150Y-66629520D01*
X100554329Y-66619030D01*
X100577428Y-66610765D01*
X100601227Y-66604804D01*
X100625495Y-66601204D01*
X100649999Y-66600000D01*
X101300001Y-66600000D01*
X101324505Y-66601204D01*
X101324505Y-66601204D01*
G37*
D12*
X100975000Y-67300000D03*
D10*
G36*
X103374505Y-66601204D02*
G01*
X103398773Y-66604804D01*
X103422572Y-66610765D01*
X103445671Y-66619030D01*
X103467850Y-66629520D01*
X103488893Y-66642132D01*
X103508599Y-66656747D01*
X103526777Y-66673223D01*
X103543253Y-66691401D01*
X103557868Y-66711107D01*
X103570480Y-66732150D01*
X103580970Y-66754329D01*
X103589235Y-66777428D01*
X103595196Y-66801227D01*
X103598796Y-66825495D01*
X103600000Y-66849999D01*
X103600000Y-67750001D01*
X103598796Y-67774505D01*
X103595196Y-67798773D01*
X103589235Y-67822572D01*
X103580970Y-67845671D01*
X103570480Y-67867850D01*
X103557868Y-67888893D01*
X103543253Y-67908599D01*
X103526777Y-67926777D01*
X103508599Y-67943253D01*
X103488893Y-67957868D01*
X103467850Y-67970480D01*
X103445671Y-67980970D01*
X103422572Y-67989235D01*
X103398773Y-67995196D01*
X103374505Y-67998796D01*
X103350001Y-68000000D01*
X102699999Y-68000000D01*
X102675495Y-67998796D01*
X102651227Y-67995196D01*
X102627428Y-67989235D01*
X102604329Y-67980970D01*
X102582150Y-67970480D01*
X102561107Y-67957868D01*
X102541401Y-67943253D01*
X102523223Y-67926777D01*
X102506747Y-67908599D01*
X102492132Y-67888893D01*
X102479520Y-67867850D01*
X102469030Y-67845671D01*
X102460765Y-67822572D01*
X102454804Y-67798773D01*
X102451204Y-67774505D01*
X102450000Y-67750001D01*
X102450000Y-66849999D01*
X102451204Y-66825495D01*
X102454804Y-66801227D01*
X102460765Y-66777428D01*
X102469030Y-66754329D01*
X102479520Y-66732150D01*
X102492132Y-66711107D01*
X102506747Y-66691401D01*
X102523223Y-66673223D01*
X102541401Y-66656747D01*
X102561107Y-66642132D01*
X102582150Y-66629520D01*
X102604329Y-66619030D01*
X102627428Y-66610765D01*
X102651227Y-66604804D01*
X102675495Y-66601204D01*
X102699999Y-66600000D01*
X103350001Y-66600000D01*
X103374505Y-66601204D01*
X103374505Y-66601204D01*
G37*
D12*
X103025000Y-67300000D03*
D14*
X77530000Y-57500000D03*
X77530000Y-60800000D03*
D15*
X59835000Y-69520000D03*
X52465000Y-69520000D03*
D10*
G36*
X77668505Y-70551204D02*
G01*
X77692773Y-70554804D01*
X77716572Y-70560765D01*
X77739671Y-70569030D01*
X77761850Y-70579520D01*
X77782893Y-70592132D01*
X77802599Y-70606747D01*
X77820777Y-70623223D01*
X77837253Y-70641401D01*
X77851868Y-70661107D01*
X77864480Y-70682150D01*
X77874970Y-70704329D01*
X77883235Y-70727428D01*
X77889196Y-70751227D01*
X77892796Y-70775495D01*
X77894000Y-70799999D01*
X77894000Y-71450001D01*
X77892796Y-71474505D01*
X77889196Y-71498773D01*
X77883235Y-71522572D01*
X77874970Y-71545671D01*
X77864480Y-71567850D01*
X77851868Y-71588893D01*
X77837253Y-71608599D01*
X77820777Y-71626777D01*
X77802599Y-71643253D01*
X77782893Y-71657868D01*
X77761850Y-71670480D01*
X77739671Y-71680970D01*
X77716572Y-71689235D01*
X77692773Y-71695196D01*
X77668505Y-71698796D01*
X77644001Y-71700000D01*
X76743999Y-71700000D01*
X76719495Y-71698796D01*
X76695227Y-71695196D01*
X76671428Y-71689235D01*
X76648329Y-71680970D01*
X76626150Y-71670480D01*
X76605107Y-71657868D01*
X76585401Y-71643253D01*
X76567223Y-71626777D01*
X76550747Y-71608599D01*
X76536132Y-71588893D01*
X76523520Y-71567850D01*
X76513030Y-71545671D01*
X76504765Y-71522572D01*
X76498804Y-71498773D01*
X76495204Y-71474505D01*
X76494000Y-71450001D01*
X76494000Y-70799999D01*
X76495204Y-70775495D01*
X76498804Y-70751227D01*
X76504765Y-70727428D01*
X76513030Y-70704329D01*
X76523520Y-70682150D01*
X76536132Y-70661107D01*
X76550747Y-70641401D01*
X76567223Y-70623223D01*
X76585401Y-70606747D01*
X76605107Y-70592132D01*
X76626150Y-70579520D01*
X76648329Y-70569030D01*
X76671428Y-70560765D01*
X76695227Y-70554804D01*
X76719495Y-70551204D01*
X76743999Y-70550000D01*
X77644001Y-70550000D01*
X77668505Y-70551204D01*
X77668505Y-70551204D01*
G37*
D12*
X77194000Y-71125000D03*
D10*
G36*
X77668505Y-72601204D02*
G01*
X77692773Y-72604804D01*
X77716572Y-72610765D01*
X77739671Y-72619030D01*
X77761850Y-72629520D01*
X77782893Y-72642132D01*
X77802599Y-72656747D01*
X77820777Y-72673223D01*
X77837253Y-72691401D01*
X77851868Y-72711107D01*
X77864480Y-72732150D01*
X77874970Y-72754329D01*
X77883235Y-72777428D01*
X77889196Y-72801227D01*
X77892796Y-72825495D01*
X77894000Y-72849999D01*
X77894000Y-73500001D01*
X77892796Y-73524505D01*
X77889196Y-73548773D01*
X77883235Y-73572572D01*
X77874970Y-73595671D01*
X77864480Y-73617850D01*
X77851868Y-73638893D01*
X77837253Y-73658599D01*
X77820777Y-73676777D01*
X77802599Y-73693253D01*
X77782893Y-73707868D01*
X77761850Y-73720480D01*
X77739671Y-73730970D01*
X77716572Y-73739235D01*
X77692773Y-73745196D01*
X77668505Y-73748796D01*
X77644001Y-73750000D01*
X76743999Y-73750000D01*
X76719495Y-73748796D01*
X76695227Y-73745196D01*
X76671428Y-73739235D01*
X76648329Y-73730970D01*
X76626150Y-73720480D01*
X76605107Y-73707868D01*
X76585401Y-73693253D01*
X76567223Y-73676777D01*
X76550747Y-73658599D01*
X76536132Y-73638893D01*
X76523520Y-73617850D01*
X76513030Y-73595671D01*
X76504765Y-73572572D01*
X76498804Y-73548773D01*
X76495204Y-73524505D01*
X76494000Y-73500001D01*
X76494000Y-72849999D01*
X76495204Y-72825495D01*
X76498804Y-72801227D01*
X76504765Y-72777428D01*
X76513030Y-72754329D01*
X76523520Y-72732150D01*
X76536132Y-72711107D01*
X76550747Y-72691401D01*
X76567223Y-72673223D01*
X76585401Y-72656747D01*
X76605107Y-72642132D01*
X76626150Y-72629520D01*
X76648329Y-72619030D01*
X76671428Y-72610765D01*
X76695227Y-72604804D01*
X76719495Y-72601204D01*
X76743999Y-72600000D01*
X77644001Y-72600000D01*
X77668505Y-72601204D01*
X77668505Y-72601204D01*
G37*
D12*
X77194000Y-73175000D03*
D13*
X81750000Y-72178000D03*
X79750000Y-73128000D03*
X79750000Y-71228000D03*
D10*
G36*
X73195505Y-60098204D02*
G01*
X73219773Y-60101804D01*
X73243572Y-60107765D01*
X73266671Y-60116030D01*
X73288850Y-60126520D01*
X73309893Y-60139132D01*
X73329599Y-60153747D01*
X73347777Y-60170223D01*
X73364253Y-60188401D01*
X73378868Y-60208107D01*
X73391480Y-60229150D01*
X73401970Y-60251329D01*
X73410235Y-60274428D01*
X73416196Y-60298227D01*
X73419796Y-60322495D01*
X73421000Y-60346999D01*
X73421000Y-61247001D01*
X73419796Y-61271505D01*
X73416196Y-61295773D01*
X73410235Y-61319572D01*
X73401970Y-61342671D01*
X73391480Y-61364850D01*
X73378868Y-61385893D01*
X73364253Y-61405599D01*
X73347777Y-61423777D01*
X73329599Y-61440253D01*
X73309893Y-61454868D01*
X73288850Y-61467480D01*
X73266671Y-61477970D01*
X73243572Y-61486235D01*
X73219773Y-61492196D01*
X73195505Y-61495796D01*
X73171001Y-61497000D01*
X72520999Y-61497000D01*
X72496495Y-61495796D01*
X72472227Y-61492196D01*
X72448428Y-61486235D01*
X72425329Y-61477970D01*
X72403150Y-61467480D01*
X72382107Y-61454868D01*
X72362401Y-61440253D01*
X72344223Y-61423777D01*
X72327747Y-61405599D01*
X72313132Y-61385893D01*
X72300520Y-61364850D01*
X72290030Y-61342671D01*
X72281765Y-61319572D01*
X72275804Y-61295773D01*
X72272204Y-61271505D01*
X72271000Y-61247001D01*
X72271000Y-60346999D01*
X72272204Y-60322495D01*
X72275804Y-60298227D01*
X72281765Y-60274428D01*
X72290030Y-60251329D01*
X72300520Y-60229150D01*
X72313132Y-60208107D01*
X72327747Y-60188401D01*
X72344223Y-60170223D01*
X72362401Y-60153747D01*
X72382107Y-60139132D01*
X72403150Y-60126520D01*
X72425329Y-60116030D01*
X72448428Y-60107765D01*
X72472227Y-60101804D01*
X72496495Y-60098204D01*
X72520999Y-60097000D01*
X73171001Y-60097000D01*
X73195505Y-60098204D01*
X73195505Y-60098204D01*
G37*
D12*
X72846000Y-60797000D03*
D10*
G36*
X75245505Y-60098204D02*
G01*
X75269773Y-60101804D01*
X75293572Y-60107765D01*
X75316671Y-60116030D01*
X75338850Y-60126520D01*
X75359893Y-60139132D01*
X75379599Y-60153747D01*
X75397777Y-60170223D01*
X75414253Y-60188401D01*
X75428868Y-60208107D01*
X75441480Y-60229150D01*
X75451970Y-60251329D01*
X75460235Y-60274428D01*
X75466196Y-60298227D01*
X75469796Y-60322495D01*
X75471000Y-60346999D01*
X75471000Y-61247001D01*
X75469796Y-61271505D01*
X75466196Y-61295773D01*
X75460235Y-61319572D01*
X75451970Y-61342671D01*
X75441480Y-61364850D01*
X75428868Y-61385893D01*
X75414253Y-61405599D01*
X75397777Y-61423777D01*
X75379599Y-61440253D01*
X75359893Y-61454868D01*
X75338850Y-61467480D01*
X75316671Y-61477970D01*
X75293572Y-61486235D01*
X75269773Y-61492196D01*
X75245505Y-61495796D01*
X75221001Y-61497000D01*
X74570999Y-61497000D01*
X74546495Y-61495796D01*
X74522227Y-61492196D01*
X74498428Y-61486235D01*
X74475329Y-61477970D01*
X74453150Y-61467480D01*
X74432107Y-61454868D01*
X74412401Y-61440253D01*
X74394223Y-61423777D01*
X74377747Y-61405599D01*
X74363132Y-61385893D01*
X74350520Y-61364850D01*
X74340030Y-61342671D01*
X74331765Y-61319572D01*
X74325804Y-61295773D01*
X74322204Y-61271505D01*
X74321000Y-61247001D01*
X74321000Y-60346999D01*
X74322204Y-60322495D01*
X74325804Y-60298227D01*
X74331765Y-60274428D01*
X74340030Y-60251329D01*
X74350520Y-60229150D01*
X74363132Y-60208107D01*
X74377747Y-60188401D01*
X74394223Y-60170223D01*
X74412401Y-60153747D01*
X74432107Y-60139132D01*
X74453150Y-60126520D01*
X74475329Y-60116030D01*
X74498428Y-60107765D01*
X74522227Y-60101804D01*
X74546495Y-60098204D01*
X74570999Y-60097000D01*
X75221001Y-60097000D01*
X75245505Y-60098204D01*
X75245505Y-60098204D01*
G37*
D12*
X74896000Y-60797000D03*
D10*
G36*
X94724505Y-61901204D02*
G01*
X94748773Y-61904804D01*
X94772572Y-61910765D01*
X94795671Y-61919030D01*
X94817850Y-61929520D01*
X94838893Y-61942132D01*
X94858599Y-61956747D01*
X94876777Y-61973223D01*
X94893253Y-61991401D01*
X94907868Y-62011107D01*
X94920480Y-62032150D01*
X94930970Y-62054329D01*
X94939235Y-62077428D01*
X94945196Y-62101227D01*
X94948796Y-62125495D01*
X94950000Y-62149999D01*
X94950000Y-63050001D01*
X94948796Y-63074505D01*
X94945196Y-63098773D01*
X94939235Y-63122572D01*
X94930970Y-63145671D01*
X94920480Y-63167850D01*
X94907868Y-63188893D01*
X94893253Y-63208599D01*
X94876777Y-63226777D01*
X94858599Y-63243253D01*
X94838893Y-63257868D01*
X94817850Y-63270480D01*
X94795671Y-63280970D01*
X94772572Y-63289235D01*
X94748773Y-63295196D01*
X94724505Y-63298796D01*
X94700001Y-63300000D01*
X94049999Y-63300000D01*
X94025495Y-63298796D01*
X94001227Y-63295196D01*
X93977428Y-63289235D01*
X93954329Y-63280970D01*
X93932150Y-63270480D01*
X93911107Y-63257868D01*
X93891401Y-63243253D01*
X93873223Y-63226777D01*
X93856747Y-63208599D01*
X93842132Y-63188893D01*
X93829520Y-63167850D01*
X93819030Y-63145671D01*
X93810765Y-63122572D01*
X93804804Y-63098773D01*
X93801204Y-63074505D01*
X93800000Y-63050001D01*
X93800000Y-62149999D01*
X93801204Y-62125495D01*
X93804804Y-62101227D01*
X93810765Y-62077428D01*
X93819030Y-62054329D01*
X93829520Y-62032150D01*
X93842132Y-62011107D01*
X93856747Y-61991401D01*
X93873223Y-61973223D01*
X93891401Y-61956747D01*
X93911107Y-61942132D01*
X93932150Y-61929520D01*
X93954329Y-61919030D01*
X93977428Y-61910765D01*
X94001227Y-61904804D01*
X94025495Y-61901204D01*
X94049999Y-61900000D01*
X94700001Y-61900000D01*
X94724505Y-61901204D01*
X94724505Y-61901204D01*
G37*
D12*
X94375000Y-62600000D03*
D10*
G36*
X96774505Y-61901204D02*
G01*
X96798773Y-61904804D01*
X96822572Y-61910765D01*
X96845671Y-61919030D01*
X96867850Y-61929520D01*
X96888893Y-61942132D01*
X96908599Y-61956747D01*
X96926777Y-61973223D01*
X96943253Y-61991401D01*
X96957868Y-62011107D01*
X96970480Y-62032150D01*
X96980970Y-62054329D01*
X96989235Y-62077428D01*
X96995196Y-62101227D01*
X96998796Y-62125495D01*
X97000000Y-62149999D01*
X97000000Y-63050001D01*
X96998796Y-63074505D01*
X96995196Y-63098773D01*
X96989235Y-63122572D01*
X96980970Y-63145671D01*
X96970480Y-63167850D01*
X96957868Y-63188893D01*
X96943253Y-63208599D01*
X96926777Y-63226777D01*
X96908599Y-63243253D01*
X96888893Y-63257868D01*
X96867850Y-63270480D01*
X96845671Y-63280970D01*
X96822572Y-63289235D01*
X96798773Y-63295196D01*
X96774505Y-63298796D01*
X96750001Y-63300000D01*
X96099999Y-63300000D01*
X96075495Y-63298796D01*
X96051227Y-63295196D01*
X96027428Y-63289235D01*
X96004329Y-63280970D01*
X95982150Y-63270480D01*
X95961107Y-63257868D01*
X95941401Y-63243253D01*
X95923223Y-63226777D01*
X95906747Y-63208599D01*
X95892132Y-63188893D01*
X95879520Y-63167850D01*
X95869030Y-63145671D01*
X95860765Y-63122572D01*
X95854804Y-63098773D01*
X95851204Y-63074505D01*
X95850000Y-63050001D01*
X95850000Y-62149999D01*
X95851204Y-62125495D01*
X95854804Y-62101227D01*
X95860765Y-62077428D01*
X95869030Y-62054329D01*
X95879520Y-62032150D01*
X95892132Y-62011107D01*
X95906747Y-61991401D01*
X95923223Y-61973223D01*
X95941401Y-61956747D01*
X95961107Y-61942132D01*
X95982150Y-61929520D01*
X96004329Y-61919030D01*
X96027428Y-61910765D01*
X96051227Y-61904804D01*
X96075495Y-61901204D01*
X96099999Y-61900000D01*
X96750001Y-61900000D01*
X96774505Y-61901204D01*
X96774505Y-61901204D01*
G37*
D12*
X96425000Y-62600000D03*
M02*
