G04 #@! TF.GenerationSoftware,KiCad,Pcbnew,5.1.2*
G04 #@! TF.CreationDate,2019-07-27T17:59:41+02:00*
G04 #@! TF.ProjectId,solarcampi,736f6c61-7263-4616-9d70-692e6b696361,C*
G04 #@! TF.SameCoordinates,Original*
G04 #@! TF.FileFunction,Legend,Top*
G04 #@! TF.FilePolarity,Positive*
%FSLAX46Y46*%
G04 Gerber Fmt 4.6, Leading zero omitted, Abs format (unit mm)*
G04 Created by KiCad (PCBNEW 5.1.2) date 2019-07-27 17:59:41*
%MOMM*%
%LPD*%
G04 APERTURE LIST*
%ADD10C,0.150000*%
%ADD11C,0.300000*%
%ADD12C,0.120000*%
%ADD13C,0.100000*%
G04 APERTURE END LIST*
D10*
X60099047Y-72181428D02*
X60860952Y-72181428D01*
X60480000Y-72562380D02*
X60480000Y-71800476D01*
X56785238Y-73801904D02*
X56737619Y-73944761D01*
X56737619Y-74182857D01*
X56785238Y-74278095D01*
X56832857Y-74325714D01*
X56928095Y-74373333D01*
X57023333Y-74373333D01*
X57118571Y-74325714D01*
X57166190Y-74278095D01*
X57213809Y-74182857D01*
X57261428Y-73992380D01*
X57309047Y-73897142D01*
X57356666Y-73849523D01*
X57451904Y-73801904D01*
X57547142Y-73801904D01*
X57642380Y-73849523D01*
X57690000Y-73897142D01*
X57737619Y-73992380D01*
X57737619Y-74230476D01*
X57690000Y-74373333D01*
X56737619Y-74801904D02*
X57737619Y-74801904D01*
X57261428Y-74801904D02*
X57261428Y-75373333D01*
X56737619Y-75373333D02*
X57737619Y-75373333D01*
X57737619Y-75849523D02*
X56928095Y-75849523D01*
X56832857Y-75897142D01*
X56785238Y-75944761D01*
X56737619Y-76040000D01*
X56737619Y-76230476D01*
X56785238Y-76325714D01*
X56832857Y-76373333D01*
X56928095Y-76420952D01*
X57737619Y-76420952D01*
X56737619Y-76897142D02*
X57737619Y-76897142D01*
X56737619Y-77468571D01*
X57737619Y-77468571D01*
X57737619Y-77801904D02*
X57737619Y-78373333D01*
X56737619Y-78087619D02*
X57737619Y-78087619D01*
X104671428Y-56652380D02*
X104338095Y-56176190D01*
X104100000Y-56652380D02*
X104100000Y-55652380D01*
X104480952Y-55652380D01*
X104576190Y-55700000D01*
X104623809Y-55747619D01*
X104671428Y-55842857D01*
X104671428Y-55985714D01*
X104623809Y-56080952D01*
X104576190Y-56128571D01*
X104480952Y-56176190D01*
X104100000Y-56176190D01*
X105100000Y-56652380D02*
X105100000Y-55652380D01*
X105480952Y-55652380D01*
X105576190Y-55700000D01*
X105623809Y-55747619D01*
X105671428Y-55842857D01*
X105671428Y-55985714D01*
X105623809Y-56080952D01*
X105576190Y-56128571D01*
X105480952Y-56176190D01*
X105100000Y-56176190D01*
X106100000Y-56652380D02*
X106100000Y-55652380D01*
X94338095Y-66571428D02*
X95100000Y-66571428D01*
X94719047Y-66952380D02*
X94719047Y-66190476D01*
X95480952Y-65952380D02*
X96100000Y-65952380D01*
X95766666Y-66333333D01*
X95909523Y-66333333D01*
X96004761Y-66380952D01*
X96052380Y-66428571D01*
X96100000Y-66523809D01*
X96100000Y-66761904D01*
X96052380Y-66857142D01*
X96004761Y-66904761D01*
X95909523Y-66952380D01*
X95623809Y-66952380D01*
X95528571Y-66904761D01*
X95480952Y-66857142D01*
X96385714Y-65952380D02*
X96719047Y-66952380D01*
X97052380Y-65952380D01*
X97290476Y-65952380D02*
X97909523Y-65952380D01*
X97576190Y-66333333D01*
X97719047Y-66333333D01*
X97814285Y-66380952D01*
X97861904Y-66428571D01*
X97909523Y-66523809D01*
X97909523Y-66761904D01*
X97861904Y-66857142D01*
X97814285Y-66904761D01*
X97719047Y-66952380D01*
X97433333Y-66952380D01*
X97338095Y-66904761D01*
X97290476Y-66857142D01*
X86514285Y-56371428D02*
X87276190Y-56371428D01*
X86895238Y-56752380D02*
X86895238Y-55990476D01*
X88228571Y-55752380D02*
X87752380Y-55752380D01*
X87704761Y-56228571D01*
X87752380Y-56180952D01*
X87847619Y-56133333D01*
X88085714Y-56133333D01*
X88180952Y-56180952D01*
X88228571Y-56228571D01*
X88276190Y-56323809D01*
X88276190Y-56561904D01*
X88228571Y-56657142D01*
X88180952Y-56704761D01*
X88085714Y-56752380D01*
X87847619Y-56752380D01*
X87752380Y-56704761D01*
X87704761Y-56657142D01*
X88561904Y-55752380D02*
X88895238Y-56752380D01*
X89228571Y-55752380D01*
X107133333Y-72666666D02*
X107609523Y-72666666D01*
X107038095Y-72952380D02*
X107371428Y-71952380D01*
X107704761Y-72952380D01*
X107895238Y-71952380D02*
X108228571Y-72952380D01*
X108561904Y-71952380D01*
X109466666Y-72952380D02*
X109133333Y-72476190D01*
X108895238Y-72952380D02*
X108895238Y-71952380D01*
X109276190Y-71952380D01*
X109371428Y-72000000D01*
X109419047Y-72047619D01*
X109466666Y-72142857D01*
X109466666Y-72285714D01*
X109419047Y-72380952D01*
X109371428Y-72428571D01*
X109276190Y-72476190D01*
X108895238Y-72476190D01*
X112038095Y-57200000D02*
X111942857Y-57152380D01*
X111800000Y-57152380D01*
X111657142Y-57200000D01*
X111561904Y-57295238D01*
X111514285Y-57390476D01*
X111466666Y-57580952D01*
X111466666Y-57723809D01*
X111514285Y-57914285D01*
X111561904Y-58009523D01*
X111657142Y-58104761D01*
X111800000Y-58152380D01*
X111895238Y-58152380D01*
X112038095Y-58104761D01*
X112085714Y-58057142D01*
X112085714Y-57723809D01*
X111895238Y-57723809D01*
X112514285Y-58152380D02*
X112514285Y-57152380D01*
X113085714Y-58152380D01*
X113085714Y-57152380D01*
X113561904Y-58152380D02*
X113561904Y-57152380D01*
X113800000Y-57152380D01*
X113942857Y-57200000D01*
X114038095Y-57295238D01*
X114085714Y-57390476D01*
X114133333Y-57580952D01*
X114133333Y-57723809D01*
X114085714Y-57914285D01*
X114038095Y-58009523D01*
X113942857Y-58104761D01*
X113800000Y-58152380D01*
X113561904Y-58152380D01*
X68642380Y-65637571D02*
X68166190Y-65970904D01*
X68642380Y-66209000D02*
X67642380Y-66209000D01*
X67642380Y-65828047D01*
X67690000Y-65732809D01*
X67737619Y-65685190D01*
X67832857Y-65637571D01*
X67975714Y-65637571D01*
X68070952Y-65685190D01*
X68118571Y-65732809D01*
X68166190Y-65828047D01*
X68166190Y-66209000D01*
X68642380Y-65209000D02*
X67642380Y-65209000D01*
X67642380Y-64828047D01*
X67690000Y-64732809D01*
X67737619Y-64685190D01*
X67832857Y-64637571D01*
X67975714Y-64637571D01*
X68070952Y-64685190D01*
X68118571Y-64732809D01*
X68166190Y-64828047D01*
X68166190Y-65209000D01*
X68642380Y-64209000D02*
X67642380Y-64209000D01*
X61738095Y-57440000D02*
X61642857Y-57392380D01*
X61500000Y-57392380D01*
X61357142Y-57440000D01*
X61261904Y-57535238D01*
X61214285Y-57630476D01*
X61166666Y-57820952D01*
X61166666Y-57963809D01*
X61214285Y-58154285D01*
X61261904Y-58249523D01*
X61357142Y-58344761D01*
X61500000Y-58392380D01*
X61595238Y-58392380D01*
X61738095Y-58344761D01*
X61785714Y-58297142D01*
X61785714Y-57963809D01*
X61595238Y-57963809D01*
X62214285Y-58392380D02*
X62214285Y-57392380D01*
X62785714Y-58392380D01*
X62785714Y-57392380D01*
X63261904Y-58392380D02*
X63261904Y-57392380D01*
X63500000Y-57392380D01*
X63642857Y-57440000D01*
X63738095Y-57535238D01*
X63785714Y-57630476D01*
X63833333Y-57820952D01*
X63833333Y-57963809D01*
X63785714Y-58154285D01*
X63738095Y-58249523D01*
X63642857Y-58344761D01*
X63500000Y-58392380D01*
X63261904Y-58392380D01*
X59978095Y-66261428D02*
X60740000Y-66261428D01*
X60359047Y-66642380D02*
X60359047Y-65880476D01*
X61740000Y-66642380D02*
X61168571Y-66642380D01*
X61454285Y-66642380D02*
X61454285Y-65642380D01*
X61359047Y-65785238D01*
X61263809Y-65880476D01*
X61168571Y-65928095D01*
X62120952Y-65737619D02*
X62168571Y-65690000D01*
X62263809Y-65642380D01*
X62501904Y-65642380D01*
X62597142Y-65690000D01*
X62644761Y-65737619D01*
X62692380Y-65832857D01*
X62692380Y-65928095D01*
X62644761Y-66070952D01*
X62073333Y-66642380D01*
X62692380Y-66642380D01*
X62978095Y-65642380D02*
X63311428Y-66642380D01*
X63644761Y-65642380D01*
X58829047Y-65181428D02*
X59590952Y-65181428D01*
X59210000Y-65562380D02*
X59210000Y-64800476D01*
D11*
X92092142Y-61042142D02*
X92306428Y-61113571D01*
X92663571Y-61113571D01*
X92806428Y-61042142D01*
X92877857Y-60970714D01*
X92949285Y-60827857D01*
X92949285Y-60685000D01*
X92877857Y-60542142D01*
X92806428Y-60470714D01*
X92663571Y-60399285D01*
X92377857Y-60327857D01*
X92235000Y-60256428D01*
X92163571Y-60185000D01*
X92092142Y-60042142D01*
X92092142Y-59899285D01*
X92163571Y-59756428D01*
X92235000Y-59685000D01*
X92377857Y-59613571D01*
X92735000Y-59613571D01*
X92949285Y-59685000D01*
X93806428Y-61113571D02*
X93663571Y-61042142D01*
X93592142Y-60970714D01*
X93520714Y-60827857D01*
X93520714Y-60399285D01*
X93592142Y-60256428D01*
X93663571Y-60185000D01*
X93806428Y-60113571D01*
X94020714Y-60113571D01*
X94163571Y-60185000D01*
X94235000Y-60256428D01*
X94306428Y-60399285D01*
X94306428Y-60827857D01*
X94235000Y-60970714D01*
X94163571Y-61042142D01*
X94020714Y-61113571D01*
X93806428Y-61113571D01*
X95163571Y-61113571D02*
X95020714Y-61042142D01*
X94949285Y-60899285D01*
X94949285Y-59613571D01*
X96377857Y-61113571D02*
X96377857Y-60327857D01*
X96306428Y-60185000D01*
X96163571Y-60113571D01*
X95877857Y-60113571D01*
X95735000Y-60185000D01*
X96377857Y-61042142D02*
X96235000Y-61113571D01*
X95877857Y-61113571D01*
X95735000Y-61042142D01*
X95663571Y-60899285D01*
X95663571Y-60756428D01*
X95735000Y-60613571D01*
X95877857Y-60542142D01*
X96235000Y-60542142D01*
X96377857Y-60470714D01*
X97092142Y-61113571D02*
X97092142Y-60113571D01*
X97092142Y-60399285D02*
X97163571Y-60256428D01*
X97235000Y-60185000D01*
X97377857Y-60113571D01*
X97520714Y-60113571D01*
X98877857Y-60970714D02*
X98806428Y-61042142D01*
X98592142Y-61113571D01*
X98449285Y-61113571D01*
X98235000Y-61042142D01*
X98092142Y-60899285D01*
X98020714Y-60756428D01*
X97949285Y-60470714D01*
X97949285Y-60256428D01*
X98020714Y-59970714D01*
X98092142Y-59827857D01*
X98235000Y-59685000D01*
X98449285Y-59613571D01*
X98592142Y-59613571D01*
X98806428Y-59685000D01*
X98877857Y-59756428D01*
X100163571Y-61113571D02*
X100163571Y-60327857D01*
X100092142Y-60185000D01*
X99949285Y-60113571D01*
X99663571Y-60113571D01*
X99520714Y-60185000D01*
X100163571Y-61042142D02*
X100020714Y-61113571D01*
X99663571Y-61113571D01*
X99520714Y-61042142D01*
X99449285Y-60899285D01*
X99449285Y-60756428D01*
X99520714Y-60613571D01*
X99663571Y-60542142D01*
X100020714Y-60542142D01*
X100163571Y-60470714D01*
X100877857Y-61113571D02*
X100877857Y-60113571D01*
X100877857Y-60256428D02*
X100949285Y-60185000D01*
X101092142Y-60113571D01*
X101306428Y-60113571D01*
X101449285Y-60185000D01*
X101520714Y-60327857D01*
X101520714Y-61113571D01*
X101520714Y-60327857D02*
X101592142Y-60185000D01*
X101735000Y-60113571D01*
X101949285Y-60113571D01*
X102092142Y-60185000D01*
X102163571Y-60327857D01*
X102163571Y-61113571D01*
X102877857Y-61113571D02*
X102877857Y-59613571D01*
X103449285Y-59613571D01*
X103592142Y-59685000D01*
X103663571Y-59756428D01*
X103735000Y-59899285D01*
X103735000Y-60113571D01*
X103663571Y-60256428D01*
X103592142Y-60327857D01*
X103449285Y-60399285D01*
X102877857Y-60399285D01*
X104377857Y-61113571D02*
X104377857Y-60113571D01*
X104377857Y-59613571D02*
X104306428Y-59685000D01*
X104377857Y-59756428D01*
X104449285Y-59685000D01*
X104377857Y-59613571D01*
X104377857Y-59756428D01*
X100520714Y-63663571D02*
X100020714Y-62949285D01*
X99663571Y-63663571D02*
X99663571Y-62163571D01*
X100235000Y-62163571D01*
X100377857Y-62235000D01*
X100449285Y-62306428D01*
X100520714Y-62449285D01*
X100520714Y-62663571D01*
X100449285Y-62806428D01*
X100377857Y-62877857D01*
X100235000Y-62949285D01*
X99663571Y-62949285D01*
X101735000Y-63592142D02*
X101592142Y-63663571D01*
X101306428Y-63663571D01*
X101163571Y-63592142D01*
X101092142Y-63449285D01*
X101092142Y-62877857D01*
X101163571Y-62735000D01*
X101306428Y-62663571D01*
X101592142Y-62663571D01*
X101735000Y-62735000D01*
X101806428Y-62877857D01*
X101806428Y-63020714D01*
X101092142Y-63163571D01*
X102306428Y-62663571D02*
X102663571Y-63663571D01*
X103020714Y-62663571D01*
X104449285Y-63520714D02*
X104377857Y-63592142D01*
X104163571Y-63663571D01*
X104020714Y-63663571D01*
X103806428Y-63592142D01*
X103663571Y-63449285D01*
X103592142Y-63306428D01*
X103520714Y-63020714D01*
X103520714Y-62806428D01*
X103592142Y-62520714D01*
X103663571Y-62377857D01*
X103806428Y-62235000D01*
X104020714Y-62163571D01*
X104163571Y-62163571D01*
X104377857Y-62235000D01*
X104449285Y-62306428D01*
X94657142Y-77650000D02*
X95371428Y-77650000D01*
X94514285Y-78078571D02*
X95014285Y-76578571D01*
X95514285Y-78078571D01*
X95800000Y-76578571D02*
X96300000Y-78078571D01*
X96800000Y-76578571D01*
X98157142Y-78078571D02*
X97657142Y-77364285D01*
X97300000Y-78078571D02*
X97300000Y-76578571D01*
X97871428Y-76578571D01*
X98014285Y-76650000D01*
X98085714Y-76721428D01*
X98157142Y-76864285D01*
X98157142Y-77078571D01*
X98085714Y-77221428D01*
X98014285Y-77292857D01*
X97871428Y-77364285D01*
X97300000Y-77364285D01*
X99942857Y-78078571D02*
X99942857Y-76578571D01*
X100585714Y-78007142D02*
X100800000Y-78078571D01*
X101157142Y-78078571D01*
X101300000Y-78007142D01*
X101371428Y-77935714D01*
X101442857Y-77792857D01*
X101442857Y-77650000D01*
X101371428Y-77507142D01*
X101300000Y-77435714D01*
X101157142Y-77364285D01*
X100871428Y-77292857D01*
X100728571Y-77221428D01*
X100657142Y-77150000D01*
X100585714Y-77007142D01*
X100585714Y-76864285D01*
X100657142Y-76721428D01*
X100728571Y-76650000D01*
X100871428Y-76578571D01*
X101228571Y-76578571D01*
X101442857Y-76650000D01*
X102085714Y-78078571D02*
X102085714Y-76578571D01*
X102657142Y-76578571D01*
X102800000Y-76650000D01*
X102871428Y-76721428D01*
X102942857Y-76864285D01*
X102942857Y-77078571D01*
X102871428Y-77221428D01*
X102800000Y-77292857D01*
X102657142Y-77364285D01*
X102085714Y-77364285D01*
D12*
X86182500Y-62354500D02*
X86182500Y-62979500D01*
X85870000Y-62667000D02*
X86495000Y-62667000D01*
X86735000Y-66047563D02*
X87799437Y-67112000D01*
X86735000Y-62656437D02*
X87799437Y-61592000D01*
X86735000Y-62656437D02*
X86735000Y-63292000D01*
X86735000Y-66047563D02*
X86735000Y-65412000D01*
X87799437Y-67112000D02*
X92255000Y-67112000D01*
X87799437Y-61592000D02*
X92255000Y-61592000D01*
X92255000Y-61592000D02*
X92255000Y-63292000D01*
X92255000Y-67112000D02*
X92255000Y-65412000D01*
D13*
X69340000Y-56000000D02*
X86060000Y-56000000D01*
X86060000Y-56000000D02*
X86060000Y-78100000D01*
X86080000Y-78100000D02*
X69320000Y-78100000D01*
X69340000Y-78100000D02*
X69340000Y-56000000D01*
D12*
X95950000Y-59050000D02*
X95950000Y-56250000D01*
X95950000Y-56250000D02*
X97950000Y-56250000D01*
X97950000Y-56250000D02*
X97950000Y-59050000D01*
X97950000Y-59050000D02*
X95950000Y-59050000D01*
X93100000Y-59050000D02*
X93100000Y-56250000D01*
X93100000Y-56250000D02*
X95100000Y-56250000D01*
X95100000Y-56250000D02*
X95100000Y-59050000D01*
X95100000Y-59050000D02*
X93100000Y-59050000D01*
X90250000Y-59050000D02*
X90250000Y-56250000D01*
X90250000Y-56250000D02*
X92250000Y-56250000D01*
X92250000Y-56250000D02*
X92250000Y-59050000D01*
X92250000Y-59050000D02*
X90250000Y-59050000D01*
X57960000Y-80440000D02*
X68120000Y-80440000D01*
X57960000Y-72820000D02*
X57960000Y-80440000D01*
X68120000Y-72820000D02*
X57960000Y-72820000D01*
X68120000Y-80440000D02*
X68120000Y-72820000D01*
X68120000Y-79170000D02*
X57960000Y-79170000D01*
X78778748Y-69750000D02*
X79301252Y-69750000D01*
X78778748Y-68330000D02*
X79301252Y-68330000D01*
X73030000Y-69090000D02*
X74490000Y-69090000D01*
X73030000Y-72250000D02*
X75190000Y-72250000D01*
X73030000Y-72250000D02*
X73030000Y-71320000D01*
X73030000Y-69090000D02*
X73030000Y-70020000D01*
X84200000Y-68820000D02*
X85660000Y-68820000D01*
X84200000Y-71980000D02*
X86360000Y-71980000D01*
X84200000Y-71980000D02*
X84200000Y-71050000D01*
X84200000Y-68820000D02*
X84200000Y-69750000D01*
X50292000Y-56062000D02*
X50292000Y-66222000D01*
X57912000Y-56062000D02*
X50292000Y-56062000D01*
X57912000Y-66222000D02*
X57912000Y-56062000D01*
X50292000Y-66222000D02*
X57912000Y-66222000D01*
X51562000Y-66222000D02*
X51562000Y-56062000D01*
X89730000Y-78230000D02*
X88400000Y-78230000D01*
X89730000Y-76900000D02*
X89730000Y-78230000D01*
X89730000Y-75630000D02*
X87070000Y-75630000D01*
X87070000Y-75630000D02*
X87070000Y-73030000D01*
X89730000Y-75630000D02*
X89730000Y-73030000D01*
X89730000Y-73030000D02*
X87070000Y-73030000D01*
X77910000Y-76261252D02*
X77910000Y-75738748D01*
X76490000Y-76261252D02*
X76490000Y-75738748D01*
X87690000Y-70138748D02*
X87690000Y-70661252D01*
X89110000Y-70138748D02*
X89110000Y-70661252D01*
X59300000Y-63770000D02*
X59300000Y-59870000D01*
X61300000Y-63770000D02*
X61300000Y-59870000D01*
X59300000Y-63770000D02*
X61300000Y-63770000D01*
X80478748Y-61510000D02*
X81001252Y-61510000D01*
X80478748Y-60090000D02*
X81001252Y-60090000D01*
X108130000Y-56340000D02*
X109460000Y-56340000D01*
X108130000Y-57670000D02*
X108130000Y-56340000D01*
X108130000Y-58940000D02*
X110790000Y-58940000D01*
X110790000Y-58940000D02*
X110790000Y-71700000D01*
X108130000Y-58940000D02*
X108130000Y-71700000D01*
X108130000Y-71700000D02*
X110790000Y-71700000D01*
X61760000Y-65130000D02*
X61760000Y-63730000D01*
X63160000Y-65130000D02*
X61760000Y-65130000D01*
X63160000Y-63730000D02*
X63160000Y-65130000D01*
X61760000Y-63730000D02*
X63160000Y-63730000D01*
X106610000Y-66561252D02*
X106610000Y-66038748D01*
X105190000Y-66561252D02*
X105190000Y-66038748D01*
X95720000Y-65610000D02*
X95720000Y-64210000D01*
X97120000Y-65610000D02*
X95720000Y-65610000D01*
X97120000Y-64210000D02*
X97120000Y-65610000D01*
X95720000Y-64210000D02*
X97120000Y-64210000D01*
X86910000Y-58480000D02*
X86910000Y-57080000D01*
X88310000Y-58480000D02*
X86910000Y-58480000D01*
X88310000Y-57080000D02*
X88310000Y-58480000D01*
X86910000Y-57080000D02*
X88310000Y-57080000D01*
X103860000Y-66340000D02*
X101000000Y-66340000D01*
X103860000Y-68260000D02*
X103860000Y-66340000D01*
X101000000Y-68260000D02*
X103860000Y-68260000D01*
X76530000Y-61400000D02*
X76530000Y-57500000D01*
X78530000Y-61400000D02*
X78530000Y-57500000D01*
X76530000Y-61400000D02*
X78530000Y-61400000D01*
X57400000Y-71520000D02*
X54900000Y-71520000D01*
X57400000Y-67520000D02*
X54900000Y-67520000D01*
X77904000Y-72411252D02*
X77904000Y-71888748D01*
X76484000Y-72411252D02*
X76484000Y-71888748D01*
X81510000Y-73758000D02*
X80050000Y-73758000D01*
X81510000Y-70598000D02*
X79350000Y-70598000D01*
X81510000Y-70598000D02*
X81510000Y-71528000D01*
X81510000Y-73758000D02*
X81510000Y-72828000D01*
X64320000Y-56570000D02*
X65650000Y-56570000D01*
X64320000Y-57900000D02*
X64320000Y-56570000D01*
X64320000Y-59170000D02*
X66980000Y-59170000D01*
X66980000Y-59170000D02*
X66980000Y-71930000D01*
X64320000Y-59170000D02*
X64320000Y-71930000D01*
X64320000Y-71930000D02*
X66980000Y-71930000D01*
X90666000Y-78839000D02*
X90666000Y-76299000D01*
X90666000Y-78839000D02*
X93206000Y-78839000D01*
X90916000Y-78589000D02*
X90916000Y-69239000D01*
X106696000Y-78589000D02*
X90916000Y-78589000D01*
X106696000Y-69239000D02*
X106696000Y-78589000D01*
X90916000Y-69239000D02*
X106696000Y-69239000D01*
X74132252Y-60087000D02*
X73609748Y-60087000D01*
X74132252Y-61507000D02*
X73609748Y-61507000D01*
X95661252Y-61890000D02*
X95138748Y-61890000D01*
X95661252Y-63310000D02*
X95138748Y-63310000D01*
X57070000Y-55130000D02*
X57070000Y-53800000D01*
X58400000Y-55130000D02*
X57070000Y-55130000D01*
X57070000Y-52530000D02*
X57070000Y-49930000D01*
X59670000Y-52530000D02*
X57070000Y-52530000D01*
X59670000Y-55130000D02*
X59670000Y-52530000D01*
X57070000Y-49930000D02*
X107990000Y-49930000D01*
X59670000Y-55130000D02*
X107990000Y-55130000D01*
X107990000Y-55130000D02*
X107990000Y-49930000D01*
D10*
X88852142Y-61009142D02*
X88804523Y-61056761D01*
X88661666Y-61104380D01*
X88566428Y-61104380D01*
X88423571Y-61056761D01*
X88328333Y-60961523D01*
X88280714Y-60866285D01*
X88233095Y-60675809D01*
X88233095Y-60532952D01*
X88280714Y-60342476D01*
X88328333Y-60247238D01*
X88423571Y-60152000D01*
X88566428Y-60104380D01*
X88661666Y-60104380D01*
X88804523Y-60152000D01*
X88852142Y-60199619D01*
X89804523Y-61104380D02*
X89233095Y-61104380D01*
X89518809Y-61104380D02*
X89518809Y-60104380D01*
X89423571Y-60247238D01*
X89328333Y-60342476D01*
X89233095Y-60390095D01*
X90137857Y-60104380D02*
X90756904Y-60104380D01*
X90423571Y-60485333D01*
X90566428Y-60485333D01*
X90661666Y-60532952D01*
X90709285Y-60580571D01*
X90756904Y-60675809D01*
X90756904Y-60913904D01*
X90709285Y-61009142D01*
X90661666Y-61056761D01*
X90566428Y-61104380D01*
X90280714Y-61104380D01*
X90185476Y-61056761D01*
X90137857Y-61009142D01*
X76485714Y-67502380D02*
X76485714Y-66502380D01*
X76866666Y-66502380D01*
X76961904Y-66550000D01*
X77009523Y-66597619D01*
X77057142Y-66692857D01*
X77057142Y-66835714D01*
X77009523Y-66930952D01*
X76961904Y-66978571D01*
X76866666Y-67026190D01*
X76485714Y-67026190D01*
X77438095Y-67454761D02*
X77580952Y-67502380D01*
X77819047Y-67502380D01*
X77914285Y-67454761D01*
X77961904Y-67407142D01*
X78009523Y-67311904D01*
X78009523Y-67216666D01*
X77961904Y-67121428D01*
X77914285Y-67073809D01*
X77819047Y-67026190D01*
X77628571Y-66978571D01*
X77533333Y-66930952D01*
X77485714Y-66883333D01*
X77438095Y-66788095D01*
X77438095Y-66692857D01*
X77485714Y-66597619D01*
X77533333Y-66550000D01*
X77628571Y-66502380D01*
X77866666Y-66502380D01*
X78009523Y-66550000D01*
X78961904Y-67502380D02*
X78390476Y-67502380D01*
X78676190Y-67502380D02*
X78676190Y-66502380D01*
X78580952Y-66645238D01*
X78485714Y-66740476D01*
X78390476Y-66788095D01*
X75010000Y-76991904D02*
X74962380Y-77087142D01*
X74962380Y-77230000D01*
X75010000Y-77372857D01*
X75105238Y-77468095D01*
X75200476Y-77515714D01*
X75390952Y-77563333D01*
X75533809Y-77563333D01*
X75724285Y-77515714D01*
X75819523Y-77468095D01*
X75914761Y-77372857D01*
X75962380Y-77230000D01*
X75962380Y-77134761D01*
X75914761Y-76991904D01*
X75867142Y-76944285D01*
X75533809Y-76944285D01*
X75533809Y-77134761D01*
X75962380Y-76515714D02*
X74962380Y-76515714D01*
X75962380Y-75944285D01*
X74962380Y-75944285D01*
X75962380Y-75468095D02*
X74962380Y-75468095D01*
X74962380Y-75230000D01*
X75010000Y-75087142D01*
X75105238Y-74991904D01*
X75200476Y-74944285D01*
X75390952Y-74896666D01*
X75533809Y-74896666D01*
X75724285Y-74944285D01*
X75819523Y-74991904D01*
X75914761Y-75087142D01*
X75962380Y-75230000D01*
X75962380Y-75468095D01*
X79422380Y-59831904D02*
X80422380Y-59498571D01*
X79422380Y-59165238D01*
X79422380Y-58641428D02*
X79422380Y-58450952D01*
X79470000Y-58355714D01*
X79565238Y-58260476D01*
X79755714Y-58212857D01*
X80089047Y-58212857D01*
X80279523Y-58260476D01*
X80374761Y-58355714D01*
X80422380Y-58450952D01*
X80422380Y-58641428D01*
X80374761Y-58736666D01*
X80279523Y-58831904D01*
X80089047Y-58879523D01*
X79755714Y-58879523D01*
X79565238Y-58831904D01*
X79470000Y-58736666D01*
X79422380Y-58641428D01*
X79422380Y-57784285D02*
X80231904Y-57784285D01*
X80327142Y-57736666D01*
X80374761Y-57689047D01*
X80422380Y-57593809D01*
X80422380Y-57403333D01*
X80374761Y-57308095D01*
X80327142Y-57260476D01*
X80231904Y-57212857D01*
X79422380Y-57212857D01*
X79422380Y-56879523D02*
X79422380Y-56308095D01*
X80422380Y-56593809D02*
X79422380Y-56593809D01*
X75020000Y-58481904D02*
X74972380Y-58577142D01*
X74972380Y-58720000D01*
X75020000Y-58862857D01*
X75115238Y-58958095D01*
X75210476Y-59005714D01*
X75400952Y-59053333D01*
X75543809Y-59053333D01*
X75734285Y-59005714D01*
X75829523Y-58958095D01*
X75924761Y-58862857D01*
X75972380Y-58720000D01*
X75972380Y-58624761D01*
X75924761Y-58481904D01*
X75877142Y-58434285D01*
X75543809Y-58434285D01*
X75543809Y-58624761D01*
X75972380Y-58005714D02*
X74972380Y-58005714D01*
X75972380Y-57434285D01*
X74972380Y-57434285D01*
X75972380Y-56958095D02*
X74972380Y-56958095D01*
X74972380Y-56720000D01*
X75020000Y-56577142D01*
X75115238Y-56481904D01*
X75210476Y-56434285D01*
X75400952Y-56386666D01*
X75543809Y-56386666D01*
X75734285Y-56434285D01*
X75829523Y-56481904D01*
X75924761Y-56577142D01*
X75972380Y-56720000D01*
X75972380Y-56958095D01*
X79602380Y-77465238D02*
X80602380Y-77131904D01*
X79602380Y-76798571D01*
X80602380Y-76465238D02*
X79602380Y-76465238D01*
X80602380Y-75989047D02*
X79602380Y-75989047D01*
X80602380Y-75417619D01*
X79602380Y-75417619D01*
X62696666Y-70852380D02*
X62696666Y-71566666D01*
X62649047Y-71709523D01*
X62553809Y-71804761D01*
X62410952Y-71852380D01*
X62315714Y-71852380D01*
X63601428Y-70852380D02*
X63410952Y-70852380D01*
X63315714Y-70900000D01*
X63268095Y-70947619D01*
X63172857Y-71090476D01*
X63125238Y-71280952D01*
X63125238Y-71661904D01*
X63172857Y-71757142D01*
X63220476Y-71804761D01*
X63315714Y-71852380D01*
X63506190Y-71852380D01*
X63601428Y-71804761D01*
X63649047Y-71757142D01*
X63696666Y-71661904D01*
X63696666Y-71423809D01*
X63649047Y-71328571D01*
X63601428Y-71280952D01*
X63506190Y-71233333D01*
X63315714Y-71233333D01*
X63220476Y-71280952D01*
X63172857Y-71328571D01*
X63125238Y-71423809D01*
X77122380Y-69772857D02*
X76646190Y-70106190D01*
X77122380Y-70344285D02*
X76122380Y-70344285D01*
X76122380Y-69963333D01*
X76170000Y-69868095D01*
X76217619Y-69820476D01*
X76312857Y-69772857D01*
X76455714Y-69772857D01*
X76550952Y-69820476D01*
X76598571Y-69868095D01*
X76646190Y-69963333D01*
X76646190Y-70344285D01*
X77122380Y-68820476D02*
X77122380Y-69391904D01*
X77122380Y-69106190D02*
X76122380Y-69106190D01*
X76265238Y-69201428D01*
X76360476Y-69296666D01*
X76408095Y-69391904D01*
X76122380Y-68201428D02*
X76122380Y-68106190D01*
X76170000Y-68010952D01*
X76217619Y-67963333D01*
X76312857Y-67915714D01*
X76503333Y-67868095D01*
X76741428Y-67868095D01*
X76931904Y-67915714D01*
X77027142Y-67963333D01*
X77074761Y-68010952D01*
X77122380Y-68106190D01*
X77122380Y-68201428D01*
X77074761Y-68296666D01*
X77027142Y-68344285D01*
X76931904Y-68391904D01*
X76741428Y-68439523D01*
X76503333Y-68439523D01*
X76312857Y-68391904D01*
X76217619Y-68344285D01*
X76170000Y-68296666D01*
X76122380Y-68201428D01*
X73694761Y-73717619D02*
X73599523Y-73670000D01*
X73504285Y-73574761D01*
X73361428Y-73431904D01*
X73266190Y-73384285D01*
X73170952Y-73384285D01*
X73218571Y-73622380D02*
X73123333Y-73574761D01*
X73028095Y-73479523D01*
X72980476Y-73289047D01*
X72980476Y-72955714D01*
X73028095Y-72765238D01*
X73123333Y-72670000D01*
X73218571Y-72622380D01*
X73409047Y-72622380D01*
X73504285Y-72670000D01*
X73599523Y-72765238D01*
X73647142Y-72955714D01*
X73647142Y-73289047D01*
X73599523Y-73479523D01*
X73504285Y-73574761D01*
X73409047Y-73622380D01*
X73218571Y-73622380D01*
X73980476Y-72622380D02*
X74599523Y-72622380D01*
X74266190Y-73003333D01*
X74409047Y-73003333D01*
X74504285Y-73050952D01*
X74551904Y-73098571D01*
X74599523Y-73193809D01*
X74599523Y-73431904D01*
X74551904Y-73527142D01*
X74504285Y-73574761D01*
X74409047Y-73622380D01*
X74123333Y-73622380D01*
X74028095Y-73574761D01*
X73980476Y-73527142D01*
X84864761Y-73447619D02*
X84769523Y-73400000D01*
X84674285Y-73304761D01*
X84531428Y-73161904D01*
X84436190Y-73114285D01*
X84340952Y-73114285D01*
X84388571Y-73352380D02*
X84293333Y-73304761D01*
X84198095Y-73209523D01*
X84150476Y-73019047D01*
X84150476Y-72685714D01*
X84198095Y-72495238D01*
X84293333Y-72400000D01*
X84388571Y-72352380D01*
X84579047Y-72352380D01*
X84674285Y-72400000D01*
X84769523Y-72495238D01*
X84817142Y-72685714D01*
X84817142Y-73019047D01*
X84769523Y-73209523D01*
X84674285Y-73304761D01*
X84579047Y-73352380D01*
X84388571Y-73352380D01*
X85769523Y-73352380D02*
X85198095Y-73352380D01*
X85483809Y-73352380D02*
X85483809Y-72352380D01*
X85388571Y-72495238D01*
X85293333Y-72590476D01*
X85198095Y-72638095D01*
X58912380Y-57083333D02*
X59626666Y-57083333D01*
X59769523Y-57130952D01*
X59864761Y-57226190D01*
X59912380Y-57369047D01*
X59912380Y-57464285D01*
X59912380Y-56083333D02*
X59912380Y-56654761D01*
X59912380Y-56369047D02*
X58912380Y-56369047D01*
X59055238Y-56464285D01*
X59150476Y-56559523D01*
X59198095Y-56654761D01*
X79257142Y-76266666D02*
X79304761Y-76314285D01*
X79352380Y-76457142D01*
X79352380Y-76552380D01*
X79304761Y-76695238D01*
X79209523Y-76790476D01*
X79114285Y-76838095D01*
X78923809Y-76885714D01*
X78780952Y-76885714D01*
X78590476Y-76838095D01*
X78495238Y-76790476D01*
X78400000Y-76695238D01*
X78352380Y-76552380D01*
X78352380Y-76457142D01*
X78400000Y-76314285D01*
X78447619Y-76266666D01*
X78352380Y-75409523D02*
X78352380Y-75600000D01*
X78400000Y-75695238D01*
X78447619Y-75742857D01*
X78590476Y-75838095D01*
X78780952Y-75885714D01*
X79161904Y-75885714D01*
X79257142Y-75838095D01*
X79304761Y-75790476D01*
X79352380Y-75695238D01*
X79352380Y-75504761D01*
X79304761Y-75409523D01*
X79257142Y-75361904D01*
X79161904Y-75314285D01*
X78923809Y-75314285D01*
X78828571Y-75361904D01*
X78780952Y-75409523D01*
X78733333Y-75504761D01*
X78733333Y-75695238D01*
X78780952Y-75790476D01*
X78828571Y-75838095D01*
X78923809Y-75885714D01*
X90423380Y-70568666D02*
X89947190Y-70902000D01*
X90423380Y-71140095D02*
X89423380Y-71140095D01*
X89423380Y-70759142D01*
X89471000Y-70663904D01*
X89518619Y-70616285D01*
X89613857Y-70568666D01*
X89756714Y-70568666D01*
X89851952Y-70616285D01*
X89899571Y-70663904D01*
X89947190Y-70759142D01*
X89947190Y-71140095D01*
X89423380Y-69711523D02*
X89423380Y-69902000D01*
X89471000Y-69997238D01*
X89518619Y-70044857D01*
X89661476Y-70140095D01*
X89851952Y-70187714D01*
X90232904Y-70187714D01*
X90328142Y-70140095D01*
X90375761Y-70092476D01*
X90423380Y-69997238D01*
X90423380Y-69806761D01*
X90375761Y-69711523D01*
X90328142Y-69663904D01*
X90232904Y-69616285D01*
X89994809Y-69616285D01*
X89899571Y-69663904D01*
X89851952Y-69711523D01*
X89804333Y-69806761D01*
X89804333Y-69997238D01*
X89851952Y-70092476D01*
X89899571Y-70140095D01*
X89994809Y-70187714D01*
X61821904Y-61972380D02*
X61821904Y-60972380D01*
X62060000Y-60972380D01*
X62202857Y-61020000D01*
X62298095Y-61115238D01*
X62345714Y-61210476D01*
X62393333Y-61400952D01*
X62393333Y-61543809D01*
X62345714Y-61734285D01*
X62298095Y-61829523D01*
X62202857Y-61924761D01*
X62060000Y-61972380D01*
X61821904Y-61972380D01*
X63345714Y-61972380D02*
X62774285Y-61972380D01*
X63060000Y-61972380D02*
X63060000Y-60972380D01*
X62964761Y-61115238D01*
X62869523Y-61210476D01*
X62774285Y-61258095D01*
X80366666Y-62428571D02*
X80033333Y-62428571D01*
X80033333Y-62952380D02*
X80033333Y-61952380D01*
X80509523Y-61952380D01*
X80842857Y-62047619D02*
X80890476Y-62000000D01*
X80985714Y-61952380D01*
X81223809Y-61952380D01*
X81319047Y-62000000D01*
X81366666Y-62047619D01*
X81414285Y-62142857D01*
X81414285Y-62238095D01*
X81366666Y-62380952D01*
X80795238Y-62952380D01*
X81414285Y-62952380D01*
X105733333Y-64152380D02*
X105400000Y-63676190D01*
X105161904Y-64152380D02*
X105161904Y-63152380D01*
X105542857Y-63152380D01*
X105638095Y-63200000D01*
X105685714Y-63247619D01*
X105733333Y-63342857D01*
X105733333Y-63485714D01*
X105685714Y-63580952D01*
X105638095Y-63628571D01*
X105542857Y-63676190D01*
X105161904Y-63676190D01*
X106114285Y-63247619D02*
X106161904Y-63200000D01*
X106257142Y-63152380D01*
X106495238Y-63152380D01*
X106590476Y-63200000D01*
X106638095Y-63247619D01*
X106685714Y-63342857D01*
X106685714Y-63438095D01*
X106638095Y-63580952D01*
X106066666Y-64152380D01*
X106685714Y-64152380D01*
X101261904Y-65952380D02*
X101261904Y-64952380D01*
X101500000Y-64952380D01*
X101642857Y-65000000D01*
X101738095Y-65095238D01*
X101785714Y-65190476D01*
X101833333Y-65380952D01*
X101833333Y-65523809D01*
X101785714Y-65714285D01*
X101738095Y-65809523D01*
X101642857Y-65904761D01*
X101500000Y-65952380D01*
X101261904Y-65952380D01*
X102214285Y-65047619D02*
X102261904Y-65000000D01*
X102357142Y-64952380D01*
X102595238Y-64952380D01*
X102690476Y-65000000D01*
X102738095Y-65047619D01*
X102785714Y-65142857D01*
X102785714Y-65238095D01*
X102738095Y-65380952D01*
X102166666Y-65952380D01*
X102785714Y-65952380D01*
X77982380Y-63218095D02*
X76982380Y-63218095D01*
X76982380Y-62980000D01*
X77030000Y-62837142D01*
X77125238Y-62741904D01*
X77220476Y-62694285D01*
X77410952Y-62646666D01*
X77553809Y-62646666D01*
X77744285Y-62694285D01*
X77839523Y-62741904D01*
X77934761Y-62837142D01*
X77982380Y-62980000D01*
X77982380Y-63218095D01*
X76982380Y-62313333D02*
X76982380Y-61694285D01*
X77363333Y-62027619D01*
X77363333Y-61884761D01*
X77410952Y-61789523D01*
X77458571Y-61741904D01*
X77553809Y-61694285D01*
X77791904Y-61694285D01*
X77887142Y-61741904D01*
X77934761Y-61789523D01*
X77982380Y-61884761D01*
X77982380Y-62170476D01*
X77934761Y-62265714D01*
X77887142Y-62313333D01*
X56436666Y-72348571D02*
X56103333Y-72348571D01*
X56103333Y-72872380D02*
X56103333Y-71872380D01*
X56579523Y-71872380D01*
X57484285Y-72872380D02*
X56912857Y-72872380D01*
X57198571Y-72872380D02*
X57198571Y-71872380D01*
X57103333Y-72015238D01*
X57008095Y-72110476D01*
X56912857Y-72158095D01*
X79132380Y-72216666D02*
X78656190Y-72550000D01*
X79132380Y-72788095D02*
X78132380Y-72788095D01*
X78132380Y-72407142D01*
X78180000Y-72311904D01*
X78227619Y-72264285D01*
X78322857Y-72216666D01*
X78465714Y-72216666D01*
X78560952Y-72264285D01*
X78608571Y-72311904D01*
X78656190Y-72407142D01*
X78656190Y-72788095D01*
X78132380Y-71311904D02*
X78132380Y-71788095D01*
X78608571Y-71835714D01*
X78560952Y-71788095D01*
X78513333Y-71692857D01*
X78513333Y-71454761D01*
X78560952Y-71359523D01*
X78608571Y-71311904D01*
X78703809Y-71264285D01*
X78941904Y-71264285D01*
X79037142Y-71311904D01*
X79084761Y-71359523D01*
X79132380Y-71454761D01*
X79132380Y-71692857D01*
X79084761Y-71788095D01*
X79037142Y-71835714D01*
X82904761Y-74347619D02*
X82809523Y-74300000D01*
X82714285Y-74204761D01*
X82571428Y-74061904D01*
X82476190Y-74014285D01*
X82380952Y-74014285D01*
X82428571Y-74252380D02*
X82333333Y-74204761D01*
X82238095Y-74109523D01*
X82190476Y-73919047D01*
X82190476Y-73585714D01*
X82238095Y-73395238D01*
X82333333Y-73300000D01*
X82428571Y-73252380D01*
X82619047Y-73252380D01*
X82714285Y-73300000D01*
X82809523Y-73395238D01*
X82857142Y-73585714D01*
X82857142Y-73919047D01*
X82809523Y-74109523D01*
X82714285Y-74204761D01*
X82619047Y-74252380D01*
X82428571Y-74252380D01*
X83238095Y-73347619D02*
X83285714Y-73300000D01*
X83380952Y-73252380D01*
X83619047Y-73252380D01*
X83714285Y-73300000D01*
X83761904Y-73347619D01*
X83809523Y-73442857D01*
X83809523Y-73538095D01*
X83761904Y-73680952D01*
X83190476Y-74252380D01*
X83809523Y-74252380D01*
X73704333Y-62804142D02*
X73656714Y-62851761D01*
X73513857Y-62899380D01*
X73418619Y-62899380D01*
X73275761Y-62851761D01*
X73180523Y-62756523D01*
X73132904Y-62661285D01*
X73085285Y-62470809D01*
X73085285Y-62327952D01*
X73132904Y-62137476D01*
X73180523Y-62042238D01*
X73275761Y-61947000D01*
X73418619Y-61899380D01*
X73513857Y-61899380D01*
X73656714Y-61947000D01*
X73704333Y-61994619D01*
X74180523Y-62899380D02*
X74371000Y-62899380D01*
X74466238Y-62851761D01*
X74513857Y-62804142D01*
X74609095Y-62661285D01*
X74656714Y-62470809D01*
X74656714Y-62089857D01*
X74609095Y-61994619D01*
X74561476Y-61947000D01*
X74466238Y-61899380D01*
X74275761Y-61899380D01*
X74180523Y-61947000D01*
X74132904Y-61994619D01*
X74085285Y-62089857D01*
X74085285Y-62327952D01*
X74132904Y-62423190D01*
X74180523Y-62470809D01*
X74275761Y-62518428D01*
X74466238Y-62518428D01*
X74561476Y-62470809D01*
X74609095Y-62423190D01*
X74656714Y-62327952D01*
X97963333Y-62957142D02*
X97915714Y-63004761D01*
X97772857Y-63052380D01*
X97677619Y-63052380D01*
X97534761Y-63004761D01*
X97439523Y-62909523D01*
X97391904Y-62814285D01*
X97344285Y-62623809D01*
X97344285Y-62480952D01*
X97391904Y-62290476D01*
X97439523Y-62195238D01*
X97534761Y-62100000D01*
X97677619Y-62052380D01*
X97772857Y-62052380D01*
X97915714Y-62100000D01*
X97963333Y-62147619D01*
X98868095Y-62052380D02*
X98391904Y-62052380D01*
X98344285Y-62528571D01*
X98391904Y-62480952D01*
X98487142Y-62433333D01*
X98725238Y-62433333D01*
X98820476Y-62480952D01*
X98868095Y-62528571D01*
X98915714Y-62623809D01*
X98915714Y-62861904D01*
X98868095Y-62957142D01*
X98820476Y-63004761D01*
X98725238Y-63052380D01*
X98487142Y-63052380D01*
X98391904Y-63004761D01*
X98344285Y-62957142D01*
M02*
