G04 #@! TF.GenerationSoftware,KiCad,Pcbnew,5.1.2*
G04 #@! TF.CreationDate,2019-07-27T17:59:41+02:00*
G04 #@! TF.ProjectId,solarcampi,736f6c61-7263-4616-9d70-692e6b696361,C*
G04 #@! TF.SameCoordinates,Original*
G04 #@! TF.FileFunction,Soldermask,Bot*
G04 #@! TF.FilePolarity,Negative*
%FSLAX46Y46*%
G04 Gerber Fmt 4.6, Leading zero omitted, Abs format (unit mm)*
G04 Created by KiCad (PCBNEW 5.1.2) date 2019-07-27 17:59:41*
%MOMM*%
%LPD*%
G04 APERTURE LIST*
%ADD10C,0.100000*%
G04 APERTURE END LIST*
D10*
G36*
X112204780Y-72559565D02*
G01*
X112504237Y-72619131D01*
X113068401Y-72852815D01*
X113576135Y-73192072D01*
X114007928Y-73623865D01*
X114347185Y-74131599D01*
X114580869Y-74695763D01*
X114640434Y-74995220D01*
X114700000Y-75294675D01*
X114700000Y-75905325D01*
X114664187Y-76085367D01*
X114580869Y-76504237D01*
X114347185Y-77068401D01*
X114007928Y-77576135D01*
X113576135Y-78007928D01*
X113068401Y-78347185D01*
X112504237Y-78580869D01*
X112204780Y-78640434D01*
X111905325Y-78700000D01*
X111294675Y-78700000D01*
X110995220Y-78640434D01*
X110695763Y-78580869D01*
X110131599Y-78347185D01*
X109623865Y-78007928D01*
X109192072Y-77576135D01*
X108852815Y-77068401D01*
X108619131Y-76504237D01*
X108535813Y-76085367D01*
X108500000Y-75905325D01*
X108500000Y-75294675D01*
X108559566Y-74995220D01*
X108619131Y-74695763D01*
X108852815Y-74131599D01*
X109192072Y-73623865D01*
X109623865Y-73192072D01*
X110131599Y-72852815D01*
X110695763Y-72619131D01*
X110995220Y-72559565D01*
X111294675Y-72500000D01*
X111905325Y-72500000D01*
X112204780Y-72559565D01*
X112204780Y-72559565D01*
G37*
G36*
X54204780Y-72459566D02*
G01*
X54504237Y-72519131D01*
X55068401Y-72752815D01*
X55576135Y-73092072D01*
X56007928Y-73523865D01*
X56347185Y-74031599D01*
X56580869Y-74595763D01*
X56627920Y-74832304D01*
X56700000Y-75194675D01*
X56700000Y-75805325D01*
X56654699Y-76033068D01*
X56580869Y-76404237D01*
X56347185Y-76968401D01*
X56007928Y-77476135D01*
X55576135Y-77907928D01*
X55068401Y-78247185D01*
X54504237Y-78480869D01*
X54204780Y-78540434D01*
X53905325Y-78600000D01*
X53294675Y-78600000D01*
X52995220Y-78540434D01*
X52695763Y-78480869D01*
X52131599Y-78247185D01*
X51623865Y-77907928D01*
X51192072Y-77476135D01*
X50852815Y-76968401D01*
X50619131Y-76404237D01*
X50545301Y-76033068D01*
X50500000Y-75805325D01*
X50500000Y-75194675D01*
X50572080Y-74832304D01*
X50619131Y-74595763D01*
X50852815Y-74031599D01*
X51192072Y-73523865D01*
X51623865Y-73092072D01*
X52131599Y-72752815D01*
X52695763Y-72519131D01*
X52995220Y-72459566D01*
X53294675Y-72400000D01*
X53905325Y-72400000D01*
X54204780Y-72459566D01*
X54204780Y-72459566D01*
G37*
G36*
X62051000Y-78181000D02*
G01*
X58949000Y-78181000D01*
X58949000Y-75079000D01*
X62051000Y-75079000D01*
X62051000Y-78181000D01*
X62051000Y-78181000D01*
G37*
G36*
X65882585Y-75108802D02*
G01*
X66032410Y-75138604D01*
X66314674Y-75255521D01*
X66568705Y-75425259D01*
X66784741Y-75641295D01*
X66954479Y-75895326D01*
X67033196Y-76085367D01*
X67071396Y-76177591D01*
X67116479Y-76404235D01*
X67131000Y-76477240D01*
X67131000Y-76782760D01*
X67071396Y-77082410D01*
X66954479Y-77364674D01*
X66784741Y-77618705D01*
X66568705Y-77834741D01*
X66314674Y-78004479D01*
X66032410Y-78121396D01*
X65882585Y-78151198D01*
X65732761Y-78181000D01*
X65427239Y-78181000D01*
X65277415Y-78151198D01*
X65127590Y-78121396D01*
X64845326Y-78004479D01*
X64591295Y-77834741D01*
X64375259Y-77618705D01*
X64205521Y-77364674D01*
X64088604Y-77082410D01*
X64029000Y-76782760D01*
X64029000Y-76477240D01*
X64043522Y-76404235D01*
X64088604Y-76177591D01*
X64126804Y-76085367D01*
X64205521Y-75895326D01*
X64375259Y-75641295D01*
X64591295Y-75425259D01*
X64845326Y-75255521D01*
X65127590Y-75138604D01*
X65277415Y-75108802D01*
X65427239Y-75079000D01*
X65732761Y-75079000D01*
X65882585Y-75108802D01*
X65882585Y-75108802D01*
G37*
G36*
X106088674Y-76453465D02*
G01*
X106126367Y-76464899D01*
X106161103Y-76483466D01*
X106191548Y-76508452D01*
X106216534Y-76538897D01*
X106235101Y-76573633D01*
X106246535Y-76611326D01*
X106251000Y-76656661D01*
X106251000Y-77743339D01*
X106246535Y-77788674D01*
X106235101Y-77826367D01*
X106216534Y-77861103D01*
X106191548Y-77891548D01*
X106161103Y-77916534D01*
X106126367Y-77935101D01*
X106088674Y-77946535D01*
X106043339Y-77951000D01*
X105206661Y-77951000D01*
X105161326Y-77946535D01*
X105123633Y-77935101D01*
X105088897Y-77916534D01*
X105058452Y-77891548D01*
X105033466Y-77861103D01*
X105014899Y-77826367D01*
X105003465Y-77788674D01*
X104999000Y-77743339D01*
X104999000Y-76656661D01*
X105003465Y-76611326D01*
X105014899Y-76573633D01*
X105033466Y-76538897D01*
X105058452Y-76508452D01*
X105088897Y-76483466D01*
X105123633Y-76464899D01*
X105161326Y-76453465D01*
X105206661Y-76449000D01*
X106043339Y-76449000D01*
X106088674Y-76453465D01*
X106088674Y-76453465D01*
G37*
G36*
X104038674Y-76453465D02*
G01*
X104076367Y-76464899D01*
X104111103Y-76483466D01*
X104141548Y-76508452D01*
X104166534Y-76538897D01*
X104185101Y-76573633D01*
X104196535Y-76611326D01*
X104201000Y-76656661D01*
X104201000Y-77743339D01*
X104196535Y-77788674D01*
X104185101Y-77826367D01*
X104166534Y-77861103D01*
X104141548Y-77891548D01*
X104111103Y-77916534D01*
X104076367Y-77935101D01*
X104038674Y-77946535D01*
X103993339Y-77951000D01*
X103156661Y-77951000D01*
X103111326Y-77946535D01*
X103073633Y-77935101D01*
X103038897Y-77916534D01*
X103008452Y-77891548D01*
X102983466Y-77861103D01*
X102964899Y-77826367D01*
X102953465Y-77788674D01*
X102949000Y-77743339D01*
X102949000Y-76656661D01*
X102953465Y-76611326D01*
X102964899Y-76573633D01*
X102983466Y-76538897D01*
X103008452Y-76508452D01*
X103038897Y-76483466D01*
X103073633Y-76464899D01*
X103111326Y-76453465D01*
X103156661Y-76449000D01*
X103993339Y-76449000D01*
X104038674Y-76453465D01*
X104038674Y-76453465D01*
G37*
G36*
X89301000Y-77801000D02*
G01*
X87499000Y-77801000D01*
X87499000Y-75999000D01*
X89301000Y-75999000D01*
X89301000Y-77801000D01*
X89301000Y-77801000D01*
G37*
G36*
X81877512Y-75424927D02*
G01*
X82026812Y-75454624D01*
X82190784Y-75522544D01*
X82338354Y-75621147D01*
X82463853Y-75746646D01*
X82562456Y-75894216D01*
X82630376Y-76058188D01*
X82665000Y-76232259D01*
X82665000Y-76409741D01*
X82630376Y-76583812D01*
X82562456Y-76747784D01*
X82463853Y-76895354D01*
X82338354Y-77020853D01*
X82190784Y-77119456D01*
X82026812Y-77187376D01*
X81877512Y-77217073D01*
X81852742Y-77222000D01*
X81675258Y-77222000D01*
X81650488Y-77217073D01*
X81501188Y-77187376D01*
X81337216Y-77119456D01*
X81189646Y-77020853D01*
X81064147Y-76895354D01*
X80965544Y-76747784D01*
X80897624Y-76583812D01*
X80863000Y-76409741D01*
X80863000Y-76232259D01*
X80897624Y-76058188D01*
X80965544Y-75894216D01*
X81064147Y-75746646D01*
X81189646Y-75621147D01*
X81337216Y-75522544D01*
X81501188Y-75454624D01*
X81650488Y-75424927D01*
X81675258Y-75420000D01*
X81852742Y-75420000D01*
X81877512Y-75424927D01*
X81877512Y-75424927D01*
G37*
G36*
X73749512Y-75424927D02*
G01*
X73898812Y-75454624D01*
X74062784Y-75522544D01*
X74210354Y-75621147D01*
X74335853Y-75746646D01*
X74434456Y-75894216D01*
X74502376Y-76058188D01*
X74537000Y-76232259D01*
X74537000Y-76409741D01*
X74502376Y-76583812D01*
X74434456Y-76747784D01*
X74335853Y-76895354D01*
X74210354Y-77020853D01*
X74062784Y-77119456D01*
X73898812Y-77187376D01*
X73749512Y-77217073D01*
X73724742Y-77222000D01*
X73547258Y-77222000D01*
X73522488Y-77217073D01*
X73373188Y-77187376D01*
X73209216Y-77119456D01*
X73061646Y-77020853D01*
X72936147Y-76895354D01*
X72837544Y-76747784D01*
X72769624Y-76583812D01*
X72735000Y-76409741D01*
X72735000Y-76232259D01*
X72769624Y-76058188D01*
X72837544Y-75894216D01*
X72936147Y-75746646D01*
X73061646Y-75621147D01*
X73209216Y-75522544D01*
X73373188Y-75454624D01*
X73522488Y-75424927D01*
X73547258Y-75420000D01*
X73724742Y-75420000D01*
X73749512Y-75424927D01*
X73749512Y-75424927D01*
G37*
G36*
X71209512Y-75424927D02*
G01*
X71358812Y-75454624D01*
X71522784Y-75522544D01*
X71670354Y-75621147D01*
X71795853Y-75746646D01*
X71894456Y-75894216D01*
X71962376Y-76058188D01*
X71997000Y-76232259D01*
X71997000Y-76409741D01*
X71962376Y-76583812D01*
X71894456Y-76747784D01*
X71795853Y-76895354D01*
X71670354Y-77020853D01*
X71522784Y-77119456D01*
X71358812Y-77187376D01*
X71209512Y-77217073D01*
X71184742Y-77222000D01*
X71007258Y-77222000D01*
X70982488Y-77217073D01*
X70833188Y-77187376D01*
X70669216Y-77119456D01*
X70521646Y-77020853D01*
X70396147Y-76895354D01*
X70297544Y-76747784D01*
X70229624Y-76583812D01*
X70195000Y-76409741D01*
X70195000Y-76232259D01*
X70229624Y-76058188D01*
X70297544Y-75894216D01*
X70396147Y-75746646D01*
X70521646Y-75621147D01*
X70669216Y-75522544D01*
X70833188Y-75454624D01*
X70982488Y-75424927D01*
X71007258Y-75420000D01*
X71184742Y-75420000D01*
X71209512Y-75424927D01*
X71209512Y-75424927D01*
G37*
G36*
X84417512Y-75424927D02*
G01*
X84566812Y-75454624D01*
X84730784Y-75522544D01*
X84878354Y-75621147D01*
X85003853Y-75746646D01*
X85102456Y-75894216D01*
X85170376Y-76058188D01*
X85205000Y-76232259D01*
X85205000Y-76409741D01*
X85170376Y-76583812D01*
X85102456Y-76747784D01*
X85003853Y-76895354D01*
X84878354Y-77020853D01*
X84730784Y-77119456D01*
X84566812Y-77187376D01*
X84417512Y-77217073D01*
X84392742Y-77222000D01*
X84215258Y-77222000D01*
X84190488Y-77217073D01*
X84041188Y-77187376D01*
X83877216Y-77119456D01*
X83729646Y-77020853D01*
X83604147Y-76895354D01*
X83505544Y-76747784D01*
X83437624Y-76583812D01*
X83403000Y-76409741D01*
X83403000Y-76232259D01*
X83437624Y-76058188D01*
X83505544Y-75894216D01*
X83604147Y-75746646D01*
X83729646Y-75621147D01*
X83877216Y-75522544D01*
X84041188Y-75454624D01*
X84190488Y-75424927D01*
X84215258Y-75420000D01*
X84392742Y-75420000D01*
X84417512Y-75424927D01*
X84417512Y-75424927D01*
G37*
G36*
X101525294Y-74282633D02*
G01*
X101697695Y-74334931D01*
X101856583Y-74419858D01*
X101995849Y-74534151D01*
X102110142Y-74673417D01*
X102195069Y-74832305D01*
X102247367Y-75004706D01*
X102265025Y-75184000D01*
X102247367Y-75363294D01*
X102195069Y-75535695D01*
X102110142Y-75694583D01*
X101995849Y-75833849D01*
X101856583Y-75948142D01*
X101697695Y-76033069D01*
X101525294Y-76085367D01*
X101390931Y-76098600D01*
X101301069Y-76098600D01*
X101166706Y-76085367D01*
X100994305Y-76033069D01*
X100835417Y-75948142D01*
X100696151Y-75833849D01*
X100581858Y-75694583D01*
X100496931Y-75535695D01*
X100444633Y-75363294D01*
X100426975Y-75184000D01*
X100444633Y-75004706D01*
X100496931Y-74832305D01*
X100581858Y-74673417D01*
X100696151Y-74534151D01*
X100835417Y-74419858D01*
X100994305Y-74334931D01*
X101166706Y-74282633D01*
X101301069Y-74269400D01*
X101390931Y-74269400D01*
X101525294Y-74282633D01*
X101525294Y-74282633D01*
G37*
G36*
X98985294Y-74282633D02*
G01*
X99157695Y-74334931D01*
X99316583Y-74419858D01*
X99455849Y-74534151D01*
X99570142Y-74673417D01*
X99655069Y-74832305D01*
X99707367Y-75004706D01*
X99725025Y-75184000D01*
X99707367Y-75363294D01*
X99655069Y-75535695D01*
X99570142Y-75694583D01*
X99455849Y-75833849D01*
X99316583Y-75948142D01*
X99157695Y-76033069D01*
X98985294Y-76085367D01*
X98850931Y-76098600D01*
X98761069Y-76098600D01*
X98626706Y-76085367D01*
X98454305Y-76033069D01*
X98295417Y-75948142D01*
X98156151Y-75833849D01*
X98041858Y-75694583D01*
X97956931Y-75535695D01*
X97904633Y-75363294D01*
X97886975Y-75184000D01*
X97904633Y-75004706D01*
X97956931Y-74832305D01*
X98041858Y-74673417D01*
X98156151Y-74534151D01*
X98295417Y-74419858D01*
X98454305Y-74334931D01*
X98626706Y-74282633D01*
X98761069Y-74269400D01*
X98850931Y-74269400D01*
X98985294Y-74282633D01*
X98985294Y-74282633D01*
G37*
G36*
X97180600Y-76098600D02*
G01*
X95351400Y-76098600D01*
X95351400Y-74269400D01*
X97180600Y-74269400D01*
X97180600Y-76098600D01*
X97180600Y-76098600D01*
G37*
G36*
X105991000Y-75601000D02*
G01*
X105089000Y-75601000D01*
X105089000Y-74599000D01*
X105991000Y-74599000D01*
X105991000Y-75601000D01*
X105991000Y-75601000D01*
G37*
G36*
X104091000Y-75601000D02*
G01*
X103189000Y-75601000D01*
X103189000Y-74599000D01*
X104091000Y-74599000D01*
X104091000Y-75601000D01*
X104091000Y-75601000D01*
G37*
G36*
X88510443Y-73465519D02*
G01*
X88576627Y-73472037D01*
X88746466Y-73523557D01*
X88746468Y-73523558D01*
X88787269Y-73545367D01*
X88902991Y-73607222D01*
X88938729Y-73636552D01*
X89040186Y-73719814D01*
X89123448Y-73821271D01*
X89152778Y-73857009D01*
X89236443Y-74013534D01*
X89287963Y-74183373D01*
X89305359Y-74360000D01*
X89287963Y-74536627D01*
X89236443Y-74706466D01*
X89152778Y-74862991D01*
X89123448Y-74898729D01*
X89040186Y-75000186D01*
X88944149Y-75079000D01*
X88902991Y-75112778D01*
X88746466Y-75196443D01*
X88576627Y-75247963D01*
X88510443Y-75254481D01*
X88444260Y-75261000D01*
X88355740Y-75261000D01*
X88289557Y-75254481D01*
X88223373Y-75247963D01*
X88053534Y-75196443D01*
X87897009Y-75112778D01*
X87855851Y-75079000D01*
X87759814Y-75000186D01*
X87676552Y-74898729D01*
X87647222Y-74862991D01*
X87563557Y-74706466D01*
X87512037Y-74536627D01*
X87494641Y-74360000D01*
X87512037Y-74183373D01*
X87563557Y-74013534D01*
X87647222Y-73857009D01*
X87676552Y-73821271D01*
X87759814Y-73719814D01*
X87861271Y-73636552D01*
X87897009Y-73607222D01*
X88012731Y-73545367D01*
X88053532Y-73523558D01*
X88053534Y-73523557D01*
X88223373Y-73472037D01*
X88289557Y-73465519D01*
X88355740Y-73459000D01*
X88444260Y-73459000D01*
X88510443Y-73465519D01*
X88510443Y-73465519D01*
G37*
G36*
X66190562Y-71888181D02*
G01*
X66225481Y-71898774D01*
X66257663Y-71915976D01*
X66285873Y-71939127D01*
X66309024Y-71967337D01*
X66326226Y-71999519D01*
X66336819Y-72034438D01*
X66341000Y-72076895D01*
X66341000Y-74443105D01*
X66336819Y-74485562D01*
X66326226Y-74520481D01*
X66309024Y-74552663D01*
X66285873Y-74580873D01*
X66257663Y-74604024D01*
X66225481Y-74621226D01*
X66190562Y-74631819D01*
X66148105Y-74636000D01*
X65006895Y-74636000D01*
X64964438Y-74631819D01*
X64929519Y-74621226D01*
X64897337Y-74604024D01*
X64869127Y-74580873D01*
X64845976Y-74552663D01*
X64828774Y-74520481D01*
X64818181Y-74485562D01*
X64814000Y-74443105D01*
X64814000Y-72076895D01*
X64818181Y-72034438D01*
X64828774Y-71999519D01*
X64845976Y-71967337D01*
X64869127Y-71939127D01*
X64897337Y-71915976D01*
X64929519Y-71898774D01*
X64964438Y-71888181D01*
X65006895Y-71884000D01*
X66148105Y-71884000D01*
X66190562Y-71888181D01*
X66190562Y-71888181D01*
G37*
G36*
X63215562Y-71888181D02*
G01*
X63250481Y-71898774D01*
X63282663Y-71915976D01*
X63310873Y-71939127D01*
X63334024Y-71967337D01*
X63351226Y-71999519D01*
X63361819Y-72034438D01*
X63366000Y-72076895D01*
X63366000Y-74443105D01*
X63361819Y-74485562D01*
X63351226Y-74520481D01*
X63334024Y-74552663D01*
X63310873Y-74580873D01*
X63282663Y-74604024D01*
X63250481Y-74621226D01*
X63215562Y-74631819D01*
X63173105Y-74636000D01*
X62031895Y-74636000D01*
X61989438Y-74631819D01*
X61954519Y-74621226D01*
X61922337Y-74604024D01*
X61894127Y-74580873D01*
X61870976Y-74552663D01*
X61853774Y-74520481D01*
X61843181Y-74485562D01*
X61839000Y-74443105D01*
X61839000Y-72076895D01*
X61843181Y-72034438D01*
X61853774Y-71999519D01*
X61870976Y-71967337D01*
X61894127Y-71939127D01*
X61922337Y-71915976D01*
X61954519Y-71898774D01*
X61989438Y-71888181D01*
X62031895Y-71884000D01*
X63173105Y-71884000D01*
X63215562Y-71888181D01*
X63215562Y-71888181D01*
G37*
G36*
X105041000Y-73601000D02*
G01*
X104139000Y-73601000D01*
X104139000Y-72599000D01*
X105041000Y-72599000D01*
X105041000Y-73601000D01*
X105041000Y-73601000D01*
G37*
G36*
X101525294Y-71742633D02*
G01*
X101697695Y-71794931D01*
X101856583Y-71879858D01*
X101995849Y-71994151D01*
X102110142Y-72133417D01*
X102195069Y-72292305D01*
X102247367Y-72464706D01*
X102265025Y-72644000D01*
X102247367Y-72823294D01*
X102195069Y-72995695D01*
X102110142Y-73154583D01*
X101995849Y-73293849D01*
X101856583Y-73408142D01*
X101697695Y-73493069D01*
X101525294Y-73545367D01*
X101390931Y-73558600D01*
X101301069Y-73558600D01*
X101166706Y-73545367D01*
X100994305Y-73493069D01*
X100835417Y-73408142D01*
X100696151Y-73293849D01*
X100581858Y-73154583D01*
X100496931Y-72995695D01*
X100444633Y-72823294D01*
X100426975Y-72644000D01*
X100444633Y-72464706D01*
X100496931Y-72292305D01*
X100581858Y-72133417D01*
X100696151Y-71994151D01*
X100835417Y-71879858D01*
X100994305Y-71794931D01*
X101166706Y-71742633D01*
X101301069Y-71729400D01*
X101390931Y-71729400D01*
X101525294Y-71742633D01*
X101525294Y-71742633D01*
G37*
G36*
X98985294Y-71742633D02*
G01*
X99157695Y-71794931D01*
X99316583Y-71879858D01*
X99455849Y-71994151D01*
X99570142Y-72133417D01*
X99655069Y-72292305D01*
X99707367Y-72464706D01*
X99725025Y-72644000D01*
X99707367Y-72823294D01*
X99655069Y-72995695D01*
X99570142Y-73154583D01*
X99455849Y-73293849D01*
X99316583Y-73408142D01*
X99157695Y-73493069D01*
X98985294Y-73545367D01*
X98850931Y-73558600D01*
X98761069Y-73558600D01*
X98626706Y-73545367D01*
X98454305Y-73493069D01*
X98295417Y-73408142D01*
X98156151Y-73293849D01*
X98041858Y-73154583D01*
X97956931Y-72995695D01*
X97904633Y-72823294D01*
X97886975Y-72644000D01*
X97904633Y-72464706D01*
X97956931Y-72292305D01*
X98041858Y-72133417D01*
X98156151Y-71994151D01*
X98295417Y-71879858D01*
X98454305Y-71794931D01*
X98626706Y-71742633D01*
X98761069Y-71729400D01*
X98850931Y-71729400D01*
X98985294Y-71742633D01*
X98985294Y-71742633D01*
G37*
G36*
X96445294Y-71742633D02*
G01*
X96617695Y-71794931D01*
X96776583Y-71879858D01*
X96915849Y-71994151D01*
X97030142Y-72133417D01*
X97115069Y-72292305D01*
X97167367Y-72464706D01*
X97185025Y-72644000D01*
X97167367Y-72823294D01*
X97115069Y-72995695D01*
X97030142Y-73154583D01*
X96915849Y-73293849D01*
X96776583Y-73408142D01*
X96617695Y-73493069D01*
X96445294Y-73545367D01*
X96310931Y-73558600D01*
X96221069Y-73558600D01*
X96086706Y-73545367D01*
X95914305Y-73493069D01*
X95755417Y-73408142D01*
X95616151Y-73293849D01*
X95501858Y-73154583D01*
X95416931Y-72995695D01*
X95364633Y-72823294D01*
X95346975Y-72644000D01*
X95364633Y-72464706D01*
X95416931Y-72292305D01*
X95501858Y-72133417D01*
X95616151Y-71994151D01*
X95755417Y-71879858D01*
X95914305Y-71794931D01*
X96086706Y-71742633D01*
X96221069Y-71729400D01*
X96310931Y-71729400D01*
X96445294Y-71742633D01*
X96445294Y-71742633D01*
G37*
G36*
X65760443Y-69705519D02*
G01*
X65826627Y-69712037D01*
X65996466Y-69763557D01*
X66152991Y-69847222D01*
X66177101Y-69867009D01*
X66290186Y-69959814D01*
X66373448Y-70061271D01*
X66402778Y-70097009D01*
X66486443Y-70253534D01*
X66537963Y-70423373D01*
X66555359Y-70600000D01*
X66537963Y-70776627D01*
X66486443Y-70946466D01*
X66402778Y-71102991D01*
X66387998Y-71121000D01*
X66290186Y-71240186D01*
X66188729Y-71323448D01*
X66152991Y-71352778D01*
X65996466Y-71436443D01*
X65826627Y-71487963D01*
X65760442Y-71494482D01*
X65694260Y-71501000D01*
X65605740Y-71501000D01*
X65539558Y-71494482D01*
X65473373Y-71487963D01*
X65303534Y-71436443D01*
X65147009Y-71352778D01*
X65111271Y-71323448D01*
X65009814Y-71240186D01*
X64912002Y-71121000D01*
X64897222Y-71102991D01*
X64813557Y-70946466D01*
X64762037Y-70776627D01*
X64744641Y-70600000D01*
X64762037Y-70423373D01*
X64813557Y-70253534D01*
X64897222Y-70097009D01*
X64926552Y-70061271D01*
X65009814Y-69959814D01*
X65122899Y-69867009D01*
X65147009Y-69847222D01*
X65303534Y-69763557D01*
X65473373Y-69712037D01*
X65539557Y-69705519D01*
X65605740Y-69699000D01*
X65694260Y-69699000D01*
X65760443Y-69705519D01*
X65760443Y-69705519D01*
G37*
G36*
X109570442Y-69475518D02*
G01*
X109636627Y-69482037D01*
X109806466Y-69533557D01*
X109962991Y-69617222D01*
X109971530Y-69624230D01*
X110100186Y-69729814D01*
X110179665Y-69826661D01*
X110212778Y-69867009D01*
X110296443Y-70023534D01*
X110347963Y-70193373D01*
X110365359Y-70370000D01*
X110347963Y-70546627D01*
X110296443Y-70716466D01*
X110212778Y-70872991D01*
X110189032Y-70901925D01*
X110100186Y-71010186D01*
X110021049Y-71075131D01*
X109962991Y-71122778D01*
X109806466Y-71206443D01*
X109636627Y-71257963D01*
X109570443Y-71264481D01*
X109504260Y-71271000D01*
X109415740Y-71271000D01*
X109349557Y-71264481D01*
X109283373Y-71257963D01*
X109113534Y-71206443D01*
X108957009Y-71122778D01*
X108898951Y-71075131D01*
X108819814Y-71010186D01*
X108730968Y-70901925D01*
X108707222Y-70872991D01*
X108623557Y-70716466D01*
X108572037Y-70546627D01*
X108554641Y-70370000D01*
X108572037Y-70193373D01*
X108623557Y-70023534D01*
X108707222Y-69867009D01*
X108740335Y-69826661D01*
X108819814Y-69729814D01*
X108948470Y-69624230D01*
X108957009Y-69617222D01*
X109113534Y-69533557D01*
X109283373Y-69482037D01*
X109349558Y-69475518D01*
X109415740Y-69469000D01*
X109504260Y-69469000D01*
X109570442Y-69475518D01*
X109570442Y-69475518D01*
G37*
G36*
X105048674Y-69623465D02*
G01*
X105086367Y-69634899D01*
X105121103Y-69653466D01*
X105151548Y-69678452D01*
X105176534Y-69708897D01*
X105195101Y-69743633D01*
X105206535Y-69781326D01*
X105211000Y-69826661D01*
X105211000Y-70913339D01*
X105206535Y-70958674D01*
X105195101Y-70996367D01*
X105176534Y-71031103D01*
X105151548Y-71061548D01*
X105121103Y-71086534D01*
X105086367Y-71105101D01*
X105048674Y-71116535D01*
X105003339Y-71121000D01*
X104166661Y-71121000D01*
X104121326Y-71116535D01*
X104083633Y-71105101D01*
X104048897Y-71086534D01*
X104018452Y-71061548D01*
X103993466Y-71031103D01*
X103974899Y-70996367D01*
X103963465Y-70958674D01*
X103959000Y-70913339D01*
X103959000Y-69826661D01*
X103963465Y-69781326D01*
X103974899Y-69743633D01*
X103993466Y-69708897D01*
X104018452Y-69678452D01*
X104048897Y-69653466D01*
X104083633Y-69634899D01*
X104121326Y-69623465D01*
X104166661Y-69619000D01*
X105003339Y-69619000D01*
X105048674Y-69623465D01*
X105048674Y-69623465D01*
G37*
G36*
X107098674Y-69623465D02*
G01*
X107136367Y-69634899D01*
X107171103Y-69653466D01*
X107201548Y-69678452D01*
X107226534Y-69708897D01*
X107245101Y-69743633D01*
X107256535Y-69781326D01*
X107261000Y-69826661D01*
X107261000Y-70913339D01*
X107256535Y-70958674D01*
X107245101Y-70996367D01*
X107226534Y-71031103D01*
X107201548Y-71061548D01*
X107171103Y-71086534D01*
X107136367Y-71105101D01*
X107098674Y-71116535D01*
X107053339Y-71121000D01*
X106216661Y-71121000D01*
X106171326Y-71116535D01*
X106133633Y-71105101D01*
X106098897Y-71086534D01*
X106068452Y-71061548D01*
X106043466Y-71031103D01*
X106024899Y-70996367D01*
X106013465Y-70958674D01*
X106009000Y-70913339D01*
X106009000Y-69826661D01*
X106013465Y-69781326D01*
X106024899Y-69743633D01*
X106043466Y-69708897D01*
X106068452Y-69678452D01*
X106098897Y-69653466D01*
X106133633Y-69634899D01*
X106171326Y-69623465D01*
X106216661Y-69619000D01*
X107053339Y-69619000D01*
X107098674Y-69623465D01*
X107098674Y-69623465D01*
G37*
G36*
X65760442Y-67165518D02*
G01*
X65826627Y-67172037D01*
X65996466Y-67223557D01*
X66152991Y-67307222D01*
X66176319Y-67326367D01*
X66290186Y-67419814D01*
X66346697Y-67488674D01*
X66402778Y-67557009D01*
X66486443Y-67713534D01*
X66537963Y-67883373D01*
X66555359Y-68060000D01*
X66537963Y-68236627D01*
X66486443Y-68406466D01*
X66402778Y-68562991D01*
X66386539Y-68582778D01*
X66290186Y-68700186D01*
X66188729Y-68783448D01*
X66152991Y-68812778D01*
X65996466Y-68896443D01*
X65826627Y-68947963D01*
X65760443Y-68954481D01*
X65694260Y-68961000D01*
X65605740Y-68961000D01*
X65539557Y-68954481D01*
X65473373Y-68947963D01*
X65303534Y-68896443D01*
X65147009Y-68812778D01*
X65111271Y-68783448D01*
X65009814Y-68700186D01*
X64913461Y-68582778D01*
X64897222Y-68562991D01*
X64813557Y-68406466D01*
X64762037Y-68236627D01*
X64744641Y-68060000D01*
X64762037Y-67883373D01*
X64813557Y-67713534D01*
X64897222Y-67557009D01*
X64953303Y-67488674D01*
X65009814Y-67419814D01*
X65123681Y-67326367D01*
X65147009Y-67307222D01*
X65303534Y-67223557D01*
X65473373Y-67172037D01*
X65539558Y-67165518D01*
X65605740Y-67159000D01*
X65694260Y-67159000D01*
X65760442Y-67165518D01*
X65760442Y-67165518D01*
G37*
G36*
X109570443Y-66935519D02*
G01*
X109636627Y-66942037D01*
X109806466Y-66993557D01*
X109962991Y-67077222D01*
X109998729Y-67106552D01*
X110100186Y-67189814D01*
X110176647Y-67282983D01*
X110212778Y-67327009D01*
X110247275Y-67391548D01*
X110296149Y-67482983D01*
X110296443Y-67483534D01*
X110347963Y-67653373D01*
X110365359Y-67830000D01*
X110347963Y-68006627D01*
X110296443Y-68176466D01*
X110212778Y-68332991D01*
X110183448Y-68368729D01*
X110100186Y-68470186D01*
X109998729Y-68553448D01*
X109962991Y-68582778D01*
X109806466Y-68666443D01*
X109636627Y-68717963D01*
X109570442Y-68724482D01*
X109504260Y-68731000D01*
X109415740Y-68731000D01*
X109349558Y-68724482D01*
X109283373Y-68717963D01*
X109113534Y-68666443D01*
X108957009Y-68582778D01*
X108921271Y-68553448D01*
X108819814Y-68470186D01*
X108736552Y-68368729D01*
X108707222Y-68332991D01*
X108623557Y-68176466D01*
X108572037Y-68006627D01*
X108554641Y-67830000D01*
X108572037Y-67653373D01*
X108623557Y-67483534D01*
X108623852Y-67482983D01*
X108672725Y-67391548D01*
X108707222Y-67327009D01*
X108743353Y-67282983D01*
X108819814Y-67189814D01*
X108921271Y-67106552D01*
X108957009Y-67077222D01*
X109113534Y-66993557D01*
X109283373Y-66942037D01*
X109349557Y-66935519D01*
X109415740Y-66929000D01*
X109504260Y-66929000D01*
X109570443Y-66935519D01*
X109570443Y-66935519D01*
G37*
G36*
X99138000Y-68093000D02*
G01*
X92886000Y-68093000D01*
X92886000Y-66391000D01*
X99138000Y-66391000D01*
X99138000Y-68093000D01*
X99138000Y-68093000D01*
G37*
G36*
X74134674Y-66412465D02*
G01*
X74172367Y-66423899D01*
X74207103Y-66442466D01*
X74237548Y-66467452D01*
X74262534Y-66497897D01*
X74281101Y-66532633D01*
X74292535Y-66570326D01*
X74297000Y-66615661D01*
X74297000Y-67702339D01*
X74292535Y-67747674D01*
X74281101Y-67785367D01*
X74262534Y-67820103D01*
X74237548Y-67850548D01*
X74207103Y-67875534D01*
X74172367Y-67894101D01*
X74134674Y-67905535D01*
X74089339Y-67910000D01*
X73252661Y-67910000D01*
X73207326Y-67905535D01*
X73169633Y-67894101D01*
X73134897Y-67875534D01*
X73104452Y-67850548D01*
X73079466Y-67820103D01*
X73060899Y-67785367D01*
X73049465Y-67747674D01*
X73045000Y-67702339D01*
X73045000Y-66615661D01*
X73049465Y-66570326D01*
X73060899Y-66532633D01*
X73079466Y-66497897D01*
X73104452Y-66467452D01*
X73134897Y-66442466D01*
X73169633Y-66423899D01*
X73207326Y-66412465D01*
X73252661Y-66408000D01*
X74089339Y-66408000D01*
X74134674Y-66412465D01*
X74134674Y-66412465D01*
G37*
G36*
X72084674Y-66412465D02*
G01*
X72122367Y-66423899D01*
X72157103Y-66442466D01*
X72187548Y-66467452D01*
X72212534Y-66497897D01*
X72231101Y-66532633D01*
X72242535Y-66570326D01*
X72247000Y-66615661D01*
X72247000Y-67702339D01*
X72242535Y-67747674D01*
X72231101Y-67785367D01*
X72212534Y-67820103D01*
X72187548Y-67850548D01*
X72157103Y-67875534D01*
X72122367Y-67894101D01*
X72084674Y-67905535D01*
X72039339Y-67910000D01*
X71202661Y-67910000D01*
X71157326Y-67905535D01*
X71119633Y-67894101D01*
X71084897Y-67875534D01*
X71054452Y-67850548D01*
X71029466Y-67820103D01*
X71010899Y-67785367D01*
X70999465Y-67747674D01*
X70995000Y-67702339D01*
X70995000Y-66615661D01*
X70999465Y-66570326D01*
X71010899Y-66532633D01*
X71029466Y-66497897D01*
X71054452Y-66467452D01*
X71084897Y-66442466D01*
X71119633Y-66423899D01*
X71157326Y-66412465D01*
X71202661Y-66408000D01*
X72039339Y-66408000D01*
X72084674Y-66412465D01*
X72084674Y-66412465D01*
G37*
G36*
X81388674Y-66153465D02*
G01*
X81426367Y-66164899D01*
X81461103Y-66183466D01*
X81491548Y-66208452D01*
X81516534Y-66238897D01*
X81535101Y-66273633D01*
X81546535Y-66311326D01*
X81551000Y-66356661D01*
X81551000Y-67443339D01*
X81546535Y-67488674D01*
X81535101Y-67526367D01*
X81516534Y-67561103D01*
X81491548Y-67591548D01*
X81461103Y-67616534D01*
X81426367Y-67635101D01*
X81388674Y-67646535D01*
X81343339Y-67651000D01*
X80506661Y-67651000D01*
X80461326Y-67646535D01*
X80423633Y-67635101D01*
X80388897Y-67616534D01*
X80358452Y-67591548D01*
X80333466Y-67561103D01*
X80314899Y-67526367D01*
X80303465Y-67488674D01*
X80299000Y-67443339D01*
X80299000Y-66356661D01*
X80303465Y-66311326D01*
X80314899Y-66273633D01*
X80333466Y-66238897D01*
X80358452Y-66208452D01*
X80388897Y-66183466D01*
X80423633Y-66164899D01*
X80461326Y-66153465D01*
X80506661Y-66149000D01*
X81343339Y-66149000D01*
X81388674Y-66153465D01*
X81388674Y-66153465D01*
G37*
G36*
X79338674Y-66153465D02*
G01*
X79376367Y-66164899D01*
X79411103Y-66183466D01*
X79441548Y-66208452D01*
X79466534Y-66238897D01*
X79485101Y-66273633D01*
X79496535Y-66311326D01*
X79501000Y-66356661D01*
X79501000Y-67443339D01*
X79496535Y-67488674D01*
X79485101Y-67526367D01*
X79466534Y-67561103D01*
X79441548Y-67591548D01*
X79411103Y-67616534D01*
X79376367Y-67635101D01*
X79338674Y-67646535D01*
X79293339Y-67651000D01*
X78456661Y-67651000D01*
X78411326Y-67646535D01*
X78373633Y-67635101D01*
X78338897Y-67616534D01*
X78308452Y-67591548D01*
X78283466Y-67561103D01*
X78264899Y-67526367D01*
X78253465Y-67488674D01*
X78249000Y-67443339D01*
X78249000Y-66356661D01*
X78253465Y-66311326D01*
X78264899Y-66273633D01*
X78283466Y-66238897D01*
X78308452Y-66208452D01*
X78338897Y-66183466D01*
X78373633Y-66164899D01*
X78411326Y-66153465D01*
X78456661Y-66149000D01*
X79293339Y-66149000D01*
X79338674Y-66153465D01*
X79338674Y-66153465D01*
G37*
G36*
X76988674Y-66203465D02*
G01*
X77026367Y-66214899D01*
X77061103Y-66233466D01*
X77091548Y-66258452D01*
X77116534Y-66288897D01*
X77135101Y-66323633D01*
X77146535Y-66361326D01*
X77151000Y-66406661D01*
X77151000Y-67243339D01*
X77146535Y-67288674D01*
X77135101Y-67326367D01*
X77116534Y-67361103D01*
X77091548Y-67391548D01*
X77061103Y-67416534D01*
X77026367Y-67435101D01*
X76988674Y-67446535D01*
X76943339Y-67451000D01*
X75856661Y-67451000D01*
X75811326Y-67446535D01*
X75773633Y-67435101D01*
X75738897Y-67416534D01*
X75708452Y-67391548D01*
X75683466Y-67361103D01*
X75664899Y-67326367D01*
X75653465Y-67288674D01*
X75649000Y-67243339D01*
X75649000Y-66406661D01*
X75653465Y-66361326D01*
X75664899Y-66323633D01*
X75683466Y-66288897D01*
X75708452Y-66258452D01*
X75738897Y-66233466D01*
X75773633Y-66214899D01*
X75811326Y-66203465D01*
X75856661Y-66199000D01*
X76943339Y-66199000D01*
X76988674Y-66203465D01*
X76988674Y-66203465D01*
G37*
G36*
X61135562Y-65398181D02*
G01*
X61170481Y-65408774D01*
X61202663Y-65425976D01*
X61230873Y-65449127D01*
X61254024Y-65477337D01*
X61271226Y-65509519D01*
X61281819Y-65544438D01*
X61286000Y-65586895D01*
X61286000Y-66728105D01*
X61281819Y-66770562D01*
X61271226Y-66805481D01*
X61254024Y-66837663D01*
X61230873Y-66865873D01*
X61202663Y-66889024D01*
X61170481Y-66906226D01*
X61135562Y-66916819D01*
X61093105Y-66921000D01*
X58726895Y-66921000D01*
X58684438Y-66916819D01*
X58649519Y-66906226D01*
X58617337Y-66889024D01*
X58589127Y-66865873D01*
X58565976Y-66837663D01*
X58548774Y-66805481D01*
X58538181Y-66770562D01*
X58534000Y-66728105D01*
X58534000Y-65586895D01*
X58538181Y-65544438D01*
X58548774Y-65509519D01*
X58565976Y-65477337D01*
X58589127Y-65449127D01*
X58617337Y-65425976D01*
X58649519Y-65408774D01*
X58684438Y-65398181D01*
X58726895Y-65394000D01*
X61093105Y-65394000D01*
X61135562Y-65398181D01*
X61135562Y-65398181D01*
G37*
G36*
X87651000Y-66731000D02*
G01*
X85849000Y-66731000D01*
X85849000Y-65129000D01*
X87651000Y-65129000D01*
X87651000Y-66731000D01*
X87651000Y-66731000D01*
G37*
G36*
X65760442Y-64625518D02*
G01*
X65826627Y-64632037D01*
X65996466Y-64683557D01*
X66152991Y-64767222D01*
X66177101Y-64787009D01*
X66290186Y-64879814D01*
X66365161Y-64971173D01*
X66402778Y-65017009D01*
X66486443Y-65173534D01*
X66537963Y-65343373D01*
X66555359Y-65520000D01*
X66537963Y-65696627D01*
X66486443Y-65866466D01*
X66402778Y-66022991D01*
X66386539Y-66042778D01*
X66290186Y-66160186D01*
X66194275Y-66238897D01*
X66152991Y-66272778D01*
X65996466Y-66356443D01*
X65826627Y-66407963D01*
X65773149Y-66413230D01*
X65694260Y-66421000D01*
X65605740Y-66421000D01*
X65526851Y-66413230D01*
X65473373Y-66407963D01*
X65303534Y-66356443D01*
X65147009Y-66272778D01*
X65105725Y-66238897D01*
X65009814Y-66160186D01*
X64913461Y-66042778D01*
X64897222Y-66022991D01*
X64813557Y-65866466D01*
X64762037Y-65696627D01*
X64744641Y-65520000D01*
X64762037Y-65343373D01*
X64813557Y-65173534D01*
X64897222Y-65017009D01*
X64934839Y-64971173D01*
X65009814Y-64879814D01*
X65122899Y-64787009D01*
X65147009Y-64767222D01*
X65303534Y-64683557D01*
X65473373Y-64632037D01*
X65539558Y-64625518D01*
X65605740Y-64619000D01*
X65694260Y-64619000D01*
X65760442Y-64625518D01*
X65760442Y-64625518D01*
G37*
G36*
X109570442Y-64395518D02*
G01*
X109636627Y-64402037D01*
X109806466Y-64453557D01*
X109962991Y-64537222D01*
X109982342Y-64553103D01*
X110100186Y-64649814D01*
X110168836Y-64733466D01*
X110212778Y-64787009D01*
X110296443Y-64943534D01*
X110347963Y-65113373D01*
X110365359Y-65290000D01*
X110347963Y-65466627D01*
X110296443Y-65636466D01*
X110212778Y-65792991D01*
X110185387Y-65826367D01*
X110100186Y-65930186D01*
X109998729Y-66013448D01*
X109962991Y-66042778D01*
X109806466Y-66126443D01*
X109636627Y-66177963D01*
X109580753Y-66183466D01*
X109504260Y-66191000D01*
X109415740Y-66191000D01*
X109339247Y-66183466D01*
X109283373Y-66177963D01*
X109113534Y-66126443D01*
X108957009Y-66042778D01*
X108921271Y-66013448D01*
X108819814Y-65930186D01*
X108734613Y-65826367D01*
X108707222Y-65792991D01*
X108623557Y-65636466D01*
X108572037Y-65466627D01*
X108554641Y-65290000D01*
X108572037Y-65113373D01*
X108623557Y-64943534D01*
X108707222Y-64787009D01*
X108751164Y-64733466D01*
X108819814Y-64649814D01*
X108937658Y-64553103D01*
X108957009Y-64537222D01*
X109113534Y-64453557D01*
X109283373Y-64402037D01*
X109349558Y-64395518D01*
X109415740Y-64389000D01*
X109504260Y-64389000D01*
X109570442Y-64395518D01*
X109570442Y-64395518D01*
G37*
G36*
X92613000Y-66118000D02*
G01*
X90911000Y-66118000D01*
X90911000Y-59866000D01*
X92613000Y-59866000D01*
X92613000Y-66118000D01*
X92613000Y-66118000D01*
G37*
G36*
X101113000Y-66118000D02*
G01*
X99411000Y-66118000D01*
X99411000Y-59866000D01*
X101113000Y-59866000D01*
X101113000Y-66118000D01*
X101113000Y-66118000D01*
G37*
G36*
X84788674Y-64703465D02*
G01*
X84826367Y-64714899D01*
X84861103Y-64733466D01*
X84891548Y-64758452D01*
X84916534Y-64788897D01*
X84935101Y-64823633D01*
X84946535Y-64861326D01*
X84951000Y-64906661D01*
X84951000Y-65743339D01*
X84946535Y-65788674D01*
X84935101Y-65826367D01*
X84916534Y-65861103D01*
X84891548Y-65891548D01*
X84861103Y-65916534D01*
X84826367Y-65935101D01*
X84788674Y-65946535D01*
X84743339Y-65951000D01*
X83656661Y-65951000D01*
X83611326Y-65946535D01*
X83573633Y-65935101D01*
X83538897Y-65916534D01*
X83508452Y-65891548D01*
X83483466Y-65861103D01*
X83464899Y-65826367D01*
X83453465Y-65788674D01*
X83449000Y-65743339D01*
X83449000Y-64906661D01*
X83453465Y-64861326D01*
X83464899Y-64823633D01*
X83483466Y-64788897D01*
X83508452Y-64758452D01*
X83538897Y-64733466D01*
X83573633Y-64714899D01*
X83611326Y-64703465D01*
X83656661Y-64699000D01*
X84743339Y-64699000D01*
X84788674Y-64703465D01*
X84788674Y-64703465D01*
G37*
G36*
X89888674Y-64703465D02*
G01*
X89926367Y-64714899D01*
X89961103Y-64733466D01*
X89991548Y-64758452D01*
X90016534Y-64788897D01*
X90035101Y-64823633D01*
X90046535Y-64861326D01*
X90051000Y-64906661D01*
X90051000Y-65743339D01*
X90046535Y-65788674D01*
X90035101Y-65826367D01*
X90016534Y-65861103D01*
X89991548Y-65891548D01*
X89961103Y-65916534D01*
X89926367Y-65935101D01*
X89888674Y-65946535D01*
X89843339Y-65951000D01*
X88756661Y-65951000D01*
X88711326Y-65946535D01*
X88673633Y-65935101D01*
X88638897Y-65916534D01*
X88608452Y-65891548D01*
X88583466Y-65861103D01*
X88564899Y-65826367D01*
X88553465Y-65788674D01*
X88549000Y-65743339D01*
X88549000Y-64906661D01*
X88553465Y-64861326D01*
X88564899Y-64823633D01*
X88583466Y-64788897D01*
X88608452Y-64758452D01*
X88638897Y-64733466D01*
X88673633Y-64714899D01*
X88711326Y-64703465D01*
X88756661Y-64699000D01*
X89843339Y-64699000D01*
X89888674Y-64703465D01*
X89888674Y-64703465D01*
G37*
G36*
X79338674Y-64053465D02*
G01*
X79376367Y-64064899D01*
X79411103Y-64083466D01*
X79441548Y-64108452D01*
X79466534Y-64138897D01*
X79485101Y-64173633D01*
X79496535Y-64211326D01*
X79501000Y-64256661D01*
X79501000Y-65343339D01*
X79496535Y-65388674D01*
X79485101Y-65426367D01*
X79466534Y-65461103D01*
X79441548Y-65491548D01*
X79411103Y-65516534D01*
X79376367Y-65535101D01*
X79338674Y-65546535D01*
X79293339Y-65551000D01*
X78456661Y-65551000D01*
X78411326Y-65546535D01*
X78373633Y-65535101D01*
X78338897Y-65516534D01*
X78308452Y-65491548D01*
X78283466Y-65461103D01*
X78264899Y-65426367D01*
X78253465Y-65388674D01*
X78249000Y-65343339D01*
X78249000Y-64256661D01*
X78253465Y-64211326D01*
X78264899Y-64173633D01*
X78283466Y-64138897D01*
X78308452Y-64108452D01*
X78338897Y-64083466D01*
X78373633Y-64064899D01*
X78411326Y-64053465D01*
X78456661Y-64049000D01*
X79293339Y-64049000D01*
X79338674Y-64053465D01*
X79338674Y-64053465D01*
G37*
G36*
X81388674Y-64053465D02*
G01*
X81426367Y-64064899D01*
X81461103Y-64083466D01*
X81491548Y-64108452D01*
X81516534Y-64138897D01*
X81535101Y-64173633D01*
X81546535Y-64211326D01*
X81551000Y-64256661D01*
X81551000Y-65343339D01*
X81546535Y-65388674D01*
X81535101Y-65426367D01*
X81516534Y-65461103D01*
X81491548Y-65491548D01*
X81461103Y-65516534D01*
X81426367Y-65535101D01*
X81388674Y-65546535D01*
X81343339Y-65551000D01*
X80506661Y-65551000D01*
X80461326Y-65546535D01*
X80423633Y-65535101D01*
X80388897Y-65516534D01*
X80358452Y-65491548D01*
X80333466Y-65461103D01*
X80314899Y-65426367D01*
X80303465Y-65388674D01*
X80299000Y-65343339D01*
X80299000Y-64256661D01*
X80303465Y-64211326D01*
X80314899Y-64173633D01*
X80333466Y-64138897D01*
X80358452Y-64108452D01*
X80388897Y-64083466D01*
X80423633Y-64064899D01*
X80461326Y-64053465D01*
X80506661Y-64049000D01*
X81343339Y-64049000D01*
X81388674Y-64053465D01*
X81388674Y-64053465D01*
G37*
G36*
X76988674Y-64153465D02*
G01*
X77026367Y-64164899D01*
X77061103Y-64183466D01*
X77091548Y-64208452D01*
X77116534Y-64238897D01*
X77135101Y-64273633D01*
X77146535Y-64311326D01*
X77151000Y-64356661D01*
X77151000Y-65193339D01*
X77146535Y-65238674D01*
X77135101Y-65276367D01*
X77116534Y-65311103D01*
X77091548Y-65341548D01*
X77061103Y-65366534D01*
X77026367Y-65385101D01*
X76988674Y-65396535D01*
X76943339Y-65401000D01*
X75856661Y-65401000D01*
X75811326Y-65396535D01*
X75773633Y-65385101D01*
X75738897Y-65366534D01*
X75708452Y-65341548D01*
X75683466Y-65311103D01*
X75664899Y-65276367D01*
X75653465Y-65238674D01*
X75649000Y-65193339D01*
X75649000Y-64356661D01*
X75653465Y-64311326D01*
X75664899Y-64273633D01*
X75683466Y-64238897D01*
X75708452Y-64208452D01*
X75738897Y-64183466D01*
X75773633Y-64164899D01*
X75811326Y-64153465D01*
X75856661Y-64149000D01*
X76943339Y-64149000D01*
X76988674Y-64153465D01*
X76988674Y-64153465D01*
G37*
G36*
X54392771Y-62158452D02*
G01*
X54554410Y-62190604D01*
X54836674Y-62307521D01*
X55090705Y-62477259D01*
X55306741Y-62693295D01*
X55476479Y-62947326D01*
X55593396Y-63229590D01*
X55605720Y-63291548D01*
X55653000Y-63529239D01*
X55653000Y-63834761D01*
X55634929Y-63925608D01*
X55593396Y-64134410D01*
X55476479Y-64416674D01*
X55306741Y-64670705D01*
X55090705Y-64886741D01*
X54836674Y-65056479D01*
X54554410Y-65173396D01*
X54404585Y-65203198D01*
X54254761Y-65233000D01*
X53949239Y-65233000D01*
X53799415Y-65203198D01*
X53649590Y-65173396D01*
X53367326Y-65056479D01*
X53113295Y-64886741D01*
X52897259Y-64670705D01*
X52727521Y-64416674D01*
X52610604Y-64134410D01*
X52569071Y-63925608D01*
X52551000Y-63834761D01*
X52551000Y-63529239D01*
X52598280Y-63291548D01*
X52610604Y-63229590D01*
X52727521Y-62947326D01*
X52897259Y-62693295D01*
X53113295Y-62477259D01*
X53367326Y-62307521D01*
X53649590Y-62190604D01*
X53811229Y-62158452D01*
X53949239Y-62131000D01*
X54254761Y-62131000D01*
X54392771Y-62158452D01*
X54392771Y-62158452D01*
G37*
G36*
X103966674Y-63395465D02*
G01*
X104004367Y-63406899D01*
X104039103Y-63425466D01*
X104069548Y-63450452D01*
X104094534Y-63480897D01*
X104113101Y-63515633D01*
X104124535Y-63553326D01*
X104129000Y-63598661D01*
X104129000Y-64435339D01*
X104124535Y-64480674D01*
X104113101Y-64518367D01*
X104094534Y-64553103D01*
X104069548Y-64583548D01*
X104039103Y-64608534D01*
X104004367Y-64627101D01*
X103966674Y-64638535D01*
X103921339Y-64643000D01*
X102834661Y-64643000D01*
X102789326Y-64638535D01*
X102751633Y-64627101D01*
X102716897Y-64608534D01*
X102686452Y-64583548D01*
X102661466Y-64553103D01*
X102642899Y-64518367D01*
X102631465Y-64480674D01*
X102627000Y-64435339D01*
X102627000Y-63598661D01*
X102631465Y-63553326D01*
X102642899Y-63515633D01*
X102661466Y-63480897D01*
X102686452Y-63450452D01*
X102716897Y-63425466D01*
X102751633Y-63406899D01*
X102789326Y-63395465D01*
X102834661Y-63391000D01*
X103921339Y-63391000D01*
X103966674Y-63395465D01*
X103966674Y-63395465D01*
G37*
G36*
X74738674Y-63253465D02*
G01*
X74776367Y-63264899D01*
X74811103Y-63283466D01*
X74841548Y-63308452D01*
X74866534Y-63338897D01*
X74885101Y-63373633D01*
X74896535Y-63411326D01*
X74901000Y-63456661D01*
X74901000Y-64293339D01*
X74896535Y-64338674D01*
X74885101Y-64376367D01*
X74866534Y-64411103D01*
X74841548Y-64441548D01*
X74811103Y-64466534D01*
X74776367Y-64485101D01*
X74738674Y-64496535D01*
X74693339Y-64501000D01*
X73606661Y-64501000D01*
X73561326Y-64496535D01*
X73523633Y-64485101D01*
X73488897Y-64466534D01*
X73458452Y-64441548D01*
X73433466Y-64411103D01*
X73414899Y-64376367D01*
X73403465Y-64338674D01*
X73399000Y-64293339D01*
X73399000Y-63456661D01*
X73403465Y-63411326D01*
X73414899Y-63373633D01*
X73433466Y-63338897D01*
X73458452Y-63308452D01*
X73488897Y-63283466D01*
X73523633Y-63264899D01*
X73561326Y-63253465D01*
X73606661Y-63249000D01*
X74693339Y-63249000D01*
X74738674Y-63253465D01*
X74738674Y-63253465D01*
G37*
G36*
X87651000Y-64071000D02*
G01*
X87149000Y-64071000D01*
X87149000Y-62469000D01*
X87651000Y-62469000D01*
X87651000Y-64071000D01*
X87651000Y-64071000D01*
G37*
G36*
X86351000Y-64071000D02*
G01*
X85849000Y-64071000D01*
X85849000Y-62469000D01*
X86351000Y-62469000D01*
X86351000Y-64071000D01*
X86351000Y-64071000D01*
G37*
G36*
X61135562Y-62423181D02*
G01*
X61170481Y-62433774D01*
X61202663Y-62450976D01*
X61230873Y-62474127D01*
X61254024Y-62502337D01*
X61271226Y-62534519D01*
X61281819Y-62569438D01*
X61286000Y-62611895D01*
X61286000Y-63753105D01*
X61281819Y-63795562D01*
X61271226Y-63830481D01*
X61254024Y-63862663D01*
X61230873Y-63890873D01*
X61202663Y-63914024D01*
X61170481Y-63931226D01*
X61135562Y-63941819D01*
X61093105Y-63946000D01*
X58726895Y-63946000D01*
X58684438Y-63941819D01*
X58649519Y-63931226D01*
X58617337Y-63914024D01*
X58589127Y-63890873D01*
X58565976Y-63862663D01*
X58548774Y-63830481D01*
X58538181Y-63795562D01*
X58534000Y-63753105D01*
X58534000Y-62611895D01*
X58538181Y-62569438D01*
X58548774Y-62534519D01*
X58565976Y-62502337D01*
X58589127Y-62474127D01*
X58617337Y-62450976D01*
X58649519Y-62433774D01*
X58684438Y-62423181D01*
X58726895Y-62419000D01*
X61093105Y-62419000D01*
X61135562Y-62423181D01*
X61135562Y-62423181D01*
G37*
G36*
X84788674Y-62653465D02*
G01*
X84826367Y-62664899D01*
X84861103Y-62683466D01*
X84891548Y-62708452D01*
X84916534Y-62738897D01*
X84935101Y-62773633D01*
X84946535Y-62811326D01*
X84951000Y-62856661D01*
X84951000Y-63693339D01*
X84946535Y-63738674D01*
X84935101Y-63776367D01*
X84916534Y-63811103D01*
X84891548Y-63841548D01*
X84861103Y-63866534D01*
X84826367Y-63885101D01*
X84788674Y-63896535D01*
X84743339Y-63901000D01*
X83656661Y-63901000D01*
X83611326Y-63896535D01*
X83573633Y-63885101D01*
X83538897Y-63866534D01*
X83508452Y-63841548D01*
X83483466Y-63811103D01*
X83464899Y-63776367D01*
X83453465Y-63738674D01*
X83449000Y-63693339D01*
X83449000Y-62856661D01*
X83453465Y-62811326D01*
X83464899Y-62773633D01*
X83483466Y-62738897D01*
X83508452Y-62708452D01*
X83538897Y-62683466D01*
X83573633Y-62664899D01*
X83611326Y-62653465D01*
X83656661Y-62649000D01*
X84743339Y-62649000D01*
X84788674Y-62653465D01*
X84788674Y-62653465D01*
G37*
G36*
X89888674Y-62653465D02*
G01*
X89926367Y-62664899D01*
X89961103Y-62683466D01*
X89991548Y-62708452D01*
X90016534Y-62738897D01*
X90035101Y-62773633D01*
X90046535Y-62811326D01*
X90051000Y-62856661D01*
X90051000Y-63693339D01*
X90046535Y-63738674D01*
X90035101Y-63776367D01*
X90016534Y-63811103D01*
X89991548Y-63841548D01*
X89961103Y-63866534D01*
X89926367Y-63885101D01*
X89888674Y-63896535D01*
X89843339Y-63901000D01*
X88756661Y-63901000D01*
X88711326Y-63896535D01*
X88673633Y-63885101D01*
X88638897Y-63866534D01*
X88608452Y-63841548D01*
X88583466Y-63811103D01*
X88564899Y-63776367D01*
X88553465Y-63738674D01*
X88549000Y-63693339D01*
X88549000Y-62856661D01*
X88553465Y-62811326D01*
X88564899Y-62773633D01*
X88583466Y-62738897D01*
X88608452Y-62708452D01*
X88638897Y-62683466D01*
X88673633Y-62664899D01*
X88711326Y-62653465D01*
X88756661Y-62649000D01*
X89843339Y-62649000D01*
X89888674Y-62653465D01*
X89888674Y-62653465D01*
G37*
G36*
X65760443Y-62085519D02*
G01*
X65826627Y-62092037D01*
X65996466Y-62143557D01*
X66152991Y-62227222D01*
X66172629Y-62243339D01*
X66290186Y-62339814D01*
X66359396Y-62424148D01*
X66402778Y-62477009D01*
X66486443Y-62633534D01*
X66537963Y-62803373D01*
X66555359Y-62980000D01*
X66537963Y-63156627D01*
X66486443Y-63326466D01*
X66486442Y-63326468D01*
X66479798Y-63338897D01*
X66402778Y-63482991D01*
X66386539Y-63502778D01*
X66290186Y-63620186D01*
X66201047Y-63693339D01*
X66152991Y-63732778D01*
X65996466Y-63816443D01*
X65826627Y-63867963D01*
X65760443Y-63874481D01*
X65694260Y-63881000D01*
X65605740Y-63881000D01*
X65539557Y-63874481D01*
X65473373Y-63867963D01*
X65303534Y-63816443D01*
X65147009Y-63732778D01*
X65098953Y-63693339D01*
X65009814Y-63620186D01*
X64913461Y-63502778D01*
X64897222Y-63482991D01*
X64820202Y-63338897D01*
X64813558Y-63326468D01*
X64813557Y-63326466D01*
X64762037Y-63156627D01*
X64744641Y-62980000D01*
X64762037Y-62803373D01*
X64813557Y-62633534D01*
X64897222Y-62477009D01*
X64940604Y-62424148D01*
X65009814Y-62339814D01*
X65127371Y-62243339D01*
X65147009Y-62227222D01*
X65303534Y-62143557D01*
X65473373Y-62092037D01*
X65539557Y-62085519D01*
X65605740Y-62079000D01*
X65694260Y-62079000D01*
X65760443Y-62085519D01*
X65760443Y-62085519D01*
G37*
G36*
X109570442Y-61855518D02*
G01*
X109636627Y-61862037D01*
X109806466Y-61913557D01*
X109962991Y-61997222D01*
X109967594Y-62001000D01*
X110100186Y-62109814D01*
X110183448Y-62211271D01*
X110212778Y-62247009D01*
X110212779Y-62247011D01*
X110286718Y-62385339D01*
X110296443Y-62403534D01*
X110347963Y-62573373D01*
X110365359Y-62750000D01*
X110347963Y-62926627D01*
X110296443Y-63096466D01*
X110212778Y-63252991D01*
X110203005Y-63264899D01*
X110100186Y-63390186D01*
X110002056Y-63470718D01*
X109962991Y-63502778D01*
X109806466Y-63586443D01*
X109636627Y-63637963D01*
X109570442Y-63644482D01*
X109504260Y-63651000D01*
X109415740Y-63651000D01*
X109349558Y-63644482D01*
X109283373Y-63637963D01*
X109113534Y-63586443D01*
X108957009Y-63502778D01*
X108917944Y-63470718D01*
X108819814Y-63390186D01*
X108716995Y-63264899D01*
X108707222Y-63252991D01*
X108623557Y-63096466D01*
X108572037Y-62926627D01*
X108554641Y-62750000D01*
X108572037Y-62573373D01*
X108623557Y-62403534D01*
X108633283Y-62385339D01*
X108707221Y-62247011D01*
X108707222Y-62247009D01*
X108736552Y-62211271D01*
X108819814Y-62109814D01*
X108952406Y-62001000D01*
X108957009Y-61997222D01*
X109113534Y-61913557D01*
X109283373Y-61862037D01*
X109349558Y-61855518D01*
X109415740Y-61849000D01*
X109504260Y-61849000D01*
X109570442Y-61855518D01*
X109570442Y-61855518D01*
G37*
G36*
X71558674Y-62103465D02*
G01*
X71596367Y-62114899D01*
X71631103Y-62133466D01*
X71661548Y-62158452D01*
X71686534Y-62188897D01*
X71705101Y-62223633D01*
X71716535Y-62261326D01*
X71721000Y-62306661D01*
X71721000Y-63143339D01*
X71716535Y-63188674D01*
X71705101Y-63226367D01*
X71686534Y-63261103D01*
X71661548Y-63291548D01*
X71631103Y-63316534D01*
X71596367Y-63335101D01*
X71558674Y-63346535D01*
X71513339Y-63351000D01*
X70426661Y-63351000D01*
X70381326Y-63346535D01*
X70343633Y-63335101D01*
X70308897Y-63316534D01*
X70278452Y-63291548D01*
X70253466Y-63261103D01*
X70234899Y-63226367D01*
X70223465Y-63188674D01*
X70219000Y-63143339D01*
X70219000Y-62306661D01*
X70223465Y-62261326D01*
X70234899Y-62223633D01*
X70253466Y-62188897D01*
X70278452Y-62158452D01*
X70308897Y-62133466D01*
X70343633Y-62114899D01*
X70381326Y-62103465D01*
X70426661Y-62099000D01*
X71513339Y-62099000D01*
X71558674Y-62103465D01*
X71558674Y-62103465D01*
G37*
G36*
X81551000Y-63001000D02*
G01*
X80049000Y-63001000D01*
X80049000Y-60599000D01*
X81551000Y-60599000D01*
X81551000Y-63001000D01*
X81551000Y-63001000D01*
G37*
G36*
X77151000Y-63001000D02*
G01*
X75649000Y-63001000D01*
X75649000Y-60599000D01*
X77151000Y-60599000D01*
X77151000Y-63001000D01*
X77151000Y-63001000D01*
G37*
G36*
X103966674Y-61345465D02*
G01*
X104004367Y-61356899D01*
X104039103Y-61375466D01*
X104069548Y-61400452D01*
X104094534Y-61430897D01*
X104113101Y-61465633D01*
X104124535Y-61503326D01*
X104129000Y-61548661D01*
X104129000Y-62385339D01*
X104124535Y-62430674D01*
X104113101Y-62468367D01*
X104094534Y-62503103D01*
X104069548Y-62533548D01*
X104039103Y-62558534D01*
X104004367Y-62577101D01*
X103966674Y-62588535D01*
X103921339Y-62593000D01*
X102834661Y-62593000D01*
X102789326Y-62588535D01*
X102751633Y-62577101D01*
X102716897Y-62558534D01*
X102686452Y-62533548D01*
X102661466Y-62503103D01*
X102642899Y-62468367D01*
X102631465Y-62430674D01*
X102627000Y-62385339D01*
X102627000Y-61548661D01*
X102631465Y-61503326D01*
X102642899Y-61465633D01*
X102661466Y-61430897D01*
X102686452Y-61400452D01*
X102716897Y-61375466D01*
X102751633Y-61356899D01*
X102789326Y-61345465D01*
X102834661Y-61341000D01*
X103921339Y-61341000D01*
X103966674Y-61345465D01*
X103966674Y-61345465D01*
G37*
G36*
X74738674Y-61203465D02*
G01*
X74776367Y-61214899D01*
X74811103Y-61233466D01*
X74841548Y-61258452D01*
X74866534Y-61288897D01*
X74885101Y-61323633D01*
X74896535Y-61361326D01*
X74901000Y-61406661D01*
X74901000Y-62243339D01*
X74896535Y-62288674D01*
X74885101Y-62326367D01*
X74866534Y-62361103D01*
X74841548Y-62391548D01*
X74811103Y-62416534D01*
X74776367Y-62435101D01*
X74738674Y-62446535D01*
X74693339Y-62451000D01*
X73606661Y-62451000D01*
X73561326Y-62446535D01*
X73523633Y-62435101D01*
X73488897Y-62416534D01*
X73458452Y-62391548D01*
X73433466Y-62361103D01*
X73414899Y-62326367D01*
X73403465Y-62288674D01*
X73399000Y-62243339D01*
X73399000Y-61406661D01*
X73403465Y-61361326D01*
X73414899Y-61323633D01*
X73433466Y-61288897D01*
X73458452Y-61258452D01*
X73488897Y-61233466D01*
X73523633Y-61214899D01*
X73561326Y-61203465D01*
X73606661Y-61199000D01*
X74693339Y-61199000D01*
X74738674Y-61203465D01*
X74738674Y-61203465D01*
G37*
G36*
X61145562Y-60238181D02*
G01*
X61180481Y-60248774D01*
X61212663Y-60265976D01*
X61240873Y-60289127D01*
X61264024Y-60317337D01*
X61281226Y-60349519D01*
X61291819Y-60384438D01*
X61296000Y-60426895D01*
X61296000Y-61568105D01*
X61291819Y-61610562D01*
X61281226Y-61645481D01*
X61264024Y-61677663D01*
X61240873Y-61705873D01*
X61212663Y-61729024D01*
X61180481Y-61746226D01*
X61145562Y-61756819D01*
X61103105Y-61761000D01*
X58736895Y-61761000D01*
X58694438Y-61756819D01*
X58659519Y-61746226D01*
X58627337Y-61729024D01*
X58599127Y-61705873D01*
X58575976Y-61677663D01*
X58558774Y-61645481D01*
X58548181Y-61610562D01*
X58544000Y-61568105D01*
X58544000Y-60426895D01*
X58548181Y-60384438D01*
X58558774Y-60349519D01*
X58575976Y-60317337D01*
X58599127Y-60289127D01*
X58627337Y-60265976D01*
X58659519Y-60248774D01*
X58694438Y-60238181D01*
X58736895Y-60234000D01*
X61103105Y-60234000D01*
X61145562Y-60238181D01*
X61145562Y-60238181D01*
G37*
G36*
X65760443Y-59545519D02*
G01*
X65826627Y-59552037D01*
X65996466Y-59603557D01*
X66152991Y-59687222D01*
X66177101Y-59707009D01*
X66290186Y-59799814D01*
X66373448Y-59901271D01*
X66402778Y-59937009D01*
X66486443Y-60093534D01*
X66537963Y-60263373D01*
X66555359Y-60440000D01*
X66537963Y-60616627D01*
X66486443Y-60786466D01*
X66402778Y-60942991D01*
X66386539Y-60962778D01*
X66290186Y-61080186D01*
X66188729Y-61163448D01*
X66152991Y-61192778D01*
X65996466Y-61276443D01*
X65826627Y-61327963D01*
X65760443Y-61334481D01*
X65694260Y-61341000D01*
X65605740Y-61341000D01*
X65539557Y-61334481D01*
X65473373Y-61327963D01*
X65303534Y-61276443D01*
X65147009Y-61192778D01*
X65111271Y-61163448D01*
X65009814Y-61080186D01*
X64913461Y-60962778D01*
X64897222Y-60942991D01*
X64813557Y-60786466D01*
X64762037Y-60616627D01*
X64744641Y-60440000D01*
X64762037Y-60263373D01*
X64813557Y-60093534D01*
X64897222Y-59937009D01*
X64926552Y-59901271D01*
X65009814Y-59799814D01*
X65122899Y-59707009D01*
X65147009Y-59687222D01*
X65303534Y-59603557D01*
X65473373Y-59552037D01*
X65539557Y-59545519D01*
X65605740Y-59539000D01*
X65694260Y-59539000D01*
X65760443Y-59545519D01*
X65760443Y-59545519D01*
G37*
G36*
X71558674Y-60053465D02*
G01*
X71596367Y-60064899D01*
X71631103Y-60083466D01*
X71661548Y-60108452D01*
X71686534Y-60138897D01*
X71705101Y-60173633D01*
X71716535Y-60211326D01*
X71721000Y-60256661D01*
X71721000Y-61093339D01*
X71716535Y-61138674D01*
X71705101Y-61176367D01*
X71686534Y-61211103D01*
X71661548Y-61241548D01*
X71631103Y-61266534D01*
X71596367Y-61285101D01*
X71558674Y-61296535D01*
X71513339Y-61301000D01*
X70426661Y-61301000D01*
X70381326Y-61296535D01*
X70343633Y-61285101D01*
X70308897Y-61266534D01*
X70278452Y-61241548D01*
X70253466Y-61211103D01*
X70234899Y-61176367D01*
X70223465Y-61138674D01*
X70219000Y-61093339D01*
X70219000Y-60256661D01*
X70223465Y-60211326D01*
X70234899Y-60173633D01*
X70253466Y-60138897D01*
X70278452Y-60108452D01*
X70308897Y-60083466D01*
X70343633Y-60064899D01*
X70381326Y-60053465D01*
X70426661Y-60049000D01*
X71513339Y-60049000D01*
X71558674Y-60053465D01*
X71558674Y-60053465D01*
G37*
G36*
X109570442Y-59315518D02*
G01*
X109636627Y-59322037D01*
X109806466Y-59373557D01*
X109962991Y-59457222D01*
X109998729Y-59486552D01*
X110100186Y-59569814D01*
X110183448Y-59671271D01*
X110212778Y-59707009D01*
X110212779Y-59707011D01*
X110295049Y-59860925D01*
X110296443Y-59863534D01*
X110347963Y-60033373D01*
X110365359Y-60210000D01*
X110347963Y-60386627D01*
X110296443Y-60556466D01*
X110212778Y-60712991D01*
X110183448Y-60748729D01*
X110100186Y-60850186D01*
X109998729Y-60933448D01*
X109962991Y-60962778D01*
X109806466Y-61046443D01*
X109636627Y-61097963D01*
X109570442Y-61104482D01*
X109504260Y-61111000D01*
X109415740Y-61111000D01*
X109349558Y-61104482D01*
X109283373Y-61097963D01*
X109113534Y-61046443D01*
X108957009Y-60962778D01*
X108921271Y-60933448D01*
X108819814Y-60850186D01*
X108736552Y-60748729D01*
X108707222Y-60712991D01*
X108623557Y-60556466D01*
X108572037Y-60386627D01*
X108554641Y-60210000D01*
X108572037Y-60033373D01*
X108623557Y-59863534D01*
X108624952Y-59860925D01*
X108707221Y-59707011D01*
X108707222Y-59707009D01*
X108736552Y-59671271D01*
X108819814Y-59569814D01*
X108921271Y-59486552D01*
X108957009Y-59457222D01*
X109113534Y-59373557D01*
X109283373Y-59322037D01*
X109349558Y-59315518D01*
X109415740Y-59309000D01*
X109504260Y-59309000D01*
X109570442Y-59315518D01*
X109570442Y-59315518D01*
G37*
G36*
X55653000Y-60153000D02*
G01*
X52551000Y-60153000D01*
X52551000Y-57051000D01*
X55653000Y-57051000D01*
X55653000Y-60153000D01*
X55653000Y-60153000D01*
G37*
G36*
X103966674Y-58832465D02*
G01*
X104004367Y-58843899D01*
X104039103Y-58862466D01*
X104069548Y-58887452D01*
X104094534Y-58917897D01*
X104113101Y-58952633D01*
X104124535Y-58990326D01*
X104129000Y-59035661D01*
X104129000Y-59872339D01*
X104124535Y-59917674D01*
X104113101Y-59955367D01*
X104094534Y-59990103D01*
X104069548Y-60020548D01*
X104039103Y-60045534D01*
X104004367Y-60064101D01*
X103966674Y-60075535D01*
X103921339Y-60080000D01*
X102834661Y-60080000D01*
X102789326Y-60075535D01*
X102751633Y-60064101D01*
X102716897Y-60045534D01*
X102686452Y-60020548D01*
X102661466Y-59990103D01*
X102642899Y-59955367D01*
X102631465Y-59917674D01*
X102627000Y-59872339D01*
X102627000Y-59035661D01*
X102631465Y-58990326D01*
X102642899Y-58952633D01*
X102661466Y-58917897D01*
X102686452Y-58887452D01*
X102716897Y-58862466D01*
X102751633Y-58843899D01*
X102789326Y-58832465D01*
X102834661Y-58828000D01*
X103921339Y-58828000D01*
X103966674Y-58832465D01*
X103966674Y-58832465D01*
G37*
G36*
X106252674Y-58823465D02*
G01*
X106290367Y-58834899D01*
X106325103Y-58853466D01*
X106355548Y-58878452D01*
X106380534Y-58908897D01*
X106399101Y-58943633D01*
X106410535Y-58981326D01*
X106415000Y-59026661D01*
X106415000Y-59863339D01*
X106410535Y-59908674D01*
X106399101Y-59946367D01*
X106380534Y-59981103D01*
X106355548Y-60011548D01*
X106325103Y-60036534D01*
X106290367Y-60055101D01*
X106252674Y-60066535D01*
X106207339Y-60071000D01*
X105120661Y-60071000D01*
X105075326Y-60066535D01*
X105037633Y-60055101D01*
X105002897Y-60036534D01*
X104972452Y-60011548D01*
X104947466Y-59981103D01*
X104928899Y-59946367D01*
X104917465Y-59908674D01*
X104913000Y-59863339D01*
X104913000Y-59026661D01*
X104917465Y-58981326D01*
X104928899Y-58943633D01*
X104947466Y-58908897D01*
X104972452Y-58878452D01*
X105002897Y-58853466D01*
X105037633Y-58834899D01*
X105075326Y-58823465D01*
X105120661Y-58819000D01*
X106207339Y-58819000D01*
X106252674Y-58823465D01*
X106252674Y-58823465D01*
G37*
G36*
X99138000Y-59593000D02*
G01*
X92886000Y-59593000D01*
X92886000Y-57891000D01*
X99138000Y-57891000D01*
X99138000Y-59593000D01*
X99138000Y-59593000D01*
G37*
G36*
X66551000Y-58801000D02*
G01*
X64749000Y-58801000D01*
X64749000Y-56999000D01*
X66551000Y-56999000D01*
X66551000Y-58801000D01*
X66551000Y-58801000D01*
G37*
G36*
X61145562Y-57263181D02*
G01*
X61180481Y-57273774D01*
X61212663Y-57290976D01*
X61240873Y-57314127D01*
X61264024Y-57342337D01*
X61281226Y-57374519D01*
X61291819Y-57409438D01*
X61296000Y-57451895D01*
X61296000Y-58593105D01*
X61291819Y-58635562D01*
X61281226Y-58670481D01*
X61264024Y-58702663D01*
X61240873Y-58730873D01*
X61212663Y-58754024D01*
X61180481Y-58771226D01*
X61145562Y-58781819D01*
X61103105Y-58786000D01*
X58736895Y-58786000D01*
X58694438Y-58781819D01*
X58659519Y-58771226D01*
X58627337Y-58754024D01*
X58599127Y-58730873D01*
X58575976Y-58702663D01*
X58558774Y-58670481D01*
X58548181Y-58635562D01*
X58544000Y-58593105D01*
X58544000Y-57451895D01*
X58548181Y-57409438D01*
X58558774Y-57374519D01*
X58575976Y-57342337D01*
X58599127Y-57314127D01*
X58627337Y-57290976D01*
X58659519Y-57273774D01*
X58694438Y-57263181D01*
X58736895Y-57259000D01*
X61103105Y-57259000D01*
X61145562Y-57263181D01*
X61145562Y-57263181D01*
G37*
G36*
X84417512Y-56882927D02*
G01*
X84566812Y-56912624D01*
X84730784Y-56980544D01*
X84878354Y-57079147D01*
X85003853Y-57204646D01*
X85102456Y-57352216D01*
X85170376Y-57516188D01*
X85205000Y-57690259D01*
X85205000Y-57867741D01*
X85170376Y-58041812D01*
X85102456Y-58205784D01*
X85003853Y-58353354D01*
X84878354Y-58478853D01*
X84730784Y-58577456D01*
X84566812Y-58645376D01*
X84440597Y-58670481D01*
X84392742Y-58680000D01*
X84215258Y-58680000D01*
X84167403Y-58670481D01*
X84041188Y-58645376D01*
X83877216Y-58577456D01*
X83729646Y-58478853D01*
X83604147Y-58353354D01*
X83505544Y-58205784D01*
X83437624Y-58041812D01*
X83403000Y-57867741D01*
X83403000Y-57690259D01*
X83437624Y-57516188D01*
X83505544Y-57352216D01*
X83604147Y-57204646D01*
X83729646Y-57079147D01*
X83877216Y-56980544D01*
X84041188Y-56912624D01*
X84190488Y-56882927D01*
X84215258Y-56878000D01*
X84392742Y-56878000D01*
X84417512Y-56882927D01*
X84417512Y-56882927D01*
G37*
G36*
X81877512Y-56882927D02*
G01*
X82026812Y-56912624D01*
X82190784Y-56980544D01*
X82338354Y-57079147D01*
X82463853Y-57204646D01*
X82562456Y-57352216D01*
X82630376Y-57516188D01*
X82665000Y-57690259D01*
X82665000Y-57867741D01*
X82630376Y-58041812D01*
X82562456Y-58205784D01*
X82463853Y-58353354D01*
X82338354Y-58478853D01*
X82190784Y-58577456D01*
X82026812Y-58645376D01*
X81900597Y-58670481D01*
X81852742Y-58680000D01*
X81675258Y-58680000D01*
X81627403Y-58670481D01*
X81501188Y-58645376D01*
X81337216Y-58577456D01*
X81189646Y-58478853D01*
X81064147Y-58353354D01*
X80965544Y-58205784D01*
X80897624Y-58041812D01*
X80863000Y-57867741D01*
X80863000Y-57690259D01*
X80897624Y-57516188D01*
X80965544Y-57352216D01*
X81064147Y-57204646D01*
X81189646Y-57079147D01*
X81337216Y-56980544D01*
X81501188Y-56912624D01*
X81650488Y-56882927D01*
X81675258Y-56878000D01*
X81852742Y-56878000D01*
X81877512Y-56882927D01*
X81877512Y-56882927D01*
G37*
G36*
X73749512Y-56882927D02*
G01*
X73898812Y-56912624D01*
X74062784Y-56980544D01*
X74210354Y-57079147D01*
X74335853Y-57204646D01*
X74434456Y-57352216D01*
X74502376Y-57516188D01*
X74537000Y-57690259D01*
X74537000Y-57867741D01*
X74502376Y-58041812D01*
X74434456Y-58205784D01*
X74335853Y-58353354D01*
X74210354Y-58478853D01*
X74062784Y-58577456D01*
X73898812Y-58645376D01*
X73772597Y-58670481D01*
X73724742Y-58680000D01*
X73547258Y-58680000D01*
X73499403Y-58670481D01*
X73373188Y-58645376D01*
X73209216Y-58577456D01*
X73061646Y-58478853D01*
X72936147Y-58353354D01*
X72837544Y-58205784D01*
X72769624Y-58041812D01*
X72735000Y-57867741D01*
X72735000Y-57690259D01*
X72769624Y-57516188D01*
X72837544Y-57352216D01*
X72936147Y-57204646D01*
X73061646Y-57079147D01*
X73209216Y-56980544D01*
X73373188Y-56912624D01*
X73522488Y-56882927D01*
X73547258Y-56878000D01*
X73724742Y-56878000D01*
X73749512Y-56882927D01*
X73749512Y-56882927D01*
G37*
G36*
X71209512Y-56882927D02*
G01*
X71358812Y-56912624D01*
X71522784Y-56980544D01*
X71670354Y-57079147D01*
X71795853Y-57204646D01*
X71894456Y-57352216D01*
X71962376Y-57516188D01*
X71997000Y-57690259D01*
X71997000Y-57867741D01*
X71962376Y-58041812D01*
X71894456Y-58205784D01*
X71795853Y-58353354D01*
X71670354Y-58478853D01*
X71522784Y-58577456D01*
X71358812Y-58645376D01*
X71232597Y-58670481D01*
X71184742Y-58680000D01*
X71007258Y-58680000D01*
X70959403Y-58670481D01*
X70833188Y-58645376D01*
X70669216Y-58577456D01*
X70521646Y-58478853D01*
X70396147Y-58353354D01*
X70297544Y-58205784D01*
X70229624Y-58041812D01*
X70195000Y-57867741D01*
X70195000Y-57690259D01*
X70229624Y-57516188D01*
X70297544Y-57352216D01*
X70396147Y-57204646D01*
X70521646Y-57079147D01*
X70669216Y-56980544D01*
X70833188Y-56912624D01*
X70982488Y-56882927D01*
X71007258Y-56878000D01*
X71184742Y-56878000D01*
X71209512Y-56882927D01*
X71209512Y-56882927D01*
G37*
G36*
X110361000Y-58571000D02*
G01*
X108559000Y-58571000D01*
X108559000Y-56769000D01*
X110361000Y-56769000D01*
X110361000Y-58571000D01*
X110361000Y-58571000D01*
G37*
G36*
X103966674Y-56782465D02*
G01*
X104004367Y-56793899D01*
X104039103Y-56812466D01*
X104069548Y-56837452D01*
X104094534Y-56867897D01*
X104113101Y-56902633D01*
X104124535Y-56940326D01*
X104129000Y-56985661D01*
X104129000Y-57822339D01*
X104124535Y-57867674D01*
X104113101Y-57905367D01*
X104094534Y-57940103D01*
X104069548Y-57970548D01*
X104039103Y-57995534D01*
X104004367Y-58014101D01*
X103966674Y-58025535D01*
X103921339Y-58030000D01*
X102834661Y-58030000D01*
X102789326Y-58025535D01*
X102751633Y-58014101D01*
X102716897Y-57995534D01*
X102686452Y-57970548D01*
X102661466Y-57940103D01*
X102642899Y-57905367D01*
X102631465Y-57867674D01*
X102627000Y-57822339D01*
X102627000Y-56985661D01*
X102631465Y-56940326D01*
X102642899Y-56902633D01*
X102661466Y-56867897D01*
X102686452Y-56837452D01*
X102716897Y-56812466D01*
X102751633Y-56793899D01*
X102789326Y-56782465D01*
X102834661Y-56778000D01*
X103921339Y-56778000D01*
X103966674Y-56782465D01*
X103966674Y-56782465D01*
G37*
G36*
X106252674Y-56773465D02*
G01*
X106290367Y-56784899D01*
X106325103Y-56803466D01*
X106355548Y-56828452D01*
X106380534Y-56858897D01*
X106399101Y-56893633D01*
X106410535Y-56931326D01*
X106415000Y-56976661D01*
X106415000Y-57813339D01*
X106410535Y-57858674D01*
X106399101Y-57896367D01*
X106380534Y-57931103D01*
X106355548Y-57961548D01*
X106325103Y-57986534D01*
X106290367Y-58005101D01*
X106252674Y-58016535D01*
X106207339Y-58021000D01*
X105120661Y-58021000D01*
X105075326Y-58016535D01*
X105037633Y-58005101D01*
X105002897Y-57986534D01*
X104972452Y-57961548D01*
X104947466Y-57931103D01*
X104928899Y-57896367D01*
X104917465Y-57858674D01*
X104913000Y-57813339D01*
X104913000Y-56976661D01*
X104917465Y-56931326D01*
X104928899Y-56893633D01*
X104947466Y-56858897D01*
X104972452Y-56828452D01*
X105002897Y-56803466D01*
X105037633Y-56784899D01*
X105075326Y-56773465D01*
X105120661Y-56769000D01*
X106207339Y-56769000D01*
X106252674Y-56773465D01*
X106252674Y-56773465D01*
G37*
G36*
X112204780Y-49459566D02*
G01*
X112504237Y-49519131D01*
X113068401Y-49752815D01*
X113576135Y-50092072D01*
X114007928Y-50523865D01*
X114347185Y-51031599D01*
X114580869Y-51595763D01*
X114640434Y-51895220D01*
X114700000Y-52194675D01*
X114700000Y-52805325D01*
X114640434Y-53104780D01*
X114580869Y-53404237D01*
X114347185Y-53968401D01*
X114007928Y-54476135D01*
X113576135Y-54907928D01*
X113068401Y-55247185D01*
X112504237Y-55480869D01*
X112204780Y-55540434D01*
X111905325Y-55600000D01*
X111294675Y-55600000D01*
X110995220Y-55540434D01*
X110695763Y-55480869D01*
X110131599Y-55247185D01*
X109623865Y-54907928D01*
X109192072Y-54476135D01*
X108852815Y-53968401D01*
X108619131Y-53404237D01*
X108559566Y-53104780D01*
X108500000Y-52805325D01*
X108500000Y-52194675D01*
X108559566Y-51895220D01*
X108619131Y-51595763D01*
X108852815Y-51031599D01*
X109192072Y-50523865D01*
X109623865Y-50092072D01*
X110131599Y-49752815D01*
X110695763Y-49519131D01*
X110995220Y-49459566D01*
X111294675Y-49400000D01*
X111905325Y-49400000D01*
X112204780Y-49459566D01*
X112204780Y-49459566D01*
G37*
G36*
X54104780Y-49459566D02*
G01*
X54404237Y-49519131D01*
X54968401Y-49752815D01*
X55476135Y-50092072D01*
X55907928Y-50523865D01*
X56247185Y-51031599D01*
X56480869Y-51595763D01*
X56540435Y-51895220D01*
X56600000Y-52194675D01*
X56600000Y-52805325D01*
X56540434Y-53104780D01*
X56480869Y-53404237D01*
X56247185Y-53968401D01*
X55907928Y-54476135D01*
X55476135Y-54907928D01*
X54968401Y-55247185D01*
X54404237Y-55480869D01*
X54104780Y-55540434D01*
X53805325Y-55600000D01*
X53194675Y-55600000D01*
X52895220Y-55540434D01*
X52595763Y-55480869D01*
X52031599Y-55247185D01*
X51523865Y-54907928D01*
X51092072Y-54476135D01*
X50752815Y-53968401D01*
X50519131Y-53404237D01*
X50459566Y-53104780D01*
X50400000Y-52805325D01*
X50400000Y-52194675D01*
X50459565Y-51895220D01*
X50519131Y-51595763D01*
X50752815Y-51031599D01*
X51092072Y-50523865D01*
X51523865Y-50092072D01*
X52031599Y-49752815D01*
X52595763Y-49519131D01*
X52895220Y-49459566D01*
X53194675Y-49400000D01*
X53805325Y-49400000D01*
X54104780Y-49459566D01*
X54104780Y-49459566D01*
G37*
G36*
X61050443Y-52905519D02*
G01*
X61116627Y-52912037D01*
X61286466Y-52963557D01*
X61442991Y-53047222D01*
X61478729Y-53076552D01*
X61580186Y-53159814D01*
X61663448Y-53261271D01*
X61692778Y-53297009D01*
X61776443Y-53453534D01*
X61827963Y-53623373D01*
X61845359Y-53800000D01*
X61827963Y-53976627D01*
X61776443Y-54146466D01*
X61692778Y-54302991D01*
X61663448Y-54338729D01*
X61580186Y-54440186D01*
X61478729Y-54523448D01*
X61442991Y-54552778D01*
X61286466Y-54636443D01*
X61116627Y-54687963D01*
X61050443Y-54694481D01*
X60984260Y-54701000D01*
X60895740Y-54701000D01*
X60829557Y-54694481D01*
X60763373Y-54687963D01*
X60593534Y-54636443D01*
X60437009Y-54552778D01*
X60401271Y-54523448D01*
X60299814Y-54440186D01*
X60216552Y-54338729D01*
X60187222Y-54302991D01*
X60103557Y-54146466D01*
X60052037Y-53976627D01*
X60034641Y-53800000D01*
X60052037Y-53623373D01*
X60103557Y-53453534D01*
X60187222Y-53297009D01*
X60216552Y-53261271D01*
X60299814Y-53159814D01*
X60401271Y-53076552D01*
X60437009Y-53047222D01*
X60593534Y-52963557D01*
X60763373Y-52912037D01*
X60829557Y-52905519D01*
X60895740Y-52899000D01*
X60984260Y-52899000D01*
X61050443Y-52905519D01*
X61050443Y-52905519D01*
G37*
G36*
X59301000Y-54701000D02*
G01*
X57499000Y-54701000D01*
X57499000Y-52899000D01*
X59301000Y-52899000D01*
X59301000Y-54701000D01*
X59301000Y-54701000D01*
G37*
G36*
X83910443Y-52905519D02*
G01*
X83976627Y-52912037D01*
X84146466Y-52963557D01*
X84302991Y-53047222D01*
X84338729Y-53076552D01*
X84440186Y-53159814D01*
X84523448Y-53261271D01*
X84552778Y-53297009D01*
X84636443Y-53453534D01*
X84687963Y-53623373D01*
X84705359Y-53800000D01*
X84687963Y-53976627D01*
X84636443Y-54146466D01*
X84552778Y-54302991D01*
X84523448Y-54338729D01*
X84440186Y-54440186D01*
X84338729Y-54523448D01*
X84302991Y-54552778D01*
X84146466Y-54636443D01*
X83976627Y-54687963D01*
X83910443Y-54694481D01*
X83844260Y-54701000D01*
X83755740Y-54701000D01*
X83689557Y-54694481D01*
X83623373Y-54687963D01*
X83453534Y-54636443D01*
X83297009Y-54552778D01*
X83261271Y-54523448D01*
X83159814Y-54440186D01*
X83076552Y-54338729D01*
X83047222Y-54302991D01*
X82963557Y-54146466D01*
X82912037Y-53976627D01*
X82894641Y-53800000D01*
X82912037Y-53623373D01*
X82963557Y-53453534D01*
X83047222Y-53297009D01*
X83076552Y-53261271D01*
X83159814Y-53159814D01*
X83261271Y-53076552D01*
X83297009Y-53047222D01*
X83453534Y-52963557D01*
X83623373Y-52912037D01*
X83689557Y-52905519D01*
X83755740Y-52899000D01*
X83844260Y-52899000D01*
X83910443Y-52905519D01*
X83910443Y-52905519D01*
G37*
G36*
X86450443Y-52905519D02*
G01*
X86516627Y-52912037D01*
X86686466Y-52963557D01*
X86842991Y-53047222D01*
X86878729Y-53076552D01*
X86980186Y-53159814D01*
X87063448Y-53261271D01*
X87092778Y-53297009D01*
X87176443Y-53453534D01*
X87227963Y-53623373D01*
X87245359Y-53800000D01*
X87227963Y-53976627D01*
X87176443Y-54146466D01*
X87092778Y-54302991D01*
X87063448Y-54338729D01*
X86980186Y-54440186D01*
X86878729Y-54523448D01*
X86842991Y-54552778D01*
X86686466Y-54636443D01*
X86516627Y-54687963D01*
X86450443Y-54694481D01*
X86384260Y-54701000D01*
X86295740Y-54701000D01*
X86229557Y-54694481D01*
X86163373Y-54687963D01*
X85993534Y-54636443D01*
X85837009Y-54552778D01*
X85801271Y-54523448D01*
X85699814Y-54440186D01*
X85616552Y-54338729D01*
X85587222Y-54302991D01*
X85503557Y-54146466D01*
X85452037Y-53976627D01*
X85434641Y-53800000D01*
X85452037Y-53623373D01*
X85503557Y-53453534D01*
X85587222Y-53297009D01*
X85616552Y-53261271D01*
X85699814Y-53159814D01*
X85801271Y-53076552D01*
X85837009Y-53047222D01*
X85993534Y-52963557D01*
X86163373Y-52912037D01*
X86229557Y-52905519D01*
X86295740Y-52899000D01*
X86384260Y-52899000D01*
X86450443Y-52905519D01*
X86450443Y-52905519D01*
G37*
G36*
X88990443Y-52905519D02*
G01*
X89056627Y-52912037D01*
X89226466Y-52963557D01*
X89382991Y-53047222D01*
X89418729Y-53076552D01*
X89520186Y-53159814D01*
X89603448Y-53261271D01*
X89632778Y-53297009D01*
X89716443Y-53453534D01*
X89767963Y-53623373D01*
X89785359Y-53800000D01*
X89767963Y-53976627D01*
X89716443Y-54146466D01*
X89632778Y-54302991D01*
X89603448Y-54338729D01*
X89520186Y-54440186D01*
X89418729Y-54523448D01*
X89382991Y-54552778D01*
X89226466Y-54636443D01*
X89056627Y-54687963D01*
X88990443Y-54694481D01*
X88924260Y-54701000D01*
X88835740Y-54701000D01*
X88769557Y-54694481D01*
X88703373Y-54687963D01*
X88533534Y-54636443D01*
X88377009Y-54552778D01*
X88341271Y-54523448D01*
X88239814Y-54440186D01*
X88156552Y-54338729D01*
X88127222Y-54302991D01*
X88043557Y-54146466D01*
X87992037Y-53976627D01*
X87974641Y-53800000D01*
X87992037Y-53623373D01*
X88043557Y-53453534D01*
X88127222Y-53297009D01*
X88156552Y-53261271D01*
X88239814Y-53159814D01*
X88341271Y-53076552D01*
X88377009Y-53047222D01*
X88533534Y-52963557D01*
X88703373Y-52912037D01*
X88769557Y-52905519D01*
X88835740Y-52899000D01*
X88924260Y-52899000D01*
X88990443Y-52905519D01*
X88990443Y-52905519D01*
G37*
G36*
X81370443Y-52905519D02*
G01*
X81436627Y-52912037D01*
X81606466Y-52963557D01*
X81762991Y-53047222D01*
X81798729Y-53076552D01*
X81900186Y-53159814D01*
X81983448Y-53261271D01*
X82012778Y-53297009D01*
X82096443Y-53453534D01*
X82147963Y-53623373D01*
X82165359Y-53800000D01*
X82147963Y-53976627D01*
X82096443Y-54146466D01*
X82012778Y-54302991D01*
X81983448Y-54338729D01*
X81900186Y-54440186D01*
X81798729Y-54523448D01*
X81762991Y-54552778D01*
X81606466Y-54636443D01*
X81436627Y-54687963D01*
X81370443Y-54694481D01*
X81304260Y-54701000D01*
X81215740Y-54701000D01*
X81149557Y-54694481D01*
X81083373Y-54687963D01*
X80913534Y-54636443D01*
X80757009Y-54552778D01*
X80721271Y-54523448D01*
X80619814Y-54440186D01*
X80536552Y-54338729D01*
X80507222Y-54302991D01*
X80423557Y-54146466D01*
X80372037Y-53976627D01*
X80354641Y-53800000D01*
X80372037Y-53623373D01*
X80423557Y-53453534D01*
X80507222Y-53297009D01*
X80536552Y-53261271D01*
X80619814Y-53159814D01*
X80721271Y-53076552D01*
X80757009Y-53047222D01*
X80913534Y-52963557D01*
X81083373Y-52912037D01*
X81149557Y-52905519D01*
X81215740Y-52899000D01*
X81304260Y-52899000D01*
X81370443Y-52905519D01*
X81370443Y-52905519D01*
G37*
G36*
X91530443Y-52905519D02*
G01*
X91596627Y-52912037D01*
X91766466Y-52963557D01*
X91922991Y-53047222D01*
X91958729Y-53076552D01*
X92060186Y-53159814D01*
X92143448Y-53261271D01*
X92172778Y-53297009D01*
X92256443Y-53453534D01*
X92307963Y-53623373D01*
X92325359Y-53800000D01*
X92307963Y-53976627D01*
X92256443Y-54146466D01*
X92172778Y-54302991D01*
X92143448Y-54338729D01*
X92060186Y-54440186D01*
X91958729Y-54523448D01*
X91922991Y-54552778D01*
X91766466Y-54636443D01*
X91596627Y-54687963D01*
X91530443Y-54694481D01*
X91464260Y-54701000D01*
X91375740Y-54701000D01*
X91309557Y-54694481D01*
X91243373Y-54687963D01*
X91073534Y-54636443D01*
X90917009Y-54552778D01*
X90881271Y-54523448D01*
X90779814Y-54440186D01*
X90696552Y-54338729D01*
X90667222Y-54302991D01*
X90583557Y-54146466D01*
X90532037Y-53976627D01*
X90514641Y-53800000D01*
X90532037Y-53623373D01*
X90583557Y-53453534D01*
X90667222Y-53297009D01*
X90696552Y-53261271D01*
X90779814Y-53159814D01*
X90881271Y-53076552D01*
X90917009Y-53047222D01*
X91073534Y-52963557D01*
X91243373Y-52912037D01*
X91309557Y-52905519D01*
X91375740Y-52899000D01*
X91464260Y-52899000D01*
X91530443Y-52905519D01*
X91530443Y-52905519D01*
G37*
G36*
X94070443Y-52905519D02*
G01*
X94136627Y-52912037D01*
X94306466Y-52963557D01*
X94462991Y-53047222D01*
X94498729Y-53076552D01*
X94600186Y-53159814D01*
X94683448Y-53261271D01*
X94712778Y-53297009D01*
X94796443Y-53453534D01*
X94847963Y-53623373D01*
X94865359Y-53800000D01*
X94847963Y-53976627D01*
X94796443Y-54146466D01*
X94712778Y-54302991D01*
X94683448Y-54338729D01*
X94600186Y-54440186D01*
X94498729Y-54523448D01*
X94462991Y-54552778D01*
X94306466Y-54636443D01*
X94136627Y-54687963D01*
X94070443Y-54694481D01*
X94004260Y-54701000D01*
X93915740Y-54701000D01*
X93849557Y-54694481D01*
X93783373Y-54687963D01*
X93613534Y-54636443D01*
X93457009Y-54552778D01*
X93421271Y-54523448D01*
X93319814Y-54440186D01*
X93236552Y-54338729D01*
X93207222Y-54302991D01*
X93123557Y-54146466D01*
X93072037Y-53976627D01*
X93054641Y-53800000D01*
X93072037Y-53623373D01*
X93123557Y-53453534D01*
X93207222Y-53297009D01*
X93236552Y-53261271D01*
X93319814Y-53159814D01*
X93421271Y-53076552D01*
X93457009Y-53047222D01*
X93613534Y-52963557D01*
X93783373Y-52912037D01*
X93849557Y-52905519D01*
X93915740Y-52899000D01*
X94004260Y-52899000D01*
X94070443Y-52905519D01*
X94070443Y-52905519D01*
G37*
G36*
X78830443Y-52905519D02*
G01*
X78896627Y-52912037D01*
X79066466Y-52963557D01*
X79222991Y-53047222D01*
X79258729Y-53076552D01*
X79360186Y-53159814D01*
X79443448Y-53261271D01*
X79472778Y-53297009D01*
X79556443Y-53453534D01*
X79607963Y-53623373D01*
X79625359Y-53800000D01*
X79607963Y-53976627D01*
X79556443Y-54146466D01*
X79472778Y-54302991D01*
X79443448Y-54338729D01*
X79360186Y-54440186D01*
X79258729Y-54523448D01*
X79222991Y-54552778D01*
X79066466Y-54636443D01*
X78896627Y-54687963D01*
X78830443Y-54694481D01*
X78764260Y-54701000D01*
X78675740Y-54701000D01*
X78609557Y-54694481D01*
X78543373Y-54687963D01*
X78373534Y-54636443D01*
X78217009Y-54552778D01*
X78181271Y-54523448D01*
X78079814Y-54440186D01*
X77996552Y-54338729D01*
X77967222Y-54302991D01*
X77883557Y-54146466D01*
X77832037Y-53976627D01*
X77814641Y-53800000D01*
X77832037Y-53623373D01*
X77883557Y-53453534D01*
X77967222Y-53297009D01*
X77996552Y-53261271D01*
X78079814Y-53159814D01*
X78181271Y-53076552D01*
X78217009Y-53047222D01*
X78373534Y-52963557D01*
X78543373Y-52912037D01*
X78609557Y-52905519D01*
X78675740Y-52899000D01*
X78764260Y-52899000D01*
X78830443Y-52905519D01*
X78830443Y-52905519D01*
G37*
G36*
X76290443Y-52905519D02*
G01*
X76356627Y-52912037D01*
X76526466Y-52963557D01*
X76682991Y-53047222D01*
X76718729Y-53076552D01*
X76820186Y-53159814D01*
X76903448Y-53261271D01*
X76932778Y-53297009D01*
X77016443Y-53453534D01*
X77067963Y-53623373D01*
X77085359Y-53800000D01*
X77067963Y-53976627D01*
X77016443Y-54146466D01*
X76932778Y-54302991D01*
X76903448Y-54338729D01*
X76820186Y-54440186D01*
X76718729Y-54523448D01*
X76682991Y-54552778D01*
X76526466Y-54636443D01*
X76356627Y-54687963D01*
X76290443Y-54694481D01*
X76224260Y-54701000D01*
X76135740Y-54701000D01*
X76069557Y-54694481D01*
X76003373Y-54687963D01*
X75833534Y-54636443D01*
X75677009Y-54552778D01*
X75641271Y-54523448D01*
X75539814Y-54440186D01*
X75456552Y-54338729D01*
X75427222Y-54302991D01*
X75343557Y-54146466D01*
X75292037Y-53976627D01*
X75274641Y-53800000D01*
X75292037Y-53623373D01*
X75343557Y-53453534D01*
X75427222Y-53297009D01*
X75456552Y-53261271D01*
X75539814Y-53159814D01*
X75641271Y-53076552D01*
X75677009Y-53047222D01*
X75833534Y-52963557D01*
X76003373Y-52912037D01*
X76069557Y-52905519D01*
X76135740Y-52899000D01*
X76224260Y-52899000D01*
X76290443Y-52905519D01*
X76290443Y-52905519D01*
G37*
G36*
X73750443Y-52905519D02*
G01*
X73816627Y-52912037D01*
X73986466Y-52963557D01*
X74142991Y-53047222D01*
X74178729Y-53076552D01*
X74280186Y-53159814D01*
X74363448Y-53261271D01*
X74392778Y-53297009D01*
X74476443Y-53453534D01*
X74527963Y-53623373D01*
X74545359Y-53800000D01*
X74527963Y-53976627D01*
X74476443Y-54146466D01*
X74392778Y-54302991D01*
X74363448Y-54338729D01*
X74280186Y-54440186D01*
X74178729Y-54523448D01*
X74142991Y-54552778D01*
X73986466Y-54636443D01*
X73816627Y-54687963D01*
X73750443Y-54694481D01*
X73684260Y-54701000D01*
X73595740Y-54701000D01*
X73529557Y-54694481D01*
X73463373Y-54687963D01*
X73293534Y-54636443D01*
X73137009Y-54552778D01*
X73101271Y-54523448D01*
X72999814Y-54440186D01*
X72916552Y-54338729D01*
X72887222Y-54302991D01*
X72803557Y-54146466D01*
X72752037Y-53976627D01*
X72734641Y-53800000D01*
X72752037Y-53623373D01*
X72803557Y-53453534D01*
X72887222Y-53297009D01*
X72916552Y-53261271D01*
X72999814Y-53159814D01*
X73101271Y-53076552D01*
X73137009Y-53047222D01*
X73293534Y-52963557D01*
X73463373Y-52912037D01*
X73529557Y-52905519D01*
X73595740Y-52899000D01*
X73684260Y-52899000D01*
X73750443Y-52905519D01*
X73750443Y-52905519D01*
G37*
G36*
X104230443Y-52905519D02*
G01*
X104296627Y-52912037D01*
X104466466Y-52963557D01*
X104622991Y-53047222D01*
X104658729Y-53076552D01*
X104760186Y-53159814D01*
X104843448Y-53261271D01*
X104872778Y-53297009D01*
X104956443Y-53453534D01*
X105007963Y-53623373D01*
X105025359Y-53800000D01*
X105007963Y-53976627D01*
X104956443Y-54146466D01*
X104872778Y-54302991D01*
X104843448Y-54338729D01*
X104760186Y-54440186D01*
X104658729Y-54523448D01*
X104622991Y-54552778D01*
X104466466Y-54636443D01*
X104296627Y-54687963D01*
X104230443Y-54694481D01*
X104164260Y-54701000D01*
X104075740Y-54701000D01*
X104009557Y-54694481D01*
X103943373Y-54687963D01*
X103773534Y-54636443D01*
X103617009Y-54552778D01*
X103581271Y-54523448D01*
X103479814Y-54440186D01*
X103396552Y-54338729D01*
X103367222Y-54302991D01*
X103283557Y-54146466D01*
X103232037Y-53976627D01*
X103214641Y-53800000D01*
X103232037Y-53623373D01*
X103283557Y-53453534D01*
X103367222Y-53297009D01*
X103396552Y-53261271D01*
X103479814Y-53159814D01*
X103581271Y-53076552D01*
X103617009Y-53047222D01*
X103773534Y-52963557D01*
X103943373Y-52912037D01*
X104009557Y-52905519D01*
X104075740Y-52899000D01*
X104164260Y-52899000D01*
X104230443Y-52905519D01*
X104230443Y-52905519D01*
G37*
G36*
X101690443Y-52905519D02*
G01*
X101756627Y-52912037D01*
X101926466Y-52963557D01*
X102082991Y-53047222D01*
X102118729Y-53076552D01*
X102220186Y-53159814D01*
X102303448Y-53261271D01*
X102332778Y-53297009D01*
X102416443Y-53453534D01*
X102467963Y-53623373D01*
X102485359Y-53800000D01*
X102467963Y-53976627D01*
X102416443Y-54146466D01*
X102332778Y-54302991D01*
X102303448Y-54338729D01*
X102220186Y-54440186D01*
X102118729Y-54523448D01*
X102082991Y-54552778D01*
X101926466Y-54636443D01*
X101756627Y-54687963D01*
X101690443Y-54694481D01*
X101624260Y-54701000D01*
X101535740Y-54701000D01*
X101469557Y-54694481D01*
X101403373Y-54687963D01*
X101233534Y-54636443D01*
X101077009Y-54552778D01*
X101041271Y-54523448D01*
X100939814Y-54440186D01*
X100856552Y-54338729D01*
X100827222Y-54302991D01*
X100743557Y-54146466D01*
X100692037Y-53976627D01*
X100674641Y-53800000D01*
X100692037Y-53623373D01*
X100743557Y-53453534D01*
X100827222Y-53297009D01*
X100856552Y-53261271D01*
X100939814Y-53159814D01*
X101041271Y-53076552D01*
X101077009Y-53047222D01*
X101233534Y-52963557D01*
X101403373Y-52912037D01*
X101469557Y-52905519D01*
X101535740Y-52899000D01*
X101624260Y-52899000D01*
X101690443Y-52905519D01*
X101690443Y-52905519D01*
G37*
G36*
X96610443Y-52905519D02*
G01*
X96676627Y-52912037D01*
X96846466Y-52963557D01*
X97002991Y-53047222D01*
X97038729Y-53076552D01*
X97140186Y-53159814D01*
X97223448Y-53261271D01*
X97252778Y-53297009D01*
X97336443Y-53453534D01*
X97387963Y-53623373D01*
X97405359Y-53800000D01*
X97387963Y-53976627D01*
X97336443Y-54146466D01*
X97252778Y-54302991D01*
X97223448Y-54338729D01*
X97140186Y-54440186D01*
X97038729Y-54523448D01*
X97002991Y-54552778D01*
X96846466Y-54636443D01*
X96676627Y-54687963D01*
X96610443Y-54694481D01*
X96544260Y-54701000D01*
X96455740Y-54701000D01*
X96389557Y-54694481D01*
X96323373Y-54687963D01*
X96153534Y-54636443D01*
X95997009Y-54552778D01*
X95961271Y-54523448D01*
X95859814Y-54440186D01*
X95776552Y-54338729D01*
X95747222Y-54302991D01*
X95663557Y-54146466D01*
X95612037Y-53976627D01*
X95594641Y-53800000D01*
X95612037Y-53623373D01*
X95663557Y-53453534D01*
X95747222Y-53297009D01*
X95776552Y-53261271D01*
X95859814Y-53159814D01*
X95961271Y-53076552D01*
X95997009Y-53047222D01*
X96153534Y-52963557D01*
X96323373Y-52912037D01*
X96389557Y-52905519D01*
X96455740Y-52899000D01*
X96544260Y-52899000D01*
X96610443Y-52905519D01*
X96610443Y-52905519D01*
G37*
G36*
X99150443Y-52905519D02*
G01*
X99216627Y-52912037D01*
X99386466Y-52963557D01*
X99542991Y-53047222D01*
X99578729Y-53076552D01*
X99680186Y-53159814D01*
X99763448Y-53261271D01*
X99792778Y-53297009D01*
X99876443Y-53453534D01*
X99927963Y-53623373D01*
X99945359Y-53800000D01*
X99927963Y-53976627D01*
X99876443Y-54146466D01*
X99792778Y-54302991D01*
X99763448Y-54338729D01*
X99680186Y-54440186D01*
X99578729Y-54523448D01*
X99542991Y-54552778D01*
X99386466Y-54636443D01*
X99216627Y-54687963D01*
X99150443Y-54694481D01*
X99084260Y-54701000D01*
X98995740Y-54701000D01*
X98929557Y-54694481D01*
X98863373Y-54687963D01*
X98693534Y-54636443D01*
X98537009Y-54552778D01*
X98501271Y-54523448D01*
X98399814Y-54440186D01*
X98316552Y-54338729D01*
X98287222Y-54302991D01*
X98203557Y-54146466D01*
X98152037Y-53976627D01*
X98134641Y-53800000D01*
X98152037Y-53623373D01*
X98203557Y-53453534D01*
X98287222Y-53297009D01*
X98316552Y-53261271D01*
X98399814Y-53159814D01*
X98501271Y-53076552D01*
X98537009Y-53047222D01*
X98693534Y-52963557D01*
X98863373Y-52912037D01*
X98929557Y-52905519D01*
X98995740Y-52899000D01*
X99084260Y-52899000D01*
X99150443Y-52905519D01*
X99150443Y-52905519D01*
G37*
G36*
X106770443Y-52905519D02*
G01*
X106836627Y-52912037D01*
X107006466Y-52963557D01*
X107162991Y-53047222D01*
X107198729Y-53076552D01*
X107300186Y-53159814D01*
X107383448Y-53261271D01*
X107412778Y-53297009D01*
X107496443Y-53453534D01*
X107547963Y-53623373D01*
X107565359Y-53800000D01*
X107547963Y-53976627D01*
X107496443Y-54146466D01*
X107412778Y-54302991D01*
X107383448Y-54338729D01*
X107300186Y-54440186D01*
X107198729Y-54523448D01*
X107162991Y-54552778D01*
X107006466Y-54636443D01*
X106836627Y-54687963D01*
X106770443Y-54694481D01*
X106704260Y-54701000D01*
X106615740Y-54701000D01*
X106549557Y-54694481D01*
X106483373Y-54687963D01*
X106313534Y-54636443D01*
X106157009Y-54552778D01*
X106121271Y-54523448D01*
X106019814Y-54440186D01*
X105936552Y-54338729D01*
X105907222Y-54302991D01*
X105823557Y-54146466D01*
X105772037Y-53976627D01*
X105754641Y-53800000D01*
X105772037Y-53623373D01*
X105823557Y-53453534D01*
X105907222Y-53297009D01*
X105936552Y-53261271D01*
X106019814Y-53159814D01*
X106121271Y-53076552D01*
X106157009Y-53047222D01*
X106313534Y-52963557D01*
X106483373Y-52912037D01*
X106549557Y-52905519D01*
X106615740Y-52899000D01*
X106704260Y-52899000D01*
X106770443Y-52905519D01*
X106770443Y-52905519D01*
G37*
G36*
X63590443Y-52905519D02*
G01*
X63656627Y-52912037D01*
X63826466Y-52963557D01*
X63982991Y-53047222D01*
X64018729Y-53076552D01*
X64120186Y-53159814D01*
X64203448Y-53261271D01*
X64232778Y-53297009D01*
X64316443Y-53453534D01*
X64367963Y-53623373D01*
X64385359Y-53800000D01*
X64367963Y-53976627D01*
X64316443Y-54146466D01*
X64232778Y-54302991D01*
X64203448Y-54338729D01*
X64120186Y-54440186D01*
X64018729Y-54523448D01*
X63982991Y-54552778D01*
X63826466Y-54636443D01*
X63656627Y-54687963D01*
X63590443Y-54694481D01*
X63524260Y-54701000D01*
X63435740Y-54701000D01*
X63369557Y-54694481D01*
X63303373Y-54687963D01*
X63133534Y-54636443D01*
X62977009Y-54552778D01*
X62941271Y-54523448D01*
X62839814Y-54440186D01*
X62756552Y-54338729D01*
X62727222Y-54302991D01*
X62643557Y-54146466D01*
X62592037Y-53976627D01*
X62574641Y-53800000D01*
X62592037Y-53623373D01*
X62643557Y-53453534D01*
X62727222Y-53297009D01*
X62756552Y-53261271D01*
X62839814Y-53159814D01*
X62941271Y-53076552D01*
X62977009Y-53047222D01*
X63133534Y-52963557D01*
X63303373Y-52912037D01*
X63369557Y-52905519D01*
X63435740Y-52899000D01*
X63524260Y-52899000D01*
X63590443Y-52905519D01*
X63590443Y-52905519D01*
G37*
G36*
X66130443Y-52905519D02*
G01*
X66196627Y-52912037D01*
X66366466Y-52963557D01*
X66522991Y-53047222D01*
X66558729Y-53076552D01*
X66660186Y-53159814D01*
X66743448Y-53261271D01*
X66772778Y-53297009D01*
X66856443Y-53453534D01*
X66907963Y-53623373D01*
X66925359Y-53800000D01*
X66907963Y-53976627D01*
X66856443Y-54146466D01*
X66772778Y-54302991D01*
X66743448Y-54338729D01*
X66660186Y-54440186D01*
X66558729Y-54523448D01*
X66522991Y-54552778D01*
X66366466Y-54636443D01*
X66196627Y-54687963D01*
X66130443Y-54694481D01*
X66064260Y-54701000D01*
X65975740Y-54701000D01*
X65909557Y-54694481D01*
X65843373Y-54687963D01*
X65673534Y-54636443D01*
X65517009Y-54552778D01*
X65481271Y-54523448D01*
X65379814Y-54440186D01*
X65296552Y-54338729D01*
X65267222Y-54302991D01*
X65183557Y-54146466D01*
X65132037Y-53976627D01*
X65114641Y-53800000D01*
X65132037Y-53623373D01*
X65183557Y-53453534D01*
X65267222Y-53297009D01*
X65296552Y-53261271D01*
X65379814Y-53159814D01*
X65481271Y-53076552D01*
X65517009Y-53047222D01*
X65673534Y-52963557D01*
X65843373Y-52912037D01*
X65909557Y-52905519D01*
X65975740Y-52899000D01*
X66064260Y-52899000D01*
X66130443Y-52905519D01*
X66130443Y-52905519D01*
G37*
G36*
X68670443Y-52905519D02*
G01*
X68736627Y-52912037D01*
X68906466Y-52963557D01*
X69062991Y-53047222D01*
X69098729Y-53076552D01*
X69200186Y-53159814D01*
X69283448Y-53261271D01*
X69312778Y-53297009D01*
X69396443Y-53453534D01*
X69447963Y-53623373D01*
X69465359Y-53800000D01*
X69447963Y-53976627D01*
X69396443Y-54146466D01*
X69312778Y-54302991D01*
X69283448Y-54338729D01*
X69200186Y-54440186D01*
X69098729Y-54523448D01*
X69062991Y-54552778D01*
X68906466Y-54636443D01*
X68736627Y-54687963D01*
X68670443Y-54694481D01*
X68604260Y-54701000D01*
X68515740Y-54701000D01*
X68449557Y-54694481D01*
X68383373Y-54687963D01*
X68213534Y-54636443D01*
X68057009Y-54552778D01*
X68021271Y-54523448D01*
X67919814Y-54440186D01*
X67836552Y-54338729D01*
X67807222Y-54302991D01*
X67723557Y-54146466D01*
X67672037Y-53976627D01*
X67654641Y-53800000D01*
X67672037Y-53623373D01*
X67723557Y-53453534D01*
X67807222Y-53297009D01*
X67836552Y-53261271D01*
X67919814Y-53159814D01*
X68021271Y-53076552D01*
X68057009Y-53047222D01*
X68213534Y-52963557D01*
X68383373Y-52912037D01*
X68449557Y-52905519D01*
X68515740Y-52899000D01*
X68604260Y-52899000D01*
X68670443Y-52905519D01*
X68670443Y-52905519D01*
G37*
G36*
X71210443Y-52905519D02*
G01*
X71276627Y-52912037D01*
X71446466Y-52963557D01*
X71602991Y-53047222D01*
X71638729Y-53076552D01*
X71740186Y-53159814D01*
X71823448Y-53261271D01*
X71852778Y-53297009D01*
X71936443Y-53453534D01*
X71987963Y-53623373D01*
X72005359Y-53800000D01*
X71987963Y-53976627D01*
X71936443Y-54146466D01*
X71852778Y-54302991D01*
X71823448Y-54338729D01*
X71740186Y-54440186D01*
X71638729Y-54523448D01*
X71602991Y-54552778D01*
X71446466Y-54636443D01*
X71276627Y-54687963D01*
X71210443Y-54694481D01*
X71144260Y-54701000D01*
X71055740Y-54701000D01*
X70989557Y-54694481D01*
X70923373Y-54687963D01*
X70753534Y-54636443D01*
X70597009Y-54552778D01*
X70561271Y-54523448D01*
X70459814Y-54440186D01*
X70376552Y-54338729D01*
X70347222Y-54302991D01*
X70263557Y-54146466D01*
X70212037Y-53976627D01*
X70194641Y-53800000D01*
X70212037Y-53623373D01*
X70263557Y-53453534D01*
X70347222Y-53297009D01*
X70376552Y-53261271D01*
X70459814Y-53159814D01*
X70561271Y-53076552D01*
X70597009Y-53047222D01*
X70753534Y-52963557D01*
X70923373Y-52912037D01*
X70989557Y-52905519D01*
X71055740Y-52899000D01*
X71144260Y-52899000D01*
X71210443Y-52905519D01*
X71210443Y-52905519D01*
G37*
G36*
X88990443Y-50365519D02*
G01*
X89056627Y-50372037D01*
X89226466Y-50423557D01*
X89382991Y-50507222D01*
X89418729Y-50536552D01*
X89520186Y-50619814D01*
X89603448Y-50721271D01*
X89632778Y-50757009D01*
X89716443Y-50913534D01*
X89767963Y-51083373D01*
X89785359Y-51260000D01*
X89767963Y-51436627D01*
X89716443Y-51606466D01*
X89632778Y-51762991D01*
X89603448Y-51798729D01*
X89520186Y-51900186D01*
X89418729Y-51983448D01*
X89382991Y-52012778D01*
X89226466Y-52096443D01*
X89056627Y-52147963D01*
X88990443Y-52154481D01*
X88924260Y-52161000D01*
X88835740Y-52161000D01*
X88769558Y-52154482D01*
X88703373Y-52147963D01*
X88533534Y-52096443D01*
X88377009Y-52012778D01*
X88341271Y-51983448D01*
X88239814Y-51900186D01*
X88156552Y-51798729D01*
X88127222Y-51762991D01*
X88043557Y-51606466D01*
X87992037Y-51436627D01*
X87974641Y-51260000D01*
X87992037Y-51083373D01*
X88043557Y-50913534D01*
X88127222Y-50757009D01*
X88156552Y-50721271D01*
X88239814Y-50619814D01*
X88341271Y-50536552D01*
X88377009Y-50507222D01*
X88533534Y-50423557D01*
X88703373Y-50372037D01*
X88769557Y-50365519D01*
X88835740Y-50359000D01*
X88924260Y-50359000D01*
X88990443Y-50365519D01*
X88990443Y-50365519D01*
G37*
G36*
X83910443Y-50365519D02*
G01*
X83976627Y-50372037D01*
X84146466Y-50423557D01*
X84302991Y-50507222D01*
X84338729Y-50536552D01*
X84440186Y-50619814D01*
X84523448Y-50721271D01*
X84552778Y-50757009D01*
X84636443Y-50913534D01*
X84687963Y-51083373D01*
X84705359Y-51260000D01*
X84687963Y-51436627D01*
X84636443Y-51606466D01*
X84552778Y-51762991D01*
X84523448Y-51798729D01*
X84440186Y-51900186D01*
X84338729Y-51983448D01*
X84302991Y-52012778D01*
X84146466Y-52096443D01*
X83976627Y-52147963D01*
X83910443Y-52154481D01*
X83844260Y-52161000D01*
X83755740Y-52161000D01*
X83689558Y-52154482D01*
X83623373Y-52147963D01*
X83453534Y-52096443D01*
X83297009Y-52012778D01*
X83261271Y-51983448D01*
X83159814Y-51900186D01*
X83076552Y-51798729D01*
X83047222Y-51762991D01*
X82963557Y-51606466D01*
X82912037Y-51436627D01*
X82894641Y-51260000D01*
X82912037Y-51083373D01*
X82963557Y-50913534D01*
X83047222Y-50757009D01*
X83076552Y-50721271D01*
X83159814Y-50619814D01*
X83261271Y-50536552D01*
X83297009Y-50507222D01*
X83453534Y-50423557D01*
X83623373Y-50372037D01*
X83689557Y-50365519D01*
X83755740Y-50359000D01*
X83844260Y-50359000D01*
X83910443Y-50365519D01*
X83910443Y-50365519D01*
G37*
G36*
X86450443Y-50365519D02*
G01*
X86516627Y-50372037D01*
X86686466Y-50423557D01*
X86842991Y-50507222D01*
X86878729Y-50536552D01*
X86980186Y-50619814D01*
X87063448Y-50721271D01*
X87092778Y-50757009D01*
X87176443Y-50913534D01*
X87227963Y-51083373D01*
X87245359Y-51260000D01*
X87227963Y-51436627D01*
X87176443Y-51606466D01*
X87092778Y-51762991D01*
X87063448Y-51798729D01*
X86980186Y-51900186D01*
X86878729Y-51983448D01*
X86842991Y-52012778D01*
X86686466Y-52096443D01*
X86516627Y-52147963D01*
X86450443Y-52154481D01*
X86384260Y-52161000D01*
X86295740Y-52161000D01*
X86229558Y-52154482D01*
X86163373Y-52147963D01*
X85993534Y-52096443D01*
X85837009Y-52012778D01*
X85801271Y-51983448D01*
X85699814Y-51900186D01*
X85616552Y-51798729D01*
X85587222Y-51762991D01*
X85503557Y-51606466D01*
X85452037Y-51436627D01*
X85434641Y-51260000D01*
X85452037Y-51083373D01*
X85503557Y-50913534D01*
X85587222Y-50757009D01*
X85616552Y-50721271D01*
X85699814Y-50619814D01*
X85801271Y-50536552D01*
X85837009Y-50507222D01*
X85993534Y-50423557D01*
X86163373Y-50372037D01*
X86229557Y-50365519D01*
X86295740Y-50359000D01*
X86384260Y-50359000D01*
X86450443Y-50365519D01*
X86450443Y-50365519D01*
G37*
G36*
X106770443Y-50365519D02*
G01*
X106836627Y-50372037D01*
X107006466Y-50423557D01*
X107162991Y-50507222D01*
X107198729Y-50536552D01*
X107300186Y-50619814D01*
X107383448Y-50721271D01*
X107412778Y-50757009D01*
X107496443Y-50913534D01*
X107547963Y-51083373D01*
X107565359Y-51260000D01*
X107547963Y-51436627D01*
X107496443Y-51606466D01*
X107412778Y-51762991D01*
X107383448Y-51798729D01*
X107300186Y-51900186D01*
X107198729Y-51983448D01*
X107162991Y-52012778D01*
X107006466Y-52096443D01*
X106836627Y-52147963D01*
X106770443Y-52154481D01*
X106704260Y-52161000D01*
X106615740Y-52161000D01*
X106549558Y-52154482D01*
X106483373Y-52147963D01*
X106313534Y-52096443D01*
X106157009Y-52012778D01*
X106121271Y-51983448D01*
X106019814Y-51900186D01*
X105936552Y-51798729D01*
X105907222Y-51762991D01*
X105823557Y-51606466D01*
X105772037Y-51436627D01*
X105754641Y-51260000D01*
X105772037Y-51083373D01*
X105823557Y-50913534D01*
X105907222Y-50757009D01*
X105936552Y-50721271D01*
X106019814Y-50619814D01*
X106121271Y-50536552D01*
X106157009Y-50507222D01*
X106313534Y-50423557D01*
X106483373Y-50372037D01*
X106549557Y-50365519D01*
X106615740Y-50359000D01*
X106704260Y-50359000D01*
X106770443Y-50365519D01*
X106770443Y-50365519D01*
G37*
G36*
X104230443Y-50365519D02*
G01*
X104296627Y-50372037D01*
X104466466Y-50423557D01*
X104622991Y-50507222D01*
X104658729Y-50536552D01*
X104760186Y-50619814D01*
X104843448Y-50721271D01*
X104872778Y-50757009D01*
X104956443Y-50913534D01*
X105007963Y-51083373D01*
X105025359Y-51260000D01*
X105007963Y-51436627D01*
X104956443Y-51606466D01*
X104872778Y-51762991D01*
X104843448Y-51798729D01*
X104760186Y-51900186D01*
X104658729Y-51983448D01*
X104622991Y-52012778D01*
X104466466Y-52096443D01*
X104296627Y-52147963D01*
X104230443Y-52154481D01*
X104164260Y-52161000D01*
X104075740Y-52161000D01*
X104009558Y-52154482D01*
X103943373Y-52147963D01*
X103773534Y-52096443D01*
X103617009Y-52012778D01*
X103581271Y-51983448D01*
X103479814Y-51900186D01*
X103396552Y-51798729D01*
X103367222Y-51762991D01*
X103283557Y-51606466D01*
X103232037Y-51436627D01*
X103214641Y-51260000D01*
X103232037Y-51083373D01*
X103283557Y-50913534D01*
X103367222Y-50757009D01*
X103396552Y-50721271D01*
X103479814Y-50619814D01*
X103581271Y-50536552D01*
X103617009Y-50507222D01*
X103773534Y-50423557D01*
X103943373Y-50372037D01*
X104009557Y-50365519D01*
X104075740Y-50359000D01*
X104164260Y-50359000D01*
X104230443Y-50365519D01*
X104230443Y-50365519D01*
G37*
G36*
X99150443Y-50365519D02*
G01*
X99216627Y-50372037D01*
X99386466Y-50423557D01*
X99542991Y-50507222D01*
X99578729Y-50536552D01*
X99680186Y-50619814D01*
X99763448Y-50721271D01*
X99792778Y-50757009D01*
X99876443Y-50913534D01*
X99927963Y-51083373D01*
X99945359Y-51260000D01*
X99927963Y-51436627D01*
X99876443Y-51606466D01*
X99792778Y-51762991D01*
X99763448Y-51798729D01*
X99680186Y-51900186D01*
X99578729Y-51983448D01*
X99542991Y-52012778D01*
X99386466Y-52096443D01*
X99216627Y-52147963D01*
X99150443Y-52154481D01*
X99084260Y-52161000D01*
X98995740Y-52161000D01*
X98929558Y-52154482D01*
X98863373Y-52147963D01*
X98693534Y-52096443D01*
X98537009Y-52012778D01*
X98501271Y-51983448D01*
X98399814Y-51900186D01*
X98316552Y-51798729D01*
X98287222Y-51762991D01*
X98203557Y-51606466D01*
X98152037Y-51436627D01*
X98134641Y-51260000D01*
X98152037Y-51083373D01*
X98203557Y-50913534D01*
X98287222Y-50757009D01*
X98316552Y-50721271D01*
X98399814Y-50619814D01*
X98501271Y-50536552D01*
X98537009Y-50507222D01*
X98693534Y-50423557D01*
X98863373Y-50372037D01*
X98929557Y-50365519D01*
X98995740Y-50359000D01*
X99084260Y-50359000D01*
X99150443Y-50365519D01*
X99150443Y-50365519D01*
G37*
G36*
X96610443Y-50365519D02*
G01*
X96676627Y-50372037D01*
X96846466Y-50423557D01*
X97002991Y-50507222D01*
X97038729Y-50536552D01*
X97140186Y-50619814D01*
X97223448Y-50721271D01*
X97252778Y-50757009D01*
X97336443Y-50913534D01*
X97387963Y-51083373D01*
X97405359Y-51260000D01*
X97387963Y-51436627D01*
X97336443Y-51606466D01*
X97252778Y-51762991D01*
X97223448Y-51798729D01*
X97140186Y-51900186D01*
X97038729Y-51983448D01*
X97002991Y-52012778D01*
X96846466Y-52096443D01*
X96676627Y-52147963D01*
X96610443Y-52154481D01*
X96544260Y-52161000D01*
X96455740Y-52161000D01*
X96389558Y-52154482D01*
X96323373Y-52147963D01*
X96153534Y-52096443D01*
X95997009Y-52012778D01*
X95961271Y-51983448D01*
X95859814Y-51900186D01*
X95776552Y-51798729D01*
X95747222Y-51762991D01*
X95663557Y-51606466D01*
X95612037Y-51436627D01*
X95594641Y-51260000D01*
X95612037Y-51083373D01*
X95663557Y-50913534D01*
X95747222Y-50757009D01*
X95776552Y-50721271D01*
X95859814Y-50619814D01*
X95961271Y-50536552D01*
X95997009Y-50507222D01*
X96153534Y-50423557D01*
X96323373Y-50372037D01*
X96389557Y-50365519D01*
X96455740Y-50359000D01*
X96544260Y-50359000D01*
X96610443Y-50365519D01*
X96610443Y-50365519D01*
G37*
G36*
X94070443Y-50365519D02*
G01*
X94136627Y-50372037D01*
X94306466Y-50423557D01*
X94462991Y-50507222D01*
X94498729Y-50536552D01*
X94600186Y-50619814D01*
X94683448Y-50721271D01*
X94712778Y-50757009D01*
X94796443Y-50913534D01*
X94847963Y-51083373D01*
X94865359Y-51260000D01*
X94847963Y-51436627D01*
X94796443Y-51606466D01*
X94712778Y-51762991D01*
X94683448Y-51798729D01*
X94600186Y-51900186D01*
X94498729Y-51983448D01*
X94462991Y-52012778D01*
X94306466Y-52096443D01*
X94136627Y-52147963D01*
X94070443Y-52154481D01*
X94004260Y-52161000D01*
X93915740Y-52161000D01*
X93849558Y-52154482D01*
X93783373Y-52147963D01*
X93613534Y-52096443D01*
X93457009Y-52012778D01*
X93421271Y-51983448D01*
X93319814Y-51900186D01*
X93236552Y-51798729D01*
X93207222Y-51762991D01*
X93123557Y-51606466D01*
X93072037Y-51436627D01*
X93054641Y-51260000D01*
X93072037Y-51083373D01*
X93123557Y-50913534D01*
X93207222Y-50757009D01*
X93236552Y-50721271D01*
X93319814Y-50619814D01*
X93421271Y-50536552D01*
X93457009Y-50507222D01*
X93613534Y-50423557D01*
X93783373Y-50372037D01*
X93849557Y-50365519D01*
X93915740Y-50359000D01*
X94004260Y-50359000D01*
X94070443Y-50365519D01*
X94070443Y-50365519D01*
G37*
G36*
X91530443Y-50365519D02*
G01*
X91596627Y-50372037D01*
X91766466Y-50423557D01*
X91922991Y-50507222D01*
X91958729Y-50536552D01*
X92060186Y-50619814D01*
X92143448Y-50721271D01*
X92172778Y-50757009D01*
X92256443Y-50913534D01*
X92307963Y-51083373D01*
X92325359Y-51260000D01*
X92307963Y-51436627D01*
X92256443Y-51606466D01*
X92172778Y-51762991D01*
X92143448Y-51798729D01*
X92060186Y-51900186D01*
X91958729Y-51983448D01*
X91922991Y-52012778D01*
X91766466Y-52096443D01*
X91596627Y-52147963D01*
X91530443Y-52154481D01*
X91464260Y-52161000D01*
X91375740Y-52161000D01*
X91309558Y-52154482D01*
X91243373Y-52147963D01*
X91073534Y-52096443D01*
X90917009Y-52012778D01*
X90881271Y-51983448D01*
X90779814Y-51900186D01*
X90696552Y-51798729D01*
X90667222Y-51762991D01*
X90583557Y-51606466D01*
X90532037Y-51436627D01*
X90514641Y-51260000D01*
X90532037Y-51083373D01*
X90583557Y-50913534D01*
X90667222Y-50757009D01*
X90696552Y-50721271D01*
X90779814Y-50619814D01*
X90881271Y-50536552D01*
X90917009Y-50507222D01*
X91073534Y-50423557D01*
X91243373Y-50372037D01*
X91309557Y-50365519D01*
X91375740Y-50359000D01*
X91464260Y-50359000D01*
X91530443Y-50365519D01*
X91530443Y-50365519D01*
G37*
G36*
X68670443Y-50365519D02*
G01*
X68736627Y-50372037D01*
X68906466Y-50423557D01*
X69062991Y-50507222D01*
X69098729Y-50536552D01*
X69200186Y-50619814D01*
X69283448Y-50721271D01*
X69312778Y-50757009D01*
X69396443Y-50913534D01*
X69447963Y-51083373D01*
X69465359Y-51260000D01*
X69447963Y-51436627D01*
X69396443Y-51606466D01*
X69312778Y-51762991D01*
X69283448Y-51798729D01*
X69200186Y-51900186D01*
X69098729Y-51983448D01*
X69062991Y-52012778D01*
X68906466Y-52096443D01*
X68736627Y-52147963D01*
X68670443Y-52154481D01*
X68604260Y-52161000D01*
X68515740Y-52161000D01*
X68449558Y-52154482D01*
X68383373Y-52147963D01*
X68213534Y-52096443D01*
X68057009Y-52012778D01*
X68021271Y-51983448D01*
X67919814Y-51900186D01*
X67836552Y-51798729D01*
X67807222Y-51762991D01*
X67723557Y-51606466D01*
X67672037Y-51436627D01*
X67654641Y-51260000D01*
X67672037Y-51083373D01*
X67723557Y-50913534D01*
X67807222Y-50757009D01*
X67836552Y-50721271D01*
X67919814Y-50619814D01*
X68021271Y-50536552D01*
X68057009Y-50507222D01*
X68213534Y-50423557D01*
X68383373Y-50372037D01*
X68449557Y-50365519D01*
X68515740Y-50359000D01*
X68604260Y-50359000D01*
X68670443Y-50365519D01*
X68670443Y-50365519D01*
G37*
G36*
X71210443Y-50365519D02*
G01*
X71276627Y-50372037D01*
X71446466Y-50423557D01*
X71602991Y-50507222D01*
X71638729Y-50536552D01*
X71740186Y-50619814D01*
X71823448Y-50721271D01*
X71852778Y-50757009D01*
X71936443Y-50913534D01*
X71987963Y-51083373D01*
X72005359Y-51260000D01*
X71987963Y-51436627D01*
X71936443Y-51606466D01*
X71852778Y-51762991D01*
X71823448Y-51798729D01*
X71740186Y-51900186D01*
X71638729Y-51983448D01*
X71602991Y-52012778D01*
X71446466Y-52096443D01*
X71276627Y-52147963D01*
X71210443Y-52154481D01*
X71144260Y-52161000D01*
X71055740Y-52161000D01*
X70989558Y-52154482D01*
X70923373Y-52147963D01*
X70753534Y-52096443D01*
X70597009Y-52012778D01*
X70561271Y-51983448D01*
X70459814Y-51900186D01*
X70376552Y-51798729D01*
X70347222Y-51762991D01*
X70263557Y-51606466D01*
X70212037Y-51436627D01*
X70194641Y-51260000D01*
X70212037Y-51083373D01*
X70263557Y-50913534D01*
X70347222Y-50757009D01*
X70376552Y-50721271D01*
X70459814Y-50619814D01*
X70561271Y-50536552D01*
X70597009Y-50507222D01*
X70753534Y-50423557D01*
X70923373Y-50372037D01*
X70989557Y-50365519D01*
X71055740Y-50359000D01*
X71144260Y-50359000D01*
X71210443Y-50365519D01*
X71210443Y-50365519D01*
G37*
G36*
X73750443Y-50365519D02*
G01*
X73816627Y-50372037D01*
X73986466Y-50423557D01*
X74142991Y-50507222D01*
X74178729Y-50536552D01*
X74280186Y-50619814D01*
X74363448Y-50721271D01*
X74392778Y-50757009D01*
X74476443Y-50913534D01*
X74527963Y-51083373D01*
X74545359Y-51260000D01*
X74527963Y-51436627D01*
X74476443Y-51606466D01*
X74392778Y-51762991D01*
X74363448Y-51798729D01*
X74280186Y-51900186D01*
X74178729Y-51983448D01*
X74142991Y-52012778D01*
X73986466Y-52096443D01*
X73816627Y-52147963D01*
X73750443Y-52154481D01*
X73684260Y-52161000D01*
X73595740Y-52161000D01*
X73529558Y-52154482D01*
X73463373Y-52147963D01*
X73293534Y-52096443D01*
X73137009Y-52012778D01*
X73101271Y-51983448D01*
X72999814Y-51900186D01*
X72916552Y-51798729D01*
X72887222Y-51762991D01*
X72803557Y-51606466D01*
X72752037Y-51436627D01*
X72734641Y-51260000D01*
X72752037Y-51083373D01*
X72803557Y-50913534D01*
X72887222Y-50757009D01*
X72916552Y-50721271D01*
X72999814Y-50619814D01*
X73101271Y-50536552D01*
X73137009Y-50507222D01*
X73293534Y-50423557D01*
X73463373Y-50372037D01*
X73529557Y-50365519D01*
X73595740Y-50359000D01*
X73684260Y-50359000D01*
X73750443Y-50365519D01*
X73750443Y-50365519D01*
G37*
G36*
X101690443Y-50365519D02*
G01*
X101756627Y-50372037D01*
X101926466Y-50423557D01*
X102082991Y-50507222D01*
X102118729Y-50536552D01*
X102220186Y-50619814D01*
X102303448Y-50721271D01*
X102332778Y-50757009D01*
X102416443Y-50913534D01*
X102467963Y-51083373D01*
X102485359Y-51260000D01*
X102467963Y-51436627D01*
X102416443Y-51606466D01*
X102332778Y-51762991D01*
X102303448Y-51798729D01*
X102220186Y-51900186D01*
X102118729Y-51983448D01*
X102082991Y-52012778D01*
X101926466Y-52096443D01*
X101756627Y-52147963D01*
X101690443Y-52154481D01*
X101624260Y-52161000D01*
X101535740Y-52161000D01*
X101469558Y-52154482D01*
X101403373Y-52147963D01*
X101233534Y-52096443D01*
X101077009Y-52012778D01*
X101041271Y-51983448D01*
X100939814Y-51900186D01*
X100856552Y-51798729D01*
X100827222Y-51762991D01*
X100743557Y-51606466D01*
X100692037Y-51436627D01*
X100674641Y-51260000D01*
X100692037Y-51083373D01*
X100743557Y-50913534D01*
X100827222Y-50757009D01*
X100856552Y-50721271D01*
X100939814Y-50619814D01*
X101041271Y-50536552D01*
X101077009Y-50507222D01*
X101233534Y-50423557D01*
X101403373Y-50372037D01*
X101469557Y-50365519D01*
X101535740Y-50359000D01*
X101624260Y-50359000D01*
X101690443Y-50365519D01*
X101690443Y-50365519D01*
G37*
G36*
X78830443Y-50365519D02*
G01*
X78896627Y-50372037D01*
X79066466Y-50423557D01*
X79222991Y-50507222D01*
X79258729Y-50536552D01*
X79360186Y-50619814D01*
X79443448Y-50721271D01*
X79472778Y-50757009D01*
X79556443Y-50913534D01*
X79607963Y-51083373D01*
X79625359Y-51260000D01*
X79607963Y-51436627D01*
X79556443Y-51606466D01*
X79472778Y-51762991D01*
X79443448Y-51798729D01*
X79360186Y-51900186D01*
X79258729Y-51983448D01*
X79222991Y-52012778D01*
X79066466Y-52096443D01*
X78896627Y-52147963D01*
X78830443Y-52154481D01*
X78764260Y-52161000D01*
X78675740Y-52161000D01*
X78609558Y-52154482D01*
X78543373Y-52147963D01*
X78373534Y-52096443D01*
X78217009Y-52012778D01*
X78181271Y-51983448D01*
X78079814Y-51900186D01*
X77996552Y-51798729D01*
X77967222Y-51762991D01*
X77883557Y-51606466D01*
X77832037Y-51436627D01*
X77814641Y-51260000D01*
X77832037Y-51083373D01*
X77883557Y-50913534D01*
X77967222Y-50757009D01*
X77996552Y-50721271D01*
X78079814Y-50619814D01*
X78181271Y-50536552D01*
X78217009Y-50507222D01*
X78373534Y-50423557D01*
X78543373Y-50372037D01*
X78609557Y-50365519D01*
X78675740Y-50359000D01*
X78764260Y-50359000D01*
X78830443Y-50365519D01*
X78830443Y-50365519D01*
G37*
G36*
X66130443Y-50365519D02*
G01*
X66196627Y-50372037D01*
X66366466Y-50423557D01*
X66522991Y-50507222D01*
X66558729Y-50536552D01*
X66660186Y-50619814D01*
X66743448Y-50721271D01*
X66772778Y-50757009D01*
X66856443Y-50913534D01*
X66907963Y-51083373D01*
X66925359Y-51260000D01*
X66907963Y-51436627D01*
X66856443Y-51606466D01*
X66772778Y-51762991D01*
X66743448Y-51798729D01*
X66660186Y-51900186D01*
X66558729Y-51983448D01*
X66522991Y-52012778D01*
X66366466Y-52096443D01*
X66196627Y-52147963D01*
X66130443Y-52154481D01*
X66064260Y-52161000D01*
X65975740Y-52161000D01*
X65909558Y-52154482D01*
X65843373Y-52147963D01*
X65673534Y-52096443D01*
X65517009Y-52012778D01*
X65481271Y-51983448D01*
X65379814Y-51900186D01*
X65296552Y-51798729D01*
X65267222Y-51762991D01*
X65183557Y-51606466D01*
X65132037Y-51436627D01*
X65114641Y-51260000D01*
X65132037Y-51083373D01*
X65183557Y-50913534D01*
X65267222Y-50757009D01*
X65296552Y-50721271D01*
X65379814Y-50619814D01*
X65481271Y-50536552D01*
X65517009Y-50507222D01*
X65673534Y-50423557D01*
X65843373Y-50372037D01*
X65909557Y-50365519D01*
X65975740Y-50359000D01*
X66064260Y-50359000D01*
X66130443Y-50365519D01*
X66130443Y-50365519D01*
G37*
G36*
X63590443Y-50365519D02*
G01*
X63656627Y-50372037D01*
X63826466Y-50423557D01*
X63982991Y-50507222D01*
X64018729Y-50536552D01*
X64120186Y-50619814D01*
X64203448Y-50721271D01*
X64232778Y-50757009D01*
X64316443Y-50913534D01*
X64367963Y-51083373D01*
X64385359Y-51260000D01*
X64367963Y-51436627D01*
X64316443Y-51606466D01*
X64232778Y-51762991D01*
X64203448Y-51798729D01*
X64120186Y-51900186D01*
X64018729Y-51983448D01*
X63982991Y-52012778D01*
X63826466Y-52096443D01*
X63656627Y-52147963D01*
X63590443Y-52154481D01*
X63524260Y-52161000D01*
X63435740Y-52161000D01*
X63369558Y-52154482D01*
X63303373Y-52147963D01*
X63133534Y-52096443D01*
X62977009Y-52012778D01*
X62941271Y-51983448D01*
X62839814Y-51900186D01*
X62756552Y-51798729D01*
X62727222Y-51762991D01*
X62643557Y-51606466D01*
X62592037Y-51436627D01*
X62574641Y-51260000D01*
X62592037Y-51083373D01*
X62643557Y-50913534D01*
X62727222Y-50757009D01*
X62756552Y-50721271D01*
X62839814Y-50619814D01*
X62941271Y-50536552D01*
X62977009Y-50507222D01*
X63133534Y-50423557D01*
X63303373Y-50372037D01*
X63369557Y-50365519D01*
X63435740Y-50359000D01*
X63524260Y-50359000D01*
X63590443Y-50365519D01*
X63590443Y-50365519D01*
G37*
G36*
X81370443Y-50365519D02*
G01*
X81436627Y-50372037D01*
X81606466Y-50423557D01*
X81762991Y-50507222D01*
X81798729Y-50536552D01*
X81900186Y-50619814D01*
X81983448Y-50721271D01*
X82012778Y-50757009D01*
X82096443Y-50913534D01*
X82147963Y-51083373D01*
X82165359Y-51260000D01*
X82147963Y-51436627D01*
X82096443Y-51606466D01*
X82012778Y-51762991D01*
X81983448Y-51798729D01*
X81900186Y-51900186D01*
X81798729Y-51983448D01*
X81762991Y-52012778D01*
X81606466Y-52096443D01*
X81436627Y-52147963D01*
X81370443Y-52154481D01*
X81304260Y-52161000D01*
X81215740Y-52161000D01*
X81149558Y-52154482D01*
X81083373Y-52147963D01*
X80913534Y-52096443D01*
X80757009Y-52012778D01*
X80721271Y-51983448D01*
X80619814Y-51900186D01*
X80536552Y-51798729D01*
X80507222Y-51762991D01*
X80423557Y-51606466D01*
X80372037Y-51436627D01*
X80354641Y-51260000D01*
X80372037Y-51083373D01*
X80423557Y-50913534D01*
X80507222Y-50757009D01*
X80536552Y-50721271D01*
X80619814Y-50619814D01*
X80721271Y-50536552D01*
X80757009Y-50507222D01*
X80913534Y-50423557D01*
X81083373Y-50372037D01*
X81149557Y-50365519D01*
X81215740Y-50359000D01*
X81304260Y-50359000D01*
X81370443Y-50365519D01*
X81370443Y-50365519D01*
G37*
G36*
X61050443Y-50365519D02*
G01*
X61116627Y-50372037D01*
X61286466Y-50423557D01*
X61442991Y-50507222D01*
X61478729Y-50536552D01*
X61580186Y-50619814D01*
X61663448Y-50721271D01*
X61692778Y-50757009D01*
X61776443Y-50913534D01*
X61827963Y-51083373D01*
X61845359Y-51260000D01*
X61827963Y-51436627D01*
X61776443Y-51606466D01*
X61692778Y-51762991D01*
X61663448Y-51798729D01*
X61580186Y-51900186D01*
X61478729Y-51983448D01*
X61442991Y-52012778D01*
X61286466Y-52096443D01*
X61116627Y-52147963D01*
X61050443Y-52154481D01*
X60984260Y-52161000D01*
X60895740Y-52161000D01*
X60829558Y-52154482D01*
X60763373Y-52147963D01*
X60593534Y-52096443D01*
X60437009Y-52012778D01*
X60401271Y-51983448D01*
X60299814Y-51900186D01*
X60216552Y-51798729D01*
X60187222Y-51762991D01*
X60103557Y-51606466D01*
X60052037Y-51436627D01*
X60034641Y-51260000D01*
X60052037Y-51083373D01*
X60103557Y-50913534D01*
X60187222Y-50757009D01*
X60216552Y-50721271D01*
X60299814Y-50619814D01*
X60401271Y-50536552D01*
X60437009Y-50507222D01*
X60593534Y-50423557D01*
X60763373Y-50372037D01*
X60829557Y-50365519D01*
X60895740Y-50359000D01*
X60984260Y-50359000D01*
X61050443Y-50365519D01*
X61050443Y-50365519D01*
G37*
G36*
X58510443Y-50365519D02*
G01*
X58576627Y-50372037D01*
X58746466Y-50423557D01*
X58902991Y-50507222D01*
X58938729Y-50536552D01*
X59040186Y-50619814D01*
X59123448Y-50721271D01*
X59152778Y-50757009D01*
X59236443Y-50913534D01*
X59287963Y-51083373D01*
X59305359Y-51260000D01*
X59287963Y-51436627D01*
X59236443Y-51606466D01*
X59152778Y-51762991D01*
X59123448Y-51798729D01*
X59040186Y-51900186D01*
X58938729Y-51983448D01*
X58902991Y-52012778D01*
X58746466Y-52096443D01*
X58576627Y-52147963D01*
X58510443Y-52154481D01*
X58444260Y-52161000D01*
X58355740Y-52161000D01*
X58289558Y-52154482D01*
X58223373Y-52147963D01*
X58053534Y-52096443D01*
X57897009Y-52012778D01*
X57861271Y-51983448D01*
X57759814Y-51900186D01*
X57676552Y-51798729D01*
X57647222Y-51762991D01*
X57563557Y-51606466D01*
X57512037Y-51436627D01*
X57494641Y-51260000D01*
X57512037Y-51083373D01*
X57563557Y-50913534D01*
X57647222Y-50757009D01*
X57676552Y-50721271D01*
X57759814Y-50619814D01*
X57861271Y-50536552D01*
X57897009Y-50507222D01*
X58053534Y-50423557D01*
X58223373Y-50372037D01*
X58289557Y-50365519D01*
X58355740Y-50359000D01*
X58444260Y-50359000D01*
X58510443Y-50365519D01*
X58510443Y-50365519D01*
G37*
G36*
X76290443Y-50365519D02*
G01*
X76356627Y-50372037D01*
X76526466Y-50423557D01*
X76682991Y-50507222D01*
X76718729Y-50536552D01*
X76820186Y-50619814D01*
X76903448Y-50721271D01*
X76932778Y-50757009D01*
X77016443Y-50913534D01*
X77067963Y-51083373D01*
X77085359Y-51260000D01*
X77067963Y-51436627D01*
X77016443Y-51606466D01*
X76932778Y-51762991D01*
X76903448Y-51798729D01*
X76820186Y-51900186D01*
X76718729Y-51983448D01*
X76682991Y-52012778D01*
X76526466Y-52096443D01*
X76356627Y-52147963D01*
X76290443Y-52154481D01*
X76224260Y-52161000D01*
X76135740Y-52161000D01*
X76069558Y-52154482D01*
X76003373Y-52147963D01*
X75833534Y-52096443D01*
X75677009Y-52012778D01*
X75641271Y-51983448D01*
X75539814Y-51900186D01*
X75456552Y-51798729D01*
X75427222Y-51762991D01*
X75343557Y-51606466D01*
X75292037Y-51436627D01*
X75274641Y-51260000D01*
X75292037Y-51083373D01*
X75343557Y-50913534D01*
X75427222Y-50757009D01*
X75456552Y-50721271D01*
X75539814Y-50619814D01*
X75641271Y-50536552D01*
X75677009Y-50507222D01*
X75833534Y-50423557D01*
X76003373Y-50372037D01*
X76069557Y-50365519D01*
X76135740Y-50359000D01*
X76224260Y-50359000D01*
X76290443Y-50365519D01*
X76290443Y-50365519D01*
G37*
M02*
