G04 #@! TF.GenerationSoftware,KiCad,Pcbnew,5.1.2*
G04 #@! TF.CreationDate,2019-07-27T17:59:41+02:00*
G04 #@! TF.ProjectId,solarcampi,736f6c61-7263-4616-9d70-692e6b696361,C*
G04 #@! TF.SameCoordinates,Original*
G04 #@! TF.FileFunction,Legend,Bot*
G04 #@! TF.FilePolarity,Positive*
%FSLAX46Y46*%
G04 Gerber Fmt 4.6, Leading zero omitted, Abs format (unit mm)*
G04 Created by KiCad (PCBNEW 5.1.2) date 2019-07-27 17:59:41*
%MOMM*%
%LPD*%
G04 APERTURE LIST*
%ADD10C,0.150000*%
%ADD11C,0.300000*%
%ADD12C,0.120000*%
G04 APERTURE END LIST*
D10*
X51201428Y-58169047D02*
X51201428Y-58930952D01*
X51550952Y-63701428D02*
X50789047Y-63701428D01*
X51170000Y-64082380D02*
X51170000Y-63320476D01*
X50682380Y-59856666D02*
X51682380Y-60190000D01*
X50682380Y-60523333D01*
X51682380Y-60856666D02*
X50682380Y-60856666D01*
X50682380Y-61094761D01*
X50730000Y-61237619D01*
X50825238Y-61332857D01*
X50920476Y-61380476D01*
X51110952Y-61428095D01*
X51253809Y-61428095D01*
X51444285Y-61380476D01*
X51539523Y-61332857D01*
X51634761Y-61237619D01*
X51682380Y-61094761D01*
X51682380Y-60856666D01*
X51587142Y-62428095D02*
X51634761Y-62380476D01*
X51682380Y-62237619D01*
X51682380Y-62142380D01*
X51634761Y-61999523D01*
X51539523Y-61904285D01*
X51444285Y-61856666D01*
X51253809Y-61809047D01*
X51110952Y-61809047D01*
X50920476Y-61856666D01*
X50825238Y-61904285D01*
X50730000Y-61999523D01*
X50682380Y-62142380D01*
X50682380Y-62237619D01*
X50730000Y-62380476D01*
X50777619Y-62428095D01*
X68420952Y-76641428D02*
X67659047Y-76641428D01*
X58240952Y-76641428D02*
X57479047Y-76641428D01*
X57860000Y-77022380D02*
X57860000Y-76260476D01*
X61398095Y-74054761D02*
X61255238Y-74102380D01*
X61017142Y-74102380D01*
X60921904Y-74054761D01*
X60874285Y-74007142D01*
X60826666Y-73911904D01*
X60826666Y-73816666D01*
X60874285Y-73721428D01*
X60921904Y-73673809D01*
X61017142Y-73626190D01*
X61207619Y-73578571D01*
X61302857Y-73530952D01*
X61350476Y-73483333D01*
X61398095Y-73388095D01*
X61398095Y-73292857D01*
X61350476Y-73197619D01*
X61302857Y-73150000D01*
X61207619Y-73102380D01*
X60969523Y-73102380D01*
X60826666Y-73150000D01*
X60398095Y-74102380D02*
X60398095Y-73102380D01*
X60398095Y-73578571D02*
X59826666Y-73578571D01*
X59826666Y-74102380D02*
X59826666Y-73102380D01*
X59350476Y-73102380D02*
X59350476Y-73911904D01*
X59302857Y-74007142D01*
X59255238Y-74054761D01*
X59160000Y-74102380D01*
X58969523Y-74102380D01*
X58874285Y-74054761D01*
X58826666Y-74007142D01*
X58779047Y-73911904D01*
X58779047Y-73102380D01*
X58302857Y-74102380D02*
X58302857Y-73102380D01*
X57731428Y-74102380D01*
X57731428Y-73102380D01*
X57398095Y-73102380D02*
X56826666Y-73102380D01*
X57112380Y-74102380D02*
X57112380Y-73102380D01*
D11*
X82717857Y-70073571D02*
X81860714Y-70073571D01*
X82289285Y-71573571D02*
X82289285Y-70073571D01*
X81146428Y-71573571D02*
X81289285Y-71502142D01*
X81360714Y-71430714D01*
X81432142Y-71287857D01*
X81432142Y-70859285D01*
X81360714Y-70716428D01*
X81289285Y-70645000D01*
X81146428Y-70573571D01*
X80932142Y-70573571D01*
X80789285Y-70645000D01*
X80717857Y-70716428D01*
X80646428Y-70859285D01*
X80646428Y-71287857D01*
X80717857Y-71430714D01*
X80789285Y-71502142D01*
X80932142Y-71573571D01*
X81146428Y-71573571D01*
X80003571Y-71573571D02*
X80003571Y-70073571D01*
X80003571Y-70645000D02*
X79860714Y-70573571D01*
X79575000Y-70573571D01*
X79432142Y-70645000D01*
X79360714Y-70716428D01*
X79289285Y-70859285D01*
X79289285Y-71287857D01*
X79360714Y-71430714D01*
X79432142Y-71502142D01*
X79575000Y-71573571D01*
X79860714Y-71573571D01*
X80003571Y-71502142D01*
X78646428Y-71573571D02*
X78646428Y-70573571D01*
X78646428Y-70073571D02*
X78717857Y-70145000D01*
X78646428Y-70216428D01*
X78575000Y-70145000D01*
X78646428Y-70073571D01*
X78646428Y-70216428D01*
X77289285Y-71573571D02*
X77289285Y-70787857D01*
X77360714Y-70645000D01*
X77503571Y-70573571D01*
X77789285Y-70573571D01*
X77932142Y-70645000D01*
X77289285Y-71502142D02*
X77432142Y-71573571D01*
X77789285Y-71573571D01*
X77932142Y-71502142D01*
X78003571Y-71359285D01*
X78003571Y-71216428D01*
X77932142Y-71073571D01*
X77789285Y-71002142D01*
X77432142Y-71002142D01*
X77289285Y-70930714D01*
X76646428Y-71502142D02*
X76503571Y-71573571D01*
X76217857Y-71573571D01*
X76075000Y-71502142D01*
X76003571Y-71359285D01*
X76003571Y-71287857D01*
X76075000Y-71145000D01*
X76217857Y-71073571D01*
X76432142Y-71073571D01*
X76575000Y-71002142D01*
X76646428Y-70859285D01*
X76646428Y-70787857D01*
X76575000Y-70645000D01*
X76432142Y-70573571D01*
X76217857Y-70573571D01*
X76075000Y-70645000D01*
X74217857Y-71573571D02*
X74217857Y-70073571D01*
X73717857Y-71145000D01*
X73217857Y-70073571D01*
X73217857Y-71573571D01*
X71860714Y-71573571D02*
X71860714Y-70787857D01*
X71932142Y-70645000D01*
X72075000Y-70573571D01*
X72360714Y-70573571D01*
X72503571Y-70645000D01*
X71860714Y-71502142D02*
X72003571Y-71573571D01*
X72360714Y-71573571D01*
X72503571Y-71502142D01*
X72575000Y-71359285D01*
X72575000Y-71216428D01*
X72503571Y-71073571D01*
X72360714Y-71002142D01*
X72003571Y-71002142D01*
X71860714Y-70930714D01*
X72503571Y-70073571D02*
X72432142Y-70145000D01*
X72503571Y-70216428D01*
X72575000Y-70145000D01*
X72503571Y-70073571D01*
X72503571Y-70216428D01*
X71932142Y-70073571D02*
X71860714Y-70145000D01*
X71932142Y-70216428D01*
X72003571Y-70145000D01*
X71932142Y-70073571D01*
X71932142Y-70216428D01*
X70503571Y-71573571D02*
X70503571Y-70073571D01*
X70503571Y-71502142D02*
X70646428Y-71573571D01*
X70932142Y-71573571D01*
X71075000Y-71502142D01*
X71146428Y-71430714D01*
X71217857Y-71287857D01*
X71217857Y-70859285D01*
X71146428Y-70716428D01*
X71075000Y-70645000D01*
X70932142Y-70573571D01*
X70646428Y-70573571D01*
X70503571Y-70645000D01*
X69217857Y-71502142D02*
X69360714Y-71573571D01*
X69646428Y-71573571D01*
X69789285Y-71502142D01*
X69860714Y-71359285D01*
X69860714Y-70787857D01*
X69789285Y-70645000D01*
X69646428Y-70573571D01*
X69360714Y-70573571D01*
X69217857Y-70645000D01*
X69146428Y-70787857D01*
X69146428Y-70930714D01*
X69860714Y-71073571D01*
X68289285Y-71573571D02*
X68432142Y-71502142D01*
X68503571Y-71359285D01*
X68503571Y-70073571D01*
X86575000Y-72623571D02*
X85717857Y-72623571D01*
X86146428Y-74123571D02*
X86146428Y-72623571D01*
X85003571Y-74123571D02*
X85146428Y-74052142D01*
X85217857Y-73980714D01*
X85289285Y-73837857D01*
X85289285Y-73409285D01*
X85217857Y-73266428D01*
X85146428Y-73195000D01*
X85003571Y-73123571D01*
X84789285Y-73123571D01*
X84646428Y-73195000D01*
X84575000Y-73266428D01*
X84503571Y-73409285D01*
X84503571Y-73837857D01*
X84575000Y-73980714D01*
X84646428Y-74052142D01*
X84789285Y-74123571D01*
X85003571Y-74123571D01*
X83860714Y-74123571D02*
X83860714Y-72623571D01*
X83860714Y-73195000D02*
X83717857Y-73123571D01*
X83432142Y-73123571D01*
X83289285Y-73195000D01*
X83217857Y-73266428D01*
X83146428Y-73409285D01*
X83146428Y-73837857D01*
X83217857Y-73980714D01*
X83289285Y-74052142D01*
X83432142Y-74123571D01*
X83717857Y-74123571D01*
X83860714Y-74052142D01*
X82503571Y-74123571D02*
X82503571Y-73123571D01*
X82503571Y-72623571D02*
X82575000Y-72695000D01*
X82503571Y-72766428D01*
X82432142Y-72695000D01*
X82503571Y-72623571D01*
X82503571Y-72766428D01*
X81146428Y-74123571D02*
X81146428Y-73337857D01*
X81217857Y-73195000D01*
X81360714Y-73123571D01*
X81646428Y-73123571D01*
X81789285Y-73195000D01*
X81146428Y-74052142D02*
X81289285Y-74123571D01*
X81646428Y-74123571D01*
X81789285Y-74052142D01*
X81860714Y-73909285D01*
X81860714Y-73766428D01*
X81789285Y-73623571D01*
X81646428Y-73552142D01*
X81289285Y-73552142D01*
X81146428Y-73480714D01*
X80503571Y-74052142D02*
X80360714Y-74123571D01*
X80075000Y-74123571D01*
X79932142Y-74052142D01*
X79860714Y-73909285D01*
X79860714Y-73837857D01*
X79932142Y-73695000D01*
X80075000Y-73623571D01*
X80289285Y-73623571D01*
X80432142Y-73552142D01*
X80503571Y-73409285D01*
X80503571Y-73337857D01*
X80432142Y-73195000D01*
X80289285Y-73123571D01*
X80075000Y-73123571D01*
X79932142Y-73195000D01*
X78146428Y-74052142D02*
X77932142Y-74123571D01*
X77575000Y-74123571D01*
X77432142Y-74052142D01*
X77360714Y-73980714D01*
X77289285Y-73837857D01*
X77289285Y-73695000D01*
X77360714Y-73552142D01*
X77432142Y-73480714D01*
X77575000Y-73409285D01*
X77860714Y-73337857D01*
X78003571Y-73266428D01*
X78075000Y-73195000D01*
X78146428Y-73052142D01*
X78146428Y-72909285D01*
X78075000Y-72766428D01*
X78003571Y-72695000D01*
X77860714Y-72623571D01*
X77503571Y-72623571D01*
X77289285Y-72695000D01*
X76003571Y-74052142D02*
X76146428Y-74123571D01*
X76432142Y-74123571D01*
X76575000Y-74052142D01*
X76646428Y-73980714D01*
X76717857Y-73837857D01*
X76717857Y-73409285D01*
X76646428Y-73266428D01*
X76575000Y-73195000D01*
X76432142Y-73123571D01*
X76146428Y-73123571D01*
X76003571Y-73195000D01*
X75360714Y-74123571D02*
X75360714Y-72623571D01*
X74717857Y-74123571D02*
X74717857Y-73337857D01*
X74789285Y-73195000D01*
X74932142Y-73123571D01*
X75146428Y-73123571D01*
X75289285Y-73195000D01*
X75360714Y-73266428D01*
X74003571Y-74123571D02*
X74003571Y-73123571D01*
X74003571Y-73409285D02*
X73932142Y-73266428D01*
X73860714Y-73195000D01*
X73717857Y-73123571D01*
X73575000Y-73123571D01*
X72432142Y-74123571D02*
X72432142Y-73337857D01*
X72503571Y-73195000D01*
X72646428Y-73123571D01*
X72932142Y-73123571D01*
X73075000Y-73195000D01*
X72432142Y-74052142D02*
X72575000Y-74123571D01*
X72932142Y-74123571D01*
X73075000Y-74052142D01*
X73146428Y-73909285D01*
X73146428Y-73766428D01*
X73075000Y-73623571D01*
X72932142Y-73552142D01*
X72575000Y-73552142D01*
X72432142Y-73480714D01*
X71717857Y-74123571D02*
X71717857Y-73123571D01*
X71717857Y-73266428D02*
X71646428Y-73195000D01*
X71503571Y-73123571D01*
X71289285Y-73123571D01*
X71146428Y-73195000D01*
X71075000Y-73337857D01*
X71075000Y-74123571D01*
X71075000Y-73337857D02*
X71003571Y-73195000D01*
X70860714Y-73123571D01*
X70646428Y-73123571D01*
X70503571Y-73195000D01*
X70432142Y-73337857D01*
X70432142Y-74123571D01*
X69717857Y-74123571D02*
X69717857Y-73123571D01*
X69717857Y-73266428D02*
X69646428Y-73195000D01*
X69503571Y-73123571D01*
X69289285Y-73123571D01*
X69146428Y-73195000D01*
X69075000Y-73337857D01*
X69075000Y-74123571D01*
X69075000Y-73337857D02*
X69003571Y-73195000D01*
X68860714Y-73123571D01*
X68646428Y-73123571D01*
X68503571Y-73195000D01*
X68432142Y-73337857D01*
X68432142Y-74123571D01*
D12*
X63487936Y-71900000D02*
X64692064Y-71900000D01*
X63487936Y-74620000D02*
X64692064Y-74620000D01*
X71680000Y-61438748D02*
X71680000Y-61961252D01*
X70260000Y-61438748D02*
X70260000Y-61961252D01*
X105871252Y-71080000D02*
X105348748Y-71080000D01*
X105871252Y-69660000D02*
X105348748Y-69660000D01*
X61270000Y-64067936D02*
X61270000Y-65272064D01*
X58550000Y-64067936D02*
X58550000Y-65272064D01*
X103010000Y-73340000D02*
X103010000Y-74800000D01*
X106170000Y-73340000D02*
X106170000Y-75500000D01*
X106170000Y-73340000D02*
X105240000Y-73340000D01*
X103010000Y-73340000D02*
X103940000Y-73340000D01*
X61280000Y-58907936D02*
X61280000Y-60112064D01*
X58560000Y-58907936D02*
X58560000Y-60112064D01*
X85590000Y-65300000D02*
X85590000Y-63900000D01*
X87910000Y-63900000D02*
X87910000Y-65800000D01*
X72907252Y-67869000D02*
X72384748Y-67869000D01*
X72907252Y-66449000D02*
X72384748Y-66449000D01*
X104861252Y-77910000D02*
X104338748Y-77910000D01*
X104861252Y-76490000D02*
X104338748Y-76490000D01*
X79638748Y-66190000D02*
X80161252Y-66190000D01*
X79638748Y-67610000D02*
X80161252Y-67610000D01*
X84910000Y-64038748D02*
X84910000Y-64561252D01*
X83490000Y-64038748D02*
X83490000Y-64561252D01*
X90010000Y-64038748D02*
X90010000Y-64561252D01*
X88590000Y-64038748D02*
X88590000Y-64561252D01*
D10*
X99637000Y-59592000D02*
X101062000Y-59592000D01*
X92387000Y-59367000D02*
X92712000Y-59367000D01*
X92387000Y-66617000D02*
X92712000Y-66617000D01*
X99637000Y-66617000D02*
X99312000Y-66617000D01*
X99637000Y-59367000D02*
X99312000Y-59367000D01*
X99637000Y-66617000D02*
X99637000Y-66292000D01*
X92387000Y-66617000D02*
X92387000Y-66292000D01*
X92387000Y-59367000D02*
X92387000Y-59692000D01*
X99637000Y-59367000D02*
X99637000Y-59592000D01*
X80275000Y-60350000D02*
X81500000Y-60350000D01*
X80275000Y-63475000D02*
X76925000Y-63475000D01*
X80275000Y-60125000D02*
X76925000Y-60125000D01*
X80275000Y-63475000D02*
X80275000Y-63175000D01*
X76925000Y-63475000D02*
X76925000Y-63175000D01*
X76925000Y-60125000D02*
X76925000Y-60425000D01*
X80275000Y-60125000D02*
X80275000Y-60350000D01*
D12*
X79638748Y-64090000D02*
X80161252Y-64090000D01*
X79638748Y-65510000D02*
X80161252Y-65510000D01*
X104954000Y-58681252D02*
X104954000Y-58158748D01*
X106374000Y-58681252D02*
X106374000Y-58158748D01*
X104088000Y-58167748D02*
X104088000Y-58690252D01*
X102668000Y-58167748D02*
X102668000Y-58690252D01*
X77110000Y-65538748D02*
X77110000Y-66061252D01*
X75690000Y-65538748D02*
X75690000Y-66061252D01*
X102668000Y-63253252D02*
X102668000Y-62730748D01*
X104088000Y-63253252D02*
X104088000Y-62730748D01*
X74860000Y-62588748D02*
X74860000Y-63111252D01*
X73440000Y-62588748D02*
X73440000Y-63111252D01*
D10*
X63702857Y-71362380D02*
X64036190Y-70886190D01*
X64274285Y-71362380D02*
X64274285Y-70362380D01*
X63893333Y-70362380D01*
X63798095Y-70410000D01*
X63750476Y-70457619D01*
X63702857Y-70552857D01*
X63702857Y-70695714D01*
X63750476Y-70790952D01*
X63798095Y-70838571D01*
X63893333Y-70886190D01*
X64274285Y-70886190D01*
X62750476Y-71362380D02*
X63321904Y-71362380D01*
X63036190Y-71362380D02*
X63036190Y-70362380D01*
X63131428Y-70505238D01*
X63226666Y-70600476D01*
X63321904Y-70648095D01*
X61798095Y-71362380D02*
X62369523Y-71362380D01*
X62083809Y-71362380D02*
X62083809Y-70362380D01*
X62179047Y-70505238D01*
X62274285Y-70600476D01*
X62369523Y-70648095D01*
X69187142Y-61047142D02*
X69234761Y-60999523D01*
X69282380Y-60856666D01*
X69282380Y-60761428D01*
X69234761Y-60618571D01*
X69139523Y-60523333D01*
X69044285Y-60475714D01*
X68853809Y-60428095D01*
X68710952Y-60428095D01*
X68520476Y-60475714D01*
X68425238Y-60523333D01*
X68330000Y-60618571D01*
X68282380Y-60761428D01*
X68282380Y-60856666D01*
X68330000Y-60999523D01*
X68377619Y-61047142D01*
X69282380Y-61999523D02*
X69282380Y-61428095D01*
X69282380Y-61713809D02*
X68282380Y-61713809D01*
X68425238Y-61618571D01*
X68520476Y-61523333D01*
X68568095Y-61428095D01*
X68377619Y-62380476D02*
X68330000Y-62428095D01*
X68282380Y-62523333D01*
X68282380Y-62761428D01*
X68330000Y-62856666D01*
X68377619Y-62904285D01*
X68472857Y-62951904D01*
X68568095Y-62951904D01*
X68710952Y-62904285D01*
X69282380Y-62332857D01*
X69282380Y-62951904D01*
X106252857Y-69077142D02*
X106300476Y-69124761D01*
X106443333Y-69172380D01*
X106538571Y-69172380D01*
X106681428Y-69124761D01*
X106776666Y-69029523D01*
X106824285Y-68934285D01*
X106871904Y-68743809D01*
X106871904Y-68600952D01*
X106824285Y-68410476D01*
X106776666Y-68315238D01*
X106681428Y-68220000D01*
X106538571Y-68172380D01*
X106443333Y-68172380D01*
X106300476Y-68220000D01*
X106252857Y-68267619D01*
X105300476Y-69172380D02*
X105871904Y-69172380D01*
X105586190Y-69172380D02*
X105586190Y-68172380D01*
X105681428Y-68315238D01*
X105776666Y-68410476D01*
X105871904Y-68458095D01*
X104348095Y-69172380D02*
X104919523Y-69172380D01*
X104633809Y-69172380D02*
X104633809Y-68172380D01*
X104729047Y-68315238D01*
X104824285Y-68410476D01*
X104919523Y-68458095D01*
X58082380Y-64503333D02*
X57606190Y-64170000D01*
X58082380Y-63931904D02*
X57082380Y-63931904D01*
X57082380Y-64312857D01*
X57130000Y-64408095D01*
X57177619Y-64455714D01*
X57272857Y-64503333D01*
X57415714Y-64503333D01*
X57510952Y-64455714D01*
X57558571Y-64408095D01*
X57606190Y-64312857D01*
X57606190Y-63931904D01*
X58082380Y-64979523D02*
X58082380Y-65170000D01*
X58034761Y-65265238D01*
X57987142Y-65312857D01*
X57844285Y-65408095D01*
X57653809Y-65455714D01*
X57272857Y-65455714D01*
X57177619Y-65408095D01*
X57130000Y-65360476D01*
X57082380Y-65265238D01*
X57082380Y-65074761D01*
X57130000Y-64979523D01*
X57177619Y-64931904D01*
X57272857Y-64884285D01*
X57510952Y-64884285D01*
X57606190Y-64931904D01*
X57653809Y-64979523D01*
X57701428Y-65074761D01*
X57701428Y-65265238D01*
X57653809Y-65360476D01*
X57606190Y-65408095D01*
X57510952Y-65455714D01*
X107637619Y-74004761D02*
X107590000Y-73909523D01*
X107494761Y-73814285D01*
X107351904Y-73671428D01*
X107304285Y-73576190D01*
X107304285Y-73480952D01*
X107542380Y-73528571D02*
X107494761Y-73433333D01*
X107399523Y-73338095D01*
X107209047Y-73290476D01*
X106875714Y-73290476D01*
X106685238Y-73338095D01*
X106590000Y-73433333D01*
X106542380Y-73528571D01*
X106542380Y-73719047D01*
X106590000Y-73814285D01*
X106685238Y-73909523D01*
X106875714Y-73957142D01*
X107209047Y-73957142D01*
X107399523Y-73909523D01*
X107494761Y-73814285D01*
X107542380Y-73719047D01*
X107542380Y-73528571D01*
X106875714Y-74814285D02*
X107542380Y-74814285D01*
X106494761Y-74576190D02*
X107209047Y-74338095D01*
X107209047Y-74957142D01*
X57997142Y-58867142D02*
X58044761Y-58819523D01*
X58092380Y-58676666D01*
X58092380Y-58581428D01*
X58044761Y-58438571D01*
X57949523Y-58343333D01*
X57854285Y-58295714D01*
X57663809Y-58248095D01*
X57520952Y-58248095D01*
X57330476Y-58295714D01*
X57235238Y-58343333D01*
X57140000Y-58438571D01*
X57092380Y-58581428D01*
X57092380Y-58676666D01*
X57140000Y-58819523D01*
X57187619Y-58867142D01*
X58092380Y-59819523D02*
X58092380Y-59248095D01*
X58092380Y-59533809D02*
X57092380Y-59533809D01*
X57235238Y-59438571D01*
X57330476Y-59343333D01*
X57378095Y-59248095D01*
X57092380Y-60438571D02*
X57092380Y-60533809D01*
X57140000Y-60629047D01*
X57187619Y-60676666D01*
X57282857Y-60724285D01*
X57473333Y-60771904D01*
X57711428Y-60771904D01*
X57901904Y-60724285D01*
X57997142Y-60676666D01*
X58044761Y-60629047D01*
X58092380Y-60533809D01*
X58092380Y-60438571D01*
X58044761Y-60343333D01*
X57997142Y-60295714D01*
X57901904Y-60248095D01*
X57711428Y-60200476D01*
X57473333Y-60200476D01*
X57282857Y-60248095D01*
X57187619Y-60295714D01*
X57140000Y-60343333D01*
X57092380Y-60438571D01*
X87461904Y-61052380D02*
X87461904Y-61861904D01*
X87414285Y-61957142D01*
X87366666Y-62004761D01*
X87271428Y-62052380D01*
X87080952Y-62052380D01*
X86985714Y-62004761D01*
X86938095Y-61957142D01*
X86890476Y-61861904D01*
X86890476Y-61052380D01*
X86461904Y-61147619D02*
X86414285Y-61100000D01*
X86319047Y-61052380D01*
X86080952Y-61052380D01*
X85985714Y-61100000D01*
X85938095Y-61147619D01*
X85890476Y-61242857D01*
X85890476Y-61338095D01*
X85938095Y-61480952D01*
X86509523Y-62052380D01*
X85890476Y-62052380D01*
X72816666Y-69462380D02*
X73150000Y-68986190D01*
X73388095Y-69462380D02*
X73388095Y-68462380D01*
X73007142Y-68462380D01*
X72911904Y-68510000D01*
X72864285Y-68557619D01*
X72816666Y-68652857D01*
X72816666Y-68795714D01*
X72864285Y-68890952D01*
X72911904Y-68938571D01*
X73007142Y-68986190D01*
X73388095Y-68986190D01*
X72483333Y-68462380D02*
X71816666Y-68462380D01*
X72245238Y-69462380D01*
X107566666Y-77752380D02*
X107900000Y-77276190D01*
X108138095Y-77752380D02*
X108138095Y-76752380D01*
X107757142Y-76752380D01*
X107661904Y-76800000D01*
X107614285Y-76847619D01*
X107566666Y-76942857D01*
X107566666Y-77085714D01*
X107614285Y-77180952D01*
X107661904Y-77228571D01*
X107757142Y-77276190D01*
X108138095Y-77276190D01*
X106995238Y-77180952D02*
X107090476Y-77133333D01*
X107138095Y-77085714D01*
X107185714Y-76990476D01*
X107185714Y-76942857D01*
X107138095Y-76847619D01*
X107090476Y-76800000D01*
X106995238Y-76752380D01*
X106804761Y-76752380D01*
X106709523Y-76800000D01*
X106661904Y-76847619D01*
X106614285Y-76942857D01*
X106614285Y-76990476D01*
X106661904Y-77085714D01*
X106709523Y-77133333D01*
X106804761Y-77180952D01*
X106995238Y-77180952D01*
X107090476Y-77228571D01*
X107138095Y-77276190D01*
X107185714Y-77371428D01*
X107185714Y-77561904D01*
X107138095Y-77657142D01*
X107090476Y-77704761D01*
X106995238Y-77752380D01*
X106804761Y-77752380D01*
X106709523Y-77704761D01*
X106661904Y-77657142D01*
X106614285Y-77561904D01*
X106614285Y-77371428D01*
X106661904Y-77276190D01*
X106709523Y-77228571D01*
X106804761Y-77180952D01*
X80066666Y-69002380D02*
X80400000Y-68526190D01*
X80638095Y-69002380D02*
X80638095Y-68002380D01*
X80257142Y-68002380D01*
X80161904Y-68050000D01*
X80114285Y-68097619D01*
X80066666Y-68192857D01*
X80066666Y-68335714D01*
X80114285Y-68430952D01*
X80161904Y-68478571D01*
X80257142Y-68526190D01*
X80638095Y-68526190D01*
X79209523Y-68335714D02*
X79209523Y-69002380D01*
X79447619Y-67954761D02*
X79685714Y-68669047D01*
X79066666Y-68669047D01*
X83666666Y-62257142D02*
X83714285Y-62304761D01*
X83857142Y-62352380D01*
X83952380Y-62352380D01*
X84095238Y-62304761D01*
X84190476Y-62209523D01*
X84238095Y-62114285D01*
X84285714Y-61923809D01*
X84285714Y-61780952D01*
X84238095Y-61590476D01*
X84190476Y-61495238D01*
X84095238Y-61400000D01*
X83952380Y-61352380D01*
X83857142Y-61352380D01*
X83714285Y-61400000D01*
X83666666Y-61447619D01*
X83285714Y-61447619D02*
X83238095Y-61400000D01*
X83142857Y-61352380D01*
X82904761Y-61352380D01*
X82809523Y-61400000D01*
X82761904Y-61447619D01*
X82714285Y-61542857D01*
X82714285Y-61638095D01*
X82761904Y-61780952D01*
X83333333Y-62352380D01*
X82714285Y-62352380D01*
X89066666Y-62257142D02*
X89114285Y-62304761D01*
X89257142Y-62352380D01*
X89352380Y-62352380D01*
X89495238Y-62304761D01*
X89590476Y-62209523D01*
X89638095Y-62114285D01*
X89685714Y-61923809D01*
X89685714Y-61780952D01*
X89638095Y-61590476D01*
X89590476Y-61495238D01*
X89495238Y-61400000D01*
X89352380Y-61352380D01*
X89257142Y-61352380D01*
X89114285Y-61400000D01*
X89066666Y-61447619D01*
X88209523Y-61685714D02*
X88209523Y-62352380D01*
X88447619Y-61304761D02*
X88685714Y-62019047D01*
X88066666Y-62019047D01*
X96773904Y-56394380D02*
X96773904Y-57203904D01*
X96726285Y-57299142D01*
X96678666Y-57346761D01*
X96583428Y-57394380D01*
X96392952Y-57394380D01*
X96297714Y-57346761D01*
X96250095Y-57299142D01*
X96202476Y-57203904D01*
X96202476Y-56394380D01*
X95821523Y-56394380D02*
X95202476Y-56394380D01*
X95535809Y-56775333D01*
X95392952Y-56775333D01*
X95297714Y-56822952D01*
X95250095Y-56870571D01*
X95202476Y-56965809D01*
X95202476Y-57203904D01*
X95250095Y-57299142D01*
X95297714Y-57346761D01*
X95392952Y-57394380D01*
X95678666Y-57394380D01*
X95773904Y-57346761D01*
X95821523Y-57299142D01*
X79361904Y-58652380D02*
X79361904Y-59461904D01*
X79314285Y-59557142D01*
X79266666Y-59604761D01*
X79171428Y-59652380D01*
X78980952Y-59652380D01*
X78885714Y-59604761D01*
X78838095Y-59557142D01*
X78790476Y-59461904D01*
X78790476Y-58652380D01*
X77790476Y-59652380D02*
X78361904Y-59652380D01*
X78076190Y-59652380D02*
X78076190Y-58652380D01*
X78171428Y-58795238D01*
X78266666Y-58890476D01*
X78361904Y-58938095D01*
X82952380Y-65333333D02*
X82476190Y-65000000D01*
X82952380Y-64761904D02*
X81952380Y-64761904D01*
X81952380Y-65142857D01*
X82000000Y-65238095D01*
X82047619Y-65285714D01*
X82142857Y-65333333D01*
X82285714Y-65333333D01*
X82380952Y-65285714D01*
X82428571Y-65238095D01*
X82476190Y-65142857D01*
X82476190Y-64761904D01*
X81952380Y-65666666D02*
X81952380Y-66285714D01*
X82333333Y-65952380D01*
X82333333Y-66095238D01*
X82380952Y-66190476D01*
X82428571Y-66238095D01*
X82523809Y-66285714D01*
X82761904Y-66285714D01*
X82857142Y-66238095D01*
X82904761Y-66190476D01*
X82952380Y-66095238D01*
X82952380Y-65809523D01*
X82904761Y-65714285D01*
X82857142Y-65666666D01*
X107766380Y-58253333D02*
X107290190Y-57920000D01*
X107766380Y-57681904D02*
X106766380Y-57681904D01*
X106766380Y-58062857D01*
X106814000Y-58158095D01*
X106861619Y-58205714D01*
X106956857Y-58253333D01*
X107099714Y-58253333D01*
X107194952Y-58205714D01*
X107242571Y-58158095D01*
X107290190Y-58062857D01*
X107290190Y-57681904D01*
X107766380Y-59205714D02*
X107766380Y-58634285D01*
X107766380Y-58920000D02*
X106766380Y-58920000D01*
X106909238Y-58824761D01*
X107004476Y-58729523D01*
X107052095Y-58634285D01*
X102085142Y-58262333D02*
X102132761Y-58214714D01*
X102180380Y-58071857D01*
X102180380Y-57976619D01*
X102132761Y-57833761D01*
X102037523Y-57738523D01*
X101942285Y-57690904D01*
X101751809Y-57643285D01*
X101608952Y-57643285D01*
X101418476Y-57690904D01*
X101323238Y-57738523D01*
X101228000Y-57833761D01*
X101180380Y-57976619D01*
X101180380Y-58071857D01*
X101228000Y-58214714D01*
X101275619Y-58262333D01*
X101608952Y-58833761D02*
X101561333Y-58738523D01*
X101513714Y-58690904D01*
X101418476Y-58643285D01*
X101370857Y-58643285D01*
X101275619Y-58690904D01*
X101228000Y-58738523D01*
X101180380Y-58833761D01*
X101180380Y-59024238D01*
X101228000Y-59119476D01*
X101275619Y-59167095D01*
X101370857Y-59214714D01*
X101418476Y-59214714D01*
X101513714Y-59167095D01*
X101561333Y-59119476D01*
X101608952Y-59024238D01*
X101608952Y-58833761D01*
X101656571Y-58738523D01*
X101704190Y-58690904D01*
X101799428Y-58643285D01*
X101989904Y-58643285D01*
X102085142Y-58690904D01*
X102132761Y-58738523D01*
X102180380Y-58833761D01*
X102180380Y-59024238D01*
X102132761Y-59119476D01*
X102085142Y-59167095D01*
X101989904Y-59214714D01*
X101799428Y-59214714D01*
X101704190Y-59167095D01*
X101656571Y-59119476D01*
X101608952Y-59024238D01*
X76566666Y-68857142D02*
X76614285Y-68904761D01*
X76757142Y-68952380D01*
X76852380Y-68952380D01*
X76995238Y-68904761D01*
X77090476Y-68809523D01*
X77138095Y-68714285D01*
X77185714Y-68523809D01*
X77185714Y-68380952D01*
X77138095Y-68190476D01*
X77090476Y-68095238D01*
X76995238Y-68000000D01*
X76852380Y-67952380D01*
X76757142Y-67952380D01*
X76614285Y-68000000D01*
X76566666Y-68047619D01*
X75614285Y-68952380D02*
X76185714Y-68952380D01*
X75900000Y-68952380D02*
X75900000Y-67952380D01*
X75995238Y-68095238D01*
X76090476Y-68190476D01*
X76185714Y-68238095D01*
X104670857Y-63158666D02*
X104623238Y-63206285D01*
X104575619Y-63349142D01*
X104575619Y-63444380D01*
X104623238Y-63587238D01*
X104718476Y-63682476D01*
X104813714Y-63730095D01*
X105004190Y-63777714D01*
X105147047Y-63777714D01*
X105337523Y-63730095D01*
X105432761Y-63682476D01*
X105528000Y-63587238D01*
X105575619Y-63444380D01*
X105575619Y-63349142D01*
X105528000Y-63206285D01*
X105480380Y-63158666D01*
X105575619Y-62825333D02*
X105575619Y-62158666D01*
X104575619Y-62587238D01*
X74527142Y-59953333D02*
X74574761Y-59905714D01*
X74622380Y-59762857D01*
X74622380Y-59667619D01*
X74574761Y-59524761D01*
X74479523Y-59429523D01*
X74384285Y-59381904D01*
X74193809Y-59334285D01*
X74050952Y-59334285D01*
X73860476Y-59381904D01*
X73765238Y-59429523D01*
X73670000Y-59524761D01*
X73622380Y-59667619D01*
X73622380Y-59762857D01*
X73670000Y-59905714D01*
X73717619Y-59953333D01*
X73622380Y-60286666D02*
X73622380Y-60905714D01*
X74003333Y-60572380D01*
X74003333Y-60715238D01*
X74050952Y-60810476D01*
X74098571Y-60858095D01*
X74193809Y-60905714D01*
X74431904Y-60905714D01*
X74527142Y-60858095D01*
X74574761Y-60810476D01*
X74622380Y-60715238D01*
X74622380Y-60429523D01*
X74574761Y-60334285D01*
X74527142Y-60286666D01*
M02*
