G04 #@! TF.GenerationSoftware,KiCad,Pcbnew,5.1.2*
G04 #@! TF.CreationDate,2019-07-27T17:59:41+02:00*
G04 #@! TF.ProjectId,solarcampi,736f6c61-7263-4616-9d70-692e6b696361,C*
G04 #@! TF.SameCoordinates,Original*
G04 #@! TF.FileFunction,Soldermask,Top*
G04 #@! TF.FilePolarity,Negative*
%FSLAX46Y46*%
G04 Gerber Fmt 4.6, Leading zero omitted, Abs format (unit mm)*
G04 Created by KiCad (PCBNEW 5.1.2) date 2019-07-27 17:59:41*
%MOMM*%
%LPD*%
G04 APERTURE LIST*
%ADD10C,0.100000*%
G04 APERTURE END LIST*
D10*
G36*
X112174111Y-72553465D02*
G01*
X112504237Y-72619131D01*
X113068401Y-72852815D01*
X113576135Y-73192072D01*
X114007928Y-73623865D01*
X114347185Y-74131599D01*
X114580869Y-74695763D01*
X114640434Y-74995220D01*
X114700000Y-75294675D01*
X114700000Y-75905325D01*
X114664187Y-76085367D01*
X114580869Y-76504237D01*
X114347185Y-77068401D01*
X114007928Y-77576135D01*
X113576135Y-78007928D01*
X113068401Y-78347185D01*
X112504237Y-78580869D01*
X112204780Y-78640434D01*
X111905325Y-78700000D01*
X111294675Y-78700000D01*
X110995220Y-78640434D01*
X110695763Y-78580869D01*
X110131599Y-78347185D01*
X109623865Y-78007928D01*
X109192072Y-77576135D01*
X108852815Y-77068401D01*
X108619131Y-76504237D01*
X108535813Y-76085367D01*
X108500000Y-75905325D01*
X108500000Y-75294675D01*
X108559566Y-74995220D01*
X108619131Y-74695763D01*
X108852815Y-74131599D01*
X109192072Y-73623865D01*
X109623865Y-73192072D01*
X110131599Y-72852815D01*
X110695763Y-72619131D01*
X111025889Y-72553465D01*
X111294675Y-72500000D01*
X111905325Y-72500000D01*
X112174111Y-72553465D01*
X112174111Y-72553465D01*
G37*
G36*
X54204780Y-72459566D02*
G01*
X54504237Y-72519131D01*
X55068401Y-72752815D01*
X55576135Y-73092072D01*
X56007928Y-73523865D01*
X56347185Y-74031599D01*
X56580869Y-74595763D01*
X56627920Y-74832304D01*
X56700000Y-75194675D01*
X56700000Y-75805325D01*
X56654699Y-76033068D01*
X56580869Y-76404237D01*
X56347185Y-76968401D01*
X56007928Y-77476135D01*
X55576135Y-77907928D01*
X55068401Y-78247185D01*
X54504237Y-78480869D01*
X54204780Y-78540434D01*
X53905325Y-78600000D01*
X53294675Y-78600000D01*
X52995220Y-78540434D01*
X52695763Y-78480869D01*
X52131599Y-78247185D01*
X51623865Y-77907928D01*
X51192072Y-77476135D01*
X50852815Y-76968401D01*
X50619131Y-76404237D01*
X50545301Y-76033068D01*
X50500000Y-75805325D01*
X50500000Y-75194675D01*
X50572080Y-74832304D01*
X50619131Y-74595763D01*
X50852815Y-74031599D01*
X51192072Y-73523865D01*
X51623865Y-73092072D01*
X52131599Y-72752815D01*
X52695763Y-72519131D01*
X52995220Y-72459566D01*
X53294675Y-72400000D01*
X53905325Y-72400000D01*
X54204780Y-72459566D01*
X54204780Y-72459566D01*
G37*
G36*
X65882585Y-75108802D02*
G01*
X66032410Y-75138604D01*
X66314674Y-75255521D01*
X66568705Y-75425259D01*
X66784741Y-75641295D01*
X66954479Y-75895326D01*
X67033196Y-76085367D01*
X67071396Y-76177591D01*
X67116479Y-76404235D01*
X67131000Y-76477240D01*
X67131000Y-76782760D01*
X67071396Y-77082410D01*
X66954479Y-77364674D01*
X66784741Y-77618705D01*
X66568705Y-77834741D01*
X66314674Y-78004479D01*
X66032410Y-78121396D01*
X65882585Y-78151198D01*
X65732761Y-78181000D01*
X65427239Y-78181000D01*
X65277415Y-78151198D01*
X65127590Y-78121396D01*
X64845326Y-78004479D01*
X64591295Y-77834741D01*
X64375259Y-77618705D01*
X64205521Y-77364674D01*
X64088604Y-77082410D01*
X64029000Y-76782760D01*
X64029000Y-76477240D01*
X64043522Y-76404235D01*
X64088604Y-76177591D01*
X64126804Y-76085367D01*
X64205521Y-75895326D01*
X64375259Y-75641295D01*
X64591295Y-75425259D01*
X64845326Y-75255521D01*
X65127590Y-75138604D01*
X65277415Y-75108802D01*
X65427239Y-75079000D01*
X65732761Y-75079000D01*
X65882585Y-75108802D01*
X65882585Y-75108802D01*
G37*
G36*
X62051000Y-78181000D02*
G01*
X58949000Y-78181000D01*
X58949000Y-75079000D01*
X62051000Y-75079000D01*
X62051000Y-78181000D01*
X62051000Y-78181000D01*
G37*
G36*
X89301000Y-77801000D02*
G01*
X87499000Y-77801000D01*
X87499000Y-75999000D01*
X89301000Y-75999000D01*
X89301000Y-77801000D01*
X89301000Y-77801000D01*
G37*
G36*
X77788674Y-76403465D02*
G01*
X77826367Y-76414899D01*
X77861103Y-76433466D01*
X77891548Y-76458452D01*
X77916534Y-76488897D01*
X77935101Y-76523633D01*
X77946535Y-76561326D01*
X77951000Y-76606661D01*
X77951000Y-77443339D01*
X77946535Y-77488674D01*
X77935101Y-77526367D01*
X77916534Y-77561103D01*
X77891548Y-77591548D01*
X77861103Y-77616534D01*
X77826367Y-77635101D01*
X77788674Y-77646535D01*
X77743339Y-77651000D01*
X76656661Y-77651000D01*
X76611326Y-77646535D01*
X76573633Y-77635101D01*
X76538897Y-77616534D01*
X76508452Y-77591548D01*
X76483466Y-77561103D01*
X76464899Y-77526367D01*
X76453465Y-77488674D01*
X76449000Y-77443339D01*
X76449000Y-76606661D01*
X76453465Y-76561326D01*
X76464899Y-76523633D01*
X76483466Y-76488897D01*
X76508452Y-76458452D01*
X76538897Y-76433466D01*
X76573633Y-76414899D01*
X76611326Y-76403465D01*
X76656661Y-76399000D01*
X77743339Y-76399000D01*
X77788674Y-76403465D01*
X77788674Y-76403465D01*
G37*
G36*
X84417512Y-75424927D02*
G01*
X84566812Y-75454624D01*
X84730784Y-75522544D01*
X84878354Y-75621147D01*
X85003853Y-75746646D01*
X85102456Y-75894216D01*
X85170376Y-76058188D01*
X85205000Y-76232259D01*
X85205000Y-76409741D01*
X85170376Y-76583812D01*
X85102456Y-76747784D01*
X85003853Y-76895354D01*
X84878354Y-77020853D01*
X84730784Y-77119456D01*
X84566812Y-77187376D01*
X84417512Y-77217073D01*
X84392742Y-77222000D01*
X84215258Y-77222000D01*
X84190488Y-77217073D01*
X84041188Y-77187376D01*
X83877216Y-77119456D01*
X83729646Y-77020853D01*
X83604147Y-76895354D01*
X83505544Y-76747784D01*
X83437624Y-76583812D01*
X83403000Y-76409741D01*
X83403000Y-76232259D01*
X83437624Y-76058188D01*
X83505544Y-75894216D01*
X83604147Y-75746646D01*
X83729646Y-75621147D01*
X83877216Y-75522544D01*
X84041188Y-75454624D01*
X84190488Y-75424927D01*
X84215258Y-75420000D01*
X84392742Y-75420000D01*
X84417512Y-75424927D01*
X84417512Y-75424927D01*
G37*
G36*
X81877512Y-75424927D02*
G01*
X82026812Y-75454624D01*
X82190784Y-75522544D01*
X82338354Y-75621147D01*
X82463853Y-75746646D01*
X82562456Y-75894216D01*
X82630376Y-76058188D01*
X82665000Y-76232259D01*
X82665000Y-76409741D01*
X82630376Y-76583812D01*
X82562456Y-76747784D01*
X82463853Y-76895354D01*
X82338354Y-77020853D01*
X82190784Y-77119456D01*
X82026812Y-77187376D01*
X81877512Y-77217073D01*
X81852742Y-77222000D01*
X81675258Y-77222000D01*
X81650488Y-77217073D01*
X81501188Y-77187376D01*
X81337216Y-77119456D01*
X81189646Y-77020853D01*
X81064147Y-76895354D01*
X80965544Y-76747784D01*
X80897624Y-76583812D01*
X80863000Y-76409741D01*
X80863000Y-76232259D01*
X80897624Y-76058188D01*
X80965544Y-75894216D01*
X81064147Y-75746646D01*
X81189646Y-75621147D01*
X81337216Y-75522544D01*
X81501188Y-75454624D01*
X81650488Y-75424927D01*
X81675258Y-75420000D01*
X81852742Y-75420000D01*
X81877512Y-75424927D01*
X81877512Y-75424927D01*
G37*
G36*
X73749512Y-75424927D02*
G01*
X73898812Y-75454624D01*
X74062784Y-75522544D01*
X74210354Y-75621147D01*
X74335853Y-75746646D01*
X74434456Y-75894216D01*
X74502376Y-76058188D01*
X74537000Y-76232259D01*
X74537000Y-76409741D01*
X74502376Y-76583812D01*
X74434456Y-76747784D01*
X74335853Y-76895354D01*
X74210354Y-77020853D01*
X74062784Y-77119456D01*
X73898812Y-77187376D01*
X73749512Y-77217073D01*
X73724742Y-77222000D01*
X73547258Y-77222000D01*
X73522488Y-77217073D01*
X73373188Y-77187376D01*
X73209216Y-77119456D01*
X73061646Y-77020853D01*
X72936147Y-76895354D01*
X72837544Y-76747784D01*
X72769624Y-76583812D01*
X72735000Y-76409741D01*
X72735000Y-76232259D01*
X72769624Y-76058188D01*
X72837544Y-75894216D01*
X72936147Y-75746646D01*
X73061646Y-75621147D01*
X73209216Y-75522544D01*
X73373188Y-75454624D01*
X73522488Y-75424927D01*
X73547258Y-75420000D01*
X73724742Y-75420000D01*
X73749512Y-75424927D01*
X73749512Y-75424927D01*
G37*
G36*
X71209512Y-75424927D02*
G01*
X71358812Y-75454624D01*
X71522784Y-75522544D01*
X71670354Y-75621147D01*
X71795853Y-75746646D01*
X71894456Y-75894216D01*
X71962376Y-76058188D01*
X71997000Y-76232259D01*
X71997000Y-76409741D01*
X71962376Y-76583812D01*
X71894456Y-76747784D01*
X71795853Y-76895354D01*
X71670354Y-77020853D01*
X71522784Y-77119456D01*
X71358812Y-77187376D01*
X71209512Y-77217073D01*
X71184742Y-77222000D01*
X71007258Y-77222000D01*
X70982488Y-77217073D01*
X70833188Y-77187376D01*
X70669216Y-77119456D01*
X70521646Y-77020853D01*
X70396147Y-76895354D01*
X70297544Y-76747784D01*
X70229624Y-76583812D01*
X70195000Y-76409741D01*
X70195000Y-76232259D01*
X70229624Y-76058188D01*
X70297544Y-75894216D01*
X70396147Y-75746646D01*
X70521646Y-75621147D01*
X70669216Y-75522544D01*
X70833188Y-75454624D01*
X70982488Y-75424927D01*
X71007258Y-75420000D01*
X71184742Y-75420000D01*
X71209512Y-75424927D01*
X71209512Y-75424927D01*
G37*
G36*
X97180600Y-76098600D02*
G01*
X95351400Y-76098600D01*
X95351400Y-74269400D01*
X97180600Y-74269400D01*
X97180600Y-76098600D01*
X97180600Y-76098600D01*
G37*
G36*
X98985294Y-74282633D02*
G01*
X99157695Y-74334931D01*
X99316583Y-74419858D01*
X99455849Y-74534151D01*
X99570142Y-74673417D01*
X99655069Y-74832305D01*
X99707367Y-75004706D01*
X99725025Y-75184000D01*
X99707367Y-75363294D01*
X99655069Y-75535695D01*
X99570142Y-75694583D01*
X99455849Y-75833849D01*
X99316583Y-75948142D01*
X99157695Y-76033069D01*
X98985294Y-76085367D01*
X98850931Y-76098600D01*
X98761069Y-76098600D01*
X98626706Y-76085367D01*
X98454305Y-76033069D01*
X98295417Y-75948142D01*
X98156151Y-75833849D01*
X98041858Y-75694583D01*
X97956931Y-75535695D01*
X97904633Y-75363294D01*
X97886975Y-75184000D01*
X97904633Y-75004706D01*
X97956931Y-74832305D01*
X98041858Y-74673417D01*
X98156151Y-74534151D01*
X98295417Y-74419858D01*
X98454305Y-74334931D01*
X98626706Y-74282633D01*
X98761069Y-74269400D01*
X98850931Y-74269400D01*
X98985294Y-74282633D01*
X98985294Y-74282633D01*
G37*
G36*
X101525294Y-74282633D02*
G01*
X101697695Y-74334931D01*
X101856583Y-74419858D01*
X101995849Y-74534151D01*
X102110142Y-74673417D01*
X102195069Y-74832305D01*
X102247367Y-75004706D01*
X102265025Y-75184000D01*
X102247367Y-75363294D01*
X102195069Y-75535695D01*
X102110142Y-75694583D01*
X101995849Y-75833849D01*
X101856583Y-75948142D01*
X101697695Y-76033069D01*
X101525294Y-76085367D01*
X101390931Y-76098600D01*
X101301069Y-76098600D01*
X101166706Y-76085367D01*
X100994305Y-76033069D01*
X100835417Y-75948142D01*
X100696151Y-75833849D01*
X100581858Y-75694583D01*
X100496931Y-75535695D01*
X100444633Y-75363294D01*
X100426975Y-75184000D01*
X100444633Y-75004706D01*
X100496931Y-74832305D01*
X100581858Y-74673417D01*
X100696151Y-74534151D01*
X100835417Y-74419858D01*
X100994305Y-74334931D01*
X101166706Y-74282633D01*
X101301069Y-74269400D01*
X101390931Y-74269400D01*
X101525294Y-74282633D01*
X101525294Y-74282633D01*
G37*
G36*
X77788674Y-74353465D02*
G01*
X77826367Y-74364899D01*
X77861103Y-74383466D01*
X77891548Y-74408452D01*
X77916534Y-74438897D01*
X77935101Y-74473633D01*
X77946535Y-74511326D01*
X77951000Y-74556661D01*
X77951000Y-75393339D01*
X77946535Y-75438674D01*
X77935101Y-75476367D01*
X77916534Y-75511103D01*
X77891548Y-75541548D01*
X77861103Y-75566534D01*
X77826367Y-75585101D01*
X77788674Y-75596535D01*
X77743339Y-75601000D01*
X76656661Y-75601000D01*
X76611326Y-75596535D01*
X76573633Y-75585101D01*
X76538897Y-75566534D01*
X76508452Y-75541548D01*
X76483466Y-75511103D01*
X76464899Y-75476367D01*
X76453465Y-75438674D01*
X76449000Y-75393339D01*
X76449000Y-74556661D01*
X76453465Y-74511326D01*
X76464899Y-74473633D01*
X76483466Y-74438897D01*
X76508452Y-74408452D01*
X76538897Y-74383466D01*
X76573633Y-74364899D01*
X76611326Y-74353465D01*
X76656661Y-74349000D01*
X77743339Y-74349000D01*
X77788674Y-74353465D01*
X77788674Y-74353465D01*
G37*
G36*
X88510443Y-73465519D02*
G01*
X88576627Y-73472037D01*
X88746466Y-73523557D01*
X88746468Y-73523558D01*
X88787269Y-73545367D01*
X88902991Y-73607222D01*
X88934381Y-73632983D01*
X89040186Y-73719814D01*
X89123448Y-73821271D01*
X89152778Y-73857009D01*
X89236443Y-74013534D01*
X89287963Y-74183373D01*
X89305359Y-74360000D01*
X89287963Y-74536627D01*
X89236443Y-74706466D01*
X89152778Y-74862991D01*
X89123448Y-74898729D01*
X89040186Y-75000186D01*
X88944149Y-75079000D01*
X88902991Y-75112778D01*
X88746466Y-75196443D01*
X88576627Y-75247963D01*
X88510443Y-75254481D01*
X88444260Y-75261000D01*
X88355740Y-75261000D01*
X88289557Y-75254481D01*
X88223373Y-75247963D01*
X88053534Y-75196443D01*
X87897009Y-75112778D01*
X87855851Y-75079000D01*
X87759814Y-75000186D01*
X87676552Y-74898729D01*
X87647222Y-74862991D01*
X87563557Y-74706466D01*
X87512037Y-74536627D01*
X87494641Y-74360000D01*
X87512037Y-74183373D01*
X87563557Y-74013534D01*
X87647222Y-73857009D01*
X87676552Y-73821271D01*
X87759814Y-73719814D01*
X87865619Y-73632983D01*
X87897009Y-73607222D01*
X88012731Y-73545367D01*
X88053532Y-73523558D01*
X88053534Y-73523557D01*
X88223373Y-73472037D01*
X88289557Y-73465519D01*
X88355740Y-73459000D01*
X88444260Y-73459000D01*
X88510443Y-73465519D01*
X88510443Y-73465519D01*
G37*
G36*
X77782674Y-72553465D02*
G01*
X77820367Y-72564899D01*
X77855103Y-72583466D01*
X77885548Y-72608452D01*
X77910534Y-72638897D01*
X77929101Y-72673633D01*
X77940535Y-72711326D01*
X77945000Y-72756661D01*
X77945000Y-73593339D01*
X77940535Y-73638674D01*
X77929101Y-73676367D01*
X77910534Y-73711103D01*
X77885548Y-73741548D01*
X77855103Y-73766534D01*
X77820367Y-73785101D01*
X77782674Y-73796535D01*
X77737339Y-73801000D01*
X76650661Y-73801000D01*
X76605326Y-73796535D01*
X76567633Y-73785101D01*
X76532897Y-73766534D01*
X76502452Y-73741548D01*
X76477466Y-73711103D01*
X76458899Y-73676367D01*
X76447465Y-73638674D01*
X76443000Y-73593339D01*
X76443000Y-72756661D01*
X76447465Y-72711326D01*
X76458899Y-72673633D01*
X76477466Y-72638897D01*
X76502452Y-72608452D01*
X76532897Y-72583466D01*
X76567633Y-72564899D01*
X76605326Y-72553465D01*
X76650661Y-72549000D01*
X77737339Y-72549000D01*
X77782674Y-72553465D01*
X77782674Y-72553465D01*
G37*
G36*
X80251000Y-73579000D02*
G01*
X79249000Y-73579000D01*
X79249000Y-72677000D01*
X80251000Y-72677000D01*
X80251000Y-73579000D01*
X80251000Y-73579000D01*
G37*
G36*
X101525294Y-71742633D02*
G01*
X101697695Y-71794931D01*
X101856583Y-71879858D01*
X101995849Y-71994151D01*
X102110142Y-72133417D01*
X102195069Y-72292305D01*
X102247367Y-72464706D01*
X102265025Y-72644000D01*
X102247367Y-72823294D01*
X102195069Y-72995695D01*
X102110142Y-73154583D01*
X101995849Y-73293849D01*
X101856583Y-73408142D01*
X101697695Y-73493069D01*
X101525294Y-73545367D01*
X101390931Y-73558600D01*
X101301069Y-73558600D01*
X101166706Y-73545367D01*
X100994305Y-73493069D01*
X100835417Y-73408142D01*
X100696151Y-73293849D01*
X100581858Y-73154583D01*
X100496931Y-72995695D01*
X100444633Y-72823294D01*
X100426975Y-72644000D01*
X100444633Y-72464706D01*
X100496931Y-72292305D01*
X100581858Y-72133417D01*
X100696151Y-71994151D01*
X100835417Y-71879858D01*
X100994305Y-71794931D01*
X101166706Y-71742633D01*
X101301069Y-71729400D01*
X101390931Y-71729400D01*
X101525294Y-71742633D01*
X101525294Y-71742633D01*
G37*
G36*
X96445294Y-71742633D02*
G01*
X96617695Y-71794931D01*
X96776583Y-71879858D01*
X96915849Y-71994151D01*
X97030142Y-72133417D01*
X97115069Y-72292305D01*
X97167367Y-72464706D01*
X97185025Y-72644000D01*
X97167367Y-72823294D01*
X97115069Y-72995695D01*
X97030142Y-73154583D01*
X96915849Y-73293849D01*
X96776583Y-73408142D01*
X96617695Y-73493069D01*
X96445294Y-73545367D01*
X96310931Y-73558600D01*
X96221069Y-73558600D01*
X96086706Y-73545367D01*
X95914305Y-73493069D01*
X95755417Y-73408142D01*
X95616151Y-73293849D01*
X95501858Y-73154583D01*
X95416931Y-72995695D01*
X95364633Y-72823294D01*
X95346975Y-72644000D01*
X95364633Y-72464706D01*
X95416931Y-72292305D01*
X95501858Y-72133417D01*
X95616151Y-71994151D01*
X95755417Y-71879858D01*
X95914305Y-71794931D01*
X96086706Y-71742633D01*
X96221069Y-71729400D01*
X96310931Y-71729400D01*
X96445294Y-71742633D01*
X96445294Y-71742633D01*
G37*
G36*
X98985294Y-71742633D02*
G01*
X99157695Y-71794931D01*
X99316583Y-71879858D01*
X99455849Y-71994151D01*
X99570142Y-72133417D01*
X99655069Y-72292305D01*
X99707367Y-72464706D01*
X99725025Y-72644000D01*
X99707367Y-72823294D01*
X99655069Y-72995695D01*
X99570142Y-73154583D01*
X99455849Y-73293849D01*
X99316583Y-73408142D01*
X99157695Y-73493069D01*
X98985294Y-73545367D01*
X98850931Y-73558600D01*
X98761069Y-73558600D01*
X98626706Y-73545367D01*
X98454305Y-73493069D01*
X98295417Y-73408142D01*
X98156151Y-73293849D01*
X98041858Y-73154583D01*
X97956931Y-72995695D01*
X97904633Y-72823294D01*
X97886975Y-72644000D01*
X97904633Y-72464706D01*
X97956931Y-72292305D01*
X98041858Y-72133417D01*
X98156151Y-71994151D01*
X98295417Y-71879858D01*
X98454305Y-71794931D01*
X98626706Y-71742633D01*
X98761069Y-71729400D01*
X98850931Y-71729400D01*
X98985294Y-71742633D01*
X98985294Y-71742633D01*
G37*
G36*
X82251000Y-72629000D02*
G01*
X81249000Y-72629000D01*
X81249000Y-71727000D01*
X82251000Y-71727000D01*
X82251000Y-72629000D01*
X82251000Y-72629000D01*
G37*
G36*
X75291000Y-72071000D02*
G01*
X74289000Y-72071000D01*
X74289000Y-71169000D01*
X75291000Y-71169000D01*
X75291000Y-72071000D01*
X75291000Y-72071000D01*
G37*
G36*
X88988674Y-70803465D02*
G01*
X89026367Y-70814899D01*
X89061103Y-70833466D01*
X89091548Y-70858452D01*
X89116534Y-70888897D01*
X89135101Y-70923633D01*
X89146535Y-70961326D01*
X89151000Y-71006661D01*
X89151000Y-71843339D01*
X89146535Y-71888674D01*
X89135101Y-71926367D01*
X89116534Y-71961103D01*
X89091548Y-71991548D01*
X89061103Y-72016534D01*
X89026367Y-72035101D01*
X88988674Y-72046535D01*
X88943339Y-72051000D01*
X87856661Y-72051000D01*
X87811326Y-72046535D01*
X87773633Y-72035101D01*
X87738897Y-72016534D01*
X87708452Y-71991548D01*
X87683466Y-71961103D01*
X87664899Y-71926367D01*
X87653465Y-71888674D01*
X87649000Y-71843339D01*
X87649000Y-71006661D01*
X87653465Y-70961326D01*
X87664899Y-70923633D01*
X87683466Y-70888897D01*
X87708452Y-70858452D01*
X87738897Y-70833466D01*
X87773633Y-70814899D01*
X87811326Y-70803465D01*
X87856661Y-70799000D01*
X88943339Y-70799000D01*
X88988674Y-70803465D01*
X88988674Y-70803465D01*
G37*
G36*
X86461000Y-71801000D02*
G01*
X85459000Y-71801000D01*
X85459000Y-70899000D01*
X86461000Y-70899000D01*
X86461000Y-71801000D01*
X86461000Y-71801000D01*
G37*
G36*
X77782674Y-70503465D02*
G01*
X77820367Y-70514899D01*
X77855103Y-70533466D01*
X77885548Y-70558452D01*
X77910534Y-70588897D01*
X77929101Y-70623633D01*
X77940535Y-70661326D01*
X77945000Y-70706661D01*
X77945000Y-71543339D01*
X77940535Y-71588674D01*
X77929101Y-71626367D01*
X77910534Y-71661103D01*
X77885548Y-71691548D01*
X77855103Y-71716534D01*
X77820367Y-71735101D01*
X77782674Y-71746535D01*
X77737339Y-71751000D01*
X76650661Y-71751000D01*
X76605326Y-71746535D01*
X76567633Y-71735101D01*
X76532897Y-71716534D01*
X76502452Y-71691548D01*
X76477466Y-71661103D01*
X76458899Y-71626367D01*
X76447465Y-71588674D01*
X76443000Y-71543339D01*
X76443000Y-70706661D01*
X76447465Y-70661326D01*
X76458899Y-70623633D01*
X76477466Y-70588897D01*
X76502452Y-70558452D01*
X76532897Y-70533466D01*
X76567633Y-70514899D01*
X76605326Y-70503465D01*
X76650661Y-70499000D01*
X77737339Y-70499000D01*
X77782674Y-70503465D01*
X77782674Y-70503465D01*
G37*
G36*
X80251000Y-71679000D02*
G01*
X79249000Y-71679000D01*
X79249000Y-70777000D01*
X80251000Y-70777000D01*
X80251000Y-71679000D01*
X80251000Y-71679000D01*
G37*
G36*
X65760443Y-69705519D02*
G01*
X65826627Y-69712037D01*
X65996466Y-69763557D01*
X65996468Y-69763558D01*
X66047808Y-69791000D01*
X66152991Y-69847222D01*
X66177101Y-69867009D01*
X66290186Y-69959814D01*
X66373448Y-70061271D01*
X66402778Y-70097009D01*
X66486443Y-70253534D01*
X66537963Y-70423373D01*
X66555359Y-70600000D01*
X66537963Y-70776627D01*
X66486443Y-70946466D01*
X66402778Y-71102991D01*
X66387998Y-71121000D01*
X66290186Y-71240186D01*
X66188729Y-71323448D01*
X66152991Y-71352778D01*
X65996466Y-71436443D01*
X65826627Y-71487963D01*
X65760442Y-71494482D01*
X65694260Y-71501000D01*
X65605740Y-71501000D01*
X65539558Y-71494482D01*
X65473373Y-71487963D01*
X65303534Y-71436443D01*
X65147009Y-71352778D01*
X65111271Y-71323448D01*
X65009814Y-71240186D01*
X64912002Y-71121000D01*
X64897222Y-71102991D01*
X64813557Y-70946466D01*
X64762037Y-70776627D01*
X64744641Y-70600000D01*
X64762037Y-70423373D01*
X64813557Y-70253534D01*
X64897222Y-70097009D01*
X64926552Y-70061271D01*
X65009814Y-69959814D01*
X65122899Y-69867009D01*
X65147009Y-69847222D01*
X65252192Y-69791000D01*
X65303532Y-69763558D01*
X65303534Y-69763557D01*
X65473373Y-69712037D01*
X65539557Y-69705519D01*
X65605740Y-69699000D01*
X65694260Y-69699000D01*
X65760443Y-69705519D01*
X65760443Y-69705519D01*
G37*
G36*
X54636000Y-71476000D02*
G01*
X50294000Y-71476000D01*
X50294000Y-67564000D01*
X54636000Y-67564000D01*
X54636000Y-71476000D01*
X54636000Y-71476000D01*
G37*
G36*
X62006000Y-71476000D02*
G01*
X57664000Y-71476000D01*
X57664000Y-67564000D01*
X62006000Y-67564000D01*
X62006000Y-71476000D01*
X62006000Y-71476000D01*
G37*
G36*
X109570442Y-69475518D02*
G01*
X109636627Y-69482037D01*
X109806466Y-69533557D01*
X109962991Y-69617222D01*
X109976945Y-69628674D01*
X110100186Y-69729814D01*
X110183448Y-69831271D01*
X110212778Y-69867009D01*
X110296443Y-70023534D01*
X110347963Y-70193373D01*
X110365359Y-70370000D01*
X110347963Y-70546627D01*
X110296443Y-70716466D01*
X110212778Y-70872991D01*
X110199724Y-70888897D01*
X110100186Y-71010186D01*
X109998729Y-71093448D01*
X109962991Y-71122778D01*
X109806466Y-71206443D01*
X109636627Y-71257963D01*
X109570443Y-71264481D01*
X109504260Y-71271000D01*
X109415740Y-71271000D01*
X109349557Y-71264481D01*
X109283373Y-71257963D01*
X109113534Y-71206443D01*
X108957009Y-71122778D01*
X108921271Y-71093448D01*
X108819814Y-71010186D01*
X108720276Y-70888897D01*
X108707222Y-70872991D01*
X108623557Y-70716466D01*
X108572037Y-70546627D01*
X108554641Y-70370000D01*
X108572037Y-70193373D01*
X108623557Y-70023534D01*
X108707222Y-69867009D01*
X108736552Y-69831271D01*
X108819814Y-69729814D01*
X108943055Y-69628674D01*
X108957009Y-69617222D01*
X109113534Y-69533557D01*
X109283373Y-69482037D01*
X109349558Y-69475518D01*
X109415740Y-69469000D01*
X109504260Y-69469000D01*
X109570442Y-69475518D01*
X109570442Y-69475518D01*
G37*
G36*
X73291000Y-71121000D02*
G01*
X72289000Y-71121000D01*
X72289000Y-70219000D01*
X73291000Y-70219000D01*
X73291000Y-71121000D01*
X73291000Y-71121000D01*
G37*
G36*
X84461000Y-70851000D02*
G01*
X83459000Y-70851000D01*
X83459000Y-69949000D01*
X84461000Y-69949000D01*
X84461000Y-70851000D01*
X84461000Y-70851000D01*
G37*
G36*
X75291000Y-70171000D02*
G01*
X74289000Y-70171000D01*
X74289000Y-69269000D01*
X75291000Y-69269000D01*
X75291000Y-70171000D01*
X75291000Y-70171000D01*
G37*
G36*
X88988674Y-68753465D02*
G01*
X89026367Y-68764899D01*
X89061103Y-68783466D01*
X89091548Y-68808452D01*
X89116534Y-68838897D01*
X89135101Y-68873633D01*
X89146535Y-68911326D01*
X89151000Y-68956661D01*
X89151000Y-69793339D01*
X89146535Y-69838674D01*
X89135101Y-69876367D01*
X89116534Y-69911103D01*
X89091548Y-69941548D01*
X89061103Y-69966534D01*
X89026367Y-69985101D01*
X88988674Y-69996535D01*
X88943339Y-70001000D01*
X87856661Y-70001000D01*
X87811326Y-69996535D01*
X87773633Y-69985101D01*
X87738897Y-69966534D01*
X87708452Y-69941548D01*
X87683466Y-69911103D01*
X87664899Y-69876367D01*
X87653465Y-69838674D01*
X87649000Y-69793339D01*
X87649000Y-68956661D01*
X87653465Y-68911326D01*
X87664899Y-68873633D01*
X87683466Y-68838897D01*
X87708452Y-68808452D01*
X87738897Y-68783466D01*
X87773633Y-68764899D01*
X87811326Y-68753465D01*
X87856661Y-68749000D01*
X88943339Y-68749000D01*
X88988674Y-68753465D01*
X88988674Y-68753465D01*
G37*
G36*
X86461000Y-69901000D02*
G01*
X85459000Y-69901000D01*
X85459000Y-68999000D01*
X86461000Y-68999000D01*
X86461000Y-69901000D01*
X86461000Y-69901000D01*
G37*
G36*
X80528674Y-68293465D02*
G01*
X80566367Y-68304899D01*
X80601103Y-68323466D01*
X80631548Y-68348452D01*
X80656534Y-68378897D01*
X80675101Y-68413633D01*
X80686535Y-68451326D01*
X80691000Y-68496661D01*
X80691000Y-69583339D01*
X80686535Y-69628674D01*
X80675101Y-69666367D01*
X80656534Y-69701103D01*
X80631548Y-69731548D01*
X80601103Y-69756534D01*
X80566367Y-69775101D01*
X80528674Y-69786535D01*
X80483339Y-69791000D01*
X79646661Y-69791000D01*
X79601326Y-69786535D01*
X79563633Y-69775101D01*
X79528897Y-69756534D01*
X79498452Y-69731548D01*
X79473466Y-69701103D01*
X79454899Y-69666367D01*
X79443465Y-69628674D01*
X79439000Y-69583339D01*
X79439000Y-68496661D01*
X79443465Y-68451326D01*
X79454899Y-68413633D01*
X79473466Y-68378897D01*
X79498452Y-68348452D01*
X79528897Y-68323466D01*
X79563633Y-68304899D01*
X79601326Y-68293465D01*
X79646661Y-68289000D01*
X80483339Y-68289000D01*
X80528674Y-68293465D01*
X80528674Y-68293465D01*
G37*
G36*
X78478674Y-68293465D02*
G01*
X78516367Y-68304899D01*
X78551103Y-68323466D01*
X78581548Y-68348452D01*
X78606534Y-68378897D01*
X78625101Y-68413633D01*
X78636535Y-68451326D01*
X78641000Y-68496661D01*
X78641000Y-69583339D01*
X78636535Y-69628674D01*
X78625101Y-69666367D01*
X78606534Y-69701103D01*
X78581548Y-69731548D01*
X78551103Y-69756534D01*
X78516367Y-69775101D01*
X78478674Y-69786535D01*
X78433339Y-69791000D01*
X77596661Y-69791000D01*
X77551326Y-69786535D01*
X77513633Y-69775101D01*
X77478897Y-69756534D01*
X77448452Y-69731548D01*
X77423466Y-69701103D01*
X77404899Y-69666367D01*
X77393465Y-69628674D01*
X77389000Y-69583339D01*
X77389000Y-68496661D01*
X77393465Y-68451326D01*
X77404899Y-68413633D01*
X77423466Y-68378897D01*
X77448452Y-68348452D01*
X77478897Y-68323466D01*
X77513633Y-68304899D01*
X77551326Y-68293465D01*
X77596661Y-68289000D01*
X78433339Y-68289000D01*
X78478674Y-68293465D01*
X78478674Y-68293465D01*
G37*
G36*
X65760442Y-67165518D02*
G01*
X65826627Y-67172037D01*
X65996466Y-67223557D01*
X66152991Y-67307222D01*
X66177101Y-67327009D01*
X66290186Y-67419814D01*
X66373448Y-67521271D01*
X66402778Y-67557009D01*
X66486443Y-67713534D01*
X66537963Y-67883373D01*
X66555359Y-68060000D01*
X66537963Y-68236627D01*
X66486443Y-68406466D01*
X66402778Y-68562991D01*
X66386539Y-68582778D01*
X66290186Y-68700186D01*
X66188729Y-68783448D01*
X66152991Y-68812778D01*
X65996466Y-68896443D01*
X65826627Y-68947963D01*
X65760443Y-68954481D01*
X65694260Y-68961000D01*
X65605740Y-68961000D01*
X65539557Y-68954481D01*
X65473373Y-68947963D01*
X65303534Y-68896443D01*
X65147009Y-68812778D01*
X65111271Y-68783448D01*
X65009814Y-68700186D01*
X64913461Y-68582778D01*
X64897222Y-68562991D01*
X64813557Y-68406466D01*
X64762037Y-68236627D01*
X64744641Y-68060000D01*
X64762037Y-67883373D01*
X64813557Y-67713534D01*
X64897222Y-67557009D01*
X64926552Y-67521271D01*
X65009814Y-67419814D01*
X65122899Y-67327009D01*
X65147009Y-67307222D01*
X65303534Y-67223557D01*
X65473373Y-67172037D01*
X65539558Y-67165518D01*
X65605740Y-67159000D01*
X65694260Y-67159000D01*
X65760442Y-67165518D01*
X65760442Y-67165518D01*
G37*
G36*
X109570443Y-66935519D02*
G01*
X109636627Y-66942037D01*
X109806466Y-66993557D01*
X109962991Y-67077222D01*
X109998729Y-67106552D01*
X110100186Y-67189814D01*
X110183448Y-67291271D01*
X110212778Y-67327009D01*
X110296443Y-67483534D01*
X110347963Y-67653373D01*
X110365359Y-67830000D01*
X110347963Y-68006627D01*
X110296443Y-68176466D01*
X110212778Y-68332991D01*
X110200089Y-68348452D01*
X110100186Y-68470186D01*
X109998729Y-68553448D01*
X109962991Y-68582778D01*
X109806466Y-68666443D01*
X109636627Y-68717963D01*
X109570442Y-68724482D01*
X109504260Y-68731000D01*
X109415740Y-68731000D01*
X109349558Y-68724482D01*
X109283373Y-68717963D01*
X109113534Y-68666443D01*
X108957009Y-68582778D01*
X108921271Y-68553448D01*
X108819814Y-68470186D01*
X108719911Y-68348452D01*
X108707222Y-68332991D01*
X108623557Y-68176466D01*
X108572037Y-68006627D01*
X108554641Y-67830000D01*
X108572037Y-67653373D01*
X108623557Y-67483534D01*
X108707222Y-67327009D01*
X108736552Y-67291271D01*
X108819814Y-67189814D01*
X108921271Y-67106552D01*
X108957009Y-67077222D01*
X109113534Y-66993557D01*
X109283373Y-66942037D01*
X109349557Y-66935519D01*
X109415740Y-66929000D01*
X109504260Y-66929000D01*
X109570443Y-66935519D01*
X109570443Y-66935519D01*
G37*
G36*
X101438674Y-66553465D02*
G01*
X101476367Y-66564899D01*
X101511103Y-66583466D01*
X101541548Y-66608452D01*
X101566534Y-66638897D01*
X101585101Y-66673633D01*
X101596535Y-66711326D01*
X101601000Y-66756661D01*
X101601000Y-67843339D01*
X101596535Y-67888674D01*
X101585101Y-67926367D01*
X101566534Y-67961103D01*
X101541548Y-67991548D01*
X101511103Y-68016534D01*
X101476367Y-68035101D01*
X101438674Y-68046535D01*
X101393339Y-68051000D01*
X100556661Y-68051000D01*
X100511326Y-68046535D01*
X100473633Y-68035101D01*
X100438897Y-68016534D01*
X100408452Y-67991548D01*
X100383466Y-67961103D01*
X100364899Y-67926367D01*
X100353465Y-67888674D01*
X100349000Y-67843339D01*
X100349000Y-66756661D01*
X100353465Y-66711326D01*
X100364899Y-66673633D01*
X100383466Y-66638897D01*
X100408452Y-66608452D01*
X100438897Y-66583466D01*
X100473633Y-66564899D01*
X100511326Y-66553465D01*
X100556661Y-66549000D01*
X101393339Y-66549000D01*
X101438674Y-66553465D01*
X101438674Y-66553465D01*
G37*
G36*
X103488674Y-66553465D02*
G01*
X103526367Y-66564899D01*
X103561103Y-66583466D01*
X103591548Y-66608452D01*
X103616534Y-66638897D01*
X103635101Y-66673633D01*
X103646535Y-66711326D01*
X103651000Y-66756661D01*
X103651000Y-67843339D01*
X103646535Y-67888674D01*
X103635101Y-67926367D01*
X103616534Y-67961103D01*
X103591548Y-67991548D01*
X103561103Y-68016534D01*
X103526367Y-68035101D01*
X103488674Y-68046535D01*
X103443339Y-68051000D01*
X102606661Y-68051000D01*
X102561326Y-68046535D01*
X102523633Y-68035101D01*
X102488897Y-68016534D01*
X102458452Y-67991548D01*
X102433466Y-67961103D01*
X102414899Y-67926367D01*
X102403465Y-67888674D01*
X102399000Y-67843339D01*
X102399000Y-66756661D01*
X102403465Y-66711326D01*
X102414899Y-66673633D01*
X102433466Y-66638897D01*
X102458452Y-66608452D01*
X102488897Y-66583466D01*
X102523633Y-66564899D01*
X102561326Y-66553465D01*
X102606661Y-66549000D01*
X103443339Y-66549000D01*
X103488674Y-66553465D01*
X103488674Y-66553465D01*
G37*
G36*
X106488674Y-66703465D02*
G01*
X106526367Y-66714899D01*
X106561103Y-66733466D01*
X106591548Y-66758452D01*
X106616534Y-66788897D01*
X106635101Y-66823633D01*
X106646535Y-66861326D01*
X106651000Y-66906661D01*
X106651000Y-67743339D01*
X106646535Y-67788674D01*
X106635101Y-67826367D01*
X106616534Y-67861103D01*
X106591548Y-67891548D01*
X106561103Y-67916534D01*
X106526367Y-67935101D01*
X106488674Y-67946535D01*
X106443339Y-67951000D01*
X105356661Y-67951000D01*
X105311326Y-67946535D01*
X105273633Y-67935101D01*
X105238897Y-67916534D01*
X105208452Y-67891548D01*
X105183466Y-67861103D01*
X105164899Y-67826367D01*
X105153465Y-67788674D01*
X105149000Y-67743339D01*
X105149000Y-66906661D01*
X105153465Y-66861326D01*
X105164899Y-66823633D01*
X105183466Y-66788897D01*
X105208452Y-66758452D01*
X105238897Y-66733466D01*
X105273633Y-66714899D01*
X105311326Y-66703465D01*
X105356661Y-66699000D01*
X106443339Y-66699000D01*
X106488674Y-66703465D01*
X106488674Y-66703465D01*
G37*
G36*
X65760442Y-64625518D02*
G01*
X65826627Y-64632037D01*
X65996466Y-64683557D01*
X66152991Y-64767222D01*
X66177101Y-64787009D01*
X66290186Y-64879814D01*
X66373226Y-64981000D01*
X66402778Y-65017009D01*
X66486443Y-65173534D01*
X66537963Y-65343373D01*
X66555359Y-65520000D01*
X66537963Y-65696627D01*
X66486443Y-65866466D01*
X66402778Y-66022991D01*
X66386539Y-66042778D01*
X66290186Y-66160186D01*
X66188729Y-66243448D01*
X66152991Y-66272778D01*
X65996466Y-66356443D01*
X65826627Y-66407963D01*
X65760443Y-66414481D01*
X65694260Y-66421000D01*
X65605740Y-66421000D01*
X65539557Y-66414481D01*
X65473373Y-66407963D01*
X65303534Y-66356443D01*
X65147009Y-66272778D01*
X65111271Y-66243448D01*
X65009814Y-66160186D01*
X64913461Y-66042778D01*
X64897222Y-66022991D01*
X64813557Y-65866466D01*
X64762037Y-65696627D01*
X64744641Y-65520000D01*
X64762037Y-65343373D01*
X64813557Y-65173534D01*
X64897222Y-65017009D01*
X64926774Y-64981000D01*
X65009814Y-64879814D01*
X65122899Y-64787009D01*
X65147009Y-64767222D01*
X65303534Y-64683557D01*
X65473373Y-64632037D01*
X65539558Y-64625518D01*
X65605740Y-64619000D01*
X65694260Y-64619000D01*
X65760442Y-64625518D01*
X65760442Y-64625518D01*
G37*
G36*
X109570442Y-64395518D02*
G01*
X109636627Y-64402037D01*
X109806466Y-64453557D01*
X109962991Y-64537222D01*
X109998729Y-64566552D01*
X110100186Y-64649814D01*
X110173293Y-64738897D01*
X110212778Y-64787009D01*
X110296443Y-64943534D01*
X110347963Y-65113373D01*
X110365359Y-65290000D01*
X110347963Y-65466627D01*
X110298760Y-65628827D01*
X110296442Y-65636468D01*
X110266044Y-65693339D01*
X110212778Y-65792991D01*
X110189560Y-65821282D01*
X110100186Y-65930186D01*
X109998729Y-66013448D01*
X109962991Y-66042778D01*
X109806466Y-66126443D01*
X109636627Y-66177963D01*
X109570443Y-66184481D01*
X109504260Y-66191000D01*
X109415740Y-66191000D01*
X109349557Y-66184481D01*
X109283373Y-66177963D01*
X109113534Y-66126443D01*
X108957009Y-66042778D01*
X108921271Y-66013448D01*
X108819814Y-65930186D01*
X108730440Y-65821282D01*
X108707222Y-65792991D01*
X108653956Y-65693339D01*
X108623558Y-65636468D01*
X108621240Y-65628827D01*
X108572037Y-65466627D01*
X108554641Y-65290000D01*
X108572037Y-65113373D01*
X108623557Y-64943534D01*
X108707222Y-64787009D01*
X108746707Y-64738897D01*
X108819814Y-64649814D01*
X108921271Y-64566552D01*
X108957009Y-64537222D01*
X109113534Y-64453557D01*
X109283373Y-64402037D01*
X109349558Y-64395518D01*
X109415740Y-64389000D01*
X109504260Y-64389000D01*
X109570442Y-64395518D01*
X109570442Y-64395518D01*
G37*
G36*
X106488674Y-64653465D02*
G01*
X106526367Y-64664899D01*
X106561103Y-64683466D01*
X106591548Y-64708452D01*
X106616534Y-64738897D01*
X106635101Y-64773633D01*
X106646535Y-64811326D01*
X106651000Y-64856661D01*
X106651000Y-65693339D01*
X106646535Y-65738674D01*
X106635101Y-65776367D01*
X106616534Y-65811103D01*
X106591548Y-65841548D01*
X106561103Y-65866534D01*
X106526367Y-65885101D01*
X106488674Y-65896535D01*
X106443339Y-65901000D01*
X105356661Y-65901000D01*
X105311326Y-65896535D01*
X105273633Y-65885101D01*
X105238897Y-65866534D01*
X105208452Y-65841548D01*
X105183466Y-65811103D01*
X105164899Y-65776367D01*
X105153465Y-65738674D01*
X105149000Y-65693339D01*
X105149000Y-64856661D01*
X105153465Y-64811326D01*
X105164899Y-64773633D01*
X105183466Y-64738897D01*
X105208452Y-64708452D01*
X105238897Y-64683466D01*
X105273633Y-64664899D01*
X105311326Y-64653465D01*
X105356661Y-64649000D01*
X106443339Y-64649000D01*
X106488674Y-64653465D01*
X106488674Y-64653465D01*
G37*
G36*
X96971000Y-65461000D02*
G01*
X95869000Y-65461000D01*
X95869000Y-64359000D01*
X96971000Y-64359000D01*
X96971000Y-65461000D01*
X96971000Y-65461000D01*
G37*
G36*
X54404585Y-62160802D02*
G01*
X54554410Y-62190604D01*
X54836674Y-62307521D01*
X55090705Y-62477259D01*
X55306741Y-62693295D01*
X55476479Y-62947326D01*
X55576448Y-63188674D01*
X55593396Y-63229591D01*
X55650220Y-63515261D01*
X55653000Y-63529240D01*
X55653000Y-63834760D01*
X55593396Y-64134410D01*
X55476479Y-64416674D01*
X55306741Y-64670705D01*
X55090705Y-64886741D01*
X54836674Y-65056479D01*
X54554410Y-65173396D01*
X54477275Y-65188739D01*
X54254761Y-65233000D01*
X53949239Y-65233000D01*
X53726725Y-65188739D01*
X53649590Y-65173396D01*
X53367326Y-65056479D01*
X53113295Y-64886741D01*
X52897259Y-64670705D01*
X52727521Y-64416674D01*
X52610604Y-64134410D01*
X52551000Y-63834760D01*
X52551000Y-63529240D01*
X52553781Y-63515261D01*
X52610604Y-63229591D01*
X52627552Y-63188674D01*
X52727521Y-62947326D01*
X52897259Y-62693295D01*
X53113295Y-62477259D01*
X53367326Y-62307521D01*
X53649590Y-62190604D01*
X53799415Y-62160802D01*
X53949239Y-62131000D01*
X54254761Y-62131000D01*
X54404585Y-62160802D01*
X54404585Y-62160802D01*
G37*
G36*
X88700997Y-63505051D02*
G01*
X88734652Y-63515261D01*
X88765665Y-63531838D01*
X88792851Y-63554149D01*
X88815162Y-63581335D01*
X88831739Y-63612348D01*
X88841949Y-63646003D01*
X88846000Y-63687138D01*
X88846000Y-65016862D01*
X88841949Y-65057997D01*
X88831739Y-65091652D01*
X88815162Y-65122665D01*
X88792851Y-65149851D01*
X88765665Y-65172162D01*
X88734652Y-65188739D01*
X88700997Y-65198949D01*
X88659862Y-65203000D01*
X85930138Y-65203000D01*
X85889003Y-65198949D01*
X85855348Y-65188739D01*
X85824335Y-65172162D01*
X85797149Y-65149851D01*
X85774838Y-65122665D01*
X85758261Y-65091652D01*
X85748051Y-65057997D01*
X85744000Y-65016862D01*
X85744000Y-63687138D01*
X85748051Y-63646003D01*
X85758261Y-63612348D01*
X85774838Y-63581335D01*
X85797149Y-63554149D01*
X85824335Y-63531838D01*
X85855348Y-63515261D01*
X85889003Y-63505051D01*
X85930138Y-63501000D01*
X88659862Y-63501000D01*
X88700997Y-63505051D01*
X88700997Y-63505051D01*
G37*
G36*
X93100997Y-63505051D02*
G01*
X93134652Y-63515261D01*
X93165665Y-63531838D01*
X93192851Y-63554149D01*
X93215162Y-63581335D01*
X93231739Y-63612348D01*
X93241949Y-63646003D01*
X93246000Y-63687138D01*
X93246000Y-65016862D01*
X93241949Y-65057997D01*
X93231739Y-65091652D01*
X93215162Y-65122665D01*
X93192851Y-65149851D01*
X93165665Y-65172162D01*
X93134652Y-65188739D01*
X93100997Y-65198949D01*
X93059862Y-65203000D01*
X90330138Y-65203000D01*
X90289003Y-65198949D01*
X90255348Y-65188739D01*
X90224335Y-65172162D01*
X90197149Y-65149851D01*
X90174838Y-65122665D01*
X90158261Y-65091652D01*
X90148051Y-65057997D01*
X90144000Y-65016862D01*
X90144000Y-63687138D01*
X90148051Y-63646003D01*
X90158261Y-63612348D01*
X90174838Y-63581335D01*
X90197149Y-63554149D01*
X90224335Y-63531838D01*
X90255348Y-63515261D01*
X90289003Y-63505051D01*
X90330138Y-63501000D01*
X93059862Y-63501000D01*
X93100997Y-63505051D01*
X93100997Y-63505051D01*
G37*
G36*
X63011000Y-64981000D02*
G01*
X61909000Y-64981000D01*
X61909000Y-63879000D01*
X63011000Y-63879000D01*
X63011000Y-64981000D01*
X63011000Y-64981000D01*
G37*
G36*
X65760443Y-62085519D02*
G01*
X65826627Y-62092037D01*
X65996466Y-62143557D01*
X66152991Y-62227222D01*
X66177101Y-62247009D01*
X66290186Y-62339814D01*
X66373448Y-62441271D01*
X66402778Y-62477009D01*
X66486443Y-62633534D01*
X66537963Y-62803373D01*
X66555359Y-62980000D01*
X66537963Y-63156627D01*
X66486443Y-63326466D01*
X66486442Y-63326468D01*
X66476125Y-63345770D01*
X66402778Y-63482991D01*
X66373448Y-63518729D01*
X66290186Y-63620186D01*
X66188729Y-63703448D01*
X66152991Y-63732778D01*
X65996466Y-63816443D01*
X65826627Y-63867963D01*
X65760443Y-63874481D01*
X65694260Y-63881000D01*
X65605740Y-63881000D01*
X65539557Y-63874481D01*
X65473373Y-63867963D01*
X65303534Y-63816443D01*
X65147009Y-63732778D01*
X65111271Y-63703448D01*
X65009814Y-63620186D01*
X64926552Y-63518729D01*
X64897222Y-63482991D01*
X64823875Y-63345770D01*
X64813558Y-63326468D01*
X64813557Y-63326466D01*
X64762037Y-63156627D01*
X64744641Y-62980000D01*
X64762037Y-62803373D01*
X64813557Y-62633534D01*
X64897222Y-62477009D01*
X64926552Y-62441271D01*
X65009814Y-62339814D01*
X65122899Y-62247009D01*
X65147009Y-62227222D01*
X65303534Y-62143557D01*
X65473373Y-62092037D01*
X65539557Y-62085519D01*
X65605740Y-62079000D01*
X65694260Y-62079000D01*
X65760443Y-62085519D01*
X65760443Y-62085519D01*
G37*
G36*
X60951000Y-63671000D02*
G01*
X59649000Y-63671000D01*
X59649000Y-62669000D01*
X60951000Y-62669000D01*
X60951000Y-63671000D01*
X60951000Y-63671000D01*
G37*
G36*
X109549593Y-61853465D02*
G01*
X109636627Y-61862037D01*
X109806466Y-61913557D01*
X109962991Y-61997222D01*
X109987111Y-62017017D01*
X110100186Y-62109814D01*
X110183448Y-62211271D01*
X110212778Y-62247009D01*
X110296443Y-62403534D01*
X110347963Y-62573373D01*
X110365359Y-62750000D01*
X110347963Y-62926627D01*
X110296443Y-63096466D01*
X110212778Y-63252991D01*
X110197767Y-63271282D01*
X110100186Y-63390186D01*
X109998729Y-63473448D01*
X109962991Y-63502778D01*
X109806466Y-63586443D01*
X109636627Y-63637963D01*
X109570442Y-63644482D01*
X109504260Y-63651000D01*
X109415740Y-63651000D01*
X109349558Y-63644482D01*
X109283373Y-63637963D01*
X109113534Y-63586443D01*
X108957009Y-63502778D01*
X108921271Y-63473448D01*
X108819814Y-63390186D01*
X108722233Y-63271282D01*
X108707222Y-63252991D01*
X108623557Y-63096466D01*
X108572037Y-62926627D01*
X108554641Y-62750000D01*
X108572037Y-62573373D01*
X108623557Y-62403534D01*
X108707222Y-62247009D01*
X108736552Y-62211271D01*
X108819814Y-62109814D01*
X108932889Y-62017017D01*
X108957009Y-61997222D01*
X109113534Y-61913557D01*
X109283373Y-61862037D01*
X109370407Y-61853465D01*
X109415740Y-61849000D01*
X109504260Y-61849000D01*
X109549593Y-61853465D01*
X109549593Y-61853465D01*
G37*
G36*
X96888674Y-61853465D02*
G01*
X96926367Y-61864899D01*
X96961103Y-61883466D01*
X96991548Y-61908452D01*
X97016534Y-61938897D01*
X97035101Y-61973633D01*
X97046535Y-62011326D01*
X97051000Y-62056661D01*
X97051000Y-63143339D01*
X97046535Y-63188674D01*
X97035101Y-63226367D01*
X97016534Y-63261103D01*
X96991548Y-63291548D01*
X96961103Y-63316534D01*
X96926367Y-63335101D01*
X96888674Y-63346535D01*
X96843339Y-63351000D01*
X96006661Y-63351000D01*
X95961326Y-63346535D01*
X95923633Y-63335101D01*
X95888897Y-63316534D01*
X95858452Y-63291548D01*
X95833466Y-63261103D01*
X95814899Y-63226367D01*
X95803465Y-63188674D01*
X95799000Y-63143339D01*
X95799000Y-62056661D01*
X95803465Y-62011326D01*
X95814899Y-61973633D01*
X95833466Y-61938897D01*
X95858452Y-61908452D01*
X95888897Y-61883466D01*
X95923633Y-61864899D01*
X95961326Y-61853465D01*
X96006661Y-61849000D01*
X96843339Y-61849000D01*
X96888674Y-61853465D01*
X96888674Y-61853465D01*
G37*
G36*
X94838674Y-61853465D02*
G01*
X94876367Y-61864899D01*
X94911103Y-61883466D01*
X94941548Y-61908452D01*
X94966534Y-61938897D01*
X94985101Y-61973633D01*
X94996535Y-62011326D01*
X95001000Y-62056661D01*
X95001000Y-63143339D01*
X94996535Y-63188674D01*
X94985101Y-63226367D01*
X94966534Y-63261103D01*
X94941548Y-63291548D01*
X94911103Y-63316534D01*
X94876367Y-63335101D01*
X94838674Y-63346535D01*
X94793339Y-63351000D01*
X93956661Y-63351000D01*
X93911326Y-63346535D01*
X93873633Y-63335101D01*
X93838897Y-63316534D01*
X93808452Y-63291548D01*
X93783466Y-63261103D01*
X93764899Y-63226367D01*
X93753465Y-63188674D01*
X93749000Y-63143339D01*
X93749000Y-62056661D01*
X93753465Y-62011326D01*
X93764899Y-61973633D01*
X93783466Y-61938897D01*
X93808452Y-61908452D01*
X93838897Y-61883466D01*
X93873633Y-61864899D01*
X93911326Y-61853465D01*
X93956661Y-61849000D01*
X94793339Y-61849000D01*
X94838674Y-61853465D01*
X94838674Y-61853465D01*
G37*
G36*
X80178674Y-60053465D02*
G01*
X80216367Y-60064899D01*
X80251103Y-60083466D01*
X80281548Y-60108452D01*
X80306534Y-60138897D01*
X80325101Y-60173633D01*
X80336535Y-60211326D01*
X80341000Y-60256661D01*
X80341000Y-61343339D01*
X80336535Y-61388674D01*
X80325101Y-61426367D01*
X80306534Y-61461103D01*
X80281548Y-61491548D01*
X80251103Y-61516534D01*
X80216367Y-61535101D01*
X80178674Y-61546535D01*
X80133339Y-61551000D01*
X79296661Y-61551000D01*
X79251326Y-61546535D01*
X79213633Y-61535101D01*
X79178897Y-61516534D01*
X79148452Y-61491548D01*
X79123466Y-61461103D01*
X79104899Y-61426367D01*
X79093465Y-61388674D01*
X79089000Y-61343339D01*
X79089000Y-60256661D01*
X79093465Y-60211326D01*
X79104899Y-60173633D01*
X79123466Y-60138897D01*
X79148452Y-60108452D01*
X79178897Y-60083466D01*
X79213633Y-60064899D01*
X79251326Y-60053465D01*
X79296661Y-60049000D01*
X80133339Y-60049000D01*
X80178674Y-60053465D01*
X80178674Y-60053465D01*
G37*
G36*
X82228674Y-60053465D02*
G01*
X82266367Y-60064899D01*
X82301103Y-60083466D01*
X82331548Y-60108452D01*
X82356534Y-60138897D01*
X82375101Y-60173633D01*
X82386535Y-60211326D01*
X82391000Y-60256661D01*
X82391000Y-61343339D01*
X82386535Y-61388674D01*
X82375101Y-61426367D01*
X82356534Y-61461103D01*
X82331548Y-61491548D01*
X82301103Y-61516534D01*
X82266367Y-61535101D01*
X82228674Y-61546535D01*
X82183339Y-61551000D01*
X81346661Y-61551000D01*
X81301326Y-61546535D01*
X81263633Y-61535101D01*
X81228897Y-61516534D01*
X81198452Y-61491548D01*
X81173466Y-61461103D01*
X81154899Y-61426367D01*
X81143465Y-61388674D01*
X81139000Y-61343339D01*
X81139000Y-60256661D01*
X81143465Y-60211326D01*
X81154899Y-60173633D01*
X81173466Y-60138897D01*
X81198452Y-60108452D01*
X81228897Y-60083466D01*
X81263633Y-60064899D01*
X81301326Y-60053465D01*
X81346661Y-60049000D01*
X82183339Y-60049000D01*
X82228674Y-60053465D01*
X82228674Y-60053465D01*
G37*
G36*
X73309674Y-60050465D02*
G01*
X73347367Y-60061899D01*
X73382103Y-60080466D01*
X73412548Y-60105452D01*
X73437534Y-60135897D01*
X73456101Y-60170633D01*
X73467535Y-60208326D01*
X73472000Y-60253661D01*
X73472000Y-61340339D01*
X73467535Y-61385674D01*
X73456101Y-61423367D01*
X73437534Y-61458103D01*
X73412548Y-61488548D01*
X73382103Y-61513534D01*
X73347367Y-61532101D01*
X73309674Y-61543535D01*
X73264339Y-61548000D01*
X72427661Y-61548000D01*
X72382326Y-61543535D01*
X72344633Y-61532101D01*
X72309897Y-61513534D01*
X72279452Y-61488548D01*
X72254466Y-61458103D01*
X72235899Y-61423367D01*
X72224465Y-61385674D01*
X72220000Y-61340339D01*
X72220000Y-60253661D01*
X72224465Y-60208326D01*
X72235899Y-60170633D01*
X72254466Y-60135897D01*
X72279452Y-60105452D01*
X72309897Y-60080466D01*
X72344633Y-60061899D01*
X72382326Y-60050465D01*
X72427661Y-60046000D01*
X73264339Y-60046000D01*
X73309674Y-60050465D01*
X73309674Y-60050465D01*
G37*
G36*
X75359674Y-60050465D02*
G01*
X75397367Y-60061899D01*
X75432103Y-60080466D01*
X75462548Y-60105452D01*
X75487534Y-60135897D01*
X75506101Y-60170633D01*
X75517535Y-60208326D01*
X75522000Y-60253661D01*
X75522000Y-61340339D01*
X75517535Y-61385674D01*
X75506101Y-61423367D01*
X75487534Y-61458103D01*
X75462548Y-61488548D01*
X75432103Y-61513534D01*
X75397367Y-61532101D01*
X75359674Y-61543535D01*
X75314339Y-61548000D01*
X74477661Y-61548000D01*
X74432326Y-61543535D01*
X74394633Y-61532101D01*
X74359897Y-61513534D01*
X74329452Y-61488548D01*
X74304466Y-61458103D01*
X74285899Y-61423367D01*
X74274465Y-61385674D01*
X74270000Y-61340339D01*
X74270000Y-60253661D01*
X74274465Y-60208326D01*
X74285899Y-60170633D01*
X74304466Y-60135897D01*
X74329452Y-60105452D01*
X74359897Y-60080466D01*
X74394633Y-60061899D01*
X74432326Y-60050465D01*
X74477661Y-60046000D01*
X75314339Y-60046000D01*
X75359674Y-60050465D01*
X75359674Y-60050465D01*
G37*
G36*
X65760443Y-59545519D02*
G01*
X65826627Y-59552037D01*
X65996466Y-59603557D01*
X66152991Y-59687222D01*
X66177101Y-59707009D01*
X66290186Y-59799814D01*
X66373448Y-59901271D01*
X66402778Y-59937009D01*
X66486443Y-60093534D01*
X66537963Y-60263373D01*
X66555359Y-60440000D01*
X66537963Y-60616627D01*
X66486443Y-60786466D01*
X66402778Y-60942991D01*
X66386539Y-60962778D01*
X66290186Y-61080186D01*
X66188729Y-61163448D01*
X66152991Y-61192778D01*
X66152989Y-61192779D01*
X65997619Y-61275827D01*
X65996466Y-61276443D01*
X65826627Y-61327963D01*
X65786399Y-61331925D01*
X65694260Y-61341000D01*
X65605740Y-61341000D01*
X65513601Y-61331925D01*
X65473373Y-61327963D01*
X65303534Y-61276443D01*
X65302382Y-61275827D01*
X65147011Y-61192779D01*
X65147009Y-61192778D01*
X65111271Y-61163448D01*
X65009814Y-61080186D01*
X64913461Y-60962778D01*
X64897222Y-60942991D01*
X64813557Y-60786466D01*
X64762037Y-60616627D01*
X64744641Y-60440000D01*
X64762037Y-60263373D01*
X64813557Y-60093534D01*
X64897222Y-59937009D01*
X64926552Y-59901271D01*
X65009814Y-59799814D01*
X65122899Y-59707009D01*
X65147009Y-59687222D01*
X65303534Y-59603557D01*
X65473373Y-59552037D01*
X65539557Y-59545519D01*
X65605740Y-59539000D01*
X65694260Y-59539000D01*
X65760443Y-59545519D01*
X65760443Y-59545519D01*
G37*
G36*
X78181000Y-61301000D02*
G01*
X76879000Y-61301000D01*
X76879000Y-60299000D01*
X78181000Y-60299000D01*
X78181000Y-61301000D01*
X78181000Y-61301000D01*
G37*
G36*
X109570442Y-59315518D02*
G01*
X109636627Y-59322037D01*
X109806466Y-59373557D01*
X109962991Y-59457222D01*
X109998729Y-59486552D01*
X110100186Y-59569814D01*
X110183448Y-59671271D01*
X110212778Y-59707009D01*
X110296443Y-59863534D01*
X110347963Y-60033373D01*
X110365359Y-60210000D01*
X110347963Y-60386627D01*
X110296443Y-60556466D01*
X110212778Y-60712991D01*
X110183448Y-60748729D01*
X110100186Y-60850186D01*
X109998729Y-60933448D01*
X109962991Y-60962778D01*
X109806466Y-61046443D01*
X109636627Y-61097963D01*
X109570442Y-61104482D01*
X109504260Y-61111000D01*
X109415740Y-61111000D01*
X109349558Y-61104482D01*
X109283373Y-61097963D01*
X109113534Y-61046443D01*
X108957009Y-60962778D01*
X108921271Y-60933448D01*
X108819814Y-60850186D01*
X108736552Y-60748729D01*
X108707222Y-60712991D01*
X108623557Y-60556466D01*
X108572037Y-60386627D01*
X108554641Y-60210000D01*
X108572037Y-60033373D01*
X108623557Y-59863534D01*
X108707222Y-59707009D01*
X108736552Y-59671271D01*
X108819814Y-59569814D01*
X108921271Y-59486552D01*
X108957009Y-59457222D01*
X109113534Y-59373557D01*
X109283373Y-59322037D01*
X109349558Y-59315518D01*
X109415740Y-59309000D01*
X109504260Y-59309000D01*
X109570442Y-59315518D01*
X109570442Y-59315518D01*
G37*
G36*
X60951000Y-60371000D02*
G01*
X59649000Y-60371000D01*
X59649000Y-59369000D01*
X60951000Y-59369000D01*
X60951000Y-60371000D01*
X60951000Y-60371000D01*
G37*
G36*
X55653000Y-60153000D02*
G01*
X52551000Y-60153000D01*
X52551000Y-57051000D01*
X55653000Y-57051000D01*
X55653000Y-60153000D01*
X55653000Y-60153000D01*
G37*
G36*
X94901000Y-58851000D02*
G01*
X93299000Y-58851000D01*
X93299000Y-56449000D01*
X94901000Y-56449000D01*
X94901000Y-58851000D01*
X94901000Y-58851000D01*
G37*
G36*
X92051000Y-58851000D02*
G01*
X90449000Y-58851000D01*
X90449000Y-56449000D01*
X92051000Y-56449000D01*
X92051000Y-58851000D01*
X92051000Y-58851000D01*
G37*
G36*
X97751000Y-58851000D02*
G01*
X96149000Y-58851000D01*
X96149000Y-56449000D01*
X97751000Y-56449000D01*
X97751000Y-58851000D01*
X97751000Y-58851000D01*
G37*
G36*
X66551000Y-58801000D02*
G01*
X64749000Y-58801000D01*
X64749000Y-56999000D01*
X66551000Y-56999000D01*
X66551000Y-58801000D01*
X66551000Y-58801000D01*
G37*
G36*
X71209512Y-56882927D02*
G01*
X71358812Y-56912624D01*
X71522784Y-56980544D01*
X71670354Y-57079147D01*
X71795853Y-57204646D01*
X71894456Y-57352216D01*
X71962376Y-57516188D01*
X71997000Y-57690259D01*
X71997000Y-57867741D01*
X71962376Y-58041812D01*
X71894456Y-58205784D01*
X71795853Y-58353354D01*
X71670354Y-58478853D01*
X71522784Y-58577456D01*
X71358812Y-58645376D01*
X71209512Y-58675073D01*
X71184742Y-58680000D01*
X71007258Y-58680000D01*
X70982488Y-58675073D01*
X70833188Y-58645376D01*
X70669216Y-58577456D01*
X70521646Y-58478853D01*
X70396147Y-58353354D01*
X70297544Y-58205784D01*
X70229624Y-58041812D01*
X70195000Y-57867741D01*
X70195000Y-57690259D01*
X70229624Y-57516188D01*
X70297544Y-57352216D01*
X70396147Y-57204646D01*
X70521646Y-57079147D01*
X70669216Y-56980544D01*
X70833188Y-56912624D01*
X70982488Y-56882927D01*
X71007258Y-56878000D01*
X71184742Y-56878000D01*
X71209512Y-56882927D01*
X71209512Y-56882927D01*
G37*
G36*
X73749512Y-56882927D02*
G01*
X73898812Y-56912624D01*
X74062784Y-56980544D01*
X74210354Y-57079147D01*
X74335853Y-57204646D01*
X74434456Y-57352216D01*
X74502376Y-57516188D01*
X74537000Y-57690259D01*
X74537000Y-57867741D01*
X74502376Y-58041812D01*
X74434456Y-58205784D01*
X74335853Y-58353354D01*
X74210354Y-58478853D01*
X74062784Y-58577456D01*
X73898812Y-58645376D01*
X73749512Y-58675073D01*
X73724742Y-58680000D01*
X73547258Y-58680000D01*
X73522488Y-58675073D01*
X73373188Y-58645376D01*
X73209216Y-58577456D01*
X73061646Y-58478853D01*
X72936147Y-58353354D01*
X72837544Y-58205784D01*
X72769624Y-58041812D01*
X72735000Y-57867741D01*
X72735000Y-57690259D01*
X72769624Y-57516188D01*
X72837544Y-57352216D01*
X72936147Y-57204646D01*
X73061646Y-57079147D01*
X73209216Y-56980544D01*
X73373188Y-56912624D01*
X73522488Y-56882927D01*
X73547258Y-56878000D01*
X73724742Y-56878000D01*
X73749512Y-56882927D01*
X73749512Y-56882927D01*
G37*
G36*
X84417512Y-56882927D02*
G01*
X84566812Y-56912624D01*
X84730784Y-56980544D01*
X84878354Y-57079147D01*
X85003853Y-57204646D01*
X85102456Y-57352216D01*
X85170376Y-57516188D01*
X85205000Y-57690259D01*
X85205000Y-57867741D01*
X85170376Y-58041812D01*
X85102456Y-58205784D01*
X85003853Y-58353354D01*
X84878354Y-58478853D01*
X84730784Y-58577456D01*
X84566812Y-58645376D01*
X84417512Y-58675073D01*
X84392742Y-58680000D01*
X84215258Y-58680000D01*
X84190488Y-58675073D01*
X84041188Y-58645376D01*
X83877216Y-58577456D01*
X83729646Y-58478853D01*
X83604147Y-58353354D01*
X83505544Y-58205784D01*
X83437624Y-58041812D01*
X83403000Y-57867741D01*
X83403000Y-57690259D01*
X83437624Y-57516188D01*
X83505544Y-57352216D01*
X83604147Y-57204646D01*
X83729646Y-57079147D01*
X83877216Y-56980544D01*
X84041188Y-56912624D01*
X84190488Y-56882927D01*
X84215258Y-56878000D01*
X84392742Y-56878000D01*
X84417512Y-56882927D01*
X84417512Y-56882927D01*
G37*
G36*
X81877512Y-56882927D02*
G01*
X82026812Y-56912624D01*
X82190784Y-56980544D01*
X82338354Y-57079147D01*
X82463853Y-57204646D01*
X82562456Y-57352216D01*
X82630376Y-57516188D01*
X82665000Y-57690259D01*
X82665000Y-57867741D01*
X82630376Y-58041812D01*
X82562456Y-58205784D01*
X82463853Y-58353354D01*
X82338354Y-58478853D01*
X82190784Y-58577456D01*
X82026812Y-58645376D01*
X81877512Y-58675073D01*
X81852742Y-58680000D01*
X81675258Y-58680000D01*
X81650488Y-58675073D01*
X81501188Y-58645376D01*
X81337216Y-58577456D01*
X81189646Y-58478853D01*
X81064147Y-58353354D01*
X80965544Y-58205784D01*
X80897624Y-58041812D01*
X80863000Y-57867741D01*
X80863000Y-57690259D01*
X80897624Y-57516188D01*
X80965544Y-57352216D01*
X81064147Y-57204646D01*
X81189646Y-57079147D01*
X81337216Y-56980544D01*
X81501188Y-56912624D01*
X81650488Y-56882927D01*
X81675258Y-56878000D01*
X81852742Y-56878000D01*
X81877512Y-56882927D01*
X81877512Y-56882927D01*
G37*
G36*
X110361000Y-58571000D02*
G01*
X108559000Y-58571000D01*
X108559000Y-56769000D01*
X110361000Y-56769000D01*
X110361000Y-58571000D01*
X110361000Y-58571000D01*
G37*
G36*
X88161000Y-58331000D02*
G01*
X87059000Y-58331000D01*
X87059000Y-57229000D01*
X88161000Y-57229000D01*
X88161000Y-58331000D01*
X88161000Y-58331000D01*
G37*
G36*
X78181000Y-58001000D02*
G01*
X76879000Y-58001000D01*
X76879000Y-56999000D01*
X78181000Y-56999000D01*
X78181000Y-58001000D01*
X78181000Y-58001000D01*
G37*
G36*
X54104780Y-49459566D02*
G01*
X54404237Y-49519131D01*
X54968401Y-49752815D01*
X55476135Y-50092072D01*
X55907928Y-50523865D01*
X56247185Y-51031599D01*
X56480869Y-51595763D01*
X56540435Y-51895220D01*
X56600000Y-52194675D01*
X56600000Y-52805325D01*
X56540434Y-53104780D01*
X56480869Y-53404237D01*
X56247185Y-53968401D01*
X55907928Y-54476135D01*
X55476135Y-54907928D01*
X54968401Y-55247185D01*
X54404237Y-55480869D01*
X54104780Y-55540434D01*
X53805325Y-55600000D01*
X53194675Y-55600000D01*
X52895220Y-55540434D01*
X52595763Y-55480869D01*
X52031599Y-55247185D01*
X51523865Y-54907928D01*
X51092072Y-54476135D01*
X50752815Y-53968401D01*
X50519131Y-53404237D01*
X50459566Y-53104780D01*
X50400000Y-52805325D01*
X50400000Y-52194675D01*
X50459565Y-51895220D01*
X50519131Y-51595763D01*
X50752815Y-51031599D01*
X51092072Y-50523865D01*
X51523865Y-50092072D01*
X52031599Y-49752815D01*
X52595763Y-49519131D01*
X52895220Y-49459566D01*
X53194675Y-49400000D01*
X53805325Y-49400000D01*
X54104780Y-49459566D01*
X54104780Y-49459566D01*
G37*
G36*
X112204780Y-49459566D02*
G01*
X112504237Y-49519131D01*
X113068401Y-49752815D01*
X113576135Y-50092072D01*
X114007928Y-50523865D01*
X114347185Y-51031599D01*
X114580869Y-51595763D01*
X114640434Y-51895220D01*
X114700000Y-52194675D01*
X114700000Y-52805325D01*
X114640434Y-53104780D01*
X114580869Y-53404237D01*
X114347185Y-53968401D01*
X114007928Y-54476135D01*
X113576135Y-54907928D01*
X113068401Y-55247185D01*
X112504237Y-55480869D01*
X112204780Y-55540434D01*
X111905325Y-55600000D01*
X111294675Y-55600000D01*
X110995220Y-55540434D01*
X110695763Y-55480869D01*
X110131599Y-55247185D01*
X109623865Y-54907928D01*
X109192072Y-54476135D01*
X108852815Y-53968401D01*
X108619131Y-53404237D01*
X108559566Y-53104780D01*
X108500000Y-52805325D01*
X108500000Y-52194675D01*
X108559566Y-51895220D01*
X108619131Y-51595763D01*
X108852815Y-51031599D01*
X109192072Y-50523865D01*
X109623865Y-50092072D01*
X110131599Y-49752815D01*
X110695763Y-49519131D01*
X110995220Y-49459566D01*
X111294675Y-49400000D01*
X111905325Y-49400000D01*
X112204780Y-49459566D01*
X112204780Y-49459566D01*
G37*
G36*
X61050443Y-52905519D02*
G01*
X61116627Y-52912037D01*
X61286466Y-52963557D01*
X61442991Y-53047222D01*
X61478729Y-53076552D01*
X61580186Y-53159814D01*
X61663448Y-53261271D01*
X61692778Y-53297009D01*
X61776443Y-53453534D01*
X61827963Y-53623373D01*
X61845359Y-53800000D01*
X61827963Y-53976627D01*
X61776443Y-54146466D01*
X61692778Y-54302991D01*
X61663448Y-54338729D01*
X61580186Y-54440186D01*
X61478729Y-54523448D01*
X61442991Y-54552778D01*
X61286466Y-54636443D01*
X61116627Y-54687963D01*
X61050443Y-54694481D01*
X60984260Y-54701000D01*
X60895740Y-54701000D01*
X60829557Y-54694481D01*
X60763373Y-54687963D01*
X60593534Y-54636443D01*
X60437009Y-54552778D01*
X60401271Y-54523448D01*
X60299814Y-54440186D01*
X60216552Y-54338729D01*
X60187222Y-54302991D01*
X60103557Y-54146466D01*
X60052037Y-53976627D01*
X60034641Y-53800000D01*
X60052037Y-53623373D01*
X60103557Y-53453534D01*
X60187222Y-53297009D01*
X60216552Y-53261271D01*
X60299814Y-53159814D01*
X60401271Y-53076552D01*
X60437009Y-53047222D01*
X60593534Y-52963557D01*
X60763373Y-52912037D01*
X60829557Y-52905519D01*
X60895740Y-52899000D01*
X60984260Y-52899000D01*
X61050443Y-52905519D01*
X61050443Y-52905519D01*
G37*
G36*
X63590443Y-52905519D02*
G01*
X63656627Y-52912037D01*
X63826466Y-52963557D01*
X63982991Y-53047222D01*
X64018729Y-53076552D01*
X64120186Y-53159814D01*
X64203448Y-53261271D01*
X64232778Y-53297009D01*
X64316443Y-53453534D01*
X64367963Y-53623373D01*
X64385359Y-53800000D01*
X64367963Y-53976627D01*
X64316443Y-54146466D01*
X64232778Y-54302991D01*
X64203448Y-54338729D01*
X64120186Y-54440186D01*
X64018729Y-54523448D01*
X63982991Y-54552778D01*
X63826466Y-54636443D01*
X63656627Y-54687963D01*
X63590443Y-54694481D01*
X63524260Y-54701000D01*
X63435740Y-54701000D01*
X63369557Y-54694481D01*
X63303373Y-54687963D01*
X63133534Y-54636443D01*
X62977009Y-54552778D01*
X62941271Y-54523448D01*
X62839814Y-54440186D01*
X62756552Y-54338729D01*
X62727222Y-54302991D01*
X62643557Y-54146466D01*
X62592037Y-53976627D01*
X62574641Y-53800000D01*
X62592037Y-53623373D01*
X62643557Y-53453534D01*
X62727222Y-53297009D01*
X62756552Y-53261271D01*
X62839814Y-53159814D01*
X62941271Y-53076552D01*
X62977009Y-53047222D01*
X63133534Y-52963557D01*
X63303373Y-52912037D01*
X63369557Y-52905519D01*
X63435740Y-52899000D01*
X63524260Y-52899000D01*
X63590443Y-52905519D01*
X63590443Y-52905519D01*
G37*
G36*
X66130443Y-52905519D02*
G01*
X66196627Y-52912037D01*
X66366466Y-52963557D01*
X66522991Y-53047222D01*
X66558729Y-53076552D01*
X66660186Y-53159814D01*
X66743448Y-53261271D01*
X66772778Y-53297009D01*
X66856443Y-53453534D01*
X66907963Y-53623373D01*
X66925359Y-53800000D01*
X66907963Y-53976627D01*
X66856443Y-54146466D01*
X66772778Y-54302991D01*
X66743448Y-54338729D01*
X66660186Y-54440186D01*
X66558729Y-54523448D01*
X66522991Y-54552778D01*
X66366466Y-54636443D01*
X66196627Y-54687963D01*
X66130443Y-54694481D01*
X66064260Y-54701000D01*
X65975740Y-54701000D01*
X65909557Y-54694481D01*
X65843373Y-54687963D01*
X65673534Y-54636443D01*
X65517009Y-54552778D01*
X65481271Y-54523448D01*
X65379814Y-54440186D01*
X65296552Y-54338729D01*
X65267222Y-54302991D01*
X65183557Y-54146466D01*
X65132037Y-53976627D01*
X65114641Y-53800000D01*
X65132037Y-53623373D01*
X65183557Y-53453534D01*
X65267222Y-53297009D01*
X65296552Y-53261271D01*
X65379814Y-53159814D01*
X65481271Y-53076552D01*
X65517009Y-53047222D01*
X65673534Y-52963557D01*
X65843373Y-52912037D01*
X65909557Y-52905519D01*
X65975740Y-52899000D01*
X66064260Y-52899000D01*
X66130443Y-52905519D01*
X66130443Y-52905519D01*
G37*
G36*
X68670443Y-52905519D02*
G01*
X68736627Y-52912037D01*
X68906466Y-52963557D01*
X69062991Y-53047222D01*
X69098729Y-53076552D01*
X69200186Y-53159814D01*
X69283448Y-53261271D01*
X69312778Y-53297009D01*
X69396443Y-53453534D01*
X69447963Y-53623373D01*
X69465359Y-53800000D01*
X69447963Y-53976627D01*
X69396443Y-54146466D01*
X69312778Y-54302991D01*
X69283448Y-54338729D01*
X69200186Y-54440186D01*
X69098729Y-54523448D01*
X69062991Y-54552778D01*
X68906466Y-54636443D01*
X68736627Y-54687963D01*
X68670443Y-54694481D01*
X68604260Y-54701000D01*
X68515740Y-54701000D01*
X68449557Y-54694481D01*
X68383373Y-54687963D01*
X68213534Y-54636443D01*
X68057009Y-54552778D01*
X68021271Y-54523448D01*
X67919814Y-54440186D01*
X67836552Y-54338729D01*
X67807222Y-54302991D01*
X67723557Y-54146466D01*
X67672037Y-53976627D01*
X67654641Y-53800000D01*
X67672037Y-53623373D01*
X67723557Y-53453534D01*
X67807222Y-53297009D01*
X67836552Y-53261271D01*
X67919814Y-53159814D01*
X68021271Y-53076552D01*
X68057009Y-53047222D01*
X68213534Y-52963557D01*
X68383373Y-52912037D01*
X68449557Y-52905519D01*
X68515740Y-52899000D01*
X68604260Y-52899000D01*
X68670443Y-52905519D01*
X68670443Y-52905519D01*
G37*
G36*
X71210443Y-52905519D02*
G01*
X71276627Y-52912037D01*
X71446466Y-52963557D01*
X71602991Y-53047222D01*
X71638729Y-53076552D01*
X71740186Y-53159814D01*
X71823448Y-53261271D01*
X71852778Y-53297009D01*
X71936443Y-53453534D01*
X71987963Y-53623373D01*
X72005359Y-53800000D01*
X71987963Y-53976627D01*
X71936443Y-54146466D01*
X71852778Y-54302991D01*
X71823448Y-54338729D01*
X71740186Y-54440186D01*
X71638729Y-54523448D01*
X71602991Y-54552778D01*
X71446466Y-54636443D01*
X71276627Y-54687963D01*
X71210443Y-54694481D01*
X71144260Y-54701000D01*
X71055740Y-54701000D01*
X70989557Y-54694481D01*
X70923373Y-54687963D01*
X70753534Y-54636443D01*
X70597009Y-54552778D01*
X70561271Y-54523448D01*
X70459814Y-54440186D01*
X70376552Y-54338729D01*
X70347222Y-54302991D01*
X70263557Y-54146466D01*
X70212037Y-53976627D01*
X70194641Y-53800000D01*
X70212037Y-53623373D01*
X70263557Y-53453534D01*
X70347222Y-53297009D01*
X70376552Y-53261271D01*
X70459814Y-53159814D01*
X70561271Y-53076552D01*
X70597009Y-53047222D01*
X70753534Y-52963557D01*
X70923373Y-52912037D01*
X70989557Y-52905519D01*
X71055740Y-52899000D01*
X71144260Y-52899000D01*
X71210443Y-52905519D01*
X71210443Y-52905519D01*
G37*
G36*
X73750443Y-52905519D02*
G01*
X73816627Y-52912037D01*
X73986466Y-52963557D01*
X74142991Y-53047222D01*
X74178729Y-53076552D01*
X74280186Y-53159814D01*
X74363448Y-53261271D01*
X74392778Y-53297009D01*
X74476443Y-53453534D01*
X74527963Y-53623373D01*
X74545359Y-53800000D01*
X74527963Y-53976627D01*
X74476443Y-54146466D01*
X74392778Y-54302991D01*
X74363448Y-54338729D01*
X74280186Y-54440186D01*
X74178729Y-54523448D01*
X74142991Y-54552778D01*
X73986466Y-54636443D01*
X73816627Y-54687963D01*
X73750443Y-54694481D01*
X73684260Y-54701000D01*
X73595740Y-54701000D01*
X73529557Y-54694481D01*
X73463373Y-54687963D01*
X73293534Y-54636443D01*
X73137009Y-54552778D01*
X73101271Y-54523448D01*
X72999814Y-54440186D01*
X72916552Y-54338729D01*
X72887222Y-54302991D01*
X72803557Y-54146466D01*
X72752037Y-53976627D01*
X72734641Y-53800000D01*
X72752037Y-53623373D01*
X72803557Y-53453534D01*
X72887222Y-53297009D01*
X72916552Y-53261271D01*
X72999814Y-53159814D01*
X73101271Y-53076552D01*
X73137009Y-53047222D01*
X73293534Y-52963557D01*
X73463373Y-52912037D01*
X73529557Y-52905519D01*
X73595740Y-52899000D01*
X73684260Y-52899000D01*
X73750443Y-52905519D01*
X73750443Y-52905519D01*
G37*
G36*
X76290443Y-52905519D02*
G01*
X76356627Y-52912037D01*
X76526466Y-52963557D01*
X76682991Y-53047222D01*
X76718729Y-53076552D01*
X76820186Y-53159814D01*
X76903448Y-53261271D01*
X76932778Y-53297009D01*
X77016443Y-53453534D01*
X77067963Y-53623373D01*
X77085359Y-53800000D01*
X77067963Y-53976627D01*
X77016443Y-54146466D01*
X76932778Y-54302991D01*
X76903448Y-54338729D01*
X76820186Y-54440186D01*
X76718729Y-54523448D01*
X76682991Y-54552778D01*
X76526466Y-54636443D01*
X76356627Y-54687963D01*
X76290443Y-54694481D01*
X76224260Y-54701000D01*
X76135740Y-54701000D01*
X76069557Y-54694481D01*
X76003373Y-54687963D01*
X75833534Y-54636443D01*
X75677009Y-54552778D01*
X75641271Y-54523448D01*
X75539814Y-54440186D01*
X75456552Y-54338729D01*
X75427222Y-54302991D01*
X75343557Y-54146466D01*
X75292037Y-53976627D01*
X75274641Y-53800000D01*
X75292037Y-53623373D01*
X75343557Y-53453534D01*
X75427222Y-53297009D01*
X75456552Y-53261271D01*
X75539814Y-53159814D01*
X75641271Y-53076552D01*
X75677009Y-53047222D01*
X75833534Y-52963557D01*
X76003373Y-52912037D01*
X76069557Y-52905519D01*
X76135740Y-52899000D01*
X76224260Y-52899000D01*
X76290443Y-52905519D01*
X76290443Y-52905519D01*
G37*
G36*
X78830443Y-52905519D02*
G01*
X78896627Y-52912037D01*
X79066466Y-52963557D01*
X79222991Y-53047222D01*
X79258729Y-53076552D01*
X79360186Y-53159814D01*
X79443448Y-53261271D01*
X79472778Y-53297009D01*
X79556443Y-53453534D01*
X79607963Y-53623373D01*
X79625359Y-53800000D01*
X79607963Y-53976627D01*
X79556443Y-54146466D01*
X79472778Y-54302991D01*
X79443448Y-54338729D01*
X79360186Y-54440186D01*
X79258729Y-54523448D01*
X79222991Y-54552778D01*
X79066466Y-54636443D01*
X78896627Y-54687963D01*
X78830443Y-54694481D01*
X78764260Y-54701000D01*
X78675740Y-54701000D01*
X78609557Y-54694481D01*
X78543373Y-54687963D01*
X78373534Y-54636443D01*
X78217009Y-54552778D01*
X78181271Y-54523448D01*
X78079814Y-54440186D01*
X77996552Y-54338729D01*
X77967222Y-54302991D01*
X77883557Y-54146466D01*
X77832037Y-53976627D01*
X77814641Y-53800000D01*
X77832037Y-53623373D01*
X77883557Y-53453534D01*
X77967222Y-53297009D01*
X77996552Y-53261271D01*
X78079814Y-53159814D01*
X78181271Y-53076552D01*
X78217009Y-53047222D01*
X78373534Y-52963557D01*
X78543373Y-52912037D01*
X78609557Y-52905519D01*
X78675740Y-52899000D01*
X78764260Y-52899000D01*
X78830443Y-52905519D01*
X78830443Y-52905519D01*
G37*
G36*
X81370443Y-52905519D02*
G01*
X81436627Y-52912037D01*
X81606466Y-52963557D01*
X81762991Y-53047222D01*
X81798729Y-53076552D01*
X81900186Y-53159814D01*
X81983448Y-53261271D01*
X82012778Y-53297009D01*
X82096443Y-53453534D01*
X82147963Y-53623373D01*
X82165359Y-53800000D01*
X82147963Y-53976627D01*
X82096443Y-54146466D01*
X82012778Y-54302991D01*
X81983448Y-54338729D01*
X81900186Y-54440186D01*
X81798729Y-54523448D01*
X81762991Y-54552778D01*
X81606466Y-54636443D01*
X81436627Y-54687963D01*
X81370443Y-54694481D01*
X81304260Y-54701000D01*
X81215740Y-54701000D01*
X81149557Y-54694481D01*
X81083373Y-54687963D01*
X80913534Y-54636443D01*
X80757009Y-54552778D01*
X80721271Y-54523448D01*
X80619814Y-54440186D01*
X80536552Y-54338729D01*
X80507222Y-54302991D01*
X80423557Y-54146466D01*
X80372037Y-53976627D01*
X80354641Y-53800000D01*
X80372037Y-53623373D01*
X80423557Y-53453534D01*
X80507222Y-53297009D01*
X80536552Y-53261271D01*
X80619814Y-53159814D01*
X80721271Y-53076552D01*
X80757009Y-53047222D01*
X80913534Y-52963557D01*
X81083373Y-52912037D01*
X81149557Y-52905519D01*
X81215740Y-52899000D01*
X81304260Y-52899000D01*
X81370443Y-52905519D01*
X81370443Y-52905519D01*
G37*
G36*
X83910443Y-52905519D02*
G01*
X83976627Y-52912037D01*
X84146466Y-52963557D01*
X84302991Y-53047222D01*
X84338729Y-53076552D01*
X84440186Y-53159814D01*
X84523448Y-53261271D01*
X84552778Y-53297009D01*
X84636443Y-53453534D01*
X84687963Y-53623373D01*
X84705359Y-53800000D01*
X84687963Y-53976627D01*
X84636443Y-54146466D01*
X84552778Y-54302991D01*
X84523448Y-54338729D01*
X84440186Y-54440186D01*
X84338729Y-54523448D01*
X84302991Y-54552778D01*
X84146466Y-54636443D01*
X83976627Y-54687963D01*
X83910443Y-54694481D01*
X83844260Y-54701000D01*
X83755740Y-54701000D01*
X83689557Y-54694481D01*
X83623373Y-54687963D01*
X83453534Y-54636443D01*
X83297009Y-54552778D01*
X83261271Y-54523448D01*
X83159814Y-54440186D01*
X83076552Y-54338729D01*
X83047222Y-54302991D01*
X82963557Y-54146466D01*
X82912037Y-53976627D01*
X82894641Y-53800000D01*
X82912037Y-53623373D01*
X82963557Y-53453534D01*
X83047222Y-53297009D01*
X83076552Y-53261271D01*
X83159814Y-53159814D01*
X83261271Y-53076552D01*
X83297009Y-53047222D01*
X83453534Y-52963557D01*
X83623373Y-52912037D01*
X83689557Y-52905519D01*
X83755740Y-52899000D01*
X83844260Y-52899000D01*
X83910443Y-52905519D01*
X83910443Y-52905519D01*
G37*
G36*
X88990443Y-52905519D02*
G01*
X89056627Y-52912037D01*
X89226466Y-52963557D01*
X89382991Y-53047222D01*
X89418729Y-53076552D01*
X89520186Y-53159814D01*
X89603448Y-53261271D01*
X89632778Y-53297009D01*
X89716443Y-53453534D01*
X89767963Y-53623373D01*
X89785359Y-53800000D01*
X89767963Y-53976627D01*
X89716443Y-54146466D01*
X89632778Y-54302991D01*
X89603448Y-54338729D01*
X89520186Y-54440186D01*
X89418729Y-54523448D01*
X89382991Y-54552778D01*
X89226466Y-54636443D01*
X89056627Y-54687963D01*
X88990443Y-54694481D01*
X88924260Y-54701000D01*
X88835740Y-54701000D01*
X88769557Y-54694481D01*
X88703373Y-54687963D01*
X88533534Y-54636443D01*
X88377009Y-54552778D01*
X88341271Y-54523448D01*
X88239814Y-54440186D01*
X88156552Y-54338729D01*
X88127222Y-54302991D01*
X88043557Y-54146466D01*
X87992037Y-53976627D01*
X87974641Y-53800000D01*
X87992037Y-53623373D01*
X88043557Y-53453534D01*
X88127222Y-53297009D01*
X88156552Y-53261271D01*
X88239814Y-53159814D01*
X88341271Y-53076552D01*
X88377009Y-53047222D01*
X88533534Y-52963557D01*
X88703373Y-52912037D01*
X88769557Y-52905519D01*
X88835740Y-52899000D01*
X88924260Y-52899000D01*
X88990443Y-52905519D01*
X88990443Y-52905519D01*
G37*
G36*
X86450443Y-52905519D02*
G01*
X86516627Y-52912037D01*
X86686466Y-52963557D01*
X86842991Y-53047222D01*
X86878729Y-53076552D01*
X86980186Y-53159814D01*
X87063448Y-53261271D01*
X87092778Y-53297009D01*
X87176443Y-53453534D01*
X87227963Y-53623373D01*
X87245359Y-53800000D01*
X87227963Y-53976627D01*
X87176443Y-54146466D01*
X87092778Y-54302991D01*
X87063448Y-54338729D01*
X86980186Y-54440186D01*
X86878729Y-54523448D01*
X86842991Y-54552778D01*
X86686466Y-54636443D01*
X86516627Y-54687963D01*
X86450443Y-54694481D01*
X86384260Y-54701000D01*
X86295740Y-54701000D01*
X86229557Y-54694481D01*
X86163373Y-54687963D01*
X85993534Y-54636443D01*
X85837009Y-54552778D01*
X85801271Y-54523448D01*
X85699814Y-54440186D01*
X85616552Y-54338729D01*
X85587222Y-54302991D01*
X85503557Y-54146466D01*
X85452037Y-53976627D01*
X85434641Y-53800000D01*
X85452037Y-53623373D01*
X85503557Y-53453534D01*
X85587222Y-53297009D01*
X85616552Y-53261271D01*
X85699814Y-53159814D01*
X85801271Y-53076552D01*
X85837009Y-53047222D01*
X85993534Y-52963557D01*
X86163373Y-52912037D01*
X86229557Y-52905519D01*
X86295740Y-52899000D01*
X86384260Y-52899000D01*
X86450443Y-52905519D01*
X86450443Y-52905519D01*
G37*
G36*
X106770443Y-52905519D02*
G01*
X106836627Y-52912037D01*
X107006466Y-52963557D01*
X107162991Y-53047222D01*
X107198729Y-53076552D01*
X107300186Y-53159814D01*
X107383448Y-53261271D01*
X107412778Y-53297009D01*
X107496443Y-53453534D01*
X107547963Y-53623373D01*
X107565359Y-53800000D01*
X107547963Y-53976627D01*
X107496443Y-54146466D01*
X107412778Y-54302991D01*
X107383448Y-54338729D01*
X107300186Y-54440186D01*
X107198729Y-54523448D01*
X107162991Y-54552778D01*
X107006466Y-54636443D01*
X106836627Y-54687963D01*
X106770443Y-54694481D01*
X106704260Y-54701000D01*
X106615740Y-54701000D01*
X106549557Y-54694481D01*
X106483373Y-54687963D01*
X106313534Y-54636443D01*
X106157009Y-54552778D01*
X106121271Y-54523448D01*
X106019814Y-54440186D01*
X105936552Y-54338729D01*
X105907222Y-54302991D01*
X105823557Y-54146466D01*
X105772037Y-53976627D01*
X105754641Y-53800000D01*
X105772037Y-53623373D01*
X105823557Y-53453534D01*
X105907222Y-53297009D01*
X105936552Y-53261271D01*
X106019814Y-53159814D01*
X106121271Y-53076552D01*
X106157009Y-53047222D01*
X106313534Y-52963557D01*
X106483373Y-52912037D01*
X106549557Y-52905519D01*
X106615740Y-52899000D01*
X106704260Y-52899000D01*
X106770443Y-52905519D01*
X106770443Y-52905519D01*
G37*
G36*
X59301000Y-54701000D02*
G01*
X57499000Y-54701000D01*
X57499000Y-52899000D01*
X59301000Y-52899000D01*
X59301000Y-54701000D01*
X59301000Y-54701000D01*
G37*
G36*
X104230443Y-52905519D02*
G01*
X104296627Y-52912037D01*
X104466466Y-52963557D01*
X104622991Y-53047222D01*
X104658729Y-53076552D01*
X104760186Y-53159814D01*
X104843448Y-53261271D01*
X104872778Y-53297009D01*
X104956443Y-53453534D01*
X105007963Y-53623373D01*
X105025359Y-53800000D01*
X105007963Y-53976627D01*
X104956443Y-54146466D01*
X104872778Y-54302991D01*
X104843448Y-54338729D01*
X104760186Y-54440186D01*
X104658729Y-54523448D01*
X104622991Y-54552778D01*
X104466466Y-54636443D01*
X104296627Y-54687963D01*
X104230443Y-54694481D01*
X104164260Y-54701000D01*
X104075740Y-54701000D01*
X104009557Y-54694481D01*
X103943373Y-54687963D01*
X103773534Y-54636443D01*
X103617009Y-54552778D01*
X103581271Y-54523448D01*
X103479814Y-54440186D01*
X103396552Y-54338729D01*
X103367222Y-54302991D01*
X103283557Y-54146466D01*
X103232037Y-53976627D01*
X103214641Y-53800000D01*
X103232037Y-53623373D01*
X103283557Y-53453534D01*
X103367222Y-53297009D01*
X103396552Y-53261271D01*
X103479814Y-53159814D01*
X103581271Y-53076552D01*
X103617009Y-53047222D01*
X103773534Y-52963557D01*
X103943373Y-52912037D01*
X104009557Y-52905519D01*
X104075740Y-52899000D01*
X104164260Y-52899000D01*
X104230443Y-52905519D01*
X104230443Y-52905519D01*
G37*
G36*
X101690443Y-52905519D02*
G01*
X101756627Y-52912037D01*
X101926466Y-52963557D01*
X102082991Y-53047222D01*
X102118729Y-53076552D01*
X102220186Y-53159814D01*
X102303448Y-53261271D01*
X102332778Y-53297009D01*
X102416443Y-53453534D01*
X102467963Y-53623373D01*
X102485359Y-53800000D01*
X102467963Y-53976627D01*
X102416443Y-54146466D01*
X102332778Y-54302991D01*
X102303448Y-54338729D01*
X102220186Y-54440186D01*
X102118729Y-54523448D01*
X102082991Y-54552778D01*
X101926466Y-54636443D01*
X101756627Y-54687963D01*
X101690443Y-54694481D01*
X101624260Y-54701000D01*
X101535740Y-54701000D01*
X101469557Y-54694481D01*
X101403373Y-54687963D01*
X101233534Y-54636443D01*
X101077009Y-54552778D01*
X101041271Y-54523448D01*
X100939814Y-54440186D01*
X100856552Y-54338729D01*
X100827222Y-54302991D01*
X100743557Y-54146466D01*
X100692037Y-53976627D01*
X100674641Y-53800000D01*
X100692037Y-53623373D01*
X100743557Y-53453534D01*
X100827222Y-53297009D01*
X100856552Y-53261271D01*
X100939814Y-53159814D01*
X101041271Y-53076552D01*
X101077009Y-53047222D01*
X101233534Y-52963557D01*
X101403373Y-52912037D01*
X101469557Y-52905519D01*
X101535740Y-52899000D01*
X101624260Y-52899000D01*
X101690443Y-52905519D01*
X101690443Y-52905519D01*
G37*
G36*
X99150443Y-52905519D02*
G01*
X99216627Y-52912037D01*
X99386466Y-52963557D01*
X99542991Y-53047222D01*
X99578729Y-53076552D01*
X99680186Y-53159814D01*
X99763448Y-53261271D01*
X99792778Y-53297009D01*
X99876443Y-53453534D01*
X99927963Y-53623373D01*
X99945359Y-53800000D01*
X99927963Y-53976627D01*
X99876443Y-54146466D01*
X99792778Y-54302991D01*
X99763448Y-54338729D01*
X99680186Y-54440186D01*
X99578729Y-54523448D01*
X99542991Y-54552778D01*
X99386466Y-54636443D01*
X99216627Y-54687963D01*
X99150443Y-54694481D01*
X99084260Y-54701000D01*
X98995740Y-54701000D01*
X98929557Y-54694481D01*
X98863373Y-54687963D01*
X98693534Y-54636443D01*
X98537009Y-54552778D01*
X98501271Y-54523448D01*
X98399814Y-54440186D01*
X98316552Y-54338729D01*
X98287222Y-54302991D01*
X98203557Y-54146466D01*
X98152037Y-53976627D01*
X98134641Y-53800000D01*
X98152037Y-53623373D01*
X98203557Y-53453534D01*
X98287222Y-53297009D01*
X98316552Y-53261271D01*
X98399814Y-53159814D01*
X98501271Y-53076552D01*
X98537009Y-53047222D01*
X98693534Y-52963557D01*
X98863373Y-52912037D01*
X98929557Y-52905519D01*
X98995740Y-52899000D01*
X99084260Y-52899000D01*
X99150443Y-52905519D01*
X99150443Y-52905519D01*
G37*
G36*
X96610443Y-52905519D02*
G01*
X96676627Y-52912037D01*
X96846466Y-52963557D01*
X97002991Y-53047222D01*
X97038729Y-53076552D01*
X97140186Y-53159814D01*
X97223448Y-53261271D01*
X97252778Y-53297009D01*
X97336443Y-53453534D01*
X97387963Y-53623373D01*
X97405359Y-53800000D01*
X97387963Y-53976627D01*
X97336443Y-54146466D01*
X97252778Y-54302991D01*
X97223448Y-54338729D01*
X97140186Y-54440186D01*
X97038729Y-54523448D01*
X97002991Y-54552778D01*
X96846466Y-54636443D01*
X96676627Y-54687963D01*
X96610443Y-54694481D01*
X96544260Y-54701000D01*
X96455740Y-54701000D01*
X96389557Y-54694481D01*
X96323373Y-54687963D01*
X96153534Y-54636443D01*
X95997009Y-54552778D01*
X95961271Y-54523448D01*
X95859814Y-54440186D01*
X95776552Y-54338729D01*
X95747222Y-54302991D01*
X95663557Y-54146466D01*
X95612037Y-53976627D01*
X95594641Y-53800000D01*
X95612037Y-53623373D01*
X95663557Y-53453534D01*
X95747222Y-53297009D01*
X95776552Y-53261271D01*
X95859814Y-53159814D01*
X95961271Y-53076552D01*
X95997009Y-53047222D01*
X96153534Y-52963557D01*
X96323373Y-52912037D01*
X96389557Y-52905519D01*
X96455740Y-52899000D01*
X96544260Y-52899000D01*
X96610443Y-52905519D01*
X96610443Y-52905519D01*
G37*
G36*
X94070443Y-52905519D02*
G01*
X94136627Y-52912037D01*
X94306466Y-52963557D01*
X94462991Y-53047222D01*
X94498729Y-53076552D01*
X94600186Y-53159814D01*
X94683448Y-53261271D01*
X94712778Y-53297009D01*
X94796443Y-53453534D01*
X94847963Y-53623373D01*
X94865359Y-53800000D01*
X94847963Y-53976627D01*
X94796443Y-54146466D01*
X94712778Y-54302991D01*
X94683448Y-54338729D01*
X94600186Y-54440186D01*
X94498729Y-54523448D01*
X94462991Y-54552778D01*
X94306466Y-54636443D01*
X94136627Y-54687963D01*
X94070443Y-54694481D01*
X94004260Y-54701000D01*
X93915740Y-54701000D01*
X93849557Y-54694481D01*
X93783373Y-54687963D01*
X93613534Y-54636443D01*
X93457009Y-54552778D01*
X93421271Y-54523448D01*
X93319814Y-54440186D01*
X93236552Y-54338729D01*
X93207222Y-54302991D01*
X93123557Y-54146466D01*
X93072037Y-53976627D01*
X93054641Y-53800000D01*
X93072037Y-53623373D01*
X93123557Y-53453534D01*
X93207222Y-53297009D01*
X93236552Y-53261271D01*
X93319814Y-53159814D01*
X93421271Y-53076552D01*
X93457009Y-53047222D01*
X93613534Y-52963557D01*
X93783373Y-52912037D01*
X93849557Y-52905519D01*
X93915740Y-52899000D01*
X94004260Y-52899000D01*
X94070443Y-52905519D01*
X94070443Y-52905519D01*
G37*
G36*
X91530443Y-52905519D02*
G01*
X91596627Y-52912037D01*
X91766466Y-52963557D01*
X91922991Y-53047222D01*
X91958729Y-53076552D01*
X92060186Y-53159814D01*
X92143448Y-53261271D01*
X92172778Y-53297009D01*
X92256443Y-53453534D01*
X92307963Y-53623373D01*
X92325359Y-53800000D01*
X92307963Y-53976627D01*
X92256443Y-54146466D01*
X92172778Y-54302991D01*
X92143448Y-54338729D01*
X92060186Y-54440186D01*
X91958729Y-54523448D01*
X91922991Y-54552778D01*
X91766466Y-54636443D01*
X91596627Y-54687963D01*
X91530443Y-54694481D01*
X91464260Y-54701000D01*
X91375740Y-54701000D01*
X91309557Y-54694481D01*
X91243373Y-54687963D01*
X91073534Y-54636443D01*
X90917009Y-54552778D01*
X90881271Y-54523448D01*
X90779814Y-54440186D01*
X90696552Y-54338729D01*
X90667222Y-54302991D01*
X90583557Y-54146466D01*
X90532037Y-53976627D01*
X90514641Y-53800000D01*
X90532037Y-53623373D01*
X90583557Y-53453534D01*
X90667222Y-53297009D01*
X90696552Y-53261271D01*
X90779814Y-53159814D01*
X90881271Y-53076552D01*
X90917009Y-53047222D01*
X91073534Y-52963557D01*
X91243373Y-52912037D01*
X91309557Y-52905519D01*
X91375740Y-52899000D01*
X91464260Y-52899000D01*
X91530443Y-52905519D01*
X91530443Y-52905519D01*
G37*
G36*
X99150443Y-50365519D02*
G01*
X99216627Y-50372037D01*
X99386466Y-50423557D01*
X99542991Y-50507222D01*
X99578729Y-50536552D01*
X99680186Y-50619814D01*
X99763448Y-50721271D01*
X99792778Y-50757009D01*
X99876443Y-50913534D01*
X99927963Y-51083373D01*
X99945359Y-51260000D01*
X99927963Y-51436627D01*
X99876443Y-51606466D01*
X99792778Y-51762991D01*
X99763448Y-51798729D01*
X99680186Y-51900186D01*
X99578729Y-51983448D01*
X99542991Y-52012778D01*
X99386466Y-52096443D01*
X99216627Y-52147963D01*
X99150443Y-52154481D01*
X99084260Y-52161000D01*
X98995740Y-52161000D01*
X98929558Y-52154482D01*
X98863373Y-52147963D01*
X98693534Y-52096443D01*
X98537009Y-52012778D01*
X98501271Y-51983448D01*
X98399814Y-51900186D01*
X98316552Y-51798729D01*
X98287222Y-51762991D01*
X98203557Y-51606466D01*
X98152037Y-51436627D01*
X98134641Y-51260000D01*
X98152037Y-51083373D01*
X98203557Y-50913534D01*
X98287222Y-50757009D01*
X98316552Y-50721271D01*
X98399814Y-50619814D01*
X98501271Y-50536552D01*
X98537009Y-50507222D01*
X98693534Y-50423557D01*
X98863373Y-50372037D01*
X98929557Y-50365519D01*
X98995740Y-50359000D01*
X99084260Y-50359000D01*
X99150443Y-50365519D01*
X99150443Y-50365519D01*
G37*
G36*
X94070443Y-50365519D02*
G01*
X94136627Y-50372037D01*
X94306466Y-50423557D01*
X94462991Y-50507222D01*
X94498729Y-50536552D01*
X94600186Y-50619814D01*
X94683448Y-50721271D01*
X94712778Y-50757009D01*
X94796443Y-50913534D01*
X94847963Y-51083373D01*
X94865359Y-51260000D01*
X94847963Y-51436627D01*
X94796443Y-51606466D01*
X94712778Y-51762991D01*
X94683448Y-51798729D01*
X94600186Y-51900186D01*
X94498729Y-51983448D01*
X94462991Y-52012778D01*
X94306466Y-52096443D01*
X94136627Y-52147963D01*
X94070443Y-52154481D01*
X94004260Y-52161000D01*
X93915740Y-52161000D01*
X93849558Y-52154482D01*
X93783373Y-52147963D01*
X93613534Y-52096443D01*
X93457009Y-52012778D01*
X93421271Y-51983448D01*
X93319814Y-51900186D01*
X93236552Y-51798729D01*
X93207222Y-51762991D01*
X93123557Y-51606466D01*
X93072037Y-51436627D01*
X93054641Y-51260000D01*
X93072037Y-51083373D01*
X93123557Y-50913534D01*
X93207222Y-50757009D01*
X93236552Y-50721271D01*
X93319814Y-50619814D01*
X93421271Y-50536552D01*
X93457009Y-50507222D01*
X93613534Y-50423557D01*
X93783373Y-50372037D01*
X93849557Y-50365519D01*
X93915740Y-50359000D01*
X94004260Y-50359000D01*
X94070443Y-50365519D01*
X94070443Y-50365519D01*
G37*
G36*
X91530443Y-50365519D02*
G01*
X91596627Y-50372037D01*
X91766466Y-50423557D01*
X91922991Y-50507222D01*
X91958729Y-50536552D01*
X92060186Y-50619814D01*
X92143448Y-50721271D01*
X92172778Y-50757009D01*
X92256443Y-50913534D01*
X92307963Y-51083373D01*
X92325359Y-51260000D01*
X92307963Y-51436627D01*
X92256443Y-51606466D01*
X92172778Y-51762991D01*
X92143448Y-51798729D01*
X92060186Y-51900186D01*
X91958729Y-51983448D01*
X91922991Y-52012778D01*
X91766466Y-52096443D01*
X91596627Y-52147963D01*
X91530443Y-52154481D01*
X91464260Y-52161000D01*
X91375740Y-52161000D01*
X91309558Y-52154482D01*
X91243373Y-52147963D01*
X91073534Y-52096443D01*
X90917009Y-52012778D01*
X90881271Y-51983448D01*
X90779814Y-51900186D01*
X90696552Y-51798729D01*
X90667222Y-51762991D01*
X90583557Y-51606466D01*
X90532037Y-51436627D01*
X90514641Y-51260000D01*
X90532037Y-51083373D01*
X90583557Y-50913534D01*
X90667222Y-50757009D01*
X90696552Y-50721271D01*
X90779814Y-50619814D01*
X90881271Y-50536552D01*
X90917009Y-50507222D01*
X91073534Y-50423557D01*
X91243373Y-50372037D01*
X91309557Y-50365519D01*
X91375740Y-50359000D01*
X91464260Y-50359000D01*
X91530443Y-50365519D01*
X91530443Y-50365519D01*
G37*
G36*
X86450443Y-50365519D02*
G01*
X86516627Y-50372037D01*
X86686466Y-50423557D01*
X86842991Y-50507222D01*
X86878729Y-50536552D01*
X86980186Y-50619814D01*
X87063448Y-50721271D01*
X87092778Y-50757009D01*
X87176443Y-50913534D01*
X87227963Y-51083373D01*
X87245359Y-51260000D01*
X87227963Y-51436627D01*
X87176443Y-51606466D01*
X87092778Y-51762991D01*
X87063448Y-51798729D01*
X86980186Y-51900186D01*
X86878729Y-51983448D01*
X86842991Y-52012778D01*
X86686466Y-52096443D01*
X86516627Y-52147963D01*
X86450443Y-52154481D01*
X86384260Y-52161000D01*
X86295740Y-52161000D01*
X86229558Y-52154482D01*
X86163373Y-52147963D01*
X85993534Y-52096443D01*
X85837009Y-52012778D01*
X85801271Y-51983448D01*
X85699814Y-51900186D01*
X85616552Y-51798729D01*
X85587222Y-51762991D01*
X85503557Y-51606466D01*
X85452037Y-51436627D01*
X85434641Y-51260000D01*
X85452037Y-51083373D01*
X85503557Y-50913534D01*
X85587222Y-50757009D01*
X85616552Y-50721271D01*
X85699814Y-50619814D01*
X85801271Y-50536552D01*
X85837009Y-50507222D01*
X85993534Y-50423557D01*
X86163373Y-50372037D01*
X86229557Y-50365519D01*
X86295740Y-50359000D01*
X86384260Y-50359000D01*
X86450443Y-50365519D01*
X86450443Y-50365519D01*
G37*
G36*
X83910443Y-50365519D02*
G01*
X83976627Y-50372037D01*
X84146466Y-50423557D01*
X84302991Y-50507222D01*
X84338729Y-50536552D01*
X84440186Y-50619814D01*
X84523448Y-50721271D01*
X84552778Y-50757009D01*
X84636443Y-50913534D01*
X84687963Y-51083373D01*
X84705359Y-51260000D01*
X84687963Y-51436627D01*
X84636443Y-51606466D01*
X84552778Y-51762991D01*
X84523448Y-51798729D01*
X84440186Y-51900186D01*
X84338729Y-51983448D01*
X84302991Y-52012778D01*
X84146466Y-52096443D01*
X83976627Y-52147963D01*
X83910443Y-52154481D01*
X83844260Y-52161000D01*
X83755740Y-52161000D01*
X83689558Y-52154482D01*
X83623373Y-52147963D01*
X83453534Y-52096443D01*
X83297009Y-52012778D01*
X83261271Y-51983448D01*
X83159814Y-51900186D01*
X83076552Y-51798729D01*
X83047222Y-51762991D01*
X82963557Y-51606466D01*
X82912037Y-51436627D01*
X82894641Y-51260000D01*
X82912037Y-51083373D01*
X82963557Y-50913534D01*
X83047222Y-50757009D01*
X83076552Y-50721271D01*
X83159814Y-50619814D01*
X83261271Y-50536552D01*
X83297009Y-50507222D01*
X83453534Y-50423557D01*
X83623373Y-50372037D01*
X83689557Y-50365519D01*
X83755740Y-50359000D01*
X83844260Y-50359000D01*
X83910443Y-50365519D01*
X83910443Y-50365519D01*
G37*
G36*
X96610443Y-50365519D02*
G01*
X96676627Y-50372037D01*
X96846466Y-50423557D01*
X97002991Y-50507222D01*
X97038729Y-50536552D01*
X97140186Y-50619814D01*
X97223448Y-50721271D01*
X97252778Y-50757009D01*
X97336443Y-50913534D01*
X97387963Y-51083373D01*
X97405359Y-51260000D01*
X97387963Y-51436627D01*
X97336443Y-51606466D01*
X97252778Y-51762991D01*
X97223448Y-51798729D01*
X97140186Y-51900186D01*
X97038729Y-51983448D01*
X97002991Y-52012778D01*
X96846466Y-52096443D01*
X96676627Y-52147963D01*
X96610443Y-52154481D01*
X96544260Y-52161000D01*
X96455740Y-52161000D01*
X96389558Y-52154482D01*
X96323373Y-52147963D01*
X96153534Y-52096443D01*
X95997009Y-52012778D01*
X95961271Y-51983448D01*
X95859814Y-51900186D01*
X95776552Y-51798729D01*
X95747222Y-51762991D01*
X95663557Y-51606466D01*
X95612037Y-51436627D01*
X95594641Y-51260000D01*
X95612037Y-51083373D01*
X95663557Y-50913534D01*
X95747222Y-50757009D01*
X95776552Y-50721271D01*
X95859814Y-50619814D01*
X95961271Y-50536552D01*
X95997009Y-50507222D01*
X96153534Y-50423557D01*
X96323373Y-50372037D01*
X96389557Y-50365519D01*
X96455740Y-50359000D01*
X96544260Y-50359000D01*
X96610443Y-50365519D01*
X96610443Y-50365519D01*
G37*
G36*
X71210443Y-50365519D02*
G01*
X71276627Y-50372037D01*
X71446466Y-50423557D01*
X71602991Y-50507222D01*
X71638729Y-50536552D01*
X71740186Y-50619814D01*
X71823448Y-50721271D01*
X71852778Y-50757009D01*
X71936443Y-50913534D01*
X71987963Y-51083373D01*
X72005359Y-51260000D01*
X71987963Y-51436627D01*
X71936443Y-51606466D01*
X71852778Y-51762991D01*
X71823448Y-51798729D01*
X71740186Y-51900186D01*
X71638729Y-51983448D01*
X71602991Y-52012778D01*
X71446466Y-52096443D01*
X71276627Y-52147963D01*
X71210443Y-52154481D01*
X71144260Y-52161000D01*
X71055740Y-52161000D01*
X70989558Y-52154482D01*
X70923373Y-52147963D01*
X70753534Y-52096443D01*
X70597009Y-52012778D01*
X70561271Y-51983448D01*
X70459814Y-51900186D01*
X70376552Y-51798729D01*
X70347222Y-51762991D01*
X70263557Y-51606466D01*
X70212037Y-51436627D01*
X70194641Y-51260000D01*
X70212037Y-51083373D01*
X70263557Y-50913534D01*
X70347222Y-50757009D01*
X70376552Y-50721271D01*
X70459814Y-50619814D01*
X70561271Y-50536552D01*
X70597009Y-50507222D01*
X70753534Y-50423557D01*
X70923373Y-50372037D01*
X70989557Y-50365519D01*
X71055740Y-50359000D01*
X71144260Y-50359000D01*
X71210443Y-50365519D01*
X71210443Y-50365519D01*
G37*
G36*
X66130443Y-50365519D02*
G01*
X66196627Y-50372037D01*
X66366466Y-50423557D01*
X66522991Y-50507222D01*
X66558729Y-50536552D01*
X66660186Y-50619814D01*
X66743448Y-50721271D01*
X66772778Y-50757009D01*
X66856443Y-50913534D01*
X66907963Y-51083373D01*
X66925359Y-51260000D01*
X66907963Y-51436627D01*
X66856443Y-51606466D01*
X66772778Y-51762991D01*
X66743448Y-51798729D01*
X66660186Y-51900186D01*
X66558729Y-51983448D01*
X66522991Y-52012778D01*
X66366466Y-52096443D01*
X66196627Y-52147963D01*
X66130443Y-52154481D01*
X66064260Y-52161000D01*
X65975740Y-52161000D01*
X65909558Y-52154482D01*
X65843373Y-52147963D01*
X65673534Y-52096443D01*
X65517009Y-52012778D01*
X65481271Y-51983448D01*
X65379814Y-51900186D01*
X65296552Y-51798729D01*
X65267222Y-51762991D01*
X65183557Y-51606466D01*
X65132037Y-51436627D01*
X65114641Y-51260000D01*
X65132037Y-51083373D01*
X65183557Y-50913534D01*
X65267222Y-50757009D01*
X65296552Y-50721271D01*
X65379814Y-50619814D01*
X65481271Y-50536552D01*
X65517009Y-50507222D01*
X65673534Y-50423557D01*
X65843373Y-50372037D01*
X65909557Y-50365519D01*
X65975740Y-50359000D01*
X66064260Y-50359000D01*
X66130443Y-50365519D01*
X66130443Y-50365519D01*
G37*
G36*
X73750443Y-50365519D02*
G01*
X73816627Y-50372037D01*
X73986466Y-50423557D01*
X74142991Y-50507222D01*
X74178729Y-50536552D01*
X74280186Y-50619814D01*
X74363448Y-50721271D01*
X74392778Y-50757009D01*
X74476443Y-50913534D01*
X74527963Y-51083373D01*
X74545359Y-51260000D01*
X74527963Y-51436627D01*
X74476443Y-51606466D01*
X74392778Y-51762991D01*
X74363448Y-51798729D01*
X74280186Y-51900186D01*
X74178729Y-51983448D01*
X74142991Y-52012778D01*
X73986466Y-52096443D01*
X73816627Y-52147963D01*
X73750443Y-52154481D01*
X73684260Y-52161000D01*
X73595740Y-52161000D01*
X73529558Y-52154482D01*
X73463373Y-52147963D01*
X73293534Y-52096443D01*
X73137009Y-52012778D01*
X73101271Y-51983448D01*
X72999814Y-51900186D01*
X72916552Y-51798729D01*
X72887222Y-51762991D01*
X72803557Y-51606466D01*
X72752037Y-51436627D01*
X72734641Y-51260000D01*
X72752037Y-51083373D01*
X72803557Y-50913534D01*
X72887222Y-50757009D01*
X72916552Y-50721271D01*
X72999814Y-50619814D01*
X73101271Y-50536552D01*
X73137009Y-50507222D01*
X73293534Y-50423557D01*
X73463373Y-50372037D01*
X73529557Y-50365519D01*
X73595740Y-50359000D01*
X73684260Y-50359000D01*
X73750443Y-50365519D01*
X73750443Y-50365519D01*
G37*
G36*
X63590443Y-50365519D02*
G01*
X63656627Y-50372037D01*
X63826466Y-50423557D01*
X63982991Y-50507222D01*
X64018729Y-50536552D01*
X64120186Y-50619814D01*
X64203448Y-50721271D01*
X64232778Y-50757009D01*
X64316443Y-50913534D01*
X64367963Y-51083373D01*
X64385359Y-51260000D01*
X64367963Y-51436627D01*
X64316443Y-51606466D01*
X64232778Y-51762991D01*
X64203448Y-51798729D01*
X64120186Y-51900186D01*
X64018729Y-51983448D01*
X63982991Y-52012778D01*
X63826466Y-52096443D01*
X63656627Y-52147963D01*
X63590443Y-52154481D01*
X63524260Y-52161000D01*
X63435740Y-52161000D01*
X63369558Y-52154482D01*
X63303373Y-52147963D01*
X63133534Y-52096443D01*
X62977009Y-52012778D01*
X62941271Y-51983448D01*
X62839814Y-51900186D01*
X62756552Y-51798729D01*
X62727222Y-51762991D01*
X62643557Y-51606466D01*
X62592037Y-51436627D01*
X62574641Y-51260000D01*
X62592037Y-51083373D01*
X62643557Y-50913534D01*
X62727222Y-50757009D01*
X62756552Y-50721271D01*
X62839814Y-50619814D01*
X62941271Y-50536552D01*
X62977009Y-50507222D01*
X63133534Y-50423557D01*
X63303373Y-50372037D01*
X63369557Y-50365519D01*
X63435740Y-50359000D01*
X63524260Y-50359000D01*
X63590443Y-50365519D01*
X63590443Y-50365519D01*
G37*
G36*
X76290443Y-50365519D02*
G01*
X76356627Y-50372037D01*
X76526466Y-50423557D01*
X76682991Y-50507222D01*
X76718729Y-50536552D01*
X76820186Y-50619814D01*
X76903448Y-50721271D01*
X76932778Y-50757009D01*
X77016443Y-50913534D01*
X77067963Y-51083373D01*
X77085359Y-51260000D01*
X77067963Y-51436627D01*
X77016443Y-51606466D01*
X76932778Y-51762991D01*
X76903448Y-51798729D01*
X76820186Y-51900186D01*
X76718729Y-51983448D01*
X76682991Y-52012778D01*
X76526466Y-52096443D01*
X76356627Y-52147963D01*
X76290443Y-52154481D01*
X76224260Y-52161000D01*
X76135740Y-52161000D01*
X76069558Y-52154482D01*
X76003373Y-52147963D01*
X75833534Y-52096443D01*
X75677009Y-52012778D01*
X75641271Y-51983448D01*
X75539814Y-51900186D01*
X75456552Y-51798729D01*
X75427222Y-51762991D01*
X75343557Y-51606466D01*
X75292037Y-51436627D01*
X75274641Y-51260000D01*
X75292037Y-51083373D01*
X75343557Y-50913534D01*
X75427222Y-50757009D01*
X75456552Y-50721271D01*
X75539814Y-50619814D01*
X75641271Y-50536552D01*
X75677009Y-50507222D01*
X75833534Y-50423557D01*
X76003373Y-50372037D01*
X76069557Y-50365519D01*
X76135740Y-50359000D01*
X76224260Y-50359000D01*
X76290443Y-50365519D01*
X76290443Y-50365519D01*
G37*
G36*
X61050443Y-50365519D02*
G01*
X61116627Y-50372037D01*
X61286466Y-50423557D01*
X61442991Y-50507222D01*
X61478729Y-50536552D01*
X61580186Y-50619814D01*
X61663448Y-50721271D01*
X61692778Y-50757009D01*
X61776443Y-50913534D01*
X61827963Y-51083373D01*
X61845359Y-51260000D01*
X61827963Y-51436627D01*
X61776443Y-51606466D01*
X61692778Y-51762991D01*
X61663448Y-51798729D01*
X61580186Y-51900186D01*
X61478729Y-51983448D01*
X61442991Y-52012778D01*
X61286466Y-52096443D01*
X61116627Y-52147963D01*
X61050443Y-52154481D01*
X60984260Y-52161000D01*
X60895740Y-52161000D01*
X60829558Y-52154482D01*
X60763373Y-52147963D01*
X60593534Y-52096443D01*
X60437009Y-52012778D01*
X60401271Y-51983448D01*
X60299814Y-51900186D01*
X60216552Y-51798729D01*
X60187222Y-51762991D01*
X60103557Y-51606466D01*
X60052037Y-51436627D01*
X60034641Y-51260000D01*
X60052037Y-51083373D01*
X60103557Y-50913534D01*
X60187222Y-50757009D01*
X60216552Y-50721271D01*
X60299814Y-50619814D01*
X60401271Y-50536552D01*
X60437009Y-50507222D01*
X60593534Y-50423557D01*
X60763373Y-50372037D01*
X60829557Y-50365519D01*
X60895740Y-50359000D01*
X60984260Y-50359000D01*
X61050443Y-50365519D01*
X61050443Y-50365519D01*
G37*
G36*
X78830443Y-50365519D02*
G01*
X78896627Y-50372037D01*
X79066466Y-50423557D01*
X79222991Y-50507222D01*
X79258729Y-50536552D01*
X79360186Y-50619814D01*
X79443448Y-50721271D01*
X79472778Y-50757009D01*
X79556443Y-50913534D01*
X79607963Y-51083373D01*
X79625359Y-51260000D01*
X79607963Y-51436627D01*
X79556443Y-51606466D01*
X79472778Y-51762991D01*
X79443448Y-51798729D01*
X79360186Y-51900186D01*
X79258729Y-51983448D01*
X79222991Y-52012778D01*
X79066466Y-52096443D01*
X78896627Y-52147963D01*
X78830443Y-52154481D01*
X78764260Y-52161000D01*
X78675740Y-52161000D01*
X78609558Y-52154482D01*
X78543373Y-52147963D01*
X78373534Y-52096443D01*
X78217009Y-52012778D01*
X78181271Y-51983448D01*
X78079814Y-51900186D01*
X77996552Y-51798729D01*
X77967222Y-51762991D01*
X77883557Y-51606466D01*
X77832037Y-51436627D01*
X77814641Y-51260000D01*
X77832037Y-51083373D01*
X77883557Y-50913534D01*
X77967222Y-50757009D01*
X77996552Y-50721271D01*
X78079814Y-50619814D01*
X78181271Y-50536552D01*
X78217009Y-50507222D01*
X78373534Y-50423557D01*
X78543373Y-50372037D01*
X78609557Y-50365519D01*
X78675740Y-50359000D01*
X78764260Y-50359000D01*
X78830443Y-50365519D01*
X78830443Y-50365519D01*
G37*
G36*
X58510443Y-50365519D02*
G01*
X58576627Y-50372037D01*
X58746466Y-50423557D01*
X58902991Y-50507222D01*
X58938729Y-50536552D01*
X59040186Y-50619814D01*
X59123448Y-50721271D01*
X59152778Y-50757009D01*
X59236443Y-50913534D01*
X59287963Y-51083373D01*
X59305359Y-51260000D01*
X59287963Y-51436627D01*
X59236443Y-51606466D01*
X59152778Y-51762991D01*
X59123448Y-51798729D01*
X59040186Y-51900186D01*
X58938729Y-51983448D01*
X58902991Y-52012778D01*
X58746466Y-52096443D01*
X58576627Y-52147963D01*
X58510443Y-52154481D01*
X58444260Y-52161000D01*
X58355740Y-52161000D01*
X58289558Y-52154482D01*
X58223373Y-52147963D01*
X58053534Y-52096443D01*
X57897009Y-52012778D01*
X57861271Y-51983448D01*
X57759814Y-51900186D01*
X57676552Y-51798729D01*
X57647222Y-51762991D01*
X57563557Y-51606466D01*
X57512037Y-51436627D01*
X57494641Y-51260000D01*
X57512037Y-51083373D01*
X57563557Y-50913534D01*
X57647222Y-50757009D01*
X57676552Y-50721271D01*
X57759814Y-50619814D01*
X57861271Y-50536552D01*
X57897009Y-50507222D01*
X58053534Y-50423557D01*
X58223373Y-50372037D01*
X58289557Y-50365519D01*
X58355740Y-50359000D01*
X58444260Y-50359000D01*
X58510443Y-50365519D01*
X58510443Y-50365519D01*
G37*
G36*
X101690443Y-50365519D02*
G01*
X101756627Y-50372037D01*
X101926466Y-50423557D01*
X102082991Y-50507222D01*
X102118729Y-50536552D01*
X102220186Y-50619814D01*
X102303448Y-50721271D01*
X102332778Y-50757009D01*
X102416443Y-50913534D01*
X102467963Y-51083373D01*
X102485359Y-51260000D01*
X102467963Y-51436627D01*
X102416443Y-51606466D01*
X102332778Y-51762991D01*
X102303448Y-51798729D01*
X102220186Y-51900186D01*
X102118729Y-51983448D01*
X102082991Y-52012778D01*
X101926466Y-52096443D01*
X101756627Y-52147963D01*
X101690443Y-52154481D01*
X101624260Y-52161000D01*
X101535740Y-52161000D01*
X101469558Y-52154482D01*
X101403373Y-52147963D01*
X101233534Y-52096443D01*
X101077009Y-52012778D01*
X101041271Y-51983448D01*
X100939814Y-51900186D01*
X100856552Y-51798729D01*
X100827222Y-51762991D01*
X100743557Y-51606466D01*
X100692037Y-51436627D01*
X100674641Y-51260000D01*
X100692037Y-51083373D01*
X100743557Y-50913534D01*
X100827222Y-50757009D01*
X100856552Y-50721271D01*
X100939814Y-50619814D01*
X101041271Y-50536552D01*
X101077009Y-50507222D01*
X101233534Y-50423557D01*
X101403373Y-50372037D01*
X101469557Y-50365519D01*
X101535740Y-50359000D01*
X101624260Y-50359000D01*
X101690443Y-50365519D01*
X101690443Y-50365519D01*
G37*
G36*
X81370443Y-50365519D02*
G01*
X81436627Y-50372037D01*
X81606466Y-50423557D01*
X81762991Y-50507222D01*
X81798729Y-50536552D01*
X81900186Y-50619814D01*
X81983448Y-50721271D01*
X82012778Y-50757009D01*
X82096443Y-50913534D01*
X82147963Y-51083373D01*
X82165359Y-51260000D01*
X82147963Y-51436627D01*
X82096443Y-51606466D01*
X82012778Y-51762991D01*
X81983448Y-51798729D01*
X81900186Y-51900186D01*
X81798729Y-51983448D01*
X81762991Y-52012778D01*
X81606466Y-52096443D01*
X81436627Y-52147963D01*
X81370443Y-52154481D01*
X81304260Y-52161000D01*
X81215740Y-52161000D01*
X81149558Y-52154482D01*
X81083373Y-52147963D01*
X80913534Y-52096443D01*
X80757009Y-52012778D01*
X80721271Y-51983448D01*
X80619814Y-51900186D01*
X80536552Y-51798729D01*
X80507222Y-51762991D01*
X80423557Y-51606466D01*
X80372037Y-51436627D01*
X80354641Y-51260000D01*
X80372037Y-51083373D01*
X80423557Y-50913534D01*
X80507222Y-50757009D01*
X80536552Y-50721271D01*
X80619814Y-50619814D01*
X80721271Y-50536552D01*
X80757009Y-50507222D01*
X80913534Y-50423557D01*
X81083373Y-50372037D01*
X81149557Y-50365519D01*
X81215740Y-50359000D01*
X81304260Y-50359000D01*
X81370443Y-50365519D01*
X81370443Y-50365519D01*
G37*
G36*
X104230443Y-50365519D02*
G01*
X104296627Y-50372037D01*
X104466466Y-50423557D01*
X104622991Y-50507222D01*
X104658729Y-50536552D01*
X104760186Y-50619814D01*
X104843448Y-50721271D01*
X104872778Y-50757009D01*
X104956443Y-50913534D01*
X105007963Y-51083373D01*
X105025359Y-51260000D01*
X105007963Y-51436627D01*
X104956443Y-51606466D01*
X104872778Y-51762991D01*
X104843448Y-51798729D01*
X104760186Y-51900186D01*
X104658729Y-51983448D01*
X104622991Y-52012778D01*
X104466466Y-52096443D01*
X104296627Y-52147963D01*
X104230443Y-52154481D01*
X104164260Y-52161000D01*
X104075740Y-52161000D01*
X104009558Y-52154482D01*
X103943373Y-52147963D01*
X103773534Y-52096443D01*
X103617009Y-52012778D01*
X103581271Y-51983448D01*
X103479814Y-51900186D01*
X103396552Y-51798729D01*
X103367222Y-51762991D01*
X103283557Y-51606466D01*
X103232037Y-51436627D01*
X103214641Y-51260000D01*
X103232037Y-51083373D01*
X103283557Y-50913534D01*
X103367222Y-50757009D01*
X103396552Y-50721271D01*
X103479814Y-50619814D01*
X103581271Y-50536552D01*
X103617009Y-50507222D01*
X103773534Y-50423557D01*
X103943373Y-50372037D01*
X104009557Y-50365519D01*
X104075740Y-50359000D01*
X104164260Y-50359000D01*
X104230443Y-50365519D01*
X104230443Y-50365519D01*
G37*
G36*
X106770443Y-50365519D02*
G01*
X106836627Y-50372037D01*
X107006466Y-50423557D01*
X107162991Y-50507222D01*
X107198729Y-50536552D01*
X107300186Y-50619814D01*
X107383448Y-50721271D01*
X107412778Y-50757009D01*
X107496443Y-50913534D01*
X107547963Y-51083373D01*
X107565359Y-51260000D01*
X107547963Y-51436627D01*
X107496443Y-51606466D01*
X107412778Y-51762991D01*
X107383448Y-51798729D01*
X107300186Y-51900186D01*
X107198729Y-51983448D01*
X107162991Y-52012778D01*
X107006466Y-52096443D01*
X106836627Y-52147963D01*
X106770443Y-52154481D01*
X106704260Y-52161000D01*
X106615740Y-52161000D01*
X106549558Y-52154482D01*
X106483373Y-52147963D01*
X106313534Y-52096443D01*
X106157009Y-52012778D01*
X106121271Y-51983448D01*
X106019814Y-51900186D01*
X105936552Y-51798729D01*
X105907222Y-51762991D01*
X105823557Y-51606466D01*
X105772037Y-51436627D01*
X105754641Y-51260000D01*
X105772037Y-51083373D01*
X105823557Y-50913534D01*
X105907222Y-50757009D01*
X105936552Y-50721271D01*
X106019814Y-50619814D01*
X106121271Y-50536552D01*
X106157009Y-50507222D01*
X106313534Y-50423557D01*
X106483373Y-50372037D01*
X106549557Y-50365519D01*
X106615740Y-50359000D01*
X106704260Y-50359000D01*
X106770443Y-50365519D01*
X106770443Y-50365519D01*
G37*
G36*
X68670443Y-50365519D02*
G01*
X68736627Y-50372037D01*
X68906466Y-50423557D01*
X69062991Y-50507222D01*
X69098729Y-50536552D01*
X69200186Y-50619814D01*
X69283448Y-50721271D01*
X69312778Y-50757009D01*
X69396443Y-50913534D01*
X69447963Y-51083373D01*
X69465359Y-51260000D01*
X69447963Y-51436627D01*
X69396443Y-51606466D01*
X69312778Y-51762991D01*
X69283448Y-51798729D01*
X69200186Y-51900186D01*
X69098729Y-51983448D01*
X69062991Y-52012778D01*
X68906466Y-52096443D01*
X68736627Y-52147963D01*
X68670443Y-52154481D01*
X68604260Y-52161000D01*
X68515740Y-52161000D01*
X68449558Y-52154482D01*
X68383373Y-52147963D01*
X68213534Y-52096443D01*
X68057009Y-52012778D01*
X68021271Y-51983448D01*
X67919814Y-51900186D01*
X67836552Y-51798729D01*
X67807222Y-51762991D01*
X67723557Y-51606466D01*
X67672037Y-51436627D01*
X67654641Y-51260000D01*
X67672037Y-51083373D01*
X67723557Y-50913534D01*
X67807222Y-50757009D01*
X67836552Y-50721271D01*
X67919814Y-50619814D01*
X68021271Y-50536552D01*
X68057009Y-50507222D01*
X68213534Y-50423557D01*
X68383373Y-50372037D01*
X68449557Y-50365519D01*
X68515740Y-50359000D01*
X68604260Y-50359000D01*
X68670443Y-50365519D01*
X68670443Y-50365519D01*
G37*
G36*
X88990443Y-50365519D02*
G01*
X89056627Y-50372037D01*
X89226466Y-50423557D01*
X89382991Y-50507222D01*
X89418729Y-50536552D01*
X89520186Y-50619814D01*
X89603448Y-50721271D01*
X89632778Y-50757009D01*
X89716443Y-50913534D01*
X89767963Y-51083373D01*
X89785359Y-51260000D01*
X89767963Y-51436627D01*
X89716443Y-51606466D01*
X89632778Y-51762991D01*
X89603448Y-51798729D01*
X89520186Y-51900186D01*
X89418729Y-51983448D01*
X89382991Y-52012778D01*
X89226466Y-52096443D01*
X89056627Y-52147963D01*
X88990443Y-52154481D01*
X88924260Y-52161000D01*
X88835740Y-52161000D01*
X88769558Y-52154482D01*
X88703373Y-52147963D01*
X88533534Y-52096443D01*
X88377009Y-52012778D01*
X88341271Y-51983448D01*
X88239814Y-51900186D01*
X88156552Y-51798729D01*
X88127222Y-51762991D01*
X88043557Y-51606466D01*
X87992037Y-51436627D01*
X87974641Y-51260000D01*
X87992037Y-51083373D01*
X88043557Y-50913534D01*
X88127222Y-50757009D01*
X88156552Y-50721271D01*
X88239814Y-50619814D01*
X88341271Y-50536552D01*
X88377009Y-50507222D01*
X88533534Y-50423557D01*
X88703373Y-50372037D01*
X88769557Y-50365519D01*
X88835740Y-50359000D01*
X88924260Y-50359000D01*
X88990443Y-50365519D01*
X88990443Y-50365519D01*
G37*
M02*
